<?xml version="1.0" encoding="utf-8"?>
<!-- Generator: Adobe Illustrator 24.2.0, SVG Export Plug-In . SVG Version: 6.00 Build 0)  -->
<svg version="1.1" id="Layer_1" xmlns="http://www.w3.org/2000/svg" xmlns:xlink="http://www.w3.org/1999/xlink" x="0px" y="0px"
	 viewBox="0 0 44 44" style="enable-background:new 0 0 44 44;" xml:space="preserve">
<style type="text/css">
	.st0{fill-rule:evenodd;clip-rule:evenodd;}
</style>
<desc>Created with Sketch.</desc>
<g id="Page-1">
	<g id="bubbles">
		<path id="Combined-Shape" class="st0" d="M3.4,8.8c1.9,0,3.4-1.5,3.4-3.3S5.2,2.3,3.4,2.3S0,3.8,0,5.6S1.5,8.8,3.4,8.8z
			 M26.5,20.5c1.9,0,3.4-1.5,3.4-3.3c0-1.8-1.5-3.3-3.4-3.3c-1.9,0-3.4,1.5-3.4,3.3C23.1,19,24.6,20.5,26.5,20.5z M5.8,17.2
			c0.8,0,1.4-0.6,1.4-1.4s-0.6-1.4-1.4-1.4S4.3,15,4.3,15.8S5,17.2,5.8,17.2z M36.1,31.7c0.8,0,1.4-0.6,1.4-1.4s-0.6-1.4-1.4-1.4
			s-1.4,0.6-1.4,1.4S35.3,31.7,36.1,31.7z M14.4,42.4c0.8,0,1.4-0.6,1.4-1.4c0-0.8-0.6-1.4-1.4-1.4c-0.8,0-1.4,0.6-1.4,1.4
			C13,41.8,13.6,42.4,14.4,42.4z M41.4,7c0.8,0,1.4-0.6,1.4-1.4s-0.6-1.4-1.4-1.4c-0.8,0-1.4,0.6-1.4,1.4S40.6,7,41.4,7z M3.9,40.5
			c1.1,0,1.9-0.8,1.9-1.9s-0.9-1.9-1.9-1.9s-1.9,0.8-1.9,1.9S2.8,40.5,3.9,40.5z M17.3,10.2c1.1,0,1.9-0.8,1.9-1.9s-0.9-1.9-1.9-1.9
			s-1.9,0.8-1.9,1.9S16.3,10.2,17.3,10.2z M28.4,5.1c1.3,0,2.4-1,2.4-2.3s-1.1-2.3-2.4-2.3S26,1.5,26,2.8S27.1,5.1,28.4,5.1z
			 M25.5,33.1c1.1,0,1.9-0.8,1.9-1.9c0-1-0.9-1.9-1.9-1.9s-1.9,0.8-1.9,1.9C23.6,32.2,24.5,33.1,25.5,33.1z M39.5,43.3
			c1.3,0,2.4-1,2.4-2.3c0-1.3-1.1-2.3-2.4-2.3s-2.4,1-2.4,2.3C37.1,42.3,38.1,43.3,39.5,43.3z M13.5,29.8c1.3,0,2.4-1,2.4-2.3
			s-1.1-2.3-2.4-2.3c-1.3,0-2.4,1-2.4,2.3S12.2,29.8,13.5,29.8z M40.9,23.7c1.3,0,2.4-1,2.4-2.3c0-1.3-1.1-2.3-2.4-2.3
			s-2.4,1-2.4,2.3C38.5,22.7,39.6,23.7,40.9,23.7z M36.6,14c0.5,0,1-0.4,1-0.9s-0.4-0.9-1-0.9c-0.5,0-1,0.4-1,0.9S36.1,14,36.6,14z
			 M27,42.9c0.5,0,1-0.4,1-0.9S27.5,41,27,41c-0.5,0-1,0.4-1,0.9S26.4,42.9,27,42.9z M14.9,19.5c0.5,0,1-0.4,1-0.9s-0.4-0.9-1-0.9
			s-1,0.4-1,0.9S14.4,19.5,14.9,19.5z M3.9,28.4c0.5,0,1-0.4,1-0.9s-0.4-0.9-1-0.9s-1,0.4-1,0.9S3.3,28.4,3.9,28.4z"/>
	</g>
</g>
</svg>
