<?xml version="1.0" encoding="utf-8"?>
<!-- Generator: Adobe Illustrator 24.2.0, SVG Export Plug-In . SVG Version: 6.00 Build 0)  -->
<svg version="1.1" id="Layer_1" xmlns="http://www.w3.org/2000/svg" xmlns:xlink="http://www.w3.org/1999/xlink" x="0px" y="0px"
	 viewBox="0 0 44 44" style="enable-background:new 0 0 44 44;" xml:space="preserve">
<style type="text/css">
	.st0{fill-rule:evenodd;clip-rule:evenodd;}
</style>
<desc>Created with Sketch.</desc>
<g id="Page-1">
	<g id="glamorous">
		<path id="Combined-Shape" class="st0" d="M19.9,21.5h-3.1l4.7,4.7L19.9,21.5L19.9,21.5z M20.4,21.5h3.2L22,26.4L20.4,21.5
			L20.4,21.5z M24.1,21.5h3.1l-4.7,4.7L24.1,21.5L24.1,21.5z M16.1,21l1.9-1.9h0.4h7.5H26l0.1,0.1l1.8,1.8l0.3,0.3l-6,6L22,27.5
			l-6.2-6.2l0,0L16.1,21L16.1,21z M16.7,21l1.4-1.4l1.4,1.4H16.7L16.7,21z M20.6,21l1.4-1.4l1.4,1.4H20.6L20.6,21z M24.5,21l1.4-1.4
			l1.4,1.4H24.5L24.5,21z M22.6,19.6h2.7L24,20.9L22.6,19.6L22.6,19.6z M20,20.9l1.4-1.4h-2.7L20,20.9L20,20.9z M4.3,0L0.2,4.1
			L0,4.3V0H4.3L4.3,0z M1,0L0,3.1V0H1L1,0z M3.6,0l-3,3l1-3H3.6L3.6,0z M44,4.3L39.7,0H44V4.3L44,4.3z M40.4,0l3,3l-1-3H40.4z
			 M44,3.1L43,0h1V3.1L44,3.1z M0,39.8h3.9H4L4.1,40l1.8,1.8L6.2,42l-2,2H0V39.8L0,39.8z M0,42.3h1.6L1,44H0V42.3z M3.6,44l1.7-1.7
			H2.1L1.6,44H3.6z M0,40.4l1.4,1.4H0V40.4L0,40.4z M2.5,41.8l1.4-1.4l1.4,1.4H2.5z M0.6,40.3h2.7L2,41.7L0.6,40.3z M44,39.8h-3.6
			H40l-1.9,1.9l0,0L37.8,42l2,2H44V39.8z M40.4,44l-1.7-1.7h3.1l0.6,1.7H40.4z M44,42.3h-1.6L43,44h1V42.3z M38.7,41.8l1.4-1.4
			l1.4,1.4H38.7z M44,40.4l-1.4,1.4H44V40.4z M42,41.7l1.4-1.4h-2.7L42,41.7z M37.4,6.3l0.3,0.3l-8.3,8.3l-0.3-0.3L37.4,6.3z
			 M37.7,37.4l-0.3,0.3l-8.3-8.3l0.3-0.3L37.7,37.4z M6.6,37.7l-0.3-0.3l8.3-8.3l0.3,0.3L6.6,37.7z M6.3,6.6l0.3-0.3l8.3,8.3
			l-0.3,0.3L6.3,6.6z M0,20.8c0.5,0,1,0.4,1,1c0,0.5-0.4,1-1,1V20.8z M44,20.8c-0.5,0-1,0.4-1,1c0,0.5,0.4,1,1,1V20.8z M23,0
			c0,0.5-0.4,1-1,1s-1-0.4-1-1H23z M23,44c0-0.5-0.4-1-1-1s-1,0.4-1,1H23z"/>
	</g>
</g>
</svg>
