<?xml version="1.0" encoding="utf-8"?>
<!-- Generator: Adobe Illustrator 24.2.0, SVG Export Plug-In . SVG Version: 6.00 Build 0)  -->
<svg version="1.1" id="Layer_1" xmlns="http://www.w3.org/2000/svg" xmlns:xlink="http://www.w3.org/1999/xlink" x="0px" y="0px"
	 viewBox="0 0 44 44" style="enable-background:new 0 0 44 44;" xml:space="preserve">
<style type="text/css">
	.st0{fill-rule:evenodd;clip-rule:evenodd;}
</style>
<path class="st0" d="M14.7,14.7c0.2-0.2,0.3-0.4,0.3-0.7V0h-2v13H0v2h14C14.3,15,14.5,14.9,14.7,14.7L14.7,14.7L14.7,14.7z
	 M14.7,29.3c0.2,0.2,0.3,0.4,0.3,0.7v14h-2V31H0v-2h14C14.3,29,14.5,29.1,14.7,29.3L14.7,29.3z M29.3,29.3C29.1,29.5,29,29.7,29,30
	v14h2V31h13v-2H30C29.7,29,29.5,29.1,29.3,29.3L29.3,29.3L29.3,29.3z M31,13V0h-2v14c0,0.3,0.1,0.5,0.3,0.7c0.2,0.2,0.4,0.3,0.7,0.3
	h14v-2H31z M9,18c0-0.5,0.4-1,1-1h5c0.6,0,1,0.4,1,1s-0.4,1-1,1h-5C9.4,19,9,18.6,9,18z M9,26c0-0.5,0.4-1,1-1h5c0.6,0,1,0.4,1,1
	s-0.4,1-1,1h-5C9.4,27,9,26.6,9,26z M17,13c0-0.6,0.4-1,1-1s1,0.4,1,1v2c0,0.6-0.4,1-1,1s-1-0.4-1-1V13z M25,13c0-0.6,0.4-1,1-1
	s1,0.4,1,1v2c0,0.6-0.4,1-1,1s-1-0.4-1-1V13z M17,29c0-0.6,0.4-1,1-1s1,0.4,1,1v2c0,0.6-0.4,1-1,1s-1-0.4-1-1V29z M25,29
	c0-0.6,0.4-1,1-1s1,0.4,1,1v2c0,0.6-0.4,1-1,1s-1-0.4-1-1V29z M17,39c0-0.6,0.4-1,1-1s1,0.4,1,1v3c0,0.6-0.4,1-1,1s-1-0.4-1-1V39z
	 M25,39c0-0.6,0.4-1,1-1s1,0.4,1,1v3c0,0.6-0.4,1-1,1s-1-0.4-1-1V39z M17,2c0-0.6,0.4-1,1-1s1,0.4,1,1v3c0,0.6-0.4,1-1,1s-1-0.4-1-1
	V2z M25,2c0-0.6,0.4-1,1-1s1,0.4,1,1v3c0,0.6-0.4,1-1,1s-1-0.4-1-1V2z M21,43c0-0.6,0.4-1,1-1s1,0.4,1,1v1h-2V43z M21,9
	c0-0.6,0.4-1,1-1s1,0.4,1,1v5c0,0.6-0.4,1-1,1s-1-0.4-1-1V9z M33,2c0-0.6,0.4-1,1-1s1,0.4,1,1v4c0,0.6-0.4,1-1,1s-1-0.4-1-1V2z
	 M33,38c0-0.6,0.4-1,1-1s1,0.4,1,1v4c0,0.6-0.4,1-1,1s-1-0.4-1-1V38z M9,38c0-0.6,0.4-1,1-1s1,0.4,1,1v4c0,0.6-0.4,1-1,1s-1-0.4-1-1
	V38z M9,2c0-0.6,0.4-1,1-1s1,0.4,1,1v4c0,0.6-0.4,1-1,1S9,6.6,9,6V2z M21,0h2v1c0,0.6-0.4,1-1,1s-1-0.4-1-1V0z M21,30
	c0-0.6,0.4-1,1-1s1,0.4,1,1v5c0,0.6-0.4,1-1,1s-1-0.4-1-1V30z M28,18c0-0.5,0.5-1,1-1h5c0.6,0,1,0.4,1,1s-0.4,1-1,1h-5
	C28.4,19,28,18.6,28,18z M28,26c0-0.5,0.5-1,1-1h5c0.6,0,1,0.4,1,1s-0.4,1-1,1h-5C28.4,27,28,26.6,28,26z M14,23c0.6,0,1-0.4,1-1
	s-0.4-1-1-1s-1,0.4-1,1S13.4,23,14,23z M18,36c0.6,0,1-0.4,1-1s-0.4-1-1-1s-1,0.4-1,1S17.4,36,18,36z M26,36c0.6,0,1-0.4,1-1
	s-0.4-1-1-1s-1,0.4-1,1S25.4,36,26,36z M18,10c0.6,0,1-0.4,1-1s-0.4-1-1-1s-1,0.4-1,1S17.4,10,18,10z M26,10c0.6,0,1-0.4,1-1
	s-0.4-1-1-1s-1,0.4-1,1S25.4,10,26,10z M22,6c0.6,0,1-0.4,1-1s-0.4-1-1-1s-1,0.4-1,1S21.4,6,22,6z M22,40c0.6,0,1-0.4,1-1
	s-0.4-1-1-1s-1,0.4-1,1S21.4,40,22,40z M30,23c0.6,0,1-0.4,1-1s-0.4-1-1-1s-1,0.4-1,1S29.4,23,30,23z M38,17c-0.6,0-1,0.4-1,1
	s0.4,1,1,1c1.7,0,3,1.3,3,3s-1.3,3-3,3c-0.6,0-1,0.4-1,1s0.4,1,1,1c2.8,0,5-2.2,5-5S40.8,17,38,17z M6,17c0.6,0,1,0.4,1,1
	s-0.4,1-1,1c-1.7,0-3,1.3-3,3s1.3,3,3,3c0.6,0,1,0.4,1,1s-0.4,1-1,1c-2.8,0-5-2.2-5-5S3.2,17,6,17z M34,11c0.6,0,1-0.4,1-1
	s-0.4-1-1-1s-1,0.4-1,1S33.4,11,34,11z M34,35c0.6,0,1-0.4,1-1s-0.4-1-1-1s-1,0.4-1,1S33.4,35,34,35z M10,35c0.6,0,1-0.4,1-1
	s-0.4-1-1-1s-1,0.4-1,1S9.4,35,10,35z M10,11c0.6,0,1-0.4,1-1s-0.4-1-1-1s-1,0.4-1,1S9.4,11,10,11z M22,27c-2.8,0-5-2.2-5-5
	s2.2-5,5-5s5,2.2,5,5S24.8,27,22,27z M22,25c1.7,0,3-1.3,3-3s-1.3-3-3-3s-3,1.3-3,3S20.3,25,22,25z M40,7c-1.7,0-3-1.3-3-3
	s1.3-3,3-3s3,1.3,3,3S41.7,7,40,7z M40,5c0.6,0,1-0.4,1-1s-0.4-1-1-1s-1,0.4-1,1S39.4,5,40,5z M5,22c0-0.5,0.4-1,1-1h4
	c0.6,0,1,0.4,1,1s-0.4,1-1,1H6C5.4,23,5,22.6,5,22z M33,22c0-0.5,0.5-1,1-1h4c0.6,0,1,0.4,1,1s-0.4,1-1,1h-4C33.4,23,33,22.6,33,22z
	 M37,34c0-0.5,0.5-1,1-1h4c0.6,0,1,0.4,1,1s-0.4,1-1,1h-4C37.4,35,37,34.6,37,34z M1.5,34c0-0.5,0.5-1,1-1h4c0.6,0,1,0.4,1,1
	s-0.4,1-1,1h-4C1.9,35,1.5,34.6,1.5,34z M1.5,10c0-0.6,0.5-1,1-1h4c0.6,0,1,0.4,1,1s-0.4,1-1,1h-4C1.9,11,1.5,10.6,1.5,10z M37,10
	c0-0.6,0.5-1,1-1h4c0.6,0,1,0.4,1,1s-0.4,1-1,1h-4C37.4,11,37,10.6,37,10z M40,43c-1.7,0-3-1.3-3-3s1.3-3,3-3s3,1.3,3,3
	S41.7,43,40,43z M40,41c0.6,0,1-0.4,1-1s-0.4-1-1-1s-1,0.4-1,1S39.4,41,40,41z M4,43c-1.7,0-3-1.3-3-3s1.3-3,3-3s3,1.3,3,3
	S5.7,43,4,43z M4,41c0.6,0,1-0.4,1-1s-0.4-1-1-1s-1,0.4-1,1S3.4,41,4,41z M4,7C2.3,7,1,5.7,1,4s1.3-3,3-3s3,1.3,3,3S5.7,7,4,7z M4,5
	c0.6,0,1-0.4,1-1S4.6,3,4,3S3,3.4,3,4S3.4,5,4,5z M22,23c0.6,0,1-0.4,1-1s-0.4-1-1-1s-1,0.4-1,1S21.4,23,22,23z"/>
</svg>
