<?xml version="1.0" encoding="utf-8"?>
<!-- Generator: Adobe Illustrator 24.2.0, SVG Export Plug-In . SVG Version: 6.00 Build 0)  -->
<svg version="1.1" id="Layer_1" xmlns="http://www.w3.org/2000/svg" xmlns:xlink="http://www.w3.org/1999/xlink" x="0px" y="0px"
	 viewBox="0 0 44 44" style="enable-background:new 0 0 44 44;" xml:space="preserve">
<path d="M42.6,1.6c1,5.9-1.2,11.9-4.7,13.5c-1.1,0.5-2.3,0.5-3.5,0c-1-5.9,1.2-11.9,4.7-13.5C40.3,1.1,41.5,1.1,42.6,1.6L42.6,1.6z
	 M35.4,14.2c3.3,0.7,6.3-3.1,6.7-8.5c0.1-0.8,0.1-1.7,0-2.6L35.4,14.2z M37.8,3.7v5l3.8-6.4C40.3,2.1,38.9,2.5,37.8,3.7L37.8,3.7z
	 M36.6,5.2c-1.4,2.3-1.9,5.3-1.7,8.3l2.2-3.6V4.5C36.9,4.7,36.8,4.9,36.6,5.2z"/>
<path d="M44.9,18.1c1,5.9-1.2,11.9-4.7,13.5c-1.1,0.5-2.3,0.5-3.5,0c-1-5.9,1.2-11.9,4.7-13.5C42.6,17.6,43.8,17.6,44.9,18.1
	L44.9,18.1z M37.7,30.8c3.3,0.7,6.3-3.1,6.7-8.5c0.1-0.8,0.1-1.7,0-2.6L37.7,30.8z M40.1,20.2v5l3.8-6.4
	C42.7,18.6,41.3,19.1,40.1,20.2L40.1,20.2z M39,21.7C37.6,24,37,27.1,37.3,30l2.2-3.6V21C39.3,21.2,39.1,21.5,39,21.7z"/>
<path d="M32.4,36.4c1,5.9-1.2,11.9-4.7,13.5c-1.1,0.5-2.3,0.5-3.5,0c-1-5.9,1.2-11.9,4.7-13.5C30.1,35.9,31.3,35.9,32.4,36.4
	L32.4,36.4z M25.2,49.1c3.3,0.7,6.3-3.1,6.7-8.5c0.1-0.8,0.1-1.7,0-2.6L25.2,49.1z M27.6,38.5v5l3.8-6.4
	C30.2,36.9,28.8,37.4,27.6,38.5L27.6,38.5z M26.5,40c-1.4,2.3-1.9,5.3-1.7,8.3l2.2-3.6v-5.4C26.8,39.5,26.6,39.7,26.5,40z"/>
<path d="M28.7,17.8c1,5.9-1.2,11.9-4.7,13.5c-1.1,0.5-2.3,0.5-3.5,0c-1-5.9,1.2-11.9,4.7-13.5C26.4,17.3,27.6,17.3,28.7,17.8
	L28.7,17.8z M21.5,30.5c3.3,0.7,6.3-3.1,6.7-8.5c0.1-0.8,0.1-1.7,0-2.6L21.5,30.5z M23.9,20v5l3.8-6.4C26.5,18.4,25.1,18.8,23.9,20
	L23.9,20z M22.8,21.5c-1.4,2.3-1.9,5.3-1.7,8.3l2.2-3.6v-5.4C23.1,20.9,22.9,21.2,22.8,21.5z"/>
<path d="M15.9,35.7c1,5.9-1.2,11.9-4.7,13.5c-1.1,0.5-2.3,0.5-3.5,0c-1-5.9,1.2-11.9,4.7-13.5C13.6,35.2,14.8,35.2,15.9,35.7
	L15.9,35.7z M8.7,48.4c3.3,0.7,6.3-3.1,6.7-8.5c0.1-0.8,0.1-1.7,0-2.6L8.7,48.4z M11.1,37.9v5l3.8-6.4
	C13.7,36.3,12.3,36.7,11.1,37.9L11.1,37.9z M10,39.4c-1.4,2.3-1.9,5.3-1.7,8.3l2.2-3.6v-5.4C10.3,38.9,10.1,39.1,10,39.4z"/>
<path d="M12.9,18c1,5.9-1.2,11.9-4.7,13.5C7,32,5.8,32,4.7,31.5c-1-5.9,1.2-11.9,4.7-13.5C10.6,17.5,11.7,17.5,12.9,18L12.9,18z
	 M5.7,30.7c3.3,0.7,6.3-3.1,6.7-8.5c0.1-0.8,0.1-1.7,0-2.6L5.7,30.7z M8.1,20.1v5l3.8-6.4C10.6,18.5,9.2,18.9,8.1,20.1L8.1,20.1z
	 M6.9,21.6c-1.4,2.3-1.9,5.3-1.7,8.3l2.2-3.6v-5.4C7.2,21.1,7.1,21.3,6.9,21.6z"/>
<path d="M26.3,1.5c1,5.9-1.2,11.9-4.7,13.5c-1.1,0.5-2.3,0.5-3.5,0c-1-5.9,1.2-11.9,4.7-13.5C24,1,25.1,1,26.3,1.5L26.3,1.5z
	 M19.1,14.2c3.3,0.7,6.3-3.1,6.7-8.5c0.1-0.8,0.1-1.7,0-2.6L19.1,14.2z M21.5,3.6v5l3.8-6.4C24,2,22.6,2.5,21.5,3.6L21.5,3.6z
	 M20.3,5.1c-1.4,2.3-1.9,5.3-1.7,8.3l2.2-3.6V4.4C20.6,4.6,20.5,4.9,20.3,5.1z"/>
<path d="M10,1.6C11,7.4,8.9,13.5,5.3,15c-1.1,0.5-2.3,0.5-3.5,0C0.9,9.2,3,3.1,6.6,1.6C7.7,1.1,8.9,1.1,10,1.6L10,1.6z M2.8,14.2
	c3.3,0.7,6.3-3.1,6.7-8.5c0.1-0.8,0.1-1.7,0-2.6L2.8,14.2z M5.2,3.7v5l3.8-6.4C7.7,2.1,6.4,2.5,5.2,3.7L5.2,3.7z M4,5.2
	c-1.4,2.3-1.9,5.3-1.7,8.3l2.2-3.6V4.5C4.4,4.7,4.2,4.9,4,5.2z"/>
</svg>
