<?xml version="1.0" encoding="utf-8"?>
<!-- Generator: Adobe Illustrator 24.2.0, SVG Export Plug-In . SVG Version: 6.00 Build 0)  -->
<svg version="1.1" id="Layer_1" xmlns="http://www.w3.org/2000/svg" xmlns:xlink="http://www.w3.org/1999/xlink" x="0px" y="0px"
	 viewBox="0 0 44 44" style="enable-background:new 0 0 44 44;" xml:space="preserve">
<style type="text/css">
	.st0{fill-rule:evenodd;clip-rule:evenodd;}
</style>
<path class="st0" d="M31.3,22.7c0-2.7,2.2-4.9,4.9-4.9s4.9,2.2,4.9,4.9s-2.2,4.9-4.9,4.9c0,2.7-2.2,4.9-4.9,4.9s-4.9-2.2-4.9-4.9
	S28.6,22.7,31.3,22.7z M4.9,4.9C4.9,2.2,7,0,9.7,0s4.9,2.2,4.9,4.9s-2.2,4.9-4.9,4.9c0,2.7-2.2,4.9-4.9,4.9S0,12.4,0,9.7
	S2.2,4.9,4.9,4.9z M9.7,8.7c2.1,0,3.9-1.7,3.9-3.9S11.9,1,9.7,1S5.8,2.7,5.8,4.9S7.6,8.7,9.7,8.7z M36.1,26.6c2.1,0,3.9-1.7,3.9-3.9
	s-1.7-3.9-3.9-3.9s-3.9,1.7-3.9,3.9S34,26.6,36.1,26.6z M45.7,5.3c0-2.7,2.2-4.9,4.9-4.9s4.9,2.2,4.9,4.9s-2.2,4.9-4.9,4.9
	c0,2.7-2.2,4.9-4.9,4.9c-2.7,0-4.9-2.2-4.9-4.9S43.1,5.3,45.7,5.3z M50.6,9.2c2.1,0,3.9-1.7,3.9-3.9s-1.7-3.9-3.9-3.9
	s-3.9,1.7-3.9,3.9S48.5,9.2,50.6,9.2z M10.2,22.4c0-2.7,2.2-4.9,4.9-4.9s4.9,2.2,4.9,4.9s-2.2,4.9-4.9,4.9c0,2.7-2.2,4.9-4.9,4.9
	S5.4,30,5.4,27.3S7.5,22.4,10.2,22.4z M15.1,26.3c2.1,0,3.9-1.7,3.9-3.9s-1.7-3.9-3.9-3.9s-3.9,1.7-3.9,3.9S12.9,26.3,15.1,26.3z
	 M24.9,4.7c0-2.7,2.2-4.9,4.9-4.9s4.9,2.2,4.9,4.9s-2.2,4.9-4.9,4.9c0,2.7-2.2,4.9-4.9,4.9s-4.9-2.2-4.9-4.9S22.3,4.7,24.9,4.7z
	 M29.8,8.5c2.1,0,3.9-1.7,3.9-3.9s-1.7-3.9-3.9-3.9s-3.9,1.7-3.9,3.9S27.7,8.5,29.8,8.5z M-4.3,38c0-2.7,2.2-4.9,4.9-4.9
	s4.9,2.2,4.9,4.9c0,2.7-2.2,4.9-4.9,4.9c0,2.7-2.2,4.9-4.9,4.9s-4.9-2.2-4.9-4.9S-7,38-4.3,38z M0.5,41.9c2.1,0,3.9-1.7,3.9-3.9
	s-1.7-3.9-3.9-3.9s-3.9,1.7-3.9,3.9S-1.6,41.9,0.5,41.9z M17.4,38.1c0-2.7,2.2-4.9,4.9-4.9s4.9,2.2,4.9,4.9c0,2.7-2.2,4.9-4.9,4.9
	c0,2.7-2.2,4.9-4.9,4.9s-4.9-2.2-4.9-4.9C12.5,40.2,14.7,38.1,17.4,38.1z M22.3,41.9c2.1,0,3.9-1.7,3.9-3.9s-1.7-3.9-3.9-3.9
	s-3.9,1.7-3.9,3.9S20.1,41.9,22.3,41.9z M41.4,37.6c0-2.7,2.2-4.9,4.9-4.9s4.9,2.2,4.9,4.9c0,2.7-2.2,4.9-4.9,4.9
	c0,2.7-2.2,4.9-4.9,4.9c-2.7,0-4.9-2.2-4.9-4.9S38.7,37.6,41.4,37.6z M46.3,41.5c2.1,0,3.9-1.7,3.9-3.9s-1.7-3.9-3.9-3.9
	s-3.9,1.7-3.9,3.9S44.1,41.5,46.3,41.5z"/>
</svg>
