<?xml version="1.0" encoding="utf-8"?>
<!-- Generator: Adobe Illustrator 24.2.0, SVG Export Plug-In . SVG Version: 6.00 Build 0)  -->
<svg version="1.1" id="Layer_1" xmlns="http://www.w3.org/2000/svg" xmlns:xlink="http://www.w3.org/1999/xlink" x="0px" y="0px"
	 viewBox="0 0 44 44" style="enable-background:new 0 0 44 44;" xml:space="preserve">
<style type="text/css">
	.st0{fill-rule:evenodd;clip-rule:evenodd;}
</style>
<path class="st0" d="M38,36v-4h-2v4h-4v2h4v4h2v-4h4v-2H38z M38,6V2h-2v4h-4v2h4v4h2V8h4V6H38z M8,36v-4H6v4H2v2h4v4h2v-4h4v-2H8z
	 M8,6V2H6v4H2v2h4v4h2V8h4V6H8z M23,21v-4h-2v4h-4v2h4v4h2v-4h4v-2H23z"/>
</svg>
