<?xml version="1.0" encoding="utf-8"?>
<!-- Generator: Adobe Illustrator 24.2.0, SVG Export Plug-In . SVG Version: 6.00 Build 0)  -->
<svg version="1.1" id="Layer_1" xmlns="http://www.w3.org/2000/svg" xmlns:xlink="http://www.w3.org/1999/xlink" x="0px" y="0px"
	 viewBox="0 0 44 44" style="enable-background:new 0 0 44 44;" xml:space="preserve">
<style type="text/css">
	.st0{fill-rule:evenodd;clip-rule:evenodd;}
</style>
<path class="st0" d="M6.4,0l2.9,11.6H3.5L6.4,0z M30.7,17.9c1,0,1.7-0.8,1.7-1.7c0-1-0.8-1.7-1.7-1.7s-1.7,0.8-1.7,1.7
	C28.9,17.2,29.7,17.9,30.7,17.9z M0,41.7h23.2V44H0V41.7z M0,37.1h17.9v2.3H0V37.1z M11.6,27.8h11.6v2.3H11.6V27.8z M0,32.4h23.2
	v2.3H0V32.4z M36.5,17.9c1,0,1.7-0.8,1.7-1.7c0-1-0.8-1.7-1.7-1.7l0,0c-1,0-1.7,0.8-1.7,1.7C34.7,17.2,35.5,17.9,36.5,17.9z
	 M42.3,17.9c1,0,1.7-0.8,1.7-1.7c0-1-0.8-1.7-1.7-1.7c-1,0-1.7,0.8-1.7,1.7C40.5,17.2,41.3,17.9,42.3,17.9z M30.7,23.7
	c1,0,1.7-0.8,1.7-1.7s-0.8-1.7-1.7-1.7S28.9,21,28.9,22S29.7,23.7,30.7,23.7z M36.5,23.7c1,0,1.7-0.8,1.7-1.7s-0.8-1.7-1.7-1.7l0,0
	c-1,0-1.7,0.8-1.7,1.7S35.5,23.7,36.5,23.7z M42.3,23.7c1,0,1.7-0.8,1.7-1.7s-0.8-1.7-1.7-1.7c-1,0-1.7,0.8-1.7,1.7
	S41.3,23.7,42.3,23.7z M24.9,23.7c1,0,1.7-0.8,1.7-1.7s-0.8-1.7-1.7-1.7S23.2,21,23.2,22S23.9,23.7,24.9,23.7z M8.7,19.1
	c0-1.6-1.3-2.9-2.9-2.9s-2.9,1.3-2.9,2.9H8.7z M14.5,19.1c0,1.6-1.3,2.9-2.9,2.9s-2.9-1.3-2.9-2.9H14.5z M32.4,2.9
	c0-1.6-1.3-2.9-2.9-2.9s-2.9,1.3-2.9,2.9H32.4z M38.2,2.9c0,1.6-1.3,2.9-2.9,2.9c-1.6,0-2.9-1.3-2.9-2.9H38.2z M36.5,29.5
	c1,0,1.7-0.8,1.7-1.7s-0.8-1.7-1.7-1.7l0,0c-1,0-1.7,0.8-1.7,1.7S35.5,29.5,36.5,29.5z M42.3,29.5c1,0,1.7-0.8,1.7-1.7
	s-0.8-1.7-1.7-1.7c-1,0-1.7,0.8-1.7,1.7S41.3,29.5,42.3,29.5z M12.2,0l2.9,11.6H9.3L12.2,0z M37.1,37.1v-2.3h-2.3v2.3h-2.3v2.3h2.3
	v2.3h2.3v-2.3h2.3v-2.3H37.1z M20.8,7.5h2.3v2.3h-2.3V7.5z M23.2,9.8h2.3v2.3h-2.3V9.8z M20.8,12.2h2.3v2.3h-2.3V12.2z M25.5,7.5
	h2.3v2.3h-2.3V7.5z"/>
</svg>
