<?xml version="1.0" encoding="utf-8"?>
<!-- Generator: Adobe Illustrator 24.2.0, SVG Export Plug-In . SVG Version: 6.00 Build 0)  -->
<svg version="1.1" id="Layer_1" xmlns="http://www.w3.org/2000/svg" xmlns:xlink="http://www.w3.org/1999/xlink" x="0px" y="0px"
	 viewBox="0 0 44 44" style="enable-background:new 0 0 44 44;" xml:space="preserve">
<style type="text/css">
	.st0{fill-rule:evenodd;clip-rule:evenodd;}
</style>
<desc>Created with Sketch.</desc>
<g id="Page-1">
	<g id="tic-tac-toe">
		<path id="Combined-Shape" class="st0" d="M3.2,6.8c1.8,0,3.2-1.5,3.2-3.4S5,0,3.2,0S0,1.5,0,3.4S1.4,6.8,3.2,6.8z M3.2,5.9
			c1.3,0,2.4-1.1,2.4-2.5S4.5,0.8,3.2,0.8S0.8,2,0.8,3.4S1.9,5.9,3.2,5.9z M16.6,3.4l2.4-2.5l-0.6-0.6L16,2.8l-2.4-2.5l-0.6,0.6
			l2.4,2.5l-2.4,2.5l0.6,0.6L16,4l2.4,2.5l0.6-0.6L16.6,3.4z M16,20.3c1.8,0,3.2-1.5,3.2-3.4s-1.4-3.4-3.2-3.4s-3.2,1.5-3.2,3.4
			S14.2,20.3,16,20.3z M16,19.5c1.3,0,2.4-1.1,2.4-2.5c0-1.4-1.1-2.5-2.4-2.5s-2.4,1.1-2.4,2.5C13.6,18.4,14.7,19.5,16,19.5z
			 M3.8,16.9l2.4-2.5l-0.6-0.6l-2.4,2.5l-2.4-2.5l-0.6,0.6l2.4,2.5l-2.4,2.5l0.6,0.6l2.4-2.5l2.4,2.5l0.6-0.6L3.8,16.9z"/>
	</g>
</g>
<desc>Created with Sketch.</desc>
<g id="Page-1_1_">
	<g id="tic-tac-toe_1_">
		<path id="Combined-Shape_1_" class="st0" d="M28,6.8c1.8,0,3.2-1.5,3.2-3.4S29.8,0,28,0s-3.2,1.5-3.2,3.4S26.2,6.8,28,6.8z
			 M28,5.9c1.3,0,2.4-1.1,2.4-2.5S29.3,0.8,28,0.8S25.6,2,25.6,3.4S26.7,5.9,28,5.9z M41.4,3.4l2.4-2.5l-0.6-0.6l-2.4,2.5l-2.4-2.5
			l-0.6,0.6l2.4,2.5l-2.4,2.5l0.6,0.6L40.8,4l2.4,2.5l0.6-0.6L41.4,3.4z M40.8,20.3c1.8,0,3.2-1.5,3.2-3.4s-1.4-3.4-3.2-3.4
			s-3.2,1.5-3.2,3.4S39,20.3,40.8,20.3z M40.8,19.5c1.3,0,2.4-1.1,2.4-2.5c0-1.4-1.1-2.5-2.4-2.5c-1.3,0-2.4,1.1-2.4,2.5
			C38.4,18.4,39.5,19.5,40.8,19.5z M28.6,16.9l2.4-2.5l-0.6-0.6L28,16.3l-2.4-2.5l-0.6,0.6l2.4,2.5l-2.4,2.5l0.6,0.6l2.4-2.5
			l2.4,2.5l0.6-0.6L28.6,16.9z"/>
	</g>
</g>
<g id="Page-1_2_">
	<g id="tic-tac-toe_2_">
		<path id="Combined-Shape_2_" class="st0" d="M28,30.4c1.8,0,3.2-1.5,3.2-3.4s-1.4-3.4-3.2-3.4s-3.2,1.5-3.2,3.4S26.2,30.4,28,30.4
			z M28,29.6c1.3,0,2.4-1.1,2.4-2.5c0-1.4-1.1-2.5-2.4-2.5s-2.4,1.1-2.4,2.5C25.6,28.5,26.7,29.6,28,29.6z M41.4,27.1l2.4-2.5
			l-0.6-0.6l-2.4,2.5l-2.4-2.5l-0.6,0.6l2.4,2.5l-2.4,2.5l0.6,0.6l2.4-2.5l2.4,2.5l0.6-0.6L41.4,27.1z M40.8,44
			c1.8,0,3.2-1.5,3.2-3.4s-1.4-3.4-3.2-3.4s-3.2,1.5-3.2,3.4S39,44,40.8,44z M40.8,43.2c1.3,0,2.4-1.1,2.4-2.5s-1.1-2.5-2.4-2.5
			c-1.3,0-2.4,1.1-2.4,2.5S39.5,43.2,40.8,43.2z M28.6,40.6l2.4-2.5l-0.6-0.6L28,40l-2.4-2.5l-0.6,0.6l2.4,2.5l-2.4,2.5l0.6,0.6
			l2.4-2.5l2.4,2.5l0.6-0.6L28.6,40.6z"/>
	</g>
</g>
<g id="Page-1_3_">
	<g id="tic-tac-toe_3_">
		<path id="Combined-Shape_3_" class="st0" d="M3.2,30.4c1.8,0,3.2-1.5,3.2-3.4S5,23.7,3.2,23.7S0,25.2,0,27.1S1.4,30.4,3.2,30.4z
			 M3.2,29.6c1.3,0,2.4-1.1,2.4-2.5c0-1.4-1.1-2.5-2.4-2.5s-2.4,1.1-2.4,2.5C0.8,28.5,1.9,29.6,3.2,29.6z M16.6,27.1l2.4-2.5
			l-0.6-0.6L16,26.5l-2.4-2.5l-0.6,0.6l2.4,2.5l-2.4,2.5l0.6,0.6l2.4-2.5l2.4,2.5l0.6-0.6L16.6,27.1z M16,44c1.8,0,3.2-1.5,3.2-3.4
			s-1.4-3.4-3.2-3.4s-3.2,1.5-3.2,3.4S14.2,44,16,44z M16,43.2c1.3,0,2.4-1.1,2.4-2.5s-1.1-2.5-2.4-2.5s-2.4,1.1-2.4,2.5
			S14.7,43.2,16,43.2z M3.8,40.6l2.4-2.5l-0.6-0.6L3.2,40l-2.4-2.5l-0.6,0.6l2.4,2.5l-2.4,2.5l0.6,0.6l2.4-2.5l2.4,2.5l0.6-0.6
			L3.8,40.6z"/>
	</g>
</g>
</svg>
