<?xml version="1.0" encoding="utf-8"?>
<!-- Generator: Adobe Illustrator 24.2.0, SVG Export Plug-In . SVG Version: 6.00 Build 0)  -->
<svg version="1.1" id="Layer_1" xmlns="http://www.w3.org/2000/svg" xmlns:xlink="http://www.w3.org/1999/xlink" x="0px" y="0px"
	 viewBox="0 0 44 44" style="enable-background:new 0 0 44 44;" xml:space="preserve">
<path d="M44.2,23.8L44.2,23.8c-0.5,0.2-1,0.5-1.1,0.6c-0.8,0.5-1.4,0.9-1.8,1.4c-0.4,0.4-0.9,0.7-1.7,1c-0.1,0-0.2,0.1-0.4,0.1
	l-0.4,0.1c-0.7,0.3-1.1,0.5-1.4,0.7c-0.3,0.3-0.7,0.5-1.2,0.7c-0.1,0-0.3,0.1-0.5,0.1l-0.5,0.1c-0.4,0.1-0.6,0.2-0.8,0.3
	c-0.2,0.1-0.5,0.2-0.9,0.4c-0.1,0-0.2,0.1-0.4,0.1c-0.2,0-0.3,0.1-0.4,0.1c-0.3,0.1-0.6,0.2-0.8,0.3c-0.2,0.1-0.4,0.3-0.6,0.6
	c-0.2,0.2-0.3,0.4-0.5,0.7c-0.4,0.7-0.6,0.9-0.8,1.1c-0.1,0.1-0.2,0.2-0.3,0.3c-0.2,0.1-0.8,0.6-0.9,0.6c-0.1,0.1-0.2,0.2-0.3,0.3
	c-0.1,0.2-0.1,0.3-0.2,0.7c-0.2,0.8-0.3,1.1-0.6,1.6c-0.3,0.5-0.5,0.7-0.7,1c0,0-0.1,0.1-0.1,0.1l-0.3,0.3c-0.1,0.1-0.2,0.2-0.4,0.4
	c-0.3,0.4-0.6,0.8-0.7,1.3c-0.2,0.6-0.2,1.1-0.1,2c0,0.4,0,0.5,0,0.6c0,0.8,0,1.3,0,1.9c0,0.3,0,0.6,0.1,0.8h0.1
	c-0.1-0.7-0.1-1.6-0.1-2.7c0-0.1,0-0.2,0-0.6c-0.1-0.9-0.1-1.4,0.1-2c0.1-0.5,0.4-0.9,0.7-1.2c0.1-0.1,0.2-0.2,0.4-0.4
	c0,0,0.2-0.2,0.3-0.3c0,0,0.1-0.1,0.1-0.1c0.2-0.2,0.4-0.5,0.7-1c0.4-0.5,0.5-0.9,0.6-1.7c0.1-0.3,0.1-0.5,0.2-0.6
	c0.1-0.1,0.1-0.2,0.3-0.3c0.1-0.1,0.7-0.5,0.9-0.6c0.1-0.1,0.2-0.2,0.3-0.3c0.2-0.2,0.3-0.4,0.8-1.1c0.1-0.2,0.3-0.5,0.5-0.7
	c0.2-0.3,0.4-0.5,0.6-0.6c0.3-0.1,0.5-0.2,0.8-0.3c0.2-0.1,0.4-0.1,0.6-0.2l0.2,0c0.5-0.1,0.7-0.2,1-0.4c0.2-0.1,0.4-0.2,0.8-0.3
	l0.5-0.1c0.2,0,0.3-0.1,0.5-0.1c0.5-0.2,0.9-0.4,1.3-0.7c0.3-0.3,0.7-0.5,1.4-0.7l0.4-0.1c0.1-0.1,0.3-0.1,0.4-0.1
	c0.7-0.3,1.3-0.6,1.7-1.1c0.4-0.5,1-0.9,1.8-1.4C43.2,24.4,43.7,24.1,44.2,23.8l0-4.8c-0.3,0.6-0.6,1.1-0.9,1.3
	c-0.2,0.1-0.4,0.3-0.7,0.5c-0.2,0.1-0.3,0.2-0.5,0.4L42,21.4c-0.1,0.1-0.2,0.2-0.4,0.3c-0.6,0.4-1,0.7-1.3,1
	c-0.2,0.2-0.3,0.2-0.6,0.5c-0.4,0.4-0.9,0.6-2.2,0.8c-0.8,0.1-1.5,0.4-2.3,0.8c-0.1,0.1-0.5,0.3-0.5,0.3c-0.2,0.1-0.3,0.2-0.5,0.3
	c-0.4,0.2-0.8,0.3-1.2,0.3c-1.3,0-3.1,0.9-3.8,1.7c-0.9,1-2.3,2-3.3,2.3c-0.5,0.1-0.9,0.5-1,1.1c-0.1,0.3-0.1,0.6-0.1,1
	c0,0.1,0,0.1,0,0.3c0,0.4,0,0.6-0.1,1c-0.1,0.5-0.4,0.9-0.8,1.4c-1,1.2-1.7,3.4-1.7,5.3c0,0.2,0,0.3,0,0.6c0,0.8,0,1.2,0,1.6
	c0,0.8-0.2,1.5-0.4,2.2h-0.1c0.2-0.6,0.3-1.3,0.4-2.2c0-0.5,0-0.8,0-1.6c0-0.3,0-0.5,0-0.6c0-1.9,0.7-4.1,1.7-5.3
	c0.4-0.5,0.7-1,0.8-1.4c0.1-0.3,0.1-0.6,0.1-1c0-0.2,0-0.2,0-0.3c0-0.4,0-0.7,0.1-1c0.2-0.6,0.5-1,1.1-1.1c1-0.3,2.4-1.3,3.3-2.3
	c0.8-0.9,2.6-1.7,3.9-1.7c0.4,0,0.7-0.1,1.1-0.3c0.1-0.1,0.3-0.2,0.5-0.3c0,0,0.4-0.2,0.5-0.3c0.8-0.5,1.5-0.7,2.3-0.8
	c1.3-0.2,1.7-0.4,2.1-0.8c0.3-0.3,0.4-0.4,0.6-0.5c0.3-0.2,0.7-0.5,1.3-1c0.1-0.1,0.2-0.2,0.4-0.3l0.1-0.1c0.2-0.1,0.3-0.2,0.5-0.4
	c0.3-0.2,0.5-0.4,0.7-0.5c0.3-0.2,0.7-0.8,1-1.4L44.2,23.8L44.2,23.8z M44.2,15.3c0,0-0.1,0-0.1,0c-0.5,0-1,0.3-1.6,0.6
	c-0.3,0.1-0.6,0.2-1,0.2c-0.3,0-0.7,0-1.1-0.1c-0.1,0-0.2,0-0.3-0.1c-0.1,0-0.2,0-0.3,0c-0.4,0-0.8-0.1-1.2-0.1
	c-0.8,0-1.3,0.1-1.3,0.2c0,0.1,0,0.2,0.2,0.4c0.1,0.1,0.2,0.1,0.3,0.3c0.1,0.1,0.2,0.2,0.4,0.3c0.1,0.1,0.2,0.1,0.4,0.2
	c0.1,0,0.1,0,0.2,0c0.3,0.1,0.4,0.1,0.5,0.2c0.1,0.1,0.1,0.3,0,0.7c-0.2,0.5-0.4,0.7-0.8,0.8c-0.3,0-0.6-0.1-1.1-0.4
	c-0.3-0.2-0.5-0.5-0.6-1.1c0-0.1,0-0.1,0-0.2l0-0.2c-0.1-0.5-0.1-0.7-0.3-0.7c-0.1,0-0.1-0.1-0.2-0.1c-0.2-0.1-0.3-0.1-0.6-0.1
	c-0.2,0-1.1,0.1-1,0.1c-1.5,0.1-2.1,0.4-2.7,1.1c-0.1,0.1-0.2,0.3-0.3,0.4l-0.2,0.2L31,18c-0.3,0.4-0.5,0.6-0.8,0.8
	c0,0-0.1,0.1-0.2,0.1l-0.3,0.2c-0.1,0.1-0.3,0.2-0.4,0.3c-0.3,0.3-0.7,0.6-1.2,1.1c-0.6,0.6-0.9,1-0.9,1.2c0,0.1,0.1,0.2,0.5,0.2
	c0.1,0,0.2,0,0.2,0c0.2,0,0.4,0.1,0.5,0.1c0.6,0.3,0.9,0.5,1,0.9c0.2,0.5,0.1,1-0.7,1.5c-0.6,0.5-0.8,0.8-0.8,1.1c0,0.1,0,0.1,0,0.3
	c0.1,0.5,0,0.8-0.2,1.3c-0.1,0.2-0.2,0.4-0.3,0.6c-0.2,0.3-0.4,0.4-0.8,0.6c0,0-0.2,0.1-0.3,0.1c-0.1,0.1-0.2,0.1-0.4,0.2
	c-0.3,0.1-0.6,0.3-1,0.6c-0.6,0.5-1,1.1-1.2,1.9c-0.1,0.3-0.1,0.5-0.2,1.1c-0.1,0.6-0.2,0.9-0.3,1.2c-0.2,0.3-0.9,2-1,2.1
	c-0.2,0.3-0.3,0.7-0.5,1c-0.3,0.6-0.6,1-0.8,1.3c-0.4,0.5-0.7,1.1-1,2.1c0,0.1-0.1,0.3-0.1,0.4c-0.1,0.4-0.2,0.6-0.3,0.9
	c-0.5,1.1-1.9,1.9-3.4,1.9c-0.8,0-1.5-0.2-2.3-0.6c-0.4-0.2-0.3-0.2-1.6-1.1c-1.1-0.7-1.3-0.8-1.5-0.5c0,0-0.1,0.2-0.1,0.2
	c-0.1,0.2-0.2,0.3-0.4,0.4c-0.1,0.1-0.4,0.4-0.5,0.6c-0.2,0.2-0.3,0.4-0.4,0.5c-0.1,0.2-0.3,0.4-0.4,0.6C9,43.3,9,43.5,8.9,43.9
	c0,0.1,0,0.2,0,0.2H8.8l0-0.2c0.1-0.4,0.1-0.6,0.2-0.8c0.1-0.2,0.2-0.4,0.4-0.6c0.1-0.2,0.3-0.3,0.4-0.5c0.1-0.1,0.5-0.5,0.5-0.6
	c0.1-0.1,0.2-0.3,0.4-0.4c0,0,0.1-0.2,0.1-0.2c0.2-0.3,0.5-0.3,1.6,0.5c1.3,0.9,1.2,0.8,1.6,1.1c0.8,0.4,1.4,0.6,2.3,0.6
	c1.5,0,2.9-0.8,3.4-1.9c0.1-0.3,0.2-0.6,0.3-0.9c0-0.1,0.1-0.3,0.1-0.4c0.4-1,0.6-1.6,1-2.1c0.2-0.3,0.5-0.7,0.8-1.3
	c0.1-0.3,0.3-0.6,0.5-1c0.1-0.2,0.8-1.8,1-2.1c0.1-0.3,0.2-0.6,0.3-1.2c0.1-0.6,0.1-0.8,0.2-1.1c0.2-0.8,0.6-1.4,1.2-1.9
	c0.3-0.2,0.6-0.4,1-0.6c0.1-0.1,0.2-0.1,0.4-0.2c0.1,0,0.3-0.1,0.3-0.1c0.4-0.1,0.5-0.3,0.7-0.5c0.1-0.1,0.2-0.3,0.3-0.5
	c0.2-0.5,0.3-0.8,0.2-1.2c0-0.1,0-0.2,0-0.3c0-0.4,0.2-0.7,0.9-1.2c0.7-0.5,0.9-1,0.6-1.4c-0.2-0.3-0.5-0.5-1-0.8
	C28.4,22,28.3,22,28.1,22c-0.1,0-0.1,0-0.2,0c-0.4,0-0.6-0.1-0.6-0.2c0-0.2,0.3-0.6,0.9-1.2c0.5-0.5,0.9-0.9,1.2-1.1
	c0.1-0.1,0.3-0.2,0.4-0.3l0.3-0.2c0.1,0,0.1-0.1,0.2-0.1c0.2-0.2,0.5-0.4,0.8-0.8c0.1-0.1,0.1-0.2,0.2-0.2l0.2-0.2
	c0.1-0.2,0.2-0.3,0.3-0.4c0.6-0.8,1.3-1,2.8-1.1c0,0,0.9-0.1,1.1-0.1c0.3,0,0.4,0,0.6,0.1c0.1,0,0.1,0,0.2,0.1
	c0.2,0.1,0.2,0.3,0.3,0.8l0,0.2c0,0.1,0,0.1,0,0.2c0.1,0.6,0.3,0.9,0.6,1.1c0.5,0.3,0.8,0.4,1,0.4c0.3,0,0.5-0.2,0.7-0.7
	c0.1-0.3,0.1-0.5,0-0.6c-0.1-0.1-0.2-0.1-0.4-0.2c-0.1,0-0.1,0-0.2,0c-0.2,0-0.3-0.1-0.4-0.2c-0.1-0.1-0.2-0.2-0.4-0.3
	c-0.1-0.1-0.2-0.2-0.3-0.3C37.1,16.2,37,16,37,15.9c0.1-0.2,0.6-0.3,1.4-0.2c0.4,0,0.8,0,1.2,0.1c0.2,0,0.2,0,0.3,0
	c0.1,0,0.2,0,0.3,0.1c0.4,0.1,0.7,0.1,1.1,0.1c0.4,0,0.8-0.1,1-0.2c0.6-0.3,1.2-0.5,1.6-0.6C44.1,15.2,44.1,15.2,44.2,15.3
	L44.2,15.3L44.2,15.3z M44.2,7.8v0.1c-0.6,1.2-1.3,2.2-1.7,2.7c-0.2,0.2-0.6,0.4-1,0.4c-0.3,0-0.6,0-1.4,0c-0.7,0-1.1,0-1.5,0.1
	c-0.4,0.1-0.7,0.1-1.1,0.2l-0.2,0c-0.9,0.1-1.4,0.1-2.4,0.4c-0.3,0.1-0.7,0.2-1.1,0.3c-0.8,0.2-1.6,0.2-2.4,0.3c-0.6,0-1,0-1.5,0
	c-0.4,0-0.9,0.1-1.3,0.4c-0.6,0.4-1.1,1-1.4,1.8c-0.1,0.2-0.2,0.5-0.3,0.7c-0.3,0.5-0.5,0.7-1,0.9l-0.3,0.1
	c-0.4,0.2-0.8,0.5-1.1,0.8c-0.6,0.5-1,1.2-1.7,2.6l-0.2,0.3c-0.5,1.2-0.8,1.7-1.3,2.2c-0.6,0.6-1.5,1.1-3,1.5
	c-0.3,0.1-1.4,0.4-1.4,0.4c-0.5,0.1-0.9,0.2-1.2,0.4c-0.8,0.3-1.4,0.8-2.7,2l-0.1,0.1c-0.6,0.6-1,0.9-1.4,1.2
	c-0.3,0.2-0.6,0.4-1,0.7c-0.2,0.1-0.8,0.5-0.9,0.6c-0.9,0.6-1.4,1-1.8,1.5c-0.2,0.2-0.3,0.4-0.5,0.7c-0.3,0.5-0.5,1-0.7,1.9
	l-0.1,0.5c0,0.2-0.1,0.3-0.1,0.5c-0.2,0.8-0.5,1.3-1.1,2L5,36.1c-0.1,0.1-0.2,0.3-0.3,0.4c-0.1,0.1-0.2,0.3-0.3,0.5
	c-0.1,0.2-0.1,0.4-0.1,0.9c0,0.7-0.1,1.1-0.3,1.7c-0.1,0.3-0.4,1-0.5,1.2c-0.1,0.2-0.2,0.4-0.3,0.5c-0.2,0.4-0.5,0.7-1,1.3
	c-0.4,0.5-0.7,0.8-0.8,1.2c0,0.1-0.1,0.2-0.1,0.4l0,0.1H1.2l0-0.2c0-0.2,0.1-0.3,0.1-0.4c0.1-0.4,0.4-0.7,0.8-1.2
	c0.5-0.5,0.7-0.9,1-1.2c0.1-0.2,0.2-0.4,0.3-0.5c0.1-0.1,0.4-0.9,0.5-1.2c0.2-0.6,0.3-0.9,0.3-1.6c0-0.5,0.1-0.7,0.1-0.9
	c0.1-0.2,0.2-0.3,0.3-0.5c0.1-0.1,0.2-0.2,0.3-0.4l0.3-0.4c0.6-0.7,0.9-1.2,1.1-2c0-0.2,0.1-0.3,0.1-0.5l0.1-0.5
	c0.2-0.9,0.4-1.4,0.7-1.9c0.1-0.2,0.3-0.4,0.5-0.7c0.5-0.5,1-0.9,1.8-1.5c0.2-0.1,0.8-0.5,0.9-0.6c0.4-0.2,0.7-0.4,1-0.7
	c0.4-0.3,0.8-0.6,1.4-1.2l0.1-0.1c1.3-1.2,1.9-1.7,2.7-2c0.3-0.1,0.7-0.2,1.2-0.4c0,0,1.1-0.3,1.4-0.4c1.5-0.4,2.4-0.8,2.9-1.5
	c0.4-0.5,0.7-1,1.3-2.2l0.2-0.3c0.7-1.4,1.1-2.1,1.7-2.7c0.3-0.3,0.7-0.6,1.1-0.8l0.3-0.1c0.5-0.2,0.7-0.4,1-0.9
	c0.1-0.2,0.2-0.5,0.3-0.7c0.3-0.9,0.8-1.5,1.5-1.8c0.5-0.3,1-0.4,1.4-0.4c0.5,0,0.9,0,1.5,0c0.8,0,1.6-0.1,2.4-0.3
	c0.4-0.1,0.7-0.2,1.1-0.3c1-0.3,1.5-0.4,2.4-0.4l0.2,0c0.4,0,0.7-0.1,1.1-0.2c0.4-0.1,0.8-0.1,1.7-0.1c0.7,0,0.9,0,1.3,0
	c0.4,0,0.7-0.2,1-0.4C42.8,10,43.5,9,44.2,7.8L44.2,7.8z M44.2,41.1c-0.1-0.3-0.2-0.8-0.2-1.5l0-0.2l0-0.1c-0.1-1.2-0.2-1.6-0.4-1.8
	c-0.2-0.2-0.2-0.4-0.2-0.6c0,0,0-0.1,0-0.2c0.1-0.3,0.1-0.4,0-0.5c-0.1-0.2-0.2-0.3-0.6-0.5c-0.4-0.2-0.5-0.4-0.4-0.6
	c0-0.1,0.1-0.2,0.3-0.4c0.1-0.1,0.4-0.4,0.4-0.4c0.5-0.5,0.7-0.8,0.7-1.2c0-0.4,0.2-0.7,0.5-1v0.1c-0.3,0.2-0.4,0.5-0.4,0.9
	c0,0.4-0.2,0.8-0.7,1.3c0,0-0.3,0.3-0.4,0.4c-0.1,0.1-0.2,0.3-0.2,0.4c-0.1,0.2,0,0.4,0.3,0.5c0.3,0.1,0.5,0.3,0.6,0.5
	c0.1,0.2,0.1,0.3,0,0.5c0,0.1,0,0.1,0,0.2c0,0.2,0,0.4,0.2,0.6c0.2,0.2,0.3,0.7,0.4,1.9l0,0.1l0,0.2c0.1,0.5,0.1,0.9,0.2,1.2
	L44.2,41.1L44.2,41.1z M44.2,36.5c-0.1-0.2-0.3-0.7-0.4-0.8c-0.1-0.2-0.1-0.3-0.1-0.4c0-0.1,0.2-0.3,0.2-0.4
	c0.1-0.3,0.2-0.5,0.3-0.8v0.3c-0.1,0.2-0.1,0.4-0.2,0.6c0,0.1-0.2,0.3-0.2,0.4c0,0.1,0,0.2,0.1,0.3c0,0.1,0.2,0.4,0.3,0.7V36.5z
	 M44.2,30.2c-0.1,0.1-0.3,0.2-0.5,0.3c0,0-1,0.4-1.5,0.6c-0.7,0.3-1.2,0.4-1.7,0.4c-0.4,0-0.7-0.2-1.1-0.4l-0.2-0.2
	c-0.1-0.1-0.3-0.2-0.4-0.2c-0.3-0.2-0.2-0.4,0.1-0.8c0.3-0.3,0.7-0.6,1.4-1l0.3-0.2c1.3-0.8,1.3-0.8,1.6-1.1c0.8-0.7,1.5-1,1.9-1.1
	v0.1c-0.5,0.1-1.1,0.4-1.9,1.1c-0.3,0.2-0.3,0.3-1.7,1.1c-0.1,0.1-0.2,0.1-0.3,0.2c-0.7,0.4-1.1,0.7-1.4,1c-0.3,0.3-0.4,0.5-0.1,0.7
	c0.1,0.1,0.2,0.1,0.4,0.2l0.2,0.2c0.4,0.3,0.7,0.4,1.1,0.4c0.5,0,1-0.1,1.7-0.4c0.5-0.2,1.5-0.6,1.5-0.6c0.2-0.1,0.4-0.2,0.5-0.3
	L44.2,30.2L44.2,30.2z M44.2,27.1L44.2,27.1c-0.5,0.1-0.9,0.3-1.5,0.7l-0.3,0.3c-0.1,0.1-0.2,0.2-0.3,0.2c-0.1,0-0.4,0.2-0.5,0.3
	c-0.2,0.1-0.5,0.3-0.7,0.4c-0.2,0.1-0.4,0.3-0.6,0.4c-0.3,0.3-0.5,0.5-0.6,0.7c0,0.2,0.1,0.3,0.5,0.4c0.8,0.1,1.5,0,2.2-0.3
	c0.5-0.2,0.9-0.5,1.3-0.9c0.2-0.2,0.3-0.4,0.4-0.5V29c-0.1,0.2-0.2,0.3-0.3,0.5c-0.4,0.4-0.8,0.7-1.3,0.9c-0.7,0.3-1.5,0.5-2.3,0.3
	c-0.4-0.1-0.6-0.2-0.6-0.5c0-0.2,0.3-0.4,0.6-0.7c0.2-0.1,0.4-0.3,0.6-0.4c0.2-0.1,0.4-0.3,0.7-0.4c0.1,0,0.4-0.2,0.5-0.3
	c0.1-0.1,0.2-0.1,0.3-0.2c0.1,0,0.3-0.2,0.3-0.3C43.2,27.4,43.7,27.1,44.2,27.1L44.2,27.1z M44.2,15.7L44.2,15.7
	c-0.1,0.1-0.3,0.1-0.6,0.2c-0.7,0.3-1,0.4-1.4,0.5c-0.1,0-0.2,0.1-0.3,0.1c-0.1,0-0.2,0.1-0.5,0.1c-0.1,0-0.1,0-0.2,0
	c-0.6,0.1-0.8,0.2-0.8,0.4c0,0.3,0.2,1,0.6,1.9c0.1,0.2,0.1,0.4,0.2,0.6c0,0.1,0,0.2,0.1,0.3c0.1,0.6,0.2,0.8,0.4,0.9
	c0.2,0.1,0.3,0,0.6-0.1c0.3-0.1,0.5-0.4,0.8-0.7c0.1-0.1,0.2-0.3,0.3-0.4l0.2-0.3c0.2-0.2,0.4-0.9,0.6-1.5v0.3
	c-0.2,0.5-0.4,1.1-0.6,1.3c0,0-0.2,0.3-0.2,0.3c-0.1,0.2-0.2,0.3-0.3,0.4c-0.3,0.3-0.6,0.6-0.9,0.7c-0.2,0.1-0.4,0.1-0.6,0.1
	c-0.2-0.1-0.3-0.3-0.5-0.9c0-0.1,0-0.2-0.1-0.3c-0.1-0.2-0.1-0.4-0.2-0.6c-0.4-0.9-0.6-1.6-0.6-1.9c0-0.3,0.3-0.4,0.9-0.5
	c0.1,0,0.1,0,0.2,0c0.3,0,0.4,0,0.5-0.1c0.1,0,0.2-0.1,0.3-0.1c0.4-0.1,0.7-0.2,1.4-0.5C43.8,15.7,44,15.7,44.2,15.7L44.2,15.7z
	 M-0.2,21.4c0.7-0.8,1.3-1.7,1.7-2.6c0.2-0.6,0.4-1.2,0.8-2.3l0.1-0.4c0.5-1.5,0.7-2.2,1.1-2.9c0.4-0.9,0.9-1.6,1.5-1.9
	c0.5-0.3,0.8-0.6,0.9-1c0.1-0.2,0.1-0.3,0.1-0.5c0.1-0.4,0.2-0.6,0.3-0.8c0.2-0.3,0.5-0.5,0.9-0.7C8.4,8,8.5,8,8.6,7.8
	c0-0.1,0.1-0.2,0.1-0.3c0-0.1,0-0.3,0-0.3c0-0.1,0-0.3,0-0.4c0-0.7,0-0.8,0.2-1c0,0,0.1-0.1,0.2-0.1c0,0,0.2-0.1,0.2-0.1
	c0.2-0.1,0.5-0.3,0.7-0.4C10,5.1,10,5,10.4,4.6c0.3-0.3,0.5-0.5,0.7-0.6c0.3-0.2,0.5-0.2,0.8-0.2C12.2,3.9,12.7,4,13.3,4
	c0.5,0,1,0,1.6,0c0.4,0,0.7,0,1.1,0.1c0.6,0.1,0.7,0.1,0.9,0.1c0.3,0,0.5-0.1,0.8-0.2c0.4-0.2,0.6-0.3,0.8-0.4c0.3,0,0.4,0,1.2,0.2
	c1.3,0.3,2.3,0.1,3-0.7c0.4-0.4,0.4-0.7,0.3-1.1C23,1.8,23,1.8,23,1.7c0-0.2,0-0.3,0.2-0.5c0.2-0.2,0.3-0.7,0.5-1.4h0.1
	c-0.1,0.7-0.3,1.2-0.5,1.5c-0.1,0.1-0.2,0.3-0.2,0.4c0,0.1,0,0.1,0.1,0.3c0.2,0.5,0.1,0.8-0.3,1.2c-0.8,0.9-1.9,1-3.2,0.8
	c-0.8-0.2-0.9-0.2-1.2-0.2c-0.2,0-0.4,0.1-0.8,0.4c-0.3,0.2-0.6,0.2-0.9,0.2c-0.2,0-0.4,0-0.9-0.1c-0.5-0.1-0.8-0.1-1.1-0.1
	c-0.7,0-1.1,0-1.6,0c-0.6,0-1.1-0.1-1.4-0.2c-0.4-0.1-0.8,0.1-1.3,0.7c-0.4,0.4-0.4,0.5-0.6,0.6C9.7,5.5,9.5,5.6,9.2,5.7
	C9.2,5.8,9.1,5.8,9,5.8C9,5.9,8.9,5.9,8.9,5.9C8.8,6,8.8,6.1,8.8,6.8c0,0.1,0,0.3,0,0.4c0,0,0,0.2,0,0.3c0,0.2,0,0.3-0.1,0.4
	C8.6,8.1,8.6,8.1,7.3,8.6C6.9,8.8,6.7,9,6.5,9.2C6.4,9.4,6.3,9.6,6.2,9.9c-0.1,0.3-0.1,0.4-0.1,0.5c-0.2,0.4-0.4,0.8-1,1
	c-0.5,0.3-1,0.9-1.4,1.8c-0.3,0.7-0.6,1.4-1.1,2.9l-0.1,0.4c-0.4,1.1-0.6,1.7-0.8,2.3c-0.4,1-1,1.9-1.8,2.8L-0.2,21.4L-0.2,21.4z
	 M-0.2,27.2L-0.2,27.2L-0.2,27.2c0.5,0,0.6,0.3,0.4,0.9c-0.1,0.3-0.2,0.6-0.4,0.8v-0.1c0.1-0.2,0.3-0.5,0.3-0.7
	C0.4,27.5,0.3,27.2-0.2,27.2C-0.1,27.2-0.1,27.2-0.2,27.2v-3.4c0.3-0.2,0.7-0.4,1-0.6c1-0.7,2.2-2.8,2.2-4c0-1.3,1.6-5.4,2.4-5.9
	c0.9-0.6,2.4-2.1,2.6-2.8c0.1-0.4,0.4-0.5,1.1-0.7c0.5-0.1,0.6-0.2,0.8-0.4c0.1-0.1,0.2-0.4,0.3-0.8c0-0.1,0.1-0.5,0.2-0.6
	c0.3-0.9,0.5-1.4,1-1.5c0.2-0.1,0.2-0.1,0.7-0.3C12.7,6.1,13,6,13.4,6c0.5,0,1,0.1,1.4,0.3c0.4,0.2,0.9,0.3,1.5,0.3
	c0.4,0,0.9-0.1,1.5-0.2c0.1,0,0.5-0.1,0.6-0.1c0.2,0,0.3-0.1,0.4-0.1c0.4,0,0.7,0,1,0c0.6,0,1.1-0.1,1.7-0.1
	c0.6-0.1,1.2-0.2,1.6-0.4c1.4-0.5,2.4-1.4,2.5-2c0-0.2,0-0.2,0.2-0.8c0.2-0.6,0.2-1,0.2-1.3C26.1,1.3,26,1.2,26,1
	c-0.1-0.3-0.2-0.7-0.3-1.2h0.1C25.8,0.3,25.9,0.7,26,1c0.1,0.2,0.1,0.3,0.1,0.5c0,0.4,0,0.8-0.2,1.4c-0.2,0.6-0.2,0.6-0.2,0.8
	c-0.1,0.7-1.1,1.6-2.5,2.1c-0.4,0.2-1,0.3-1.6,0.4c-0.5,0.1-1.1,0.1-1.7,0.1c-0.4,0-0.7,0-1.1,0c-0.1,0-0.2,0-0.4,0.1
	c-0.1,0-0.5,0.1-0.6,0.1c-0.6,0.1-1,0.2-1.5,0.2c-0.6,0-1.1-0.1-1.5-0.3C14.4,6.1,13.9,6,13.4,6c-0.4,0-0.7,0.1-1.2,0.4
	c-0.5,0.2-0.5,0.2-0.7,0.3c-0.4,0.1-0.7,0.6-0.9,1.5c0,0.1-0.2,0.6-0.2,0.6c-0.1,0.4-0.2,0.6-0.3,0.8C9.8,9.7,9.6,9.8,9.1,9.9
	c-0.6,0.1-0.8,0.3-1,0.6c-0.3,0.7-1.7,2.2-2.7,2.8c-0.8,0.5-2.3,4.5-2.3,5.8c0,1.2-1.2,3.3-2.2,4c-0.2,0.1-0.6,0.4-1.1,0.6v-0.1
	L-0.2,27.2L-0.2,27.2z M-0.2,14.3L-0.2,14.3c0.5-0.4,1.1-0.8,1.6-1.5c0.3-0.3,1-1.4,1.2-1.5c0.1-0.2,0.3-0.3,0.5-0.5
	c0.1-0.1,0.4-0.3,0.4-0.3c0.7-0.5,1-0.9,1.2-1.4c0.1-0.2,0.1-0.5,0.2-0.9c0-0.1,0.1-0.9,0.2-1.2c0.2-1.2,0.4-2,0.7-2.4
	c0.8-1,1.5-2,1.5-2.4c0-0.2,0-0.2,0.4-1.2C7.8,1,7.9,0.9,7.9,0.8c0.2-0.4,0.3-0.7,0.3-1h0.1c0,0.3-0.1,0.6-0.3,1
	c0,0.1-0.1,0.2-0.1,0.3C7.4,2,7.4,2.1,7.4,2.3c0,0.4-0.7,1.5-1.5,2.5C5.6,5.1,5.4,5.8,5.2,7.1C5.2,7.3,5,8.1,5,8.2
	C4.9,8.6,4.9,8.9,4.8,9.2c-0.2,0.6-0.5,1-1.2,1.5l-0.4,0.3c-0.2,0.2-0.4,0.3-0.5,0.5c-0.1,0.1-0.9,1.2-1.2,1.5
	C1,13.6,0.4,14.1-0.2,14.3L-0.2,14.3z M-0.2,41.1v-0.3c0,0.2,0.1,0.3,0.1,0.5c0.1,0.4,0.3,0.6,0.6,0.5C2,41,3.1,39.9,3.1,38.8
	c0-1.2,0.5-2.4,1.3-3.4c0.1-0.2,0.3-0.3,0.4-0.4c0.1,0,0.1-0.1,0.2-0.1L5,34.7c0.3-0.2,0.4-0.4,0.5-0.9c0.1-0.2,0.1-0.4,0.3-1l0-0.1
	c0.2-0.7,0.3-1.1,0.3-1.4c0-0.3-0.3-0.4-0.8-0.1c-0.2,0.1-0.4,0.2-0.7,0.3c-1,0.3-2,0.4-3.2,0.4l-0.1,0l-0.1,0
	c-0.4,0-0.8,0.1-1.1,0.2c-0.1,0.1-0.3,0.1-0.4,0.2v-0.1c0.1-0.1,0.2-0.1,0.3-0.2c0.4-0.2,0.8-0.2,1.2-0.2l0.1,0
	c1.2,0,2.1-0.1,3.1-0.4c0.2-0.1,0.5-0.2,0.7-0.3c0.6-0.3,0.9-0.2,0.9,0.2c0,0.3-0.1,0.7-0.3,1.4l0,0.1c-0.2,0.6-0.3,0.7-0.3,1
	c-0.1,0.6-0.3,0.8-0.6,1l-0.1,0.1c-0.1,0-0.1,0.1-0.2,0.1c-0.1,0.1-0.3,0.3-0.4,0.4c-0.8,1-1.2,2.2-1.2,3.4c0,1.2-1.1,2.3-2.5,3
	c-0.3,0.1-0.5,0-0.7-0.5C-0.1,41.2-0.1,41.1-0.2,41.1L-0.2,41.1z M-0.2,36.5v-0.2L0,36.5c0.2,0.4,0.3,0.8,0.3,1.2
	c0,0.4,0.1,0.7,0.1,1.4c0,0.7,0,0.9,0.1,1.1c0.1,0.2,0.3,0.2,0.6-0.1c1.3-1.1,1.6-1.7,1.6-2.9c0-0.5,0.1-0.9,0.3-1.3
	c0.2-0.3,0.3-0.5,1-1.4c0.2-0.2,0.4-0.4,0.6-0.6c0.1-0.1,0.2-0.2,0.3-0.2c0,0,0,0,0.1-0.1C4.9,33.5,5,33.4,5,33.4
	c0.1-0.1,0.1-0.3,0.2-0.4l0-0.1l0-0.1c0-0.1,0-0.1,0-0.2c0-0.1,0.1-0.2,0.1-0.3c0-0.2,0-0.3-0.1-0.3c-0.2-0.1-0.7,0-1.8,0.4
	c-0.7,0.3-1.2,0.3-2.1,0.3c-0.6,0-0.8,0-1,0.2C0.3,33,0.1,33.3,0,33.9c0,0.2-0.1,0.3-0.1,0.4V34l0-0.2c0.1-0.6,0.3-0.9,0.6-1.1
	c0.2-0.1,0.4-0.2,1-0.2c0.9,0,1.3-0.1,2-0.3c1.1-0.4,1.6-0.5,1.8-0.4c0.1,0.1,0.1,0.2,0.1,0.4c0,0.1,0,0.2-0.1,0.3l0,0.2l0,0.1
	l0,0.1c0,0.2-0.1,0.3-0.2,0.5C5,33.5,5,33.6,4.9,33.7l-0.1,0.1l-0.1,0.1c-0.1,0.1-0.1,0.1-0.2,0.2c-0.2,0.2-0.4,0.4-0.6,0.6
	c-0.7,1-0.8,1.1-1,1.4c-0.2,0.4-0.3,0.8-0.3,1.3c0,1.2-0.4,1.8-1.6,2.9c-0.4,0.3-0.6,0.3-0.7,0.1c-0.1-0.2-0.1-0.4-0.1-1.1
	c0-0.7,0-1-0.1-1.4C0.1,37.3,0,36.9-0.2,36.5L-0.2,36.5L-0.2,36.5z M27.9-0.2L27.9-0.2L28,0.2c0.2,0.9,0.4,1.4,0.4,2.1
	c0,0.8-0.1,1.6-0.5,2.3c-0.6,1.1-1.5,2-2.7,2.5c-0.9,0.4-1.9,0.7-2.7,0.7c-0.5,0-1.3,0.1-2.8,0.3l-0.2,0c-1.8,0.3-2.3,0.4-2.8,0.4
	c-0.3,0-0.3,0-1.4-0.2c-0.3,0-0.5-0.1-0.7-0.1c-1.5-0.2-2.3-0.1-2.4,0.6c0,0.1,0,0.1,0,0.2l0,0.2c-0.1,0.8-0.1,1.2-0.3,1.5
	c-0.2,0.4-0.6,0.6-1.2,0.6c-0.8,0-1,0-1.1,0.2c0,0-0.4,0.4-0.6,0.6c-0.2,0.2-1.1,0.9-1.2,1c-0.2,0.1-0.3,0.3-0.5,0.4
	c-0.5,0.5-0.9,0.9-1.1,1.2c-0.4,0.7-0.8,1.3-0.9,1.8c-0.1,0.6,0.3,0.7,1.4,0.1c1.1-0.6,2.2-1.1,3.3-1.6c0.3-0.1,1-0.5,1.2-0.5
	c0.4-0.2,0.6-0.3,0.8-0.4l0.1-0.1l0.2-0.1c0.1-0.1,0.2-0.1,0.4-0.2c1.3-0.6,2.5-0.8,3.7-0.1c1.7,1,2.8,2.7,2.8,4.2
	c0,1.4-0.1,1.9-0.4,2.5c-0.1,0.2-0.2,0.4-0.4,0.5c-0.5,0.6-0.9,1.2-0.9,1.6c-0.1,0.5,0.3,0.5,1.5,0c1-0.4,1.7-1.1,2.1-1.9
	c0.2-0.4,0.3-0.7,0.5-1.1c0.1-0.2,0.2-0.9,0.3-0.9c0-0.1,0.1-0.2,0.1-0.4c0.6-1.1,1.6-2.3,2.7-2.8c0.6-0.2,1-0.7,1.4-1.5
	c0.1-0.1,0.3-0.6,0.4-0.7c0.3-0.5,0.5-0.7,0.7-0.9c0.7-0.5,2.1-0.8,3.7-0.8c0.6,0,1.2-0.1,2-0.3c0.4-0.1,0.7-0.2,1.1-0.3
	c-0.1,0,1.1-0.3,1.4-0.4c1-0.2,3-0.4,4.7-0.4c1.3,0,2.1-0.7,2.8-2.9c0.5-1.3,0.5-1.9,0.2-2.5l-0.1-0.2c-0.1-0.1-0.1-0.3-0.1-0.5
	c0-0.3,0-0.3,0.2-1.8c0-0.3,0.1-0.5,0.1-0.7c0.1-0.6,0.1-1.1,0.1-1.5c0-0.1,0-0.1,0-0.2h0.1c0,0.1,0,0.2,0,0.2c0,0.4,0,0.9-0.1,1.5
	c0,0.2,0,0.4-0.1,0.7c-0.2,1.5-0.2,1.5-0.2,1.8c0,0.1,0,0.3,0.1,0.4c0,0,0.1,0.2,0.1,0.2c0.3,0.6,0.3,1.2-0.2,2.6
	c-0.8,2.2-1.6,2.9-2.9,2.9c-1.7,0-3.7,0.1-4.7,0.4c-0.3,0.1-1.5,0.4-1.4,0.4c-0.4,0.1-0.7,0.2-1.1,0.3c-0.8,0.2-1.5,0.3-2,0.3
	c-1.6,0-2.9,0.3-3.7,0.8c-0.2,0.2-0.4,0.4-0.7,0.9c-0.1,0.1-0.3,0.6-0.4,0.7c-0.5,0.8-0.9,1.3-1.5,1.6c-1.1,0.5-2.1,1.6-2.6,2.7
	c-0.1,0.1-0.1,0.2-0.1,0.3c0,0.1-0.2,0.7-0.3,0.9c-0.1,0.4-0.3,0.8-0.5,1.1c-0.5,0.9-1.1,1.5-2.1,2c-1.2,0.5-1.7,0.5-1.6-0.1
	c0.1-0.4,0.5-1,1-1.6c0.1-0.2,0.3-0.3,0.4-0.5c0.3-0.6,0.4-1,0.4-2.4c0-1.4-1.1-3.1-2.8-4.1c-1.2-0.7-2.3-0.5-3.7,0.1
	c-0.2,0.1-0.4,0.2-0.5,0.3l-0.1,0.1c-0.3,0.1-0.5,0.3-0.8,0.4c-0.1,0.1-0.9,0.4-1.2,0.5c-1.1,0.5-2.2,1-3.3,1.6
	c-1.2,0.6-1.7,0.5-1.5-0.2c0.1-0.5,0.4-1.1,0.9-1.8C6.6,14.4,7,14,7.5,13.5c0.1-0.1,0.3-0.3,0.5-0.4c0.1-0.1,1-0.8,1.2-1
	c0.2-0.2,0.6-0.7,0.6-0.6c0.2-0.2,0.4-0.3,1.2-0.3c0.6,0,0.9-0.2,1.1-0.5c0.2-0.3,0.2-0.7,0.3-1.4l0-0.2l0-0.2
	c0-0.4,0.3-0.6,0.8-0.7c0.4-0.1,0.9,0,1.6,0.1c0.2,0,0.4,0.1,0.7,0.1c1.1,0.2,1.2,0.2,1.4,0.2c0.4,0,1-0.1,2.8-0.4l0.2,0
	c1.5-0.2,2.3-0.3,2.8-0.3c0.7,0,1.7-0.2,2.6-0.7c1.2-0.6,2.1-1.4,2.6-2.5c0.4-0.7,0.5-1.5,0.5-2.3c0-0.6-0.1-1.2-0.4-2L27.9-0.2z
	 M28.9-0.2L28.9-0.2c0.1,0.3,0.2,0.6,0.3,1.1c0.3,1,0.2,2-0.1,2.9c-0.2,0.6-0.5,1.1-0.8,1.5c-0.4,0.5-0.9,1-1.4,1.4
	c-0.8,0.7-1.7,1.1-2.7,1.4c-0.6,0.1-1.1,0.2-1.7,0.3c-0.2,0-0.5,0.1-0.8,0.1l-0.7,0.1c-0.9,0.1-1.3,0.2-1.6,0.3
	c-0.7,0.3-2.1,0.4-3.6,0.4c-0.1,0-0.2,0-0.3,0c-0.2,0-0.4-0.1-0.7-0.2c-0.5-0.2-0.7-0.2-0.9-0.2c-0.3,0-0.5,0.2-0.6,0.5
	c-0.1,0.3-0.2,0.6-0.2,1.1c-0.1,0.7-0.2,0.9-0.7,1.1c-0.2,0.1-0.3,0.1-0.5,0.2c0,0-0.1,0-0.1,0.1L11.6,12c-0.1,0.1-0.3,0.1-0.7,0.1
	c-0.2,0-0.7,0-0.7,0c-0.1,0-0.1,0-0.5,0.5c-0.1,0.1-0.3,0.2-0.5,0.4c-0.1,0.1-0.5,0.4-0.6,0.4C8.3,13.6,8,13.8,7.8,14
	c-0.4,0.4-0.5,0.7-0.4,0.9c0.1,0.3,0.3,0.3,0.7,0.2c0.2-0.1,0.4-0.2,0.6-0.3c0.1-0.1,0.6-0.3,0.7-0.4c0.3-0.2,0.6-0.3,0.9-0.4
	c0.3-0.1,0.5-0.2,0.8-0.4c0.2-0.1,0.8-0.4,1-0.5c0.3-0.2,0.6-0.3,0.9-0.4c1.3-0.5,2.2-0.7,2.8-0.5l0.4,0.2c0.2,0.1,0.3,0.1,0.4,0.2
	c0.3,0.1,0.7,0.3,1,0.4c1.4,0.7,2.2,1.6,2.6,2.9c0.5,2.1,0.3,3.4-0.6,4.6c-0.3,0.4-0.3,0.7,0,0.7c0.3,0,0.8-0.4,1.1-0.9
	c0.2-0.4,0.4-0.8,0.6-1.6l0.1-0.5c0-0.2,0.1-0.3,0.1-0.5c0.4-1.2,0.8-2,1.6-2.6c0.5-0.4,1.8-1.1,1.9-1.2c0.5-0.4,0.8-0.7,1.1-1.3
	c0.6-1.3,1.6-1.8,3.3-1.8c0.7,0,1.3-0.1,2.2-0.3c0.2,0,0.3-0.1,0.5-0.1c0.2,0,0.3-0.1,0.4-0.1c0.3-0.1,0.5-0.1,0.7-0.1
	c0.3,0,0.7-0.1,2.3-0.4l0.2,0c1.2-0.3,1.9-0.4,2.3-0.4c0.1,0,0.2,0,0.5,0c0.6,0,0.9,0,1.3,0c1.2-0.1,2-0.4,2.2-1.1
	c0.1-0.2,0.2-0.4,0.3-0.7c0,0,0.2-0.4,0.2-0.5c0.4-0.9,0.4-1.6-0.1-2.9C42,4,41.9,3.5,41.8,3c-0.1-0.9-0.1-1.7,0-3l0-0.2h0.1l0,0.2
	c-0.1,1.3-0.1,2.1,0,3c0.1,0.5,0.2,1,0.4,1.5c0.5,1.3,0.5,2,0.1,3c0,0.1-0.2,0.5-0.2,0.5c-0.1,0.2-0.2,0.4-0.3,0.6
	c-0.2,0.7-1,1-2.3,1.1c-0.4,0-0.7,0-1.3,0c-0.3,0-0.4,0-0.5,0c-0.4,0-1.1,0.1-2.3,0.4l-0.2,0c-1.6,0.4-2,0.4-2.3,0.4
	c-0.2,0-0.4,0-0.7,0.1c-0.1,0-0.2,0-0.4,0.1c-0.2,0-0.3,0.1-0.5,0.1c-0.9,0.2-1.5,0.3-2.2,0.3c-1.7,0-2.7,0.5-3.2,1.7
	c-0.3,0.7-0.6,1-1.1,1.4c-0.1,0.1-1.4,0.9-1.9,1.2c-0.8,0.5-1.2,1.3-1.6,2.5c0,0.1-0.1,0.3-0.1,0.5l-0.1,0.5
	c-0.2,0.8-0.4,1.2-0.6,1.6c-0.4,0.6-0.8,0.9-1.2,1c-0.3,0-0.4-0.3-0.1-0.8c0.9-1.2,1.1-2.5,0.6-4.6c-0.3-1.3-1.2-2.2-2.5-2.9
	c-0.3-0.2-0.6-0.3-1-0.4c-0.1-0.1-0.3-0.1-0.4-0.2l-0.4-0.2c-0.6-0.2-1.5,0-2.7,0.5c-0.3,0.1-0.5,0.2-0.9,0.4l-1,0.5
	c-0.3,0.2-0.6,0.3-0.8,0.4c-0.3,0.1-0.6,0.3-0.9,0.4c-0.1,0.1-0.6,0.3-0.7,0.4c-0.2,0.1-0.4,0.2-0.6,0.3c-0.4,0.1-0.6,0.1-0.8-0.3
	c-0.1-0.3,0-0.6,0.4-1c0.2-0.2,0.5-0.4,0.8-0.7c0.1,0,0.5-0.4,0.6-0.4c0.2-0.1,0.3-0.3,0.5-0.4c0.5-0.5,0.5-0.5,0.6-0.5
	c0.1,0,0.5,0,0.7,0c0.4,0,0.5,0,0.6-0.1l0.1-0.1c0,0,0.1-0.1,0.1-0.1c0.2-0.1,0.3-0.1,0.5-0.2c0.5-0.2,0.6-0.4,0.7-1
	c0.1-0.6,0.1-0.8,0.3-1.1c0.1-0.4,0.4-0.5,0.7-0.6c0.2,0,0.4,0,1,0.2c0.2,0.1,0.4,0.1,0.7,0.2c0.1,0,0.2,0,0.3,0
	c1.5,0,2.9-0.1,3.6-0.4c0.3-0.1,0.8-0.2,1.6-0.3l0.7-0.1c0.3,0,0.5-0.1,0.8-0.1c0.6-0.1,1.1-0.2,1.7-0.3c0.9-0.2,1.8-0.7,2.6-1.3
	c0.5-0.4,1-0.9,1.4-1.4c0.4-0.4,0.6-1,0.8-1.5C29.4,2.9,29.4,2,29.1,1C29,0.6,28.9,0.2,28.9-0.2L28.9-0.2z M37.3-0.2L37.3-0.2
	c0.1,0,0,0.1,0,0.1c-0.3,0.4-0.5,0.6-0.7,0.7c-0.1,0.1-0.2,0.1-0.4,0.1c-0.2,0-0.3,0-0.5,0.2L35.5,1c-0.3,0.2-0.6,0.3-1,0.3
	c-0.4,0-0.7-0.1-1.2-0.3C33.2,1,33.2,1,33.1,1L33,0.9c-0.1-0.1-0.2-0.1-0.3-0.1c-0.1,0-0.2,0-0.2,0c-0.2,0-0.3-0.1-0.8-0.2l-0.1,0
	c-0.4-0.1-0.6-0.2-0.8-0.2c-0.2,0-0.3,0.1-0.3,0.5c0,1.5-0.4,3.7-0.9,4.2c-0.6,0.6-2,1.8-2.5,2.1c-1,0.7-2.3,1.5-3.3,1.9
	c-0.3,0.1-0.6,0.2-1,0.3c-0.2,0.1-0.5,0.1-0.8,0.2c0,0-0.7,0.1-0.8,0.1c-0.4,0.1-0.7,0.1-1,0.2c-1.5,0.3-1.9,0.4-2.8,0.4
	c-0.2,0-0.2,0-1-0.1c-0.2,0-0.3-0.1-0.5-0.1c-0.6-0.1-1-0.1-1.3,0c-0.3,0.1-0.4,0.3-0.3,0.8c0.1,0.4,0.4,0.6,0.7,0.8
	c0.2,0.1,0.5,0.2,1,0.3c0.7,0.1,0.8,0.1,1.1,0.2c0.5,0.1,0.9,0.3,1.4,0.5c0.6,0.3,1.1,0.8,1.5,1.5c0.2,0.3,0.7,1.4,0.8,1.6
	c0.3,0.4,0.5,0.5,0.8,0.1c0.4-0.4,0.8-0.6,1.6-1c0,0,0.2-0.1,0.2-0.1c0.6-0.3,0.9-0.5,1.2-0.7c0.4-0.3,0.6-0.6,0.8-1
	c0.6-1.5,1.5-2.5,2.4-2.5l0.4,0c0.8,0,1.3,0,1.8,0c1,0,1.8-0.2,2.2-0.3c0.4-0.2,1-0.4,1.8-0.7c0.3-0.1,0.5-0.2,0.9-0.3
	c0.6-0.2,0.8-0.3,1.1-0.4c0.3-0.1,0.6-0.2,0.8-0.3c0.3-0.1,0.4-0.1,0.6-0.2c0.2-0.1,0.3-0.1,0.5-0.2C37.8,8,37.9,8,38.1,7.9
	c0.3-0.2,0.5-0.2,0.9-0.3l0.1,0c0.4-0.1,0.7-0.2,0.9-0.4c0.6-0.5,0.6-1.7,0.3-3.3c-0.1-0.6-0.2-1.4-0.1-2.6c0-0.5,0-0.9,0.1-1.4h0.1
	l0,0.2c0,0.5,0,0.8-0.1,1.2c0,1.2,0,2,0.1,2.6c0.4,1.6,0.3,2.8-0.3,3.4c-0.3,0.3-0.5,0.4-1,0.4l-0.1,0c-0.4,0.1-0.6,0.1-0.9,0.3
	C38,8,37.8,8.1,37.7,8.2c-0.2,0.1-0.3,0.2-0.5,0.2c-0.2,0.1-0.3,0.1-0.6,0.2c-0.3,0.1-0.6,0.2-0.8,0.3c-0.3,0.1-0.6,0.2-1.1,0.4
	c-0.5,0.2-0.7,0.2-0.9,0.3c-0.8,0.3-1.3,0.5-1.8,0.7c-0.4,0.2-1.2,0.3-2.2,0.4c-0.6,0-1.1,0-1.8,0l-0.4,0c-0.8,0-1.7,0.9-2.3,2.4
	c-0.2,0.4-0.4,0.7-0.8,1c-0.3,0.2-0.6,0.4-1.2,0.7L23,14.8c-0.8,0.4-1.2,0.7-1.5,1c-0.4,0.4-0.6,0.3-0.9-0.2
	c-0.1-0.1-0.6-1.2-0.8-1.6c-0.4-0.7-0.8-1.2-1.4-1.5c-0.4-0.2-0.9-0.4-1.4-0.5c-0.3-0.1-0.4-0.1-1.1-0.2c-0.5-0.1-0.8-0.1-1-0.3
	c-0.3-0.2-0.5-0.4-0.7-0.8c-0.2-0.5-0.1-0.8,0.3-0.9c0.3-0.1,0.7-0.1,1.3,0c0.1,0,0.3,0,0.5,0.1c0.8,0.1,0.8,0.1,1,0.1
	c1,0,1.3,0,2.8-0.4c0.3-0.1,0.7-0.1,1-0.2c0.2,0,0.8-0.1,0.8-0.1c0.3-0.1,0.6-0.1,0.8-0.2c0.3-0.1,0.6-0.2,1-0.3
	C24.6,8.5,26,7.7,26.9,7c0.6-0.4,2-1.6,2.5-2.1c0.5-0.5,0.9-2.7,0.9-4.2c0-0.3,0.1-0.5,0.4-0.5c0.2,0,0.4,0.1,0.8,0.2l0.1,0
	c0.5,0.2,0.6,0.2,0.8,0.2c0.1,0,0.2,0,0.3,0c0.1,0,0.2,0.1,0.3,0.1c0.1,0,0.2,0.1,0.2,0.1l0.1,0c0.4,0.2,0.8,0.3,1.2,0.3
	c0.4,0,0.7-0.1,1-0.3c0,0,0.2-0.1,0.2-0.1c0.2-0.1,0.3-0.2,0.5-0.2c0.1,0,0.2,0,0.3-0.1C36.7,0.5,36.9,0.3,37.3-0.2L37.3-0.2
	L37.3-0.2z M23.8,44.2h-0.1c0-0.2,0.1-0.5,0.1-0.7c0-0.3,0.1-0.6,0.1-0.9c0-0.1,0-0.2,0-0.5c0-0.1-0.1-0.3-0.1-0.5
	c-0.1-0.8-0.2-1.7-0.1-2.5c0.1-0.5,0.2-0.9,0.4-1.3c0.2-0.5,0.6-0.9,0.9-1.3c0.2-0.3,0.4-0.4,0.9-0.8c0.3-0.3,0.5-0.4,0.6-0.6
	c0-0.1,0.1-0.2,0.1-0.2c0-0.1,0-0.1-0.1-0.7c0-0.3,0-0.5-0.1-0.7c0-0.9,0.1-1.4,0.6-1.6c1.2-0.4,1.9-0.9,2.5-1.9
	c0.7-1.2,1.9-2.3,2.6-2.3c0.9,0,1.5-0.1,2.2-0.7c0.5-0.4,0.7-0.5,0.9-0.6c0.2,0,0.3-0.1,0.7-0.1c0.1,0,0.3-0.1,0.4-0.2
	c0.1-0.1,0.4-0.4,0.4-0.4c0.4-0.4,0.9-0.6,1.5-0.6c0.2,0,0.3,0,0.5,0c0.6,0,0.7,0,0.8-0.1c0.2-0.1,0.4-0.2,1.1-0.8
	c0.6-0.5,0.8-0.7,1.7-1.2c0.1-0.1,0.2-0.1,0.3-0.2c0.2-0.2,0.5-0.3,0.7-0.6c0.3-0.3,0.6-0.6,0.9-0.9v0.2c-0.2,0.3-0.5,0.5-0.8,0.8
	c-0.2,0.2-0.5,0.4-0.7,0.6c-0.1,0.1-0.2,0.1-0.3,0.2c-0.9,0.6-1.1,0.7-1.7,1.2c-0.7,0.6-0.9,0.8-1.1,0.9c-0.2,0.1-0.3,0.1-0.9,0.1
	c-0.2,0-0.4,0-0.5,0c-0.6,0-1,0.2-1.4,0.6c0,0-0.3,0.3-0.4,0.4c-0.2,0.2-0.3,0.2-0.5,0.2c-0.4,0-0.5,0-0.6,0
	c-0.2,0.1-0.4,0.2-0.9,0.5c-0.7,0.5-1.3,0.7-2.3,0.7c-0.7,0-1.8,1-2.5,2.3c-0.6,1-1.3,1.6-2.6,2c-0.4,0.1-0.5,0.6-0.5,1.5
	c0,0.2,0,0.4,0.1,0.7c0.1,0.6,0.1,0.6,0.1,0.7c0,0.1,0,0.2-0.1,0.3c-0.1,0.2-0.2,0.3-0.6,0.6c-0.5,0.4-0.6,0.5-0.9,0.8
	c-0.4,0.4-0.7,0.8-0.9,1.3c-0.2,0.4-0.3,0.8-0.4,1.3c-0.1,0.8-0.1,1.6,0.1,2.4c0,0.2,0.1,0.3,0.1,0.5c0,0,0,0.1,0,0.3
	c0,0.4,0,0.8-0.1,1.2C23.9,43.7,23.9,43.9,23.8,44.2L23.8,44.2z M22.8,44.2L22.8,44.2L22.8,44.2c0.2-0.5,0.2-0.9,0.2-1.4
	c0-0.3,0-0.4-0.1-1.2c-0.1-0.9-0.1-1.5,0-2.1c0-0.8,0.2-1.6,0.4-2.4c0.1-0.3,0.2-0.6,0.3-0.8c0.3-0.5,0.5-0.9,0.8-1.2
	c0.1-0.1,0.2-0.2,0.3-0.3c0,0,0.2-0.2,0.3-0.3c0.4-0.4,0.6-0.9,0.6-2.2c0-1.4,0.2-1.8,1.2-2.1c0.1,0,0.1,0,0.2-0.1
	c0.2-0.1,0.3-0.1,0.5-0.2c0.4-0.2,0.7-0.5,1.1-0.8c1.9-2,2.7-2.6,4.2-2.6c0.6,0,1.1-0.1,1.6-0.5c0.1-0.1,1-0.7,1.3-0.8
	c0.2-0.1,0.4-0.2,0.6-0.3c0.6-0.3,1-0.3,2-0.4c0.6,0,0.8,0,1.1-0.1c0.3-0.1,0.6-0.3,0.8-0.6c0.2-0.3,0.5-0.5,1.1-0.9
	c0.1-0.1,0.2-0.2,0.4-0.3c0.7-0.4,0.9-0.5,1.1-0.7c0.4-0.3,0.7-0.6,1-1.1c0.1-0.2,0.3-0.4,0.4-0.6v0.1c-0.1,0.2-0.3,0.4-0.4,0.5
	c-0.3,0.5-0.6,0.8-1,1.1c-0.2,0.2-0.4,0.3-1.1,0.7c-0.1,0.1-0.3,0.2-0.4,0.3c-0.6,0.4-0.9,0.6-1.1,0.9c-0.2,0.3-0.5,0.5-0.8,0.7
	c-0.3,0.1-0.5,0.1-1.1,0.1c-0.9,0-1.4,0.1-1.9,0.3c-0.2,0.1-0.4,0.2-0.6,0.3c-0.3,0.2-1.2,0.8-1.3,0.8c-0.6,0.3-1,0.5-1.7,0.5
	c-1.4,0-2.2,0.5-4.1,2.6c-0.4,0.4-0.7,0.7-1.1,0.9c-0.1,0.1-0.3,0.1-0.5,0.2c-0.1,0-0.1,0-0.4,0.1c-0.4,0.1-0.5,0.2-0.7,0.5
	c-0.2,0.3-0.2,0.7-0.2,1.5c0,1.3-0.1,1.8-0.6,2.2c-0.1,0-0.2,0.2-0.3,0.3c-0.1,0.1-0.2,0.2-0.3,0.3c-0.3,0.3-0.5,0.7-0.8,1.2
	c-0.1,0.3-0.2,0.5-0.3,0.8c-0.2,0.7-0.4,1.5-0.4,2.4c0,0.6,0,1.2,0,2.1c0.1,0.8,0.1,0.9,0.1,1.2C23.1,43.2,23.1,43.6,22.8,44.2
	L22.8,44.2z M24.7,44.2L24.7,44.2c-0.1-0.3-0.1-0.7-0.1-1.1c0-0.5,0-0.9-0.2-1.8l0-0.1c-0.2-0.9-0.2-1.4-0.1-2
	c0.1-0.7,0.4-1.2,0.9-1.7c1.6-1.3,2.2-2.2,2.2-3.3c0-0.2,0-0.4-0.1-0.6c-0.1-0.4-0.1-0.4-0.1-0.6c0-0.2,0.1-0.3,0.3-0.5
	c0.2-0.2,0.5-0.3,1-0.5c0.7-0.3,1.1-0.7,1.8-1.6l0.1-0.2c0.3-0.5,0.5-0.7,0.8-0.9c0.3-0.3,0.7-0.5,1.1-0.6c1-0.2,1.5-0.4,1.9-0.6
	c0.1-0.1,0.3-0.1,0.4-0.2c0.1,0,0.1-0.1,0.3-0.2c0.2-0.1,0.4-0.2,0.8-0.2c0.4,0,0.6,0,0.8-0.1c0.3-0.1,0.5-0.2,0.7-0.5
	c0.4-0.4,0.7-0.6,1.3-0.7c0.1,0,0.1,0,0.3,0c0.5-0.1,0.7-0.1,1-0.3c0.3-0.2,0.5-0.3,1.7-1.5l0.2-0.2c0.7-0.6,1.2-1,1.6-1.2
	c0.3-0.2,0.6-0.3,0.8-0.6v0.1c-0.3,0.3-0.5,0.4-0.8,0.6c-0.4,0.2-0.9,0.6-1.6,1.2l-0.2,0.2c-1.2,1.1-1.4,1.3-1.7,1.5
	c-0.3,0.1-0.5,0.2-1,0.3c-0.1,0-0.2,0-0.3,0c-0.6,0.1-0.9,0.3-1.3,0.6c-0.2,0.2-0.5,0.4-0.7,0.5c-0.2,0.1-0.4,0.1-0.8,0.1
	c-0.4,0-0.6,0-0.8,0.2c-0.1,0.1-0.2,0.1-0.3,0.2c-0.1,0.1-0.3,0.1-0.4,0.2c-0.4,0.2-0.9,0.3-1.9,0.6c-0.7,0.2-1.1,0.6-1.8,1.5
	l-0.1,0.2c-0.7,0.9-1.1,1.4-1.8,1.6c-0.5,0.2-0.8,0.3-1,0.5c-0.2,0.1-0.2,0.3-0.2,0.4c0,0.1,0,0.2,0.1,0.5c0.1,0.3,0.1,0.4,0.1,0.6
	c0,1.1-0.6,2-2.2,3.4c-0.5,0.4-0.8,1-0.9,1.6c-0.1,0.5,0,1,0.1,1.9l0,0.1c0.2,0.9,0.2,1.3,0.2,1.8C24.7,43.5,24.7,43.8,24.7,44.2
	L24.7,44.2z M6.9,44.2H6.8c0.1-0.3,0.1-0.7,0.1-1.2c0-0.2,0-0.3,0-0.4c0.1-1.3,0.3-2,0.8-2.5c0.3-0.3,0.5-0.7,0.6-1.2
	c0-0.2,0.1-0.3,0.1-0.7c0-0.4,0.1-0.6,0.2-0.8c0.1-0.2,0.3-0.3,0.5-0.3c1.1,0,2.8,0.7,4,1.5c0.6,0.5,1.6,1,2.3,1.3
	c1,0.3,1.6,0.3,1.8-0.1c0.1-0.3,0.1-0.3,0.2-0.4c0.2-0.5,0.3-0.9,0.4-1.3c0-0.2,0-0.3,0-0.5c0-0.2-0.1-0.3-0.3-0.5l-0.1-0.1
	c-0.1-0.1-0.1-0.1-0.2-0.2c-0.1-0.1-0.1-0.2-0.2-0.3l-0.1-0.2c-0.1-0.2-0.2-0.3-0.3-0.4c-0.4-0.3-1.1-0.4-2.1-0.5
	c-0.2,0-0.4,0-0.7-0.1l-0.2,0c-0.7-0.1-1.1-0.1-1.4-0.2c-1-0.4-2.6-2-2.6-2.7c0-0.4,0.1-0.7,0.4-1c0.1-0.2,0.8-0.9,0.9-1
	c0.3-0.4,0.8-0.7,1.3-1.1c0.2-0.1,1.1-0.7,1.3-0.8c0.2-0.1,0.3-0.3,0.5-0.4c0.1-0.1,0.5-0.5,0.5-0.5c0.5-0.5,0.9-0.9,1.5-1.1
	c0.2-0.1,0.6-0.2,1.3-0.4c0.3-0.1,0.6-0.2,0.9-0.2c0.3-0.1,0.6-0.2,0.9-0.3c1.5-0.5,2.5-0.9,3-1.4c0.6-0.6,0.9-1,1.2-1.9
	c0.1-0.5,0.2-0.7,0.4-0.9c0.7-1.3,2.1-2.9,3.2-3.4c1-0.4,1.4-0.9,1.4-1.3c0-0.2,0.2-0.6,0.5-1c0.4-0.5,0.8-0.8,1.2-1
	c0.9-0.4,2.5-0.7,3.5-0.7c0.4,0,0.7-0.1,1.2-0.4c0.7-0.3,0.7-0.4,1-0.4c0.8,0,2.4-0.2,3.4-0.4l0.3-0.1l0.3-0.1
	c0.2,0,0.3-0.1,0.4-0.1c0.3-0.1,0.5-0.1,0.7-0.1c0.2,0,0.4,0,0.6,0.1c0.3,0.1,1-0.1,1.7-0.4c0.3-0.1,0.5-0.3,0.7-0.5v0.2
	c-0.8,0.6-1.9,1-2.5,0.8c-0.2-0.1-0.4-0.1-0.6-0.1c-0.2,0-0.4,0-0.7,0.1c-0.2,0.1-0.5,0.1-0.7,0.2l-0.3,0.1c-1,0.3-2.6,0.4-3.4,0.4
	c-0.2,0-0.3,0-0.9,0.4c-0.5,0.3-0.9,0.4-1.3,0.4c-1,0-2.5,0.3-3.4,0.7c-0.4,0.2-0.8,0.6-1.2,1c-0.3,0.4-0.5,0.8-0.5,0.9
	c0,0.5-0.4,1-1.5,1.5c-1.1,0.4-2.4,2-3.1,3.3c-0.1,0.3-0.2,0.5-0.4,0.9c-0.3,0.9-0.5,1.4-1.2,2c-0.5,0.5-1.5,0.9-3.1,1.4
	c-0.3,0.1-0.6,0.2-0.9,0.3c-0.3,0.1-0.6,0.2-0.9,0.2c-0.7,0.2-1,0.3-1.3,0.4c-0.5,0.2-0.9,0.5-1.4,1c0,0-0.4,0.4-0.5,0.5
	c-0.2,0.2-0.3,0.3-0.5,0.4c-0.2,0.1-1.1,0.7-1.3,0.8c-0.5,0.4-1,0.7-1.3,1.1c-0.1,0.1-0.8,0.8-0.9,1c-0.3,0.3-0.4,0.6-0.4,1
	c0,0.7,1.5,2.2,2.5,2.6c0.3,0.1,0.7,0.2,1.4,0.2c0.1,0,0.2,0,0.3,0c0.2,0,0.4,0,0.5,0c1,0.1,1.8,0.3,2.2,0.5
	c0.1,0.1,0.2,0.2,0.4,0.5l0.1,0.2c0.1,0.1,0.1,0.2,0.2,0.3c0,0.1,0.1,0.1,0.2,0.2c0,0,0.1,0.1,0.1,0.1c0.2,0.2,0.3,0.4,0.3,0.6
	c0,0.2,0,0.3,0,0.5c0,0.4-0.2,0.8-0.4,1.3c-0.1,0.1-0.1,0.2-0.2,0.4c-0.3,0.6-1,0.6-2,0.2c-0.8-0.3-1.7-0.8-2.4-1.3
	c-1.1-0.8-2.9-1.5-3.9-1.5c-0.4,0-0.5,0.2-0.6,1c0,0.2-0.1,0.5-0.1,0.7c-0.1,0.6-0.3,1-0.7,1.3c-0.5,0.4-0.7,1.1-0.8,2.3
	c0,0.1,0,0.2,0,0.4C7,43.5,7,43.9,6.9,44.2L6.9,44.2z M7.5,44.2L7.5,44.2c-0.1-0.1,0-0.2,0-0.3l0.1-0.4c0.2-1,0.3-1.5,0.5-1.8
	c0.1-0.2,0.3-0.4,0.6-0.8c0.6-0.8,0.8-1.1,0.8-1.4l0-0.1c0-0.1,0-0.2,0-0.3c0-0.4,0.1-0.6,0.3-0.7c0.3-0.1,0.8,0,1.5,0.5
	c0.7,0.4,1.3,0.8,1.9,1.2c0.1,0.1,1.1,0.6,1.3,0.8c0.2,0.1,0.3,0.2,0.5,0.3c1,0.6,2.9,0.4,3.4-0.6c0.3-0.5,0.3-0.6,0.6-1.3
	c0-0.1,0.1-0.2,0.1-0.2c0.1-0.2,0.2-0.4,0.3-0.6c0.7-1,1.1-1.9,1.1-2.7c0-0.3,0.1-0.5,0.2-1.1c0-0.1,0.1-0.2,0.1-0.3
	c0.3-0.9,0.2-1.4-0.3-1.8c-0.2-0.1-0.5-0.2-0.7-0.3c-0.5-0.1-1.1,0.1-1.8,0.4c-0.1,0.1-0.5,0.3-0.6,0.3c-0.1,0.1-0.2,0.1-0.3,0.2
	l-0.3,0.2c-0.9,0.5-1.5,0.7-2.4,0.4c-0.2-0.1-0.5-0.1-1-0.2c-1-0.2-1.4-0.3-1.7-0.5c-0.5-0.3-0.6-0.7-0.2-1.2
	c0.3-0.5,0.7-0.9,1.1-1.4c0.2-0.2,0.4-0.4,0.6-0.6c0,0,0.5-0.4,0.6-0.5c0.2-0.1,0.3-0.3,0.5-0.5c0.6-0.6,0.9-1,1.5-1.4
	c0.7-0.5,1.6-0.9,2.6-1.2c2.7-0.6,3.8-0.9,4.3-1.3c0.6-0.4,1.6-1.8,2.7-4c0.4-0.7,0.9-1.4,1.6-1.9c0.4-0.3,0.7-0.5,1.3-0.9
	c0.5-0.3,0.7-0.5,0.8-0.6c0.1-0.1,0.2-0.2,0.2-0.4c0-0.1,0.2-0.5,0.2-0.5c0.1-0.2,0.2-0.4,0.3-0.6c0.5-0.8,1.2-1.3,2.3-1.5
	c0.9-0.2,1.5-0.2,2.2-0.2c0.2,0,0.3,0,0.4,0c0.4,0,0.7-0.1,1.2-0.3c1.5-0.6,2.9-0.9,4.4-0.9c0.2,0,0.4,0,0.8,0l0.2,0
	c0.9,0.1,1.3,0.1,1.9,0c0.4-0.1,0.7-0.2,1-0.4v0.1c-0.3,0.2-0.7,0.3-1,0.4c-0.5,0.1-1,0.1-1.9,0l-0.2,0c-0.3,0-0.5,0-0.8,0
	c-1.5,0-2.8,0.3-4.3,0.9c-0.5,0.2-0.9,0.3-1.3,0.3c-0.1,0-0.2,0-0.4,0c-0.7,0-1.2,0-2.2,0.2c-1.1,0.2-1.8,0.7-2.3,1.5
	c-0.1,0.2-0.2,0.4-0.3,0.6c0,0-0.2,0.4-0.2,0.5c-0.1,0.1-0.1,0.3-0.2,0.4c-0.1,0.2-0.3,0.3-0.9,0.6c-0.6,0.4-0.9,0.6-1.3,0.9
	c-0.6,0.5-1.2,1.1-1.5,1.9c-1.2,2.2-2.1,3.6-2.7,4.1c-0.6,0.4-1.6,0.7-4.4,1.3c-1,0.2-1.8,0.6-2.6,1.1c-0.5,0.4-0.9,0.7-1.5,1.4
	c-0.2,0.2-0.3,0.3-0.5,0.5c-0.1,0.1-0.6,0.5-0.6,0.5c-0.2,0.2-0.4,0.4-0.6,0.6c-0.4,0.4-0.8,0.9-1.1,1.3c-0.3,0.5-0.2,0.9,0.2,1.1
	c0.3,0.2,0.7,0.3,1.7,0.5c0.3,0.1,0.6,0.1,1,0.2c0.9,0.2,1.5,0.1,2.4-0.4l0.3-0.2c0.1-0.1,0.2-0.1,0.3-0.2c0.1,0,0.4-0.2,0.6-0.3
	c0.7-0.4,1.3-0.5,1.8-0.4c0.3,0,0.5,0.1,0.8,0.3c0.6,0.4,0.6,0.9,0.3,1.9c0,0.1,0,0.2-0.1,0.3c-0.2,0.6-0.2,0.8-0.2,1.1
	c0,0.8-0.4,1.7-1.1,2.8c-0.1,0.2-0.2,0.4-0.3,0.6c0,0.1-0.1,0.1-0.1,0.2c-0.2,0.7-0.3,0.8-0.6,1.3c-0.6,1-2.5,1.3-3.5,0.6
	c-0.2-0.1-0.3-0.2-0.5-0.3c-0.3-0.2-1.2-0.7-1.3-0.8c-0.6-0.4-1.2-0.7-1.9-1.2c-0.7-0.4-1.2-0.6-1.4-0.5c-0.2,0.1-0.3,0.3-0.3,0.6
	c0,0.1,0,0.2,0,0.3l0,0.1c0,0.3-0.2,0.6-0.9,1.5c-0.3,0.4-0.4,0.6-0.6,0.8C8,42,7.8,42.4,7.7,43.4l-0.1,0.4L7.5,44.2L7.5,44.2z
	 M8.3,44.2L8.3,44.2C8.2,44.1,8.2,44.1,8.3,44.2c-0.1-1,0.6-2.6,1.3-3.3c0.1-0.1,0.2-0.2,0.3-0.3c0.1-0.1,0.2-0.2,0.2-0.4
	c0-0.1,0.1-0.3,0.2-0.3c0.2-0.5,0.5-0.5,1.3,0c0.1,0.1,0.4,0.3,0.5,0.3c0.2,0.1,0.3,0.2,0.5,0.3c0.4,0.3,0.7,0.5,1,0.6
	c1.1,0.6,1.9,1,2.5,1c1.2,0,2.4-0.4,2.9-1.1c0.1-0.2,0.2-0.4,0.4-0.7c0.1-0.1,0.1-0.3,0.2-0.5l0.2-0.5c0.3-0.9,0.6-1.4,0.9-1.7
	c0.6-0.6,1.1-2.7,1.1-3.9c0-0.1,0-0.2,0.1-0.6c0-0.2,0-0.3,0.1-0.4c0-0.4,0-0.7-0.1-0.9c-0.3-0.5-1.5-0.7-2.8-0.4
	c-0.5,0.1-0.9,0.3-1.4,0.5c-0.4,0.2-1.3,0.7-1.2,0.7c-0.5,0.3-1,0.3-1.8,0.1c-2.2-0.5-2.2-0.6-1.1-2c1.3-1.5,3.5-3.4,4.2-3.4
	c0.7,0,4-0.9,4.9-1.3c0.7-0.3,1.8-1.6,2.7-2.8c0.1-0.1,1-1.6,1.4-2.2c0.7-1,1.3-1.7,2-2c0.5-0.3,1-0.8,1.4-1.4
	c0.1-0.2,0.8-1.3,0.9-1.5c0.1-0.1,0.2-0.2,0.3-0.3c1-0.5,1.8-0.7,2.9-0.7h2.1c0.3,0,0.5,0,1.7-0.2l0.3,0c0.7-0.1,1.2-0.1,1.6-0.1
	c0.1,0,0.2,0,0.4,0c1.4,0,2.1,0,3.3-0.3c0.2,0,0.5-0.1,0.7-0.2v0.1c-0.2,0.1-0.4,0.2-0.7,0.2c-1.2,0.3-2,0.3-3.3,0.3
	c-0.2,0-0.3,0-0.4,0c-0.4,0-0.9,0-1.6,0.1l-0.3,0c-1.2,0.2-1.4,0.2-1.7,0.2H34c-1.1,0-1.8,0.2-2.9,0.7c-0.1,0-0.2,0.1-0.3,0.3
	c-0.2,0.2-0.8,1.3-0.9,1.5c-0.4,0.6-0.9,1.1-1.4,1.4c-0.6,0.4-1.3,1.1-2,2c-0.4,0.6-1.4,2.1-1.4,2.2c-0.9,1.2-2,2.5-2.7,2.8
	c-0.9,0.4-4.1,1.3-4.9,1.3c-0.7,0-2.8,1.9-4.1,3.4c-1.1,1.3-1,1.3,1.1,1.9c0.9,0.2,1.3,0.2,1.8-0.1c0,0,0.8-0.5,1.2-0.7
	c0.4-0.2,0.9-0.3,1.4-0.5c1.4-0.3,2.6-0.2,2.9,0.4c0.2,0.2,0.2,0.5,0.1,1c0,0.1,0,0.3-0.1,0.4c-0.1,0.4-0.1,0.5-0.1,0.6
	c0,1.2-0.5,3.3-1.1,3.9c-0.3,0.3-0.5,0.8-0.8,1.7c0,0.1-0.2,0.4-0.2,0.5c-0.1,0.2-0.1,0.4-0.2,0.5c-0.1,0.3-0.3,0.6-0.4,0.7
	c-0.5,0.7-1.7,1.1-3,1.1c-0.7,0-1.5-0.3-2.6-1c-0.3-0.2-0.6-0.4-1-0.6c-0.2-0.1-0.3-0.2-0.5-0.3L11.5,40c-0.7-0.5-0.9-0.5-1.1-0.1
	c0,0.1-0.1,0.3-0.2,0.3c-0.1,0.1-0.1,0.3-0.2,0.4c-0.1,0.1-0.2,0.2-0.3,0.3C8.9,41.6,8.3,43.2,8.3,44.2L8.3,44.2L8.3,44.2z
	 M6.1,44.2L6.1,44.2c0-0.2,0.1-0.4,0.1-0.6c0-1.5,0.4-3.1,0.9-3.6c0.4-0.4,0.6-0.6,0.7-0.9c0.2-0.4,0.3-0.9,0.3-1.5
	c0-0.5,0.1-0.9,0.2-1.1C8.5,36.1,8.6,36,9,35.8c0.1-0.1,0.2-0.1,0.3-0.2c0.3-0.3,0.5-0.5,0.6-0.7c0.1-0.3,0.1-0.7-0.1-1.2
	c-0.1-0.2-0.2-0.4-0.3-0.6L9.3,33c-0.1-0.1-0.1-0.2-0.2-0.4c-0.4-0.8-0.3-1.4,0.6-2.2c0.6-0.6,1.3-1.1,2-1.6
	c0.3-0.2,1.2-0.8,1.4-0.9c0.1-0.1,0.3-0.2,0.6-0.5c0,0,0.5-0.5,0.7-0.6c0.4-0.3,0.7-0.6,1-0.7c0.3-0.2,0.7-0.4,1-0.5
	c0.9-0.3,1.2-0.3,1.6-0.4c0.9-0.3,1.6-0.5,2.1-0.7c0.2-0.1,0.4-0.2,0.6-0.2c0.6-0.2,0.9-0.3,1.3-0.6c0.5-0.4,1-1.1,1.4-2.1
	c1.2-2.6,1.4-2.9,2.4-3.6c0.2-0.2,0.5-0.3,0.8-0.5l0.2-0.1c0.9-0.4,1.2-0.7,1.6-1.3c0.1-0.3,0.2-0.5,0.2-0.9
	c0.1-0.4,0.1-0.6,0.3-0.8c0.2-0.3,0.5-0.5,1.1-0.7c0.2-0.1,0.5-0.2,0.9-0.3c1.2-0.3,1.9-0.4,2.9-0.4c0.5,0,0.7,0,0.9-0.1
	c0.1,0,0.2-0.1,0.3-0.2c0.3-0.2,0.6-0.3,1-0.4c0.4-0.1,0.8-0.1,1.4-0.1l0.2,0c0.2,0,0.5-0.1,1.5-0.3c0.8-0.2,1.2-0.3,1.4-0.3
	c0.1,0,0.1,0,0.3,0l0.4,0.1c0.7,0.1,1.3,0.1,1.9,0c0.6-0.2,1.1-0.5,1.5-1.1v0.1c-0.4,0.5-0.9,0.8-1.5,1c-0.6,0.2-1.2,0.1-1.9,0
	l-0.4-0.1c-0.1,0-0.2,0-0.3,0c-0.2,0-0.6,0.1-1.5,0.3c-0.9,0.3-1.2,0.3-1.4,0.3l-0.2,0c-0.6,0-0.9,0-1.4,0.1c-0.4,0.1-0.7,0.2-1,0.4
	c-0.1,0.1-0.2,0.1-0.3,0.2c-0.2,0.1-0.4,0.1-1,0.2c-1.1,0-1.7,0.1-2.9,0.4c-0.3,0.1-0.6,0.2-0.9,0.3c-0.5,0.2-0.8,0.4-1,0.6
	c-0.1,0.2-0.2,0.4-0.2,0.7c-0.1,0.4-0.1,0.6-0.3,0.9c-0.2,0.3-0.4,0.6-0.7,0.8c-0.2,0.2-0.4,0.3-0.9,0.5l-0.2,0.1
	c-0.4,0.2-0.6,0.3-0.8,0.5c-1,0.7-1.2,1-2.4,3.6c-0.5,1-0.9,1.7-1.4,2.1c-0.4,0.3-0.6,0.4-1.3,0.6c-0.2,0.1-0.4,0.1-0.5,0.2
	c-0.5,0.2-1.2,0.5-2.1,0.7c-0.5,0.2-1.1,0.3-1.6,0.4c-0.3,0.1-0.6,0.2-0.9,0.5c-0.3,0.2-0.7,0.5-1,0.7c-0.2,0.1-0.7,0.6-0.7,0.6
	c-0.2,0.2-0.4,0.3-0.6,0.5c-0.2,0.1-1.1,0.7-1.4,0.9c-0.7,0.5-1.4,1-2,1.6c-0.8,0.8-0.9,1.4-0.6,2.1c0.1,0.1,0.1,0.2,0.2,0.4L9.5,33
	c0.1,0.2,0.2,0.4,0.3,0.6c0.2,0.5,0.3,0.9,0.1,1.2c-0.1,0.3-0.2,0.4-0.6,0.7c-0.1,0.1-0.2,0.1-0.4,0.3c-0.3,0.2-0.4,0.3-0.5,0.5
	c-0.2,0.2-0.2,0.6-0.2,1.1c0,0.7-0.1,1.2-0.3,1.6c-0.2,0.3-0.4,0.6-0.7,1c-0.5,0.5-0.9,2.1-0.9,3.6C6.2,43.8,6.2,44,6.1,44.2
	L6.1,44.2z M27,44.2L27,44.2l-0.2-0.4c-0.2-1.2-0.3-1.9-0.2-2.8c0.1-0.4,0.1-0.7,0-1.1c0-0.3,0-0.4,0-0.6c0.1-0.3,0.3-0.6,0.8-1.2
	c0.7-0.8,0.9-1.1,1.5-2.2c0.1-0.2,0.2-0.3,0.2-0.5c0.1-0.1,0.1-0.2,0.2-0.3c0.2-0.3,0.5-0.6,1.2-1.2c0.8-0.7,1.1-1,1.3-1.4
	c0.1-0.1,0.1-0.2,0.1-0.3c0-0.1,0.1-0.2,0.1-0.3c0.3-0.7,0.6-1,1.7-1.3c0.4-0.1,1.5-0.4,1.6-0.4c1.2-0.3,1.9-0.5,2.5-0.9
	c0.4-0.3,0.4-0.3,2-1.2l0.2-0.1c0.8-0.4,1.3-0.8,1.7-1c0.2-0.1,0.4-0.3,0.7-0.5c0.2-0.1,0.3-0.2,0.5-0.4c0.4-0.3,0.8-0.5,1.2-0.8
	v0.1c-0.4,0.2-0.8,0.4-1.1,0.7c0,0-0.4,0.3-0.5,0.4c-0.2,0.2-0.4,0.3-0.7,0.5c-0.4,0.3-0.9,0.6-1.7,1L40,28c-1.6,0.9-1.6,0.9-2,1.2
	c-0.6,0.4-1.3,0.6-2.5,0.9c-0.1,0-1.2,0.3-1.6,0.4c-0.6,0.2-1,0.3-1.2,0.6c-0.2,0.2-0.3,0.4-0.4,0.7l-0.1,0.3c0,0.1-0.1,0.2-0.1,0.3
	c-0.2,0.4-0.5,0.7-1.4,1.4c-0.7,0.6-1,0.9-1.2,1.2c-0.1,0.1-0.1,0.2-0.2,0.3c-0.1,0.1-0.1,0.3-0.2,0.5c-0.6,1.1-0.8,1.5-1.5,2.2
	c-0.5,0.6-0.7,0.9-0.7,1.2c0,0.1,0,0.2,0,0.5c0,0.4,0,0.7,0,1.1c-0.1,0.8,0,1.5,0.2,2.7L27,44.2L27,44.2z M21.3,44.2h-0.2l0.1-0.3
	c0.1-0.2,0.1-0.5,0.2-0.8c0.2-0.9,0.2-1.7,0.2-3.1c0-0.4-0.1-0.7-0.3-0.7c-0.2,0-0.5,0.4-0.8,1.3c-0.7,2.1-1.7,3.1-3.2,3.1
	c-1.7,0-2.2-0.1-3.6-0.7c-0.2-0.1-0.5-0.2-0.7-0.4c-0.2-0.1-0.9-0.6-1.1-0.7c-0.3-0.2-0.5-0.2-0.7-0.1c0,0-0.1,0.1-0.1,0.1
	c-0.1,0.1-0.2,0.2-0.3,0.3c-0.1,0.1-0.1,0.1-0.2,0.2l-0.1,0.1c-0.6,0.5-0.8,0.8-0.8,1.6c0,0.1,0,0.1,0,0.2H9.6c0-0.1,0-0.1,0-0.2
	c0-0.8,0.2-1.2,0.9-1.7c0,0,0.1-0.1,0.1-0.1c0.1,0,0.1-0.1,0.1-0.1c0.1-0.1,0.2-0.2,0.3-0.3c0.1-0.1,0.1-0.1,0.2-0.1
	c0.3-0.2,0.5-0.1,0.9,0.1c0.2,0.1,0.9,0.6,1.1,0.7c0.2,0.1,0.4,0.3,0.7,0.4c1.4,0.6,1.9,0.7,3.5,0.7c1.4,0,2.3-0.9,3-3
	c0.3-0.9,0.6-1.4,0.9-1.4c0.3,0,0.5,0.4,0.5,0.9c0,1.3,0,2.1-0.2,3.1c-0.1,0.3-0.1,0.5-0.2,0.8C21.4,44,21.4,44.1,21.3,44.2
	L21.3,44.2z M10.3,44.2L10.3,44.2c0.2-0.4,0.4-0.7,0.5-1c0.2-0.5,0.4-0.7,0.7-0.8c0.3-0.1,0.5,0.1,0.9,0.4c0.4,0.3,0.4,0.4,0.6,0.4
	c0.1,0,0.3,0.1,0.7,0.2c0.1,0,0.8,0.3,1,0.4c0.2,0.1,0.4,0.2,0.6,0.2c0.2,0.1,0.4,0.2,0.6,0.2h-0.3c-0.1,0-0.3-0.1-0.4-0.1
	c-0.2-0.1-0.4-0.2-0.6-0.2c-0.2-0.1-0.9-0.4-1-0.4c-0.3-0.1-0.5-0.2-0.6-0.2c-0.1,0-0.2-0.1-0.6-0.4c-0.4-0.3-0.6-0.4-0.9-0.4
	c-0.2,0.1-0.4,0.3-0.6,0.7C10.7,43.5,10.6,43.8,10.3,44.2L10.3,44.2L10.3,44.2z M18.6,44.2c0.3-0.1,0.6-0.3,0.8-0.5
	c0.1-0.1,0.2-0.3,0.4-0.5c0.1-0.1,0.2-0.2,0.3-0.4c0.1-0.1,0.1-0.2,0.2-0.3l0-0.1l0.1-0.1c0.1-0.1,0.2-0.2,0.2-0.4
	c0.1-0.1,0.1-0.2,0.2-0.2c0.1,0,0.1,0,0.1,0.2l0,0.2c0,0.5,0,0.8-0.1,1.2c0,0.3-0.1,0.5-0.2,0.8h-0.1c0.1-0.3,0.2-0.5,0.2-0.8
	c0-0.4,0.1-0.7,0.1-1.2l0-0.2c0-0.1,0-0.1,0-0.1c0,0-0.1,0.1-0.1,0.2c-0.1,0.1-0.2,0.2-0.2,0.4l-0.1,0.1l0,0.1
	c-0.1,0.1-0.1,0.2-0.2,0.3c-0.1,0.1-0.2,0.3-0.3,0.4c-0.2,0.2-0.3,0.4-0.4,0.5c-0.2,0.2-0.4,0.3-0.7,0.4L18.6,44.2L18.6,44.2z
	 M5.1,44.2H5c0.2-0.3,0.4-0.6,0.4-1.1c0-1.4,0-1.3,0.1-1.5c0-0.1,0.1-0.3,0.2-0.5c0-0.1,0.4-0.6,0.5-0.8C6.4,39.9,7,39,7.1,38.9
	c0.3-0.4,0.3-0.9,0.3-1.8c0-0.6,0.2-1,0.6-1.7L8.2,35c0.1-0.1,0.1-0.2,0.2-0.3c0.1-0.2,0.2-0.4,0.2-0.6c0-0.3-0.1-0.5-0.4-0.8
	c-0.4-0.4-0.6-0.4-0.8-0.1c-0.2,0.2-0.3,0.6-0.4,1.2C7,34.4,7,34.7,7,34.7c-0.1,0.3-0.1,0.5-0.2,0.7c-0.1,0.3-0.3,0.6-0.6,0.9
	L6,36.5C5.5,37,5.2,37.4,5.1,38L5,38.4c-0.1,0.3-0.1,0.5-0.2,0.7c-0.3,1-0.7,1.9-1.7,3.3c-0.6,0.8-0.8,1.4-0.8,1.8H2.3
	c0-0.4,0.2-1,0.8-1.8c1-1.4,1.4-2.3,1.7-3.3c0.1-0.2,0.1-0.4,0.2-0.7l0.1-0.4c0.1-0.6,0.4-1,0.9-1.5c0,0,0.2-0.2,0.2-0.2
	c0.3-0.3,0.5-0.6,0.6-0.9c0.1-0.2,0.1-0.5,0.2-0.7L7,34.3c0.1-0.7,0.2-1,0.4-1.2c0.2-0.3,0.5-0.3,0.9,0.1c0.3,0.3,0.4,0.6,0.4,0.9
	c0,0.2-0.1,0.4-0.2,0.6c-0.1,0.1-0.1,0.2-0.2,0.3l-0.2,0.3c-0.4,0.7-0.6,1.1-0.6,1.7c0,0.9-0.1,1.4-0.4,1.8c-0.1,0.2-0.7,1-0.9,1.4
	c-0.1,0.2-0.5,0.8-0.5,0.8c-0.1,0.2-0.2,0.3-0.2,0.5c-0.1,0.2-0.1,0.2-0.1,1.5C5.4,43.5,5.3,43.9,5.1,44.2L5.1,44.2z M22.7-0.2
	L22.7-0.2c0.1,0.1,0,0.1,0,0.2c-0.3,0.7-0.4,1.1-0.4,1.9c0,0.6-0.2,0.9-0.5,1c-0.3,0.1-0.4,0.1-1.3,0c-0.9-0.1-1.4-0.1-2.1,0
	C18,3,16.6,3.3,16.1,3.3c-0.8,0-2.7-0.2-4-0.5c-0.4-0.1-0.9,0-1.3,0.2c-0.3,0.2-0.5,0.4-1,0.9c-0.5,0.5-0.7,0.7-1,0.8
	C8.3,5,8,5.3,7.8,5.6C7.7,5.9,7.6,6.2,7.6,6.8c0,0.3-0.2,0.5-0.7,0.7c0,0-0.2,0.1-0.3,0.1C6,7.9,5.7,8.2,5.7,8.8
	c0,0.9-0.4,1.4-1.3,2.1l-0.3,0.2c-0.1,0.1-0.2,0.2-0.3,0.2c-0.1,0.1-0.1,0.1-0.2,0.1C3,12,2.7,12.6,2.4,14c0,0.2-0.2,1-0.3,1.3
	c-0.1,0.5-0.2,1-0.4,1.4c-0.1,0.3-0.3,1.1-0.4,1.2c-0.1,0.3-0.1,0.4-0.2,0.5c-0.1,0.1-0.5,0.7-0.9,1.3l-0.4,0.6v-0.1l0.3-0.5
	c0.3-0.5,0.6-0.9,0.9-1.3c0,0,0.1-0.2,0.2-0.5c0-0.1,0.3-0.9,0.4-1.2c0.1-0.4,0.3-0.9,0.4-1.4C2.1,15,2.3,14.2,2.3,14
	c0.3-1.4,0.6-2.1,1.2-2.5c0.1,0,0.1-0.1,0.2-0.1c0.1-0.1,0.2-0.1,0.3-0.2l0.3-0.2c0.9-0.6,1.2-1.1,1.2-2c0-0.6,0.3-1,1-1.3
	c0.1,0,0.3-0.1,0.3-0.1c0.5-0.2,0.7-0.4,0.7-0.7c0-0.6,0-0.9,0.2-1.2c0.2-0.4,0.5-0.7,1-0.9c0.3-0.2,0.5-0.4,1-0.9
	c0.5-0.5,0.7-0.7,1-0.9c0.4-0.2,0.9-0.3,1.3-0.2c1.3,0.3,3.2,0.5,4,0.5c0.5,0,1.9-0.3,2.4-0.5c0.7-0.1,1.2-0.1,2.1,0
	c0.9,0.1,1,0.1,1.3,0c0.3-0.1,0.4-0.4,0.4-0.9C22.3,1.2,22.4,0.7,22.7-0.2L22.7-0.2z M24.6-0.2L24.6-0.2c0.1,0.4,0.1,0.8,0.1,1.4
	c0,0.7,0,1.1,0,1.6c0,0.7-0.3,1.3-1,1.7c-0.5,0.3-1.1,0.6-1.8,0.7c-0.3,0-0.7,0-1.7,0c-0.5,0-0.7,0-0.9,0c-0.2,0-0.4,0-0.6,0.1
	c-0.1,0-0.3,0.1-0.4,0.2c-0.5,0.2-1,0.3-1.8,0.3c-0.6,0-1-0.1-1.7-0.4l-0.2-0.1C13.8,5,13.1,4.9,12,5.4c-0.8,0.3-1.3,0.7-1.6,1.1
	C10.1,6.8,10,7.1,9.9,7.7C9.8,8.1,9.7,8.3,9.6,8.6C9.5,8.8,9.3,9,9.1,9.1C8.9,9.2,8.8,9.2,8.4,9.3C7.8,9.4,7.5,9.5,7.3,10
	c-0.3,0.6-0.6,1-1.1,1.5c-0.2,0.2-1,0.8-1.2,1c-0.6,0.5-1,1.3-1.4,2.4c-0.1,0.3-0.2,0.5-0.2,0.8c0,0-0.2,0.6-0.2,0.7
	c-0.6,2.1-1.3,3.9-1.9,4.5c-0.2,0.2-0.4,0.4-0.8,1c-0.3,0.3-0.5,0.6-0.7,0.8v-0.1C0,22.3,0.3,22,0.5,21.6C0.8,21.2,1,21,1.2,20.8
	c0.6-0.6,1.3-2.4,1.9-4.5c0-0.2,0.2-0.7,0.2-0.7c0.1-0.3,0.2-0.6,0.2-0.8C4,13.7,4.4,12.9,5,12.4c0.2-0.2,1-0.8,1.2-1
	c0.5-0.4,0.8-0.8,1-1.4c0.1-0.3,0.3-0.5,0.5-0.6c0.2-0.1,0.3-0.1,0.7-0.2c0.3,0,0.5-0.1,0.6-0.2c0.2-0.1,0.4-0.3,0.5-0.5
	c0.1-0.2,0.2-0.4,0.3-0.9c0.1-0.6,0.2-0.9,0.5-1.2c0.3-0.4,0.8-0.8,1.7-1.1c1.2-0.5,1.9-0.4,2.8-0.1L15,5.4c0.6,0.3,1,0.4,1.6,0.4
	c0.8,0,1.3-0.1,1.8-0.3c0.1,0,0.3-0.1,0.4-0.2c0.2-0.1,0.4-0.1,0.6-0.1c0.2,0,0.4,0,1,0c0.9,0,1.3,0,1.5,0c0.7-0.1,1.3-0.4,1.8-0.7
	c0.6-0.4,0.9-1,0.9-1.7c0-0.5,0-0.9-0.1-1.7C24.6,0.7,24.6,0.2,24.6-0.2z M6.8-0.2h0.2C6.9,0.1,6.8,0.3,6.7,0.5
	C6.5,0.9,6.5,1,6.3,1.5c0,0.1-0.1,0.3-0.1,0.4C6,2.2,5.7,2.5,5.2,2.9C4.6,3.4,4.2,4.1,3.7,5.3C3.6,5.7,3.1,7.1,3,7.3
	C2.8,7.9,2.5,8.3,1.9,9.1L1.7,9.3C1.2,9.9,1,10.2,0.8,10.6c-0.2,0.4-0.5,0.7-1,1v-0.2c0.4-0.3,0.7-0.6,0.8-0.9
	c0.2-0.4,0.4-0.7,0.9-1.3L1.7,9c0.7-0.8,0.9-1.2,1.1-1.7c0.1-0.2,0.5-1.6,0.7-2.1C4,4.1,4.5,3.3,5.1,2.8c0.5-0.4,0.8-0.7,0.9-1
	c0-0.1,0.1-0.2,0.1-0.4c0.2-0.5,0.2-0.7,0.4-1C6.7,0.3,6.7,0.1,6.8-0.2z M7.4-0.2L7.4-0.2c0,0.6-0.1,0.9-0.3,1.1
	C7.1,1.2,7,1.4,6.9,1.6C6.8,1.8,6.7,2,6.6,2.3c0,0.1-0.1,0.2-0.2,0.4C6.1,3,5.8,3.3,5.5,3.6C5.2,3.9,5.1,4.2,5,4.4
	c-0.1,0.1-0.2,0.4-0.3,1c0,0.2-0.3,1.3-0.3,1.6c-0.3,1.2-0.5,2-0.7,2.4c-0.6,0.9-0.8,1.2-2.7,3c-0.3,0.3-0.7,0.6-1.1,0.8V13
	c0.4-0.2,0.7-0.5,1-0.8c2-1.9,2.2-2.1,2.7-3C3.8,8.8,4,8.1,4.3,6.9c0.1-0.3,0.3-1.3,0.3-1.6c0.1-0.5,0.2-0.8,0.3-1
	C5,4.1,5.2,3.9,5.4,3.6c0.1-0.1,0.1-0.2,0.2-0.2C5.8,3.2,6,3,6.2,2.8c0.1-0.1,0.1-0.1,0.2-0.3c0.1-0.3,0.2-0.7,0.4-1
	C6.9,1.3,7,1.1,7.1,0.9C7.2,0.7,7.3,0.4,7.4-0.2L7.4-0.2z M6-0.2L6-0.2C6,0.2,5.7,0.5,5.3,0.7C4.7,1.1,4,1.3,3.5,1.3
	c-0.7,0-0.9,0.5-0.9,1.6c0,0.1,0,0.2,0,0.4c0,0.2,0,0.3,0,0.4c0,0.4-0.1,0.8-0.1,1.2c0,0.2-0.1,0.3-0.2,0.5C2.1,5.9,2,6.3,1.8,6.7
	c-0.5,1.1-1,2.2-1.5,3.2c-0.1,0.3-0.3,0.6-0.5,0.8v-0.1c0.2-0.2,0.3-0.5,0.4-0.7c0.6-1.4,1.2-2.7,1.9-4.1c0-0.1,0.1-0.2,0.2-0.4
	c0.2-0.5,0.2-1,0.2-1.6c0-0.1,0-0.2,0-0.4c0-0.2,0-0.3,0-0.4c0-0.5,0-0.9,0.2-1.1c0.1-0.3,0.4-0.5,0.8-0.5C4,1.2,4.7,1,5.2,0.7
	C5.6,0.4,5.9,0.2,6-0.2L6-0.2z M26.9-0.2L26.9-0.2c0.2,0.7,0.2,0.9,0.2,1.4c0.1,0.7,0.1,1.4,0,2.1c-0.1,0.6-0.2,1.2-0.5,1.6
	C25.9,6,23.7,7,21.8,7C21.4,7,21,7,20.6,7c-0.6,0.1-1.2,0.1-1.8,0.2c-1.6,0.2-2,0.3-2.7,0.3c-0.5,0-0.9-0.1-1.6-0.3l-0.2-0.1
	c-0.1,0-0.2-0.1-0.3-0.1C13.4,7,13,7,12.4,7.2c-0.3,0.1-0.5,0.3-0.7,0.6c-0.1,0.2-0.2,0.4-0.3,0.9c-0.1,0.5-0.2,0.7-0.3,0.9
	c-0.1,0.3-0.4,0.5-0.7,0.6c-0.2,0.1-0.5,0.2-0.7,0.3c-0.5,0.2-0.7,0.4-1,0.8c-0.1,0.1-0.1,0.1-0.4,0.6c-0.1,0.2-0.3,0.4-0.6,0.7
	c-0.1,0.1-0.8,0.7-1,0.8c-0.5,0.5-0.9,0.9-1.2,1.4c-0.3,0.5-0.6,1.4-0.8,2.5c-0.1,0.3-0.1,0.6-0.2,0.9l-0.1,0.4L4.3,19
	c-0.1,0.7-0.2,1-0.3,1.2c-0.5,1.5-1.3,3.1-2,3.8c-0.4,0.3-0.6,0.5-0.8,0.7c-0.1,0-0.1,0.1-0.2,0.1c0,0-0.7,0.3-1,0.5l-0.1,0v-0.1
	l0.1,0c0.3-0.2,1-0.5,1-0.5c0.1,0,0.1-0.1,0.2-0.1c0.2-0.1,0.4-0.3,0.8-0.6c0.7-0.7,1.5-2.3,2-3.8c0.1-0.2,0.1-0.5,0.3-1.2l0.1-0.4
	c0.1-0.4,0.2-0.9,0.3-1.3c0.3-1.1,0.5-1.9,0.8-2.5c0.3-0.5,0.7-1,1.2-1.4c0.2-0.1,0.8-0.7,1-0.8c0.3-0.2,0.5-0.4,0.6-0.7
	c0.3-0.5,0.3-0.5,0.4-0.6c0.3-0.4,0.6-0.6,1-0.8c0.2-0.1,0.4-0.2,0.7-0.3c0.3-0.1,0.5-0.3,0.7-0.6c0.1-0.2,0.2-0.4,0.3-1
	c0.1-0.5,0.2-0.7,0.3-0.9c0.1-0.3,0.4-0.5,0.7-0.6c0.6-0.2,1-0.2,1.6-0.1c0.1,0,0.2,0,0.3,0.1l0.3,0.1c0.6,0.2,1,0.3,1.5,0.3
	c0.6,0,1.1-0.1,2.7-0.3C19.4,7.1,20,7,20.6,7c0.4,0,0.8-0.1,1.2-0.1c1.9,0,4-0.9,4.8-2.1c0.3-0.4,0.4-0.9,0.5-1.5
	c0.1-0.6,0.1-1.2,0-1.8c0-0.1,0-0.3,0-0.4C27.1,0.8,27,0.6,26.9-0.2L26.9-0.2z M1.2-0.2L1.2-0.2C1.2,0.4,1.1,0.6,0.9,1
	C0.8,1.4,0.7,1.7,0.7,2.1c0,0.3,0.1,0.6,0.2,1.2C1,3.8,1,4,1,4.2c0.1,0.7,0,1.2-0.2,1.7c-0.3,0.7-0.6,1.4-1,2V7.8
	c0.3-0.6,0.6-1.2,0.9-1.9C1,5.4,1,4.9,1,4.2c0-0.3-0.1-0.5-0.1-0.9C0.7,2.7,0.7,2.5,0.7,2.1c0-0.4,0-0.8,0.2-1.1
	C1,0.6,1.1,0.4,1.2-0.2z M22-0.2c-0.1,0.3-0.2,0.6-0.4,0.8c-0.2,0.3-0.3,0.6-0.4,0.9l0,0.1l0,0.1c0,0.1,0,0.1-0.1,0.2
	C21.1,2,21,2,20.8,2c0.1,0-0.7,0-1.1,0c-0.8,0-1.4,0.1-2.2,0.2c-1.2,0.2-1.3,0.2-1.7,0.2c-0.2,0-0.4,0-0.6-0.1
	c-1.3-0.3-3.4-0.4-4-0.2c-0.2,0.1-0.4,0.2-0.7,0.4c-0.2,0.1-0.3,0.3-0.5,0.4C9.8,3,9.2,3.5,9.1,3.6C9,3.7,8.5,4.2,8.4,4.2
	C8.3,4.3,8.2,4.4,8.1,4.5C7.7,4.8,7.5,5,7.2,5C7,5,6.9,5,6.9,4.9c-0.1,0-0.1-0.1-0.1-0.3c0.1-0.3,0.3-0.8,0.9-1.8
	c0.4-0.7,0.7-1.3,0.9-1.9c0.1-0.4,0.1-0.5,0.2-1.1h0.1C8.8,0.4,8.8,0.6,8.7,0.9c-0.2,0.6-0.5,1.2-0.9,2c-0.6,1-0.9,1.6-0.9,1.8
	c0,0.1,0,0.2,0,0.2c0,0,0.1,0,0.3,0c0.3,0,0.6-0.2,0.9-0.4c0.1-0.1,0.2-0.2,0.3-0.3c0,0,0.5-0.5,0.7-0.6c0.1-0.1,0.7-0.6,0.8-0.7
	c0.2-0.2,0.3-0.3,0.5-0.4c0.3-0.2,0.5-0.4,0.7-0.4c0.6-0.2,2.8-0.1,4.1,0.2c0.2,0,0.4,0.1,0.6,0.1c0.4,0,0.5,0,1.7-0.2
	c0.8-0.1,1.4-0.2,2.2-0.2c0.4,0,1.2,0,1.1,0c0.2,0,0.3,0,0.3-0.1c0,0,0-0.1,0-0.1l0-0.1l0-0.1c0.1-0.3,0.2-0.5,0.4-0.9
	C21.7,0.4,21.8,0.1,22-0.2L22-0.2L22-0.2z M21.3-0.2c-0.4,1.3-0.7,1.6-1.5,1.6c-0.3,0-0.8,0-2.1,0.1l-0.1,0
	c-1.2,0.1-1.7,0.1-2.1,0.1c-0.4,0-1-0.1-2.1-0.2l-0.1,0c-1.4-0.2-1.8-0.3-2.1-0.3c-0.3,0-0.5,0.1-0.8,0.2c0,0-0.1,0.1-0.2,0.1
	C10,1.6,9.8,1.7,9.7,1.7c-0.2,0-0.3-0.1-0.3-0.3c0-0.1,0-0.2,0-0.3c0-0.1,0.1-0.3,0.1-0.4c0.1-0.3,0.1-0.6,0.1-0.8h0.1
	c0,0.3-0.1,0.6-0.1,0.9c0,0.1-0.1,0.3-0.1,0.4c0,0.1,0,0.2,0,0.3c0,0.1,0,0.2,0.2,0.2c0.1,0,0.3,0,0.4-0.1c0,0,0.2-0.1,0.2-0.1
	C10.5,1.1,10.8,1,11.1,1c0.3,0,0.8,0.1,2.1,0.3l0.1,0c1.1,0.2,1.7,0.2,2.1,0.2c0.4,0,1,0,2.1-0.1l0.1,0c1.4-0.1,1.8-0.1,2.1-0.1
	c0.7,0,0.9-0.3,1.3-1.5H21.3z M10.3-0.2L10.3-0.2c-0.1,0.3-0.1,0.4-0.1,0.5c0,0.1,0,0.1,0.2,0.1c0.1,0,0.3,0,0.8,0
	c0.4,0,1,0,1.6,0.1c0.3,0,0.6,0.1,1,0.1C15.5,1,15.4,1,15.7,1c1.8,0,3.8-0.2,4.5-0.5c0.2-0.1,0.4-0.3,0.5-0.6h0.1
	c-0.1,0.3-0.3,0.6-0.5,0.7c-0.7,0.4-2.7,0.5-4.5,0.5c-0.3,0-0.2,0-2-0.3c-0.4-0.1-0.7-0.1-1-0.1c-0.6-0.1-1.1-0.1-1.6-0.1
	c-0.5,0-0.7,0-0.8,0c-0.2,0-0.2-0.1-0.2-0.2C10.1,0.2,10.2,0.1,10.3-0.2L10.3-0.2z M15.9-0.2C16.4,0,16.7,0,17,0
	c0.7,0,1.2-0.1,1.7-0.2h0.2c-0.5,0.2-1,0.3-1.9,0.3c-0.3,0-0.8-0.1-1.3-0.3H15.9L15.9-0.2z M5.1-0.2C4.9,0.1,4.6,0.2,4.2,0.3
	c-0.3,0.1-0.6,0.1-1,0.1c0,0-0.1,0-0.1,0C2.7,0.4,2.4,0.3,2.3,0c0-0.1,0-0.1,0-0.2h0.1c0,0.1,0,0.1,0,0.2c0.1,0.2,0.3,0.3,0.7,0.3
	l0.1,0c0.4,0,0.7,0,0.9-0.1C4.5,0.2,4.8,0,5-0.2H5.1L5.1-0.2z M-0.2,15.2c0.5,0,0.8,0.2,0.8,0.8c0,0.8-0.4,2.1-0.8,3.1v-0.2
	C0.3,18,0.6,16.8,0.6,16C0.6,15.5,0.3,15.3-0.2,15.2L-0.2,15.2L-0.2,15.2z M-0.2,15.7c0.1,0,0.2,0,0.2,0.1c0.1,0.1,0.1,0.3,0.1,0.6
	l0,0.1c0,0.1,0,0.2,0,0.3c0,0.2-0.1,0.7-0.3,1.2v-0.3C0,17.3,0,16.9,0,16.8c0-0.1,0-0.1,0-0.3l0-0.1c0-0.3,0-0.4-0.1-0.5
	C0,15.8-0.1,15.8-0.2,15.7L-0.2,15.7z M-0.2,30.2v-0.1c0.1-0.1,0.2-0.2,0.2-0.3c0.1-0.2,0.2-0.5,0.3-0.9c0.6-1.7,0.6-2,0-2.2
	c-0.2-0.1-0.4-0.1-0.6-0.1v-0.1c0.2,0,0.4,0,0.6,0.1c0.6,0.3,0.6,0.6,0,2.3c-0.1,0.4-0.2,0.7-0.3,0.9C0.1,29.9,0,30.1-0.2,30.2z
	 M2.3,33.2c0.1,0,0.2,0,0.6-0.1l0.2,0C3.7,33,4.1,33,4.2,33.3c0.1,0.2,0,0.4-0.4,0.7c-0.1,0.1-0.2,0.2-0.4,0.3
	c-0.1,0.1-0.4,0.3-0.4,0.3c-0.1,0.1-0.2,0.2-0.3,0.2c-0.1,0.1-0.2,0.3-0.2,0.4c0,0-0.3,1-0.5,1.6c-0.2,0.6-0.4,0.8-0.7,0.6
	c-0.2-0.1-0.3-0.3-0.5-0.8c-0.1-0.3-0.2-0.4-0.3-0.5c-0.3-0.6-0.3-1.8,0-2.4c0.1-0.2,0.3-0.4,0.5-0.4c0.2,0,0.4-0.1,0.9,0L2.3,33.2
	L2.3,33.2z M2.3,33.4c-0.1,0-0.2,0-0.3,0c-0.9,0-1.1,0-1.2,0.4c-0.3,0.6-0.3,1.7,0,2.3c0.1,0.1,0.1,0.2,0.3,0.6
	c0.2,0.5,0.3,0.7,0.4,0.7c0.1,0.1,0.3-0.1,0.4-0.6c0.2-0.5,0.4-1.1,0.5-1.6c0.1-0.2,0.1-0.3,0.2-0.4c0-0.1,0.1-0.1,0.3-0.3
	c0.1-0.1,0.4-0.3,0.4-0.3c0.1-0.1,0.3-0.2,0.4-0.3c0.3-0.2,0.4-0.4,0.3-0.5c-0.1-0.2-0.4-0.2-0.9-0.1l-0.2,0
	C2.6,33.4,2.5,33.4,2.3,33.4L2.3,33.4z M27.9,44.2c-0.3-0.9-0.3-1-0.3-1.4c0-0.2,0-0.5,0-0.8c0-0.8,0-1,0-1.3
	c0.1-0.4,0.3-0.5,0.7-0.5h1.9c0.3,0,0.4,0.1,0.4,0.5c0,0.1,0,0.1,0,0.1c0.1,0.4,0.2,0.6,0.7,0.6c0.3,0,0.4,0,0.5,0.1
	c0.1,0.1,0.1,0.1,0,0.3c-0.1,0.4,0,0.7,0.6,1c0.5,0.3,0.9,0.4,1.2,0.2c0.3-0.1,0.5-0.3,0.9-0.7l0.1-0.1l0.1-0.1
	c0.1-0.1,0.1-0.1,0.2-0.2c0.2-0.2,0.4-0.4,0.7-0.5c0.1-0.1,0.1-0.1,0.4-0.2c0.5-0.2,0.7-0.3,0.9-0.6c0.2-0.2,0.3-0.4,0.5-0.4
	c0.2-0.1,0.4-0.2,1-0.2c0.4,0,0.8-0.3,1.3-1.1l0.2-0.3c0.1-0.1,0.1-0.2,0.2-0.3c0.6-0.7,1.4-0.8,2.3,0.1c0.4,0.4,0.8,1.4,1,2.8
	c0.2,1,0.3,2.2,0.3,2.9h-0.1c0-0.8-0.1-1.9-0.3-2.9c-0.3-1.4-0.6-2.4-1-2.8c-0.8-0.8-1.6-0.8-2.2-0.1c-0.1,0.1-0.1,0.2-0.2,0.3
	l-0.2,0.3c-0.6,0.8-0.9,1.1-1.4,1.1c-0.6,0-0.8,0-1,0.1c-0.1,0.1-0.3,0.2-0.5,0.4c-0.2,0.2-0.4,0.4-0.9,0.6
	c-0.1,0.1-0.3,0.1-0.4,0.2c-0.3,0.1-0.5,0.3-0.7,0.5c-0.1,0.1-0.2,0.2-0.3,0.3l-0.1,0.1c-0.4,0.4-0.6,0.6-0.9,0.8
	c-0.4,0.2-0.8,0.1-1.3-0.3c-0.5-0.4-0.7-0.7-0.6-1.1c0-0.2,0-0.2,0-0.2c0-0.1-0.2-0.1-0.4-0.1c-0.5,0-0.7-0.2-0.7-0.6l0-0.1
	c0-0.4-0.1-0.5-0.4-0.5h-1.9c-0.4,0-0.6,0.2-0.6,0.5c-0.1,0.3-0.1,0.5,0,1.2c0,0.3,0,0.6,0,0.8C27.7,43.1,27.7,43.2,27.9,44.2
	L27.9,44.2L27.9,44.2z M28.9,44.2c-0.1-0.5-0.1-0.8-0.1-1.1c0-0.1,0-0.1,0-0.2l0-0.2c0-0.3,0-0.5,0-0.8c0-0.4,0.1-0.6,0.3-0.6
	c0.2,0,0.4,0,0.7,0.2c0.5,0.3,1,1,1.2,1.4c0.4,0.8,1,1.2,2.5,1.2c0.6,0,1.1-0.2,1.5-0.6c0.1-0.1,1.1-1.1,1.6-1.5
	c0.5-0.4,0.9-0.6,1.5-0.6c0.4,0,0.6-0.1,0.8-0.2c0.3-0.1,0.7-0.4,1.1-0.8c0.5-0.6,1-0.7,1.3-0.3c0.2,0.3,0.4,0.8,0.5,1.5
	c0.1,0.4,0.1,0.6,0.1,1.3c0,0.3,0,0.4-0.1,1.3h-0.1c0.1-0.9,0.1-1.1,0.1-1.3c0-0.7-0.1-0.9-0.1-1.3c-0.1-0.7-0.3-1.2-0.5-1.5
	c-0.3-0.3-0.7-0.2-1.2,0.3c-0.4,0.4-0.8,0.7-1.1,0.8c-0.3,0.1-0.5,0.1-0.9,0.2c-0.7,0.1-1,0.2-1.5,0.6c-0.4,0.4-1.4,1.4-1.6,1.5
	c-0.5,0.4-0.9,0.6-1.6,0.6c-1.5,0-2.2-0.3-2.5-1.2c-0.2-0.4-0.7-1.1-1.2-1.4c-0.3-0.2-0.5-0.2-0.6-0.2c-0.2,0-0.3,0.2-0.3,0.6
	c0,0.3,0,0.6,0,0.8l0,0.2c0,0.1,0,0.1,0,0.2C28.8,43.4,28.8,43.7,28.9,44.2L28.9,44.2L28.9,44.2z M37.3,44.2
	c0.2-0.2,0.7-0.9,0.8-1.1c0.4-0.5,1-0.9,1.4-1c0.5-0.1,0.8,0.1,0.8,0.7c0,0.3,0,0.4-0.1,1.4h-0.1c0.1-1,0.1-1.1,0.1-1.4
	c0-0.5-0.3-0.7-0.8-0.6c-0.5,0.1-1,0.5-1.4,1C38,43.3,37.6,43.9,37.3,44.2L37.3,44.2L37.3,44.2z M36.5,19.1c0.3,0.2,0.5,0.4,0.8,0.6
	c0.1,0,0.6,0.4,0.8,0.5c0.8,0.5,1.1,1,0.9,1.9c-0.1,0.5-0.3,0.8-0.7,1.1c-0.3,0.2-0.6,0.3-1.2,0.5c-0.9,0.3-1,0.3-1.4,0.5
	c-0.2,0.1-0.4,0.2-0.6,0.3c-0.8,0.5-1.4,0.6-2.1,0.2c-0.3-0.1-1.3-0.8-1.3-0.8c-0.1-0.1-0.3-0.2-0.4-0.2c-1.2-0.7-2.5-1.8-2.5-2.4
	c0-0.3,0.1-0.5,0.5-0.8c0.1-0.1,0.2-0.1,0.3-0.2c0.1,0,0.2-0.2,0.3-0.2c0.3-0.3,0.5-0.4,0.7-0.6c0.8-1,2-2.1,2.5-2.4
	c0.9-0.4,1.5-0.4,2,0c0.2,0.2,0.4,0.5,0.6,1c0,0,0.2,0.4,0.2,0.5c0.1,0.3,0.2,0.4,0.3,0.5C36.4,19,36.5,19.1,36.5,19.1L36.5,19.1z
	 M36.3,19.1c-0.1-0.1-0.2-0.3-0.4-0.6c0-0.1-0.2-0.5-0.2-0.5c-0.2-0.5-0.4-0.8-0.6-0.9c-0.5-0.4-1-0.4-1.9,0
	c-0.6,0.3-1.7,1.3-2.5,2.3c-0.2,0.2-0.4,0.4-0.7,0.6l-0.3,0.2c-0.1,0.1-0.2,0.1-0.3,0.2c-0.3,0.2-0.4,0.4-0.4,0.6
	c0,0.5,1.3,1.6,2.5,2.2c0.1,0.1,0.3,0.1,0.4,0.2c0,0,1,0.7,1.3,0.8c0.6,0.3,1.1,0.3,1.9-0.2c0.2-0.1,0.4-0.2,0.6-0.3
	c0.4-0.2,0.5-0.2,1.4-0.5c0.6-0.2,0.9-0.3,1.1-0.5c0.3-0.2,0.5-0.5,0.6-1c0.2-0.8-0.1-1.2-0.8-1.7c-0.1-0.1-0.7-0.4-0.8-0.4
	c-0.3-0.2-0.6-0.4-0.9-0.6C36.4,19.2,36.3,19.1,36.3,19.1L36.3,19.1z M6.3,17.7c0.3-0.2,0.6-0.4,0.9-0.5c0.1,0,0.1-0.1,0.2-0.1
	l0.3-0.1c0.4-0.2,0.9-0.4,1.3-0.7c0.7-0.4,1.4-0.7,2.1-1.1c0.3-0.1,1.6-0.7,1.6-0.7c1.4-0.6,2.1-0.5,3.7,0.6c0.6,0.4,1,1,1.2,1.7
	c0.2,0.7,0.3,1.2,0.3,2c0,0.6,0,1-0.3,1.4c-0.3,0.6-0.9,1.2-1.9,1.7c-1.8,1-2.9,2-3.9,3.5c-0.7,0.9-3.5,3.3-4.8,4
	c-1.6,0.9-3.5,1.6-4.8,1.6c-0.7,0-1.1-0.4-1.1-1c0-0.5,0.2-1,0.5-1.8c0.2-0.5,0.1-1-0.2-1.6c-0.2-0.5-0.3-0.7-0.3-0.9
	c0-0.2,0.1-0.5,0.4-0.8c0.2-0.2,0.3-0.3,0.9-0.8c0.4-0.3,0.6-0.6,0.8-0.8c0.7-0.8,0.9-1.4,1.3-3.3c0.2-1.1,0.5-1.5,1.1-1.9
	c0.1,0,0.3-0.2,0.3-0.2C6.1,17.9,6.2,17.8,6.3,17.7L6.3,17.7z M6.4,17.7C6.2,17.8,6.1,17.9,6,18l-0.3,0.2C5,18.5,4.8,18.9,4.5,20
	c-0.4,1.9-0.6,2.5-1.3,3.3c-0.2,0.2-0.4,0.5-0.8,0.8c-0.6,0.6-0.7,0.6-0.9,0.8c-0.3,0.3-0.4,0.5-0.4,0.8c0,0.2,0.1,0.4,0.3,0.9
	c0.3,0.7,0.4,1.1,0.2,1.7c-0.3,0.8-0.5,1.3-0.5,1.8c0,0.6,0.3,0.9,1,0.9c1.3,0,3.2-0.7,4.8-1.6c1.3-0.7,4.1-3,4.8-4
	c1-1.5,2.1-2.6,3.9-3.6c1-0.5,1.6-1.1,1.9-1.7c0.2-0.4,0.3-0.8,0.3-1.4c0-0.8-0.1-1.4-0.3-2c-0.2-0.7-0.6-1.2-1.2-1.6
	c-1.6-1.1-2.2-1.2-3.6-0.6c0.1,0-1.3,0.6-1.6,0.7c-0.1,0.1-0.2,0.1-0.4,0.2c-0.6,0.3-1.1,0.6-1.7,0.9c-0.4,0.2-0.9,0.5-1.3,0.7
	l-0.3,0.1c-0.1,0-0.1,0.1-0.2,0.1C6.9,17.4,6.6,17.5,6.4,17.7z M5.8,18.6c0.6-0.5,0.9-0.6,1.7-0.8c0.5-0.1,0.7-0.2,0.9-0.4
	c0.3-0.2,0.6-0.3,1.2-0.5c0.2,0,0.3-0.1,0.4-0.1c0.4-0.1,0.7-0.2,1-0.4c0.8-0.6,1.9-1,2.7-1c0.4,0,1.2,0.6,1.9,1.3
	c0.8,0.8,1.2,1.7,0.9,2.4c-0.2,0.7-0.8,1.4-1.7,2.1c-0.6,0.5-1.4,1-1.9,1.2c-0.3,0.1-0.5,0.4-0.7,0.7c-0.1,0.1-0.8,1.5-1.2,2.1
	c-0.4,0.6-1.1,1.3-2.2,2.1c-0.2,0.2-0.5,0.3-0.7,0.5c0,0-0.5,0.3-0.6,0.4c-0.5,0.3-0.8,0.5-1,0.7c-0.9,0.8-2.7,1.1-3.2,0.7
	c-0.1-0.1-0.2-0.3-0.1-0.8c0-0.7,0-1.1-0.4-1.5c-0.1-0.2-0.3-0.4-0.5-0.5C2,26.5,1.8,26.2,1.8,26c-0.1-0.5,0.3-1,1-1.6
	c0.1-0.1,0.5-0.4,0.5-0.4c0.1-0.1,0.3-0.2,0.4-0.4c0.3-0.3,0.4-0.7,0.6-1.5c0-0.1,0-0.2,0.1-0.3c0-0.1,0-0.2,0.1-0.3
	c0.1-0.3,0.1-0.5,0.2-0.8c0.1-0.3,0.1-0.4,0.2-0.8c0-0.2,0.1-0.3,0.1-0.4C5,19.3,5,19.3,5.8,18.6L5.8,18.6z M5.9,18.7
	C5.1,19.3,5,19.4,5,19.5c0,0.1-0.1,0.2-0.1,0.4c-0.1,0.4-0.1,0.5-0.2,0.8c-0.1,0.3-0.1,0.5-0.2,0.8c0,0.2-0.1,0.3-0.1,0.5l0,0.2
	c-0.1,0.8-0.3,1.2-0.6,1.5c-0.1,0.1-0.3,0.3-0.4,0.4c0,0-0.4,0.3-0.5,0.4c-0.7,0.6-1.1,1.1-1,1.5c0,0.2,0.2,0.4,0.5,0.7
	c0.2,0.2,0.4,0.3,0.5,0.5c0.3,0.5,0.4,0.9,0.4,1.6c0,0.5,0,0.6,0.1,0.7c0.5,0.5,2.3,0.1,3.1-0.7c0.2-0.2,0.5-0.4,1-0.7l0.6-0.4
	c0.3-0.2,0.5-0.3,0.7-0.5c1.1-0.8,1.8-1.4,2.2-2c0.4-0.6,1.1-2,1.2-2.1c0.2-0.4,0.5-0.6,0.8-0.8c0.5-0.3,1.2-0.7,1.8-1.2
	c0.9-0.7,1.4-1.4,1.7-2c0.2-0.6-0.1-1.5-0.9-2.3c-0.7-0.7-1.5-1.2-1.8-1.2c-0.8,0-1.9,0.4-2.6,1c-0.3,0.2-0.6,0.4-1,0.4
	c-0.1,0-0.2,0-0.4,0.1c-0.6,0.1-0.9,0.2-1.1,0.4c-0.2,0.2-0.5,0.3-0.9,0.4C6.7,18.1,6.4,18.2,5.9,18.7L5.9,18.7z M15.5,18.4
	c0,0.6,0,0.8-0.2,1.1c-0.1,0.1-0.6,0.7-0.6,0.8c-0.4,0.6-0.7,0.8-1.3,1c-0.1,0-0.2,0.1-0.2,0.1c0,0-0.1,0-0.1,0.1
	c-0.1,0-0.3,0.1-0.4,0.2c-0.4,0.2-0.7,0.4-0.7,0.8c0,0.8-1.4,2.7-2.5,3.3c-0.6,0.3-1.6,0.7-2.4,0.9c-1,0.2-1.7,0.2-1.8-0.2
	c-0.1-0.2-0.3-0.3-0.9-0.4l0,0C3.9,26,3.7,26,3.6,25.9c-0.2-0.1-0.3-0.3-0.3-0.5c0-0.2,0.1-0.4,0.2-0.7c0.1-0.1,0.1-0.2,0.2-0.4
	c0,0,0.2-0.3,0.3-0.4c0.5-0.8,0.7-1.4,0.7-2c0-1.4,0.8-2.5,2-3.2c0.4-0.2,0.7-0.2,1.1-0.2c0.4,0.1,0.4,0.1,0.5-0.1
	c0.3-0.6,0.5-0.7,1.2-0.7c0.3,0,0.5-0.1,0.8-0.2c0.1-0.1,0.6-0.5,0.8-0.6c0.7-0.4,0.8-0.5,1.9-0.9c0.5-0.2,1.1,0.1,1.6,0.7
	C15.2,17.2,15.5,17.9,15.5,18.4L15.5,18.4z M15.4,18.4c0-0.5-0.3-1.1-0.8-1.6c-0.5-0.5-1-0.8-1.5-0.6c-1,0.4-1.2,0.4-1.8,0.9
	c-0.2,0.1-0.7,0.5-0.8,0.6c-0.3,0.2-0.5,0.3-0.9,0.3c-0.6,0-0.7,0.1-1,0.6c-0.1,0.1-0.2,0.2-0.3,0.2c-0.1,0-0.1,0-0.4,0
	c-0.4-0.1-0.7-0.1-1,0.1c-1.2,0.7-2,1.7-2,3c0,0.7-0.2,1.3-0.7,2.1l-0.3,0.4c-0.1,0.2-0.2,0.3-0.2,0.4c-0.1,0.3-0.2,0.5-0.2,0.6
	c0,0.3,0.2,0.4,0.9,0.6l0,0c0.6,0.1,0.9,0.2,1,0.5c0.2,0.5,2.7,0,4-0.8c1.1-0.6,2.5-2.4,2.5-3.2c0-0.4,0.3-0.7,0.8-0.9
	c0.1,0,0.4-0.2,0.4-0.2c0.1,0,0.1,0,0.1-0.1c0.1,0,0.1-0.1,0.2-0.1c0.6-0.2,0.8-0.4,1.2-1c0.1-0.1,0.6-0.7,0.6-0.8
	C15.3,19.2,15.4,19,15.4,18.4L15.4,18.4z M12.6,16.8c0,0,0.2-0.1,0.2-0.1c0.1,0,0.1-0.1,0.2-0.1c0.2-0.1,0.4,0,0.8,0.2
	c1.1,0.6,1.4,1.7,0.7,2.9c-0.3,0.5-0.7,0.7-1.4,0.8c-0.1,0-0.1,0-0.2,0.1c-0.4,0.1-0.6,0.2-0.9,0.3c-0.3,0.1-0.4,0.4-0.6,0.7
	c-0.6,1.8-1.5,3.2-2.7,3.7c-1.2,0.5-1.6,0.6-2.1,0.7c-0.4,0-0.7,0-1.1-0.2c-0.1-0.1-0.3-0.1-0.4-0.2c-0.3-0.2-0.4-0.4-0.3-0.7
	c0-0.2,0.3-1.1,0.4-1.5c0-0.2,0.1-0.5,0.1-0.7c0-0.2,0.1-0.4,0.1-0.7c0.1-0.7,0.2-1.1,0.3-1.4c0.2-0.4,0.5-0.7,0.9-0.8
	c0.5-0.2,0.8-0.2,1.3-0.3c0.4,0,0.5,0,0.7-0.2c0,0,0.1-0.1,0.1-0.1C8.8,19.1,8.9,19,9,18.9c0-0.1,0.2-0.2,0.2-0.2
	c0.2-0.3,0.5-0.4,0.9-0.4c0.3,0,0.4-0.1,0.6-0.2c0,0,0.2-0.2,0.3-0.3c0.1-0.1,0.3-0.3,0.5-0.4c0.1-0.1,0.2-0.1,0.4-0.2
	C12.1,17.1,12.4,16.9,12.6,16.8L12.6,16.8z M11.5,17.4c-0.2,0.1-0.3,0.2-0.5,0.4c-0.1,0.1-0.2,0.2-0.3,0.3c-0.2,0.2-0.3,0.3-0.7,0.3
	c-0.4,0-0.6,0.1-0.9,0.4c0,0-0.1,0.2-0.2,0.2c-0.1,0.1-0.2,0.2-0.3,0.3c0,0-0.1,0.1-0.1,0.1c-0.2,0.1-0.3,0.1-0.7,0.2
	c-0.5,0-0.8,0.1-1.3,0.3c-0.4,0.1-0.7,0.4-0.8,0.8c-0.1,0.3-0.2,0.7-0.3,1.4l0,0.3l-0.1,0.3c0,0.3-0.1,0.5-0.1,0.7
	c-0.1,0.4-0.3,1.4-0.4,1.5c0,0.3,0,0.5,0.3,0.6c0.1,0.1,0.2,0.1,0.4,0.2c0.4,0.2,0.8,0.2,1.1,0.2c0.5,0,0.8-0.1,2-0.7
	c1.2-0.5,2.1-1.8,2.6-3.7c0.1-0.3,0.3-0.6,0.6-0.7c0.2-0.1,0.4-0.2,0.9-0.3c0.1,0,0.2,0,0.2-0.1c0.7-0.2,1.1-0.3,1.3-0.8
	c0.7-1.1,0.4-2.2-0.7-2.8c-0.4-0.2-0.6-0.3-0.8-0.2c0,0-0.1,0-0.2,0.1c0,0-0.2,0.1-0.2,0.1c-0.2,0.1-0.5,0.3-0.8,0.4
	C11.8,17.3,11.6,17.3,11.5,17.4L11.5,17.4z M8.4,19.8c1.2-0.2,1.9-0.1,2.4,0.5c0.4,0.4,0.1,1.6-0.4,2.6c-0.4,0.7-0.8,1.2-1.7,1.9
	c-1,0.7-2.6,0.9-3,0.3c-0.1-0.2-0.2-0.6-0.1-1.2c0.1-0.4,0.1-0.8,0.3-1.7l0,0c0.1-0.5,0.2-0.8,0.2-1c0.1-0.5,0.3-0.8,0.5-1
	c0.2-0.1,0.4-0.2,0.9-0.2C8,19.9,8.2,19.9,8.4,19.8L8.4,19.8z M8.4,19.9c-0.2,0-0.4,0.1-0.8,0.1c-0.5,0-0.7,0.1-0.9,0.2
	c-0.2,0.2-0.4,0.4-0.5,1c-0.1,0.3-0.1,0.5-0.2,1l0,0c-0.2,0.9-0.3,1.3-0.3,1.7c-0.1,0.5-0.1,0.9,0.1,1.1c0.4,0.6,1.9,0.4,2.9-0.3
	c0.9-0.7,1.3-1.1,1.7-1.8c0.5-1,0.8-2.1,0.4-2.5C10.3,19.8,9.6,19.7,8.4,19.9z M9.6,20.3c0.5,0,0.8,0.2,0.8,0.6c0,0.3,0,0.6-0.2,1.2
	c-0.2,0.6-1.4,1.9-2,2.3c-0.5,0.3-1.5,0.4-2,0.1c-0.3-0.2-0.3-0.9,0-2c0.1-0.2,0.1-0.4,0.2-0.6c0.1-0.3,0.1-0.5,0.2-0.7l0-0.1
	c0.1-0.4,0.4-0.6,0.8-0.7c0.3-0.1,0.7-0.1,1.3-0.1l0.3,0C9.3,20.3,9.5,20.3,9.6,20.3z M9.6,20.3c-0.1,0-0.3,0-0.5,0l-0.3,0
	c-0.6,0-1,0-1.3,0.1c-0.4,0.1-0.6,0.3-0.7,0.6c0,0.1-0.1,0.3-0.1,0.4c-0.1,0.2-0.1,0.3-0.1,0.5c-0.1,0.2-0.1,0.4-0.2,0.6
	c-0.3,1-0.3,1.7,0,1.9c0.5,0.3,1.4,0.3,1.9-0.1c0.6-0.4,1.8-1.7,2-2.3c0.2-0.6,0.2-0.9,0.2-1.1C10.3,20.5,10.1,20.3,9.6,20.3
	L9.6,20.3z M8.3,20.9c0.2,0,0.4,0,0.6,0.1c0.4,0.1,0.6,0.4,0.6,0.7c0,0.7-0.7,1.3-1.7,1.6c-0.7,0.2-1-0.1-0.9-1.2
	c0.1-0.5,0.3-0.8,0.6-1C7.8,21,8.1,20.9,8.3,20.9z M8.2,20.9C8,21,7.9,21,7.7,21.1c-0.3,0.2-0.5,0.5-0.6,0.9c-0.1,1,0.1,1.4,0.8,1.1
	c0.9-0.3,1.6-0.9,1.6-1.5c0-0.3-0.2-0.6-0.6-0.7C8.7,21,8.5,20.9,8.2,20.9C8.3,20.9,8.3,20.9,8.2,20.9z M14.2,19.2
	c-0.2,0.7-1.1,0.7-2,0.2c-0.8-0.4-1-1.3-0.4-1.7c0.1-0.1,0.2-0.1,0.3-0.2l0.1-0.1c0.1-0.1,0.2-0.1,0.3-0.2c0.3-0.2,0.7-0.2,1-0.1
	C14.3,17.5,14.5,18.2,14.2,19.2L14.2,19.2z M12.7,17.4c-0.1,0.1-0.2,0.1-0.3,0.2l-0.1,0.1c-0.1,0-0.1,0.1-0.2,0.1
	c-0.1,0-0.1,0.1-0.2,0.1c-0.6,0.3-0.3,1.2,0.4,1.6c0.8,0.5,1.7,0.5,1.9-0.2c0.3-0.9,0.1-1.6-0.5-1.9C13.3,17.2,13,17.2,12.7,17.4
	L12.7,17.4z M14,18.3c0,0.4-0.2,0.7-0.5,0.7c-0.2,0.1-0.6,0-0.8-0.1l-0.1-0.1c0,0-0.1,0-0.1-0.1c-0.3-0.2-0.3-0.4,0-0.8
	C12.9,17.2,14,17.4,14,18.3L14,18.3z M13.9,18.3c0-0.4-0.2-0.6-0.5-0.7c-0.3,0-0.7,0.1-0.9,0.4c-0.3,0.4-0.3,0.5,0,0.7
	c0,0,0.1,0,0.1,0.1l0.1,0.1c0.2,0.1,0.5,0.2,0.8,0.1C13.8,18.9,13.9,18.6,13.9,18.3L13.9,18.3z M28.4,39c0-0.9,0.2-1.2,1.4-2.2
	c0.2-0.1,0.4-0.3,0.6-0.4c0.2-0.1,0.4-0.2,0.6-0.3c0.1,0,0.2-0.1,0.3-0.1l0.3-0.1c0.7-0.3,1-0.5,1.2-0.9c0.1-0.2,0.2-0.3,0.2-0.5
	c0-0.1,0.1-0.2,0.1-0.3l0-0.1l0-0.1c0.2-0.6,0.4-0.9,0.9-1.2c0.1-0.1,0.3-0.2,0.4-0.3c0.1-0.1,0.2-0.2,0.3-0.3c0,0,0.2-0.2,0.2-0.3
	c0.3-0.3,0.5-0.4,0.9-0.4c0.2,0,0.4,0,0.7-0.2c0.4-0.1,0.5-0.2,0.7-0.2c0.2,0,0.4,0.1,0.5,0.3c0.1,0.1,0.4,0.4,0.5,0.5
	c0.4,0.4,0.7,0.5,1.3,0.5c0.3,0,0.6,0,0.9,0c1.2,0.1,1.6,0,1.9-0.2c0.5-0.4,0.9-0.2,0.9,0.6c0,0.8-0.6,1.5-1.4,1.5
	c-0.4,0-0.6,0.1-0.7,0.3c-0.1,0.2,0.1,0.5,0.4,0.8c1,0.8,0.8,1.5-0.6,1.5c-0.4,0-0.8,0.1-1.1,0.4c-0.2,0.2-0.4,0.4-0.7,0.9l-0.1,0.2
	c-0.2,0.3-0.4,0.5-0.5,0.7c-0.5,0.5-0.7,0.6-1,0.5l-0.1,0c-0.1,0-0.1,0-0.2,0c-0.1,0-0.2,0-0.6,0.5c-0.4,0.3-0.6,0.5-0.9,0.5
	c-0.1,0-0.3,0.1-0.5,0.3c-0.1,0.1-0.2,0.2-0.3,0.3l-0.4,0.3c-0.1,0.1-0.2,0.2-0.3,0.3c-0.7,0.6-1.2,0.8-1.5,0.5
	c-0.2-0.2-0.3-0.3-0.3-0.5c0-0.2,0-0.3,0-0.5c0.1-0.4,0-0.6-0.1-0.9c-0.2-0.2-0.2-0.2-0.3-0.2c0,0-0.1,0.1-0.1,0.1
	c-0.2,0.2-0.4,0.3-0.7,0.2C31,40.3,30.9,40,31,39.6l0-0.1c0-0.3,0.1-0.4,0-0.4c0-0.1-0.1-0.1-0.4,0l-0.1,0c-1,0.4-1.1,0.4-1.4,0.5
	C28.7,39.7,28.4,39.5,28.4,39L28.4,39z M28.6,39c0,0.4,0.2,0.5,0.5,0.4c0.3,0,0.4-0.1,1.4-0.5l0.1,0c0.3-0.1,0.5-0.1,0.6,0
	c0.1,0.1,0,0.2,0,0.5l0,0.1c-0.1,0.4,0,0.5,0.2,0.6c0.3,0,0.4,0,0.5-0.2c0,0,0.1-0.1,0.1-0.1c0.1-0.1,0.3-0.1,0.5,0.2
	c0.2,0.3,0.2,0.5,0.2,1c-0.1,0.5,0,0.7,0.3,0.9c0.3,0.2,0.7,0,1.3-0.5c0.1-0.1,0.2-0.2,0.3-0.3l0.4-0.3c0.1-0.1,0.2-0.2,0.3-0.3
	c0.2-0.2,0.4-0.3,0.6-0.3c0.2,0,0.4-0.1,0.8-0.5l0.2-0.2c0.1-0.1,0.1-0.1,0.2-0.2c0.1-0.1,0.2-0.2,0.4-0.2c0.1,0,0.1,0,0.2,0
	c0.1,0,0.1,0,0.1,0c0.2,0,0.4,0,0.8-0.5c0.2-0.2,0.3-0.3,0.5-0.7l0.1-0.2c0.3-0.5,0.5-0.7,0.8-0.9c0.3-0.3,0.7-0.4,1.2-0.4
	c1.2,0,1.4-0.5,0.5-1.3c-0.4-0.4-0.6-0.7-0.5-1c0.1-0.2,0.4-0.4,0.8-0.4c0.7,0,1.3-0.6,1.3-1.3c0-0.7-0.2-0.8-0.6-0.5
	c-0.3,0.2-0.7,0.3-2,0.2l-0.1,0c-0.4,0-0.6,0-0.8,0c-0.7,0-1-0.2-1.4-0.6c-0.1-0.1-0.4-0.4-0.5-0.5c-0.1-0.1-0.3-0.2-0.4-0.2
	c-0.1,0-0.2,0-0.6,0.2c-0.3,0.1-0.5,0.2-0.8,0.2c-0.3,0-0.5,0.1-0.7,0.4c0,0.1-0.2,0.3-0.2,0.3c-0.1,0.1-0.2,0.2-0.3,0.3
	c-0.1,0.1-0.2,0.2-0.4,0.3c-0.5,0.3-0.7,0.6-0.9,1.2l0,0.1l0,0.1c0,0.1-0.1,0.2-0.1,0.3c-0.1,0.2-0.2,0.3-0.2,0.5
	c-0.2,0.4-0.6,0.7-1.3,1l-0.3,0.1c-0.1,0-0.2,0.1-0.3,0.1c-0.2,0.1-0.4,0.2-0.6,0.3c-0.2,0.1-0.4,0.2-0.5,0.4
	C28.7,37.9,28.6,38.1,28.6,39L28.6,39z M38.4,33.1c0.2,0.1,0.5,0.1,0.8,0.1c0.2,0,0.4,0,0.7-0.1c0.4-0.1,0.5-0.1,0.6-0.1
	c0.2,0,0.4,0,0.5,0.1c0.1,0.1,0.1,0.2,0.1,0.3c0,0.1-0.1,0.1-0.4,0.4c-0.3,0.2-0.4,0.4-0.4,0.5c0,0.5,0.1,0.7,0.6,1.2
	c0.3,0.2,0.4,0.5,0.4,0.7c-0.1,0.2-0.4,0.4-0.9,0.4c-0.5,0-0.9,0.3-1.5,1.1c0,0.1-0.3,0.4-0.4,0.5c-0.1,0.1-0.2,0.3-0.3,0.4
	c-0.1,0.1-0.2,0.1-0.2,0.2c-0.2,0.1-0.4,0.1-0.7,0.1c-0.6,0-0.8,0.1-1.1,0.5c-0.1,0.2-0.2,0.3-0.3,0.4c-0.2,0.2-0.4,0.4-0.6,0.5
	c0,0-0.8,0.5-1.1,0.7c-0.3,0.2-0.5,0.2-0.6-0.1c-0.1-0.1-0.1-0.3-0.2-0.8c-0.1-0.4-0.1-0.5-0.2-0.7c-0.1-0.2-0.2-0.2-0.3-0.2
	c-0.5,0.1-0.7,0.1-0.8,0c-0.2-0.1-0.2-0.3-0.2-0.8c0-0.1-0.1-0.2-0.3-0.2c-0.2,0-0.4,0-0.7,0.1l-0.1,0c-0.6,0.1-0.8,0.1-0.9,0.1
	c-0.2-0.1-0.1-0.4,0.3-0.9c0.4-0.5,0.8-0.8,1.2-1c0.3-0.1,0.4-0.2,0.9-0.3c0.5-0.1,0.8-0.3,1-0.7c0.2-0.4,0.8-1.4,0.9-1.5
	c0.3-0.4,0.5-0.7,0.8-0.8c0.2-0.1,0.3-0.2,0.7-0.4l0.1-0.1c0.6-0.4,0.9-0.6,1.3-0.6c0.3,0,0.5,0.1,0.7,0.4c0,0,0.1,0.2,0.1,0.2
	c0.1,0.1,0.1,0.1,0.2,0.2C38.1,32.9,38.2,33,38.4,33.1L38.4,33.1z M38.4,33.2c-0.2-0.1-0.4-0.2-0.5-0.4c-0.1-0.1-0.1-0.1-0.2-0.2
	c0,0-0.1-0.2-0.1-0.2c-0.2-0.2-0.3-0.3-0.6-0.3c-0.4,0-0.7,0.2-1.3,0.6l-0.1,0.1c-0.3,0.2-0.5,0.4-0.7,0.5c-0.3,0.2-0.5,0.4-0.8,0.8
	c-0.1,0.2-0.7,1.2-0.9,1.5c-0.3,0.4-0.5,0.6-1.1,0.7c-0.5,0.1-0.6,0.2-0.9,0.3c-0.4,0.2-0.7,0.5-1.1,1c-0.4,0.5-0.5,0.7-0.3,0.8
	c0.1,0.1,0.3,0,0.9-0.1l0.1,0c0.4-0.1,0.6-0.1,0.8-0.1c0.2,0,0.4,0.1,0.3,0.3c0,0.4,0,0.6,0.2,0.7c0.1,0.1,0.3,0.1,0.8,0
	c0.2,0,0.3,0.1,0.4,0.3c0.1,0.1,0.1,0.3,0.2,0.7l0,0c0.1,0.4,0.1,0.6,0.2,0.7c0.1,0.2,0.3,0.2,0.5,0c0.3-0.2,1.1-0.6,1.1-0.7
	c0.2-0.1,0.4-0.3,0.6-0.5c0.1-0.1,0.2-0.3,0.3-0.4c0.3-0.4,0.6-0.5,1.2-0.6c0.3,0,0.5,0,0.7-0.1c0.1,0,0.1-0.1,0.2-0.1
	c0.1-0.1,0.2-0.3,0.3-0.4c0.1-0.1,0.3-0.5,0.4-0.5c0.6-0.8,1-1.1,1.5-1.1c0.5,0,0.8-0.1,0.9-0.3c0-0.2-0.1-0.4-0.4-0.6
	c-0.5-0.4-0.6-0.6-0.6-1.2c0-0.2,0.1-0.4,0.4-0.6c0.3-0.2,0.3-0.3,0.4-0.3c0-0.1,0-0.1-0.1-0.2c-0.2-0.1-0.3-0.1-1,0
	c-0.3,0.1-0.5,0.1-0.7,0.1C38.9,33.3,38.6,33.3,38.4,33.2L38.4,33.2z M36.3,32.9c0.4-0.2,0.7-0.2,1,0.1c0,0,0.2,0.2,0.2,0.2
	c0.3,0.3,0.6,0.4,1.1,0.4c0.8,0,1,0.1,1.2,0.6c0,0.1,0.1,0.3,0.1,0.4c0.1,0.2,0.1,0.4,0.2,0.6c0.2,0.4,0.2,0.6,0.1,0.8
	c-0.1,0.1-0.2,0.2-0.4,0.2c-0.2,0-0.2,0-0.3,0.1c-0.1,0-0.2,0.1-0.3,0.2c-0.1,0.1-0.1,0.2-0.2,0.3c0,0.1-0.2,0.3-0.3,0.3
	c-0.5,0.6-0.9,0.9-1.4,0.9c-0.3,0-0.5,0.1-0.8,0.3c-0.1,0.1-0.9,0.8-1.1,1c-0.2,0.2-0.4,0.3-0.7,0.4c-0.3,0.2-0.5,0.2-0.7,0.2
	c-0.1-0.1-0.1-0.2-0.1-0.4c0,0,0-0.1,0-0.1c0-0.3-0.2-0.5-0.5-0.5c-0.5,0-0.7-0.1-0.7-0.4c-0.1-0.3-0.2-0.5-0.5-0.7
	c-0.3-0.2-0.3-0.4-0.1-0.6c0.1-0.1,0.3-0.3,0.8-0.5c0.5-0.2,0.7-0.4,0.8-0.5c0.1-0.1,0.3-0.3,0.4-0.5c0.1-0.1,0.1-0.2,0.2-0.4
	l0.2-0.3c0.1-0.1,0.1-0.2,0.2-0.4C35,33.7,35.4,33.4,36.3,32.9L36.3,32.9z M34.7,34.5c-0.1,0.1-0.1,0.2-0.2,0.4l-0.2,0.3
	c-0.1,0.1-0.1,0.3-0.2,0.4c-0.1,0.2-0.3,0.3-0.4,0.5c-0.1,0.1-0.3,0.3-0.8,0.5c-0.5,0.2-0.7,0.4-0.8,0.5c-0.2,0.2-0.2,0.3,0.1,0.5
	c0.3,0.2,0.4,0.4,0.5,0.8c0.1,0.3,0.2,0.3,0.6,0.3c0.4,0,0.6,0.2,0.6,0.6c0,0,0,0.1,0,0.1c0,0.2,0,0.3,0.1,0.3
	c0.1,0.1,0.3,0,0.6-0.2c0.2-0.1,0.4-0.3,0.7-0.4c0.3-0.2,1-0.9,1.1-1c0.3-0.2,0.5-0.3,0.8-0.3c0.5,0,0.9-0.3,1.4-0.9l0.3-0.3
	c0.1-0.1,0.2-0.2,0.2-0.3c0.1-0.1,0.2-0.2,0.4-0.2c0.1,0,0.1,0,0.3-0.1c0.2,0,0.3-0.1,0.3-0.2c0.1-0.1,0-0.3-0.1-0.7
	c-0.1-0.2-0.1-0.4-0.2-0.6c0-0.1-0.1-0.4-0.1-0.4c-0.1-0.5-0.3-0.5-1.1-0.5c-0.5,0-0.8-0.1-1.1-0.4c0,0-0.2-0.2-0.2-0.2
	c-0.3-0.2-0.5-0.3-0.9-0.1C35.4,33.4,35.1,33.7,34.7,34.5L34.7,34.5z M38.8,35.4c-0.2,0.5-1.2,1.1-2,1.1c-0.4,0-0.6-0.2-0.5-0.6
	c0-0.3,0.2-0.6,0.3-0.8l0.1-0.2c0-0.1,0.1-0.1,0.1-0.2c0.3-0.4,0.6-0.6,1-0.6C38.5,34.2,39,34.9,38.8,35.4L38.8,35.4z M38.7,35.3
	c0.2-0.4-0.3-1.1-0.9-1.1c-0.4,0-0.7,0.2-0.9,0.5c0,0.1-0.1,0.1-0.1,0.2c0,0-0.1,0.1-0.1,0.2c-0.1,0.2-0.3,0.5-0.3,0.7
	c0,0.3,0.1,0.5,0.5,0.5C37.5,36.4,38.5,35.8,38.7,35.3L38.7,35.3z M33.6,36.9c0.2,0,0.3,0.1,0.4,0.1c0.2,0.1,0.2,0.3,0,0.4
	c-0.4,0.4-0.9,0.3-0.9-0.1C33,37,33.3,36.9,33.6,36.9L33.6,36.9z M33.6,37c-0.3,0-0.5,0.1-0.5,0.4c0,0.3,0.5,0.4,0.8,0
	c0.1-0.2,0.1-0.3,0-0.3C33.9,37,33.7,37,33.6,37L33.6,37z M35.8,20.3c0.3,0.2,1.3,0.6,1.4,0.7c0.2,0.1,0.4,0.2,0.5,0.4
	c0.1,0.1,0.2,0.2,0.3,0.4c0.2,0.3,0,0.6-0.5,0.9c-0.4,0.2-0.9,0.5-1.6,0.7c-0.4,0.1-1.4,0.5-1.6,0.5c-0.5,0.2-1.1,0-1.9-0.4
	c-0.3-0.2-0.6-0.4-1-0.6c-0.2-0.1-0.7-0.5-0.8-0.6c-0.2-0.2-0.4-0.3-0.6-0.4c-0.4-0.2-0.3-0.5,0-0.9c0.2-0.3,0.3-0.3,1.3-1.2
	c0.2-0.2,0.4-0.4,0.7-0.6c0.1-0.1,0.2-0.2,0.3-0.3c0.4-0.4,0.7-0.5,1.1-0.3c0.2,0.1,0.3,0.2,0.5,0.4c0.1,0.1,0.5,0.5,0.6,0.6
	C35.1,19.8,35.4,20.1,35.8,20.3L35.8,20.3z M35.7,20.3c-0.4-0.2-0.7-0.4-1.1-0.8c-0.1-0.1-0.5-0.5-0.6-0.6c-0.2-0.2-0.4-0.3-0.5-0.4
	c-0.4-0.2-0.7-0.1-1,0.3c-0.1,0.1-0.2,0.2-0.4,0.3c-0.2,0.2-0.4,0.3-0.7,0.6c-1,0.9-1.1,0.9-1.3,1.2c-0.3,0.4-0.3,0.6,0,0.8
	c0.2,0.1,0.4,0.2,0.6,0.4c0.1,0.1,0.6,0.5,0.8,0.6c0.3,0.2,0.6,0.4,0.9,0.6c0.7,0.4,1.3,0.6,1.8,0.4c0.1,0,1.2-0.4,1.6-0.5
	c0.7-0.3,1.2-0.5,1.6-0.7c0.4-0.3,0.6-0.5,0.4-0.8c-0.1-0.1-0.2-0.3-0.3-0.4c-0.1-0.2-0.3-0.3-0.5-0.4C37,20.9,36.1,20.5,35.7,20.3
	L35.7,20.3z M32.9,20.9c0.2,0,0.4,0,0.6,0.1c0.2,0,0.2,0.1,0.6,0.3c0.4,0.2,0.6,0.3,1,0.4c0.6,0.2,0.8,0.5,0.7,0.7
	c-0.2,0.2-0.6,0.4-1.3,0.7c-0.6,0.2-1.1,0.2-1.6-0.1c-0.3-0.2-0.6-0.5-0.9-0.9c-0.2-0.3-0.2-0.6,0-0.8C32.1,21.1,32.5,21,32.9,20.9
	L32.9,20.9z M32.9,21c-0.4,0-0.7,0.2-0.9,0.3c-0.2,0.2-0.2,0.4,0,0.7c0.3,0.4,0.5,0.7,0.9,0.9c0.4,0.2,0.9,0.3,1.5,0.1
	c0.7-0.2,1.1-0.5,1.3-0.7c0.1-0.2,0-0.4-0.6-0.6c-0.4-0.1-0.6-0.2-1-0.4c-0.4-0.2-0.5-0.2-0.6-0.3C33.3,21,33.1,21,32.9,21L32.9,21z
	 M14.8,36.8c0,0.4-0.1,0.6-0.3,0.7c-0.2,0.1-0.3,0.1-0.8,0.1l-0.1,0c-0.7,0-1.3-0.6-1.3-1.1c0-0.6,0.8-0.8,1.5-0.4
	c0.2,0.1,0.3,0.1,0.6,0.2C14.7,36.3,14.8,36.4,14.8,36.8L14.8,36.8z M14.7,36.8c0-0.4-0.1-0.5-0.4-0.5c-0.3-0.1-0.4-0.1-0.7-0.2
	c-0.6-0.4-1.3-0.2-1.3,0.3c0,0.5,0.5,1.1,1.2,1.1h0.1c0.4,0,0.6,0,0.8-0.1C14.6,37.3,14.7,37.1,14.7,36.8L14.7,36.8z M17.2,28.1
	c0.3-0.1,0.6-0.2,1.2-0.3c0.2,0,1.2-0.3,1.5-0.4c1.4-0.4,2.3-0.7,2.8-1c1.1-0.7,2.7-2.5,3.2-3.5c0.2-0.3,0.3-0.5,0.6-0.5
	c0.1,0,0.2,0,0.3,0.1c0.1,0,0.2,0.1,0.3,0.1l0.1,0c0.4,0.2,0.6,0.3,0.9,0.3c0.5,0,0.7,0.2,0.6,0.6c-0.1,0.3-0.4,0.7-0.8,0.9
	c-0.6,0.4-0.9,1.3-0.9,2.5c0,0.3-0.1,0.5-0.3,0.6c-0.1,0.1-0.3,0.2-0.6,0.3l-0.1,0c-0.4,0.1-0.5,0.2-0.6,0.3
	c-0.4,0.4-0.9,0.5-1.5,0.5c-0.1,0-0.2,0.1-0.3,0.2c0,0-0.1,0.1-0.1,0.2c-0.2,0.3-0.4,0.4-0.6,0.4c-0.6,0-0.8,0.1-1.6,0.5
	c-0.4,0.2-0.7,0.3-1.1,0.3c0,0,0,0-0.1,0c-0.4,0-0.5,0-0.8,0.1c-0.2,0.1-0.4,0.2-0.7,0.3c-0.2,0.1-0.8,0.4-0.8,0.4
	c-0.6,0.3-1,0.4-1.4,0.6c-0.9,0.3-1.4,0.2-2-0.3c-0.2-0.1-0.2-0.3-0.1-0.6c0.1-0.2,0.3-0.4,0.6-0.7l0.1-0.1c0.3-0.3,0.3-0.3,0.4-0.4
	c0.2-0.2,0.2-0.3,0.4-0.6c0.1-0.2,0.2-0.4,0.5-0.5C16.7,28.3,16.9,28.2,17.2,28.1L17.2,28.1z M17.2,28.2c-0.3,0.1-0.5,0.2-0.7,0.3
	c-0.2,0.1-0.3,0.3-0.4,0.5c-0.2,0.3-0.2,0.4-0.4,0.6c-0.1,0.1-0.1,0.1-0.4,0.4l-0.1,0.1c-0.3,0.3-0.5,0.5-0.6,0.6
	c-0.1,0.2-0.1,0.4,0,0.5c0.6,0.5,1.1,0.5,2,0.3c0.4-0.1,0.8-0.3,1.4-0.6c0,0,0.6-0.3,0.8-0.4c0.2-0.1,0.4-0.2,0.7-0.3
	c0.3-0.1,0.4-0.1,0.8-0.1h0.1c0.4,0,0.7-0.1,1-0.3c0.8-0.4,1-0.5,1.6-0.5c0.2,0,0.4-0.1,0.6-0.4l0.1-0.2c0.1-0.2,0.2-0.3,0.4-0.3
	c0.6,0,1.1-0.1,1.5-0.5c0.1-0.1,0.3-0.2,0.7-0.3l0.1,0c0.6-0.2,0.9-0.4,0.9-0.9c0-1.2,0.3-2.2,0.9-2.5c0.4-0.2,0.7-0.6,0.8-0.8
	c0.1-0.3-0.1-0.5-0.5-0.5c-0.3,0-0.6-0.1-1-0.3c-0.6-0.3-0.5-0.2-0.6-0.3c-0.2,0-0.3,0.1-0.5,0.4c-0.5,1-2.1,2.8-3.3,3.6
	c-0.5,0.3-1.4,0.6-2.8,1c-0.3,0.1-1.3,0.3-1.5,0.4C17.9,28,17.5,28.1,17.2,28.2L17.2,28.2z M18.5,28.5c0.2,0,0.3,0,0.5-0.1
	c0.4-0.1,0.5-0.1,0.6,0c0.2,0,0.3,0.2,0.3,0.4c0,0.3-0.2,0.5-0.5,0.7c-0.2,0.2-0.5,0.3-1,0.5l0,0l-0.2,0.1c-0.2,0.1-0.4,0.2-0.7,0.4
	l-0.1,0c-0.6,0.4-1,0.6-1.7,0.6c-0.4,0-0.5-0.1-0.4-0.4c0.1-0.2,0.3-0.5,0.6-0.8c0.1-0.1,0.2-0.2,0.3-0.3c0.2-0.2,0.8-0.8,0.8-0.8
	c0,0,0.1-0.1,0.1-0.1c0.2-0.2,0.4-0.2,1-0.2C18.3,28.5,18.4,28.5,18.5,28.5L18.5,28.5z M18.5,28.5c-0.1,0-0.2,0-0.3,0
	c-0.6,0-0.8,0-1,0.2c0,0-0.1,0.1-0.1,0.1c0,0-0.6,0.6-0.8,0.8c-0.1,0.1-0.2,0.2-0.3,0.3c-0.3,0.3-0.5,0.6-0.6,0.8
	c-0.1,0.2,0,0.3,0.4,0.3c0.7,0,1.1-0.2,1.7-0.6l0.1,0c0.3-0.2,0.5-0.3,0.7-0.4l0.2-0.1l0,0c0.6-0.2,0.8-0.3,1-0.5
	c0.3-0.2,0.5-0.4,0.5-0.7c0-0.2-0.1-0.3-0.2-0.3c-0.1,0-0.2,0-0.6,0C18.8,28.5,18.6,28.5,18.5,28.5L18.5,28.5z M26.8,25.2
	c-0.1,0.4-0.1,0.5-0.1,0.9c0.1,0.5-0.1,1.2-0.4,1.2c0,0-0.1,0-0.1,0l0,0c-0.2,0-0.4,0-0.5,0c-0.5-0.1-0.8-0.4-0.8-1
	c0-1,0.2-1.5,0.6-1.9c0.1-0.1,0.1-0.2,0.2-0.3c0-0.1,0.2-0.4,0.2-0.4c0.3-0.6,0.6-0.9,0.9-0.8c0.1,0,0.2,0.1,0.3,0.1l0.1,0.1
	c0.1,0,0.1,0.1,0.2,0.1c0.1,0,0.1,0,0.4,0l0.1,0c0.2,0,0.4,0,0.4,0c0.1,0.1,0.1,0.2-0.1,0.4c-0.1,0.1-0.2,0.2-0.3,0.3
	C27,24.7,26.9,24.9,26.8,25.2L26.8,25.2z M26.7,25.2c0.1-0.3,0.3-0.5,1.1-1.2c0.1-0.1,0.2-0.2,0.3-0.3c0.1-0.1,0.2-0.2,0.1-0.2
	c-0.1,0-0.2,0-0.4,0l-0.1,0c-0.2,0-0.3,0-0.4,0c-0.1,0-0.1-0.1-0.2-0.1L27,23.2c-0.1,0-0.2-0.1-0.2-0.1c-0.3-0.1-0.5,0.2-0.8,0.7
	c0,0-0.2,0.3-0.2,0.4c-0.1,0.1-0.1,0.2-0.2,0.3c-0.4,0.5-0.6,0.9-0.6,1.9c0,0.6,0.3,0.8,0.7,0.9c0.1,0,0.3,0,0.5,0c0,0,0.1,0,0.1,0
	c0,0,0.1,0,0.1,0c0.2,0,0.4-0.7,0.3-1.1C26.5,25.7,26.6,25.6,26.7,25.2L26.7,25.2z M26,26.1c0,0,0.2,0.1,0.2,0.1
	c0.1,0.1,0.2,0.2,0,0.5c-0.3,0.4-0.7,0.2-0.7-0.3c0-0.3,0-0.4,0.2-0.4C25.8,25.9,25.9,25.9,26,26.1L26,26.1z M25.9,26.2
	c-0.1-0.1-0.2-0.1-0.2-0.1c0,0,0,0.1,0,0.3c0,0.4,0.2,0.5,0.4,0.3c0.1-0.2,0.1-0.2,0-0.3C26.1,26.3,26,26.2,25.9,26.2L25.9,26.2z
	 M42.4,16.6c0.2-0.1,0.3-0.1,0.4-0.2l0,0c0.2-0.1,0.4-0.2,0.6-0.3C43.8,16,44,16,44,16.2c0,0.1,0,0.3-0.1,0.9
	c-0.2,1-0.7,1.9-1.6,2.7c-0.3,0.3-0.5,0.3-0.7,0.2c-0.1-0.1-0.2-0.3-0.3-0.8c0-0.1-0.1-0.4-0.1-0.5C41.1,18.5,41,18.2,41,18
	c-0.2-0.5-0.2-0.8-0.2-1c0.1-0.1,0.2-0.2,0.4-0.2c0.1,0,0.2,0,0.2,0l0.1,0c0.1,0,0.1,0,0.1,0c0.1,0,0.1,0,0.2,0
	C42,16.7,42.2,16.7,42.4,16.6L42.4,16.6z M42.4,16.6c-0.2,0.1-0.4,0.2-0.5,0.2c-0.1,0-0.1,0-0.2,0c-0.1,0-0.2,0-0.3,0
	c-0.1,0-0.1,0-0.2,0c-0.2,0-0.3,0-0.4,0.1c-0.1,0.1,0,0.4,0.2,0.9c0.1,0.2,0.1,0.5,0.2,0.7l0.1,0.5c0.1,0.4,0.2,0.6,0.3,0.7
	c0.1,0.1,0.3,0.1,0.6-0.2c0.9-0.7,1.4-1.6,1.5-2.6c0.1-0.6,0.1-0.8,0.1-0.9c0-0.1-0.1-0.1-0.4,0c-0.2,0.1-0.4,0.2-0.7,0.3l0,0
	C42.7,16.5,42.5,16.6,42.4,16.6z M42.1,17.1c0.1,0,0.2-0.1,0.3-0.1c0,0,0.2-0.1,0.2-0.1c0.1-0.1,0.2-0.1,0.3-0.1
	c0.2-0.1,0.3-0.1,0.4,0c0.1,0.1,0.1,0.2,0.1,0.3c0,0,0,0.1,0,0.1c0,0.4-0.3,1.2-0.8,1.7c-0.3,0.3-0.5,0.3-0.7,0.2
	c-0.2-0.1-0.3-0.3-0.5-1c-0.1-0.4-0.2-0.6-0.1-0.8c0.1-0.1,0.2-0.2,0.4-0.2l0.1,0C42,17.1,42,17.1,42.1,17.1L42.1,17.1z M41.9,17.3
	L41.9,17.3c-0.3,0-0.4,0.1-0.4,0.1c-0.1,0.1-0.1,0.3,0.1,0.6c0.2,0.6,0.3,0.8,0.4,0.9c0.1,0.1,0.3,0.1,0.5-0.2
	c0.5-0.4,0.8-1.2,0.8-1.6c0,0,0-0.1,0-0.1c0-0.1,0-0.2-0.1-0.2c0,0-0.1,0-0.3,0c-0.1,0-0.2,0.1-0.3,0.1c-0.1,0-0.2,0.1-0.2,0.1
	c-0.1,0.1-0.2,0.1-0.3,0.1C42.1,17.3,42,17.3,41.9,17.3L41.9,17.3z M25.1,10.7c-0.1,0.3-0.3,0.5-0.5,0.8l-0.2,0.2
	c-0.1,0.1-0.1,0.2-0.2,0.2c-0.1,0.2-0.2,0.4-0.3,0.6c-0.2,0.4-0.5,0.8-0.9,1c-0.3,0.2-0.6,0.3-1.2,0.6c-0.8,0.3-1.2,0.1-2-1.2
	c-0.2-0.3-0.7-0.6-1.3-0.9c-0.2-0.1-1-0.4-1.1-0.4c-0.4-0.2-0.5-0.3-0.5-0.4c0-0.2,0.4-0.3,1.1-0.4c1.2-0.2,2-0.3,2.9-0.2
	c0.6,0,0.7,0,0.9,0c0.1,0,0.3-0.1,0.4-0.2l0.2-0.1c0.7-0.5,1-0.6,1.3-0.7c0.4-0.2,0.8-0.2,1-0.1C25.4,9.6,25.4,9.9,25.1,10.7
	L25.1,10.7z M25,10.7c0.3-0.8,0.3-1-0.2-1.2c-0.2-0.1-0.5-0.1-0.9,0.1c-0.3,0.1-0.5,0.3-1.3,0.7l-0.2,0.1c-0.1,0.1-0.3,0.2-0.5,0.2
	c-0.2,0.1-0.4,0.1-1,0c-0.9-0.1-1.7,0-2.9,0.2c-0.4,0.1-0.6,0.1-0.8,0.2c-0.1,0.1-0.2,0.1-0.2,0.1c0,0,0.1,0.1,0.4,0.3
	c0.1,0,0.8,0.3,1.1,0.4c0.7,0.3,1.2,0.6,1.4,1c0.8,1.3,1.1,1.4,1.8,1.2c0.5-0.2,0.8-0.4,1.1-0.5c0.4-0.3,0.7-0.6,0.9-1
	c0.1-0.2,0.2-0.4,0.4-0.6c0.1-0.1,0.1-0.2,0.2-0.2l0.2-0.2C24.7,11.2,24.9,11,25,10.7L25,10.7z M24.5,10.6c-0.6,0.9-1.4,1.6-2.5,1.9
	c-0.6,0.1-0.9-0.1-1-0.4c0-0.3,0.2-0.7,0.4-0.7c0.2,0,0.4-0.1,1.1-0.7c0.1-0.1,0.2-0.1,0.3-0.2c0.3-0.2,0.6-0.4,0.8-0.4
	c0.4-0.1,0.7-0.2,0.8-0.1C24.7,10.1,24.7,10.3,24.5,10.6L24.5,10.6z M24.4,10.6c0.2-0.3,0.2-0.5,0.1-0.6c-0.1-0.1-0.4,0-0.8,0.1
	c-0.2,0.1-0.5,0.2-0.8,0.4c-0.1,0.1-0.2,0.1-0.3,0.2c-0.7,0.6-0.9,0.7-1.2,0.7c-0.2,0-0.4,0.3-0.4,0.6c0,0.3,0.3,0.5,0.9,0.4
	C23.1,12.2,23.8,11.5,24.4,10.6L24.4,10.6z M33.9,2.3c1,0.4,1.5,0.4,2.3,0c0.2-0.1,0.4-0.2,0.8-0.5c0.4-0.3,0.6-0.4,0.8-0.5
	c0.3-0.1,0.6-0.2,0.8-0.1c0.3,0.1,0.5,0.9,0.5,2.1c0,1,0,2.1-0.2,2.5c-0.1,0.4-0.4,0.6-0.9,0.7c-0.3,0.1-0.6,0.1-1,0.1
	c-0.4,0-0.7,0.2-0.9,0.6c0,0-0.1,0.2-0.1,0.2c-0.1,0.2-0.2,0.3-0.4,0.4c-0.1,0-0.2,0.1-0.3,0.1l-0.2,0.1c-0.1,0-0.1,0.1-0.2,0.1
	c-0.5,0.2-0.9,0.3-1.3,0.3c-0.4,0-0.7,0.2-1,0.4c-0.1,0.1-0.3,0.3-0.3,0.4c-0.2,0.2-0.4,0.3-0.8,0.5c-0.1,0-0.4,0.2-0.5,0.2L31.1,10
	C31,10,31,10,30.9,10c-0.4,0.1-0.8,0-1.3-0.3c-0.1-0.1-0.4-0.2-0.4-0.3c-0.2-0.1-0.3-0.1-0.7-0.1l-0.1,0c-0.4,0-0.6-0.1-0.8-0.2
	c-0.4-0.3-0.5-0.6-0.4-0.9c0.1-0.4,0.5-0.8,1.1-1.3c0.2-0.1,0.3-0.2,0.5-0.3c0,0,0.3-0.2,0.4-0.3c0.2-0.1,0.4-0.3,0.9-0.9l0.1-0.1
	c0.3-0.3,0.4-0.4,0.6-0.6c0.2-0.2,0.3-0.4,0.6-1l0-0.1c0.2-0.5,0.3-0.7,0.5-0.9c0.1-0.1,0.5-0.5,0.6-0.6C32.8,2,33.1,2,33.9,2.3
	L33.9,2.3z M33.9,2.4c-0.8-0.3-1.1-0.3-1.4-0.1c-0.1,0.1-0.5,0.5-0.6,0.5c-0.2,0.2-0.3,0.4-0.5,0.9l0,0.1c-0.2,0.5-0.3,0.8-0.6,1
	c-0.2,0.2-0.5,0.4-0.7,0.7c-0.6,0.6-0.7,0.8-1,0.9c-0.1,0.1-0.4,0.3-0.4,0.3c-0.2,0.1-0.3,0.2-0.5,0.3c-0.6,0.5-1,0.9-1.1,1.2
	c-0.1,0.3,0,0.6,0.4,0.8c0.2,0.1,0.4,0.2,0.7,0.2l0.1,0c0.4,0,0.5,0.1,0.7,0.2c0,0,0.3,0.2,0.4,0.3c0.5,0.3,0.9,0.4,1.3,0.3
	c0.1,0,0.1,0,0.2-0.1c0.1,0,0.1,0,0.2-0.1c0,0,0.4-0.1,0.5-0.2c0.4-0.1,0.6-0.3,0.8-0.4c0,0,0.3-0.3,0.3-0.4
	c0.3-0.3,0.6-0.5,1.1-0.5c0.4,0,0.8-0.1,1.2-0.3c0.1,0,0.1-0.1,0.2-0.1c0,0,0.1-0.1,0.2-0.1c0.1-0.1,0.2-0.1,0.3-0.1
	c0.1,0,0.2-0.1,0.3-0.3l0.1-0.2c0.3-0.4,0.5-0.6,1-0.6c0.3,0,0.6,0,0.9-0.1c0.4-0.1,0.7-0.4,0.8-0.7c0.1-0.4,0.2-1.5,0.2-2.5
	c0-1.1-0.2-2-0.4-2c-0.2-0.1-0.5,0-0.8,0.1c-0.2,0.1-0.4,0.2-0.8,0.5c-0.4,0.3-0.6,0.4-0.8,0.5C35.5,2.8,34.9,2.8,33.9,2.4L33.9,2.4
	z M34.9,3.9c0.4,0,0.6,0,0.7-0.1c0.1,0,0.7-0.4,1.1-0.5c0.1-0.1,0.3-0.2,0.5-0.4c0.2-0.2,0.2-0.3,0.3-0.4c0.3-0.2,0.5-0.2,0.8,0.1
	c0.5,0.7,0.4,1.2,0,2c-0.1,0.1-0.1,0.3-0.2,0.4c0,0.1-0.1,0.2-0.1,0.2c0,0,0,0.1,0,0.1c0,0.1-0.1,0.2-0.3,0.3
	c-0.2,0.2-0.4,0.2-0.9,0.3c-0.1,0-0.2,0-0.2,0c-0.4,0.1-0.7,0.2-0.9,0.4c-0.3,0.3-0.6,0.6-1.1,0.8c0,0-0.1,0-0.1,0.1l-0.1,0.1
	c-0.2,0.1-0.4,0.2-0.6,0.3c-0.2,0.1-0.4,0.2-0.7,0.3c-0.6,0.2-0.9,0.3-1.3,0.7c-0.4,0.4-0.8,0.6-1.2,0.5c-0.4-0.1-0.8-0.2-1.7-0.7
	c-0.5-0.2-0.5-0.6-0.1-1C29,7.1,29,7.1,30.2,6.2c0.6-0.5,1-0.8,1.2-1.1c0.2-0.2,0.3-0.4,0.4-0.6c0.4-1.4,0.9-1.6,1.7-1.1
	c0.1,0.1,0.5,0.3,0.5,0.4C34.2,3.8,34.5,3.9,34.9,3.9z M34.9,4c-0.5,0-0.8-0.1-1-0.2c0,0-0.4-0.3-0.5-0.4c-0.7-0.4-1.1-0.2-1.5,1.1
	c-0.1,0.2-0.2,0.4-0.4,0.7c-0.3,0.3-0.6,0.6-1.3,1.1c-1.2,0.9-1.2,0.9-1.4,1.2c-0.3,0.4-0.3,0.6,0.1,0.8c0.9,0.5,1.3,0.6,1.7,0.7
	C31,9,31.4,8.9,31.7,8.5c0.4-0.4,0.7-0.6,1.4-0.7c0.3-0.1,0.5-0.1,0.7-0.2c0.2-0.1,0.4-0.2,0.6-0.3l0.1-0.1l0.1-0.1
	c0.5-0.2,0.8-0.4,1.1-0.7c0.2-0.3,0.5-0.4,1-0.5c0.1,0,0.1,0,0.2,0c0.5-0.1,0.6-0.1,0.8-0.3c0.2-0.2,0.2-0.2,0.3-0.3c0,0,0,0,0-0.1
	c0,0,0.1-0.2,0.1-0.2c0-0.1,0.1-0.3,0.2-0.4c0.4-0.8,0.4-1.2,0-1.8c-0.2-0.3-0.3-0.3-0.5-0.1c-0.1,0.1-0.1,0.1-0.3,0.3
	c-0.2,0.3-0.4,0.4-0.5,0.5c-0.4,0.2-1,0.5-1.1,0.5C35.5,4,35.3,4,34.9,4z M34,4.7C34.4,5,34.8,5,35.3,4.7c0.4-0.1,0.4-0.2,0.6-0.2
	c0.2,0,0.3,0.1,0.4,0.3c0.1,0.4-0.2,0.6-0.9,0.9c-0.2,0.1-1.2,0.5-1.5,0.6c-0.6,0.2-1,0.5-1.4,0.7c-1,0.7-1.4,0.9-1.8,0.7
	c-0.1,0-0.2-0.1-0.3-0.1l-0.1-0.1c-0.1,0-0.1-0.1-0.2-0.1C29.9,7.4,30,7.2,30.2,7c0.1-0.1,0.8-0.6,1-0.7c0.5-0.4,0.9-0.8,1.1-1.4
	c0.2-0.6,0.4-0.9,0.5-1c0.1-0.1,0.2,0,0.5,0.1c0,0,0.3,0.2,0.3,0.3C33.7,4.5,33.8,4.6,34,4.7L34,4.7z M33.9,4.7
	c-0.1-0.1-0.3-0.2-0.4-0.3c-0.1,0-0.3-0.2-0.3-0.3C33,4,32.9,3.9,32.9,4c-0.1,0.1-0.3,0.3-0.5,1c-0.2,0.5-0.6,1-1.1,1.4
	c-0.2,0.2-0.9,0.7-1,0.7c-0.2,0.2-0.3,0.3-0.1,0.4l0.2,0.1l0.1,0.1c0.1,0.1,0.2,0.1,0.3,0.1c0.4,0.2,0.7,0,1.7-0.7
	c0.4-0.3,0.8-0.5,1.4-0.8c0.3-0.1,1.3-0.5,1.5-0.6c0.7-0.3,1-0.5,0.9-0.8c-0.1-0.2-0.2-0.3-0.3-0.3c-0.1,0-0.2,0-0.5,0.2
	C34.8,5,34.4,5,33.9,4.7L33.9,4.7z"/>
</svg>
