<?xml version="1.0" encoding="utf-8"?>
<!-- Generator: Adobe Illustrator 24.2.0, SVG Export Plug-In . SVG Version: 6.00 Build 0)  -->
<svg version="1.1" id="Layer_1" xmlns="http://www.w3.org/2000/svg" xmlns:xlink="http://www.w3.org/1999/xlink" x="0px" y="0px"
	 viewBox="0 0 44 44" style="enable-background:new 0 0 44 44;" xml:space="preserve">
<style type="text/css">
	.st0{fill-rule:evenodd;clip-rule:evenodd;}
</style>
<path class="st0" d="M5.3,3.7L1.8,0.1L0.3,1.6l3.5,3.5L0.3,8.6L1.8,10l3.5-3.5L8.8,10l1.4-1.4L6.7,5.1l3.5-3.5L8.8,0.1L5.3,3.7z
	 M17.3,2.1h24v2h-24V2.1z M17.3,6.1h24v2h-24V6.1z M2.3,17.1h2v24h-2V17.1z M6.3,17.1h2v24h-2V17.1z"/>
<path class="st0" d="M40.5,41.2l2.4,2.4l0.9-0.9l-2.4-2.4l2.4-2.4L42.8,37l-2.4,2.4L38.1,37l-0.9,0.9l2.4,2.4l-2.4,2.4l0.9,0.9
	L40.5,41.2z M32.4,42.3H16.4v-1.3h16.1V42.3z M32.4,39.6H16.4v-1.3h16.1V39.6z M42.5,32.2h-1.3V16.2h1.3V32.2z M39.8,32.2h-1.3V16.2
	h1.3V32.2z"/>
</svg>
