<?xml version="1.0" encoding="utf-8"?>
<!-- Generator: Adobe Illustrator 24.2.0, SVG Export Plug-In . SVG Version: 6.00 Build 0)  -->
<svg version="1.1" xmlns="http://www.w3.org/2000/svg" xmlns:xlink="http://www.w3.org/1999/xlink" x="0px" y="0px"
	 viewBox="0 0 1000 257" style="enable-background:new 0 0 1000 257;" xml:space="preserve">
<style type="text/css">
	.st0{fill:#33669A;}
	.st1{fill:#F8991D;}
	.st2{fill:#FFFFFF;}
	.st3{fill:none;stroke:#000000;stroke-width:2;stroke-miterlimit:10;}
	.st4{fill:#EE3C96;}
	.st5{fill:#34679A;}
</style>
<g id="Layer_1">
	
		<image style="overflow:visible;" width="1600" height="580" xlink:href="../../../WEB-BANNER-YEAR-END-PROMO-SUN-ENGLISH-2019-Copy-1.jpg"  transform="matrix(0.625 0 0 0.4431 0 0)">
	</image>
</g>
<g id="Layer_5">
	<rect class="st0" width="1000" height="257"/>
</g>
<g id="Layer_4">
	<path class="st1" d="M237.1,54.2l-73.4,1.6c-2.5,0.1-4.5-1.9-4.6-4.4l0,0c-0.1-2.5,1.9-4.5,4.4-4.6l73.4-1.6
		c2.5-0.1,4.5,1.9,4.6,4.4v0C241.5,52,239.6,54.1,237.1,54.2z"/>
	<path class="st2" d="M201.6,72.3L168,73c-0.9,0-1.7-0.7-1.8-1.7v0c0-0.9,0.7-1.7,1.7-1.8l33.6-0.8c0.9,0,1.7,0.7,1.8,1.7l0,0
		C203.3,71.5,202.5,72.3,201.6,72.3z"/>
	<path class="st1" d="M291.4,197.1l-86.7,1.9c-0.9,0-1.7-0.7-1.8-1.7l-0.1-3.7c0-0.9,0.7-1.7,1.7-1.8l86.7-1.9
		c0.9,0,1.7,0.7,1.8,1.7l0.1,3.7C293.1,196.3,292.3,197.1,291.4,197.1z"/>
	<path class="st2" d="M353.4,181.7l-86.7,1.9c-0.9,0-1.7-0.7-1.8-1.7l-0.1-3.7c0-0.9,0.7-1.7,1.7-1.8l86.7-1.9
		c0.9,0,1.7,0.7,1.8,1.7l0.1,3.7C355.1,180.8,354.4,181.6,353.4,181.7z"/>
	<path class="st2" d="M445.6,49.4L376.7,51c-1.1,0-2-0.9-2-2v0c0-1.1,0.9-2,2-2l68.9-1.5c1.1,0,2,0.9,2,2v0
		C447.6,48.5,446.7,49.4,445.6,49.4z"/>
	<path class="st1" d="M612.7,46.9l-86.1,1.9c-2.4,0.1-4.3-1.8-4.4-4.2v0c-0.1-2.4,1.8-4.3,4.2-4.4l86.1-1.9c2.4-0.1,4.3,1.8,4.4,4.2
		v0C617,44.9,615.1,46.8,612.7,46.9z"/>
	<path class="st2" d="M693.3,52.2l-31.2,0.7c-1.1,0-2.1-0.9-2.1-2v0c0-1.1,0.9-2.1,2-2.1l31.2-0.7c1.1,0,2.1,0.9,2.1,2v0
		C695.3,51.2,694.4,52.2,693.3,52.2z"/>
	<path class="st1" d="M713.8,181.3l-64,1.4c-1.1,0-2.1-0.9-2.1-2l-0.1-3.3c0-1.1,0.9-2.1,2-2.1l64-1.4c1.1,0,2.1,0.9,2.1,2l0.1,3.3
		C715.8,180.3,714.9,181.3,713.8,181.3z"/>
	<path class="st2" d="M569,202.3l-29.9,0.7c-1.1,0-2.1-0.9-2.1-2l0-1.3c0-1.1,0.9-2.1,2-2.1l29.9-0.7c1.1,0,2.1,0.9,2.1,2l0,1.3
		C571,201.3,570.1,202.3,569,202.3z"/>
	<path class="st2" d="M925.6,159.6H707.3c-6.6,0-12-5.4-12-12V82.5c0-6.6,5.4-12,12-12h218.3c6.6,0,12,5.4,12,12v65.1
		C937.6,154.2,932.2,159.6,925.6,159.6z"/>
	<g>
		<g>
			<path d="M741.9,83.1h2.8V98h-2.8V83.1z M743.1,89.3h5.2c0.3,0,0.5-0.1,0.8-0.2s0.4-0.3,0.5-0.6c0.1-0.3,0.2-0.6,0.2-0.9
				c0-0.3-0.1-0.7-0.2-0.9c-0.1-0.3-0.3-0.5-0.5-0.6s-0.5-0.2-0.8-0.2h-5.2v-2.7h5.4c0.8,0,1.5,0.2,2.2,0.6s1.1,0.9,1.4,1.6
				s0.5,1.5,0.5,2.3s-0.2,1.7-0.5,2.3c-0.3,0.7-0.8,1.2-1.5,1.6c-0.6,0.4-1.3,0.6-2.2,0.6h-5.4V89.3z M746.2,91.6l3-0.5l4,6.9h-3.4
				L746.2,91.6z"/>
			<path d="M755.6,83.1h2.8V98h-2.8V83.1z M756.7,83.1h9v2.7h-9V83.1z M756.7,89.3h7.8V92h-7.8V89.3z M756.7,95.3h9V98h-9V95.3z"/>
			<path d="M778.8,89.7v2.9c0,1.1-0.2,2.1-0.7,2.9c-0.4,0.8-1.1,1.5-1.9,2c-0.8,0.5-1.8,0.7-2.9,0.7c-1.1,0-2-0.2-2.9-0.7
				c-0.8-0.4-1.5-1-1.9-1.8c-0.5-0.8-0.7-1.7-0.7-2.8v-4.4c0-1.1,0.2-2.1,0.7-2.9c0.4-0.8,1.1-1.5,1.9-2c0.8-0.5,1.8-0.7,2.9-0.7
				c0.9,0,1.7,0.2,2.5,0.5c0.8,0.4,1.4,0.9,1.9,1.6c0.5,0.7,0.8,1.4,1,2.3h-3c-0.1-0.3-0.3-0.6-0.5-0.8c-0.2-0.2-0.5-0.4-0.8-0.5
				c-0.3-0.1-0.6-0.2-1-0.2c-0.5,0-0.9,0.1-1.3,0.3c-0.4,0.2-0.7,0.5-0.9,0.9c-0.2,0.4-0.3,0.9-0.3,1.4v4.4c0,0.5,0.1,0.9,0.3,1.2
				s0.5,0.6,0.9,0.8c0.4,0.2,0.8,0.3,1.4,0.3c0.5,0,0.9-0.1,1.3-0.3c0.4-0.2,0.7-0.5,0.9-0.9s0.3-0.9,0.3-1.4v-0.2h-2.3v-2.7H778.8z
				"/>
			<path d="M784.5,98h-2.9V83.1h2.9V98z"/>
			<path d="M790.1,98c-0.7-0.1-1.3-0.4-1.9-0.6c-0.6-0.3-1.1-0.6-1.6-1l1.3-2.3c0.6,0.5,1.2,0.8,2,1.1c0.8,0.3,1.5,0.4,2.3,0.4
				c0.9,0,1.6-0.2,2.1-0.5s0.8-0.8,0.8-1.3v0c0-0.4-0.1-0.7-0.3-0.9s-0.5-0.4-0.9-0.5s-0.8-0.2-1.4-0.3c0,0,0,0-0.1,0c0,0,0,0-0.1,0
				l-0.2,0c-1-0.2-1.8-0.4-2.5-0.6c-0.7-0.2-1.2-0.6-1.7-1.2s-0.7-1.4-0.7-2.5v0c0-1,0.2-1.8,0.6-2.5s1.1-1.2,1.9-1.6
				c0.8-0.4,1.8-0.5,3-0.5c0.5,0,1.1,0.1,1.6,0.2c0.6,0.1,1.1,0.3,1.6,0.5s1,0.5,1.5,0.8l-1.2,2.4c-0.6-0.4-1.2-0.7-1.8-0.9
				c-0.6-0.2-1.2-0.3-1.8-0.3c-0.9,0-1.5,0.1-2,0.4c-0.5,0.3-0.7,0.7-0.7,1.2v0c0,0.4,0.1,0.8,0.4,1s0.5,0.4,0.9,0.5
				s0.9,0.2,1.5,0.4c0,0,0.1,0,0.1,0c0,0,0.1,0,0.1,0c0,0,0.1,0,0.1,0c0,0,0.1,0,0.1,0c0.9,0.2,1.7,0.4,2.4,0.7
				c0.6,0.3,1.2,0.7,1.6,1.3c0.4,0.6,0.6,1.4,0.6,2.4v0c0,1-0.2,1.8-0.7,2.4s-1.1,1.2-1.9,1.5c-0.9,0.4-1.9,0.5-3.1,0.5
				C791.5,98.2,790.8,98.1,790.1,98z"/>
			<path d="M798.4,83.1h10.9v2.7h-10.9V83.1z M802.5,84.3h2.8V98h-2.8V84.3z"/>
			<path d="M810.6,83.1h2.8V98h-2.8V83.1z M811.6,83.1h9v2.7h-9V83.1z M811.6,89.3h7.8V92h-7.8V89.3z M811.6,95.3h9V98h-9V95.3z"/>
			<path d="M823.1,83.1h2.8V98h-2.8V83.1z M824.3,89.3h5.2c0.3,0,0.5-0.1,0.8-0.2s0.4-0.3,0.5-0.6c0.1-0.3,0.2-0.6,0.2-0.9
				c0-0.3-0.1-0.7-0.2-0.9c-0.1-0.3-0.3-0.5-0.5-0.6s-0.5-0.2-0.8-0.2h-5.2v-2.7h5.4c0.8,0,1.5,0.2,2.2,0.6s1.1,0.9,1.4,1.6
				s0.5,1.5,0.5,2.3s-0.2,1.7-0.5,2.3c-0.3,0.7-0.8,1.2-1.5,1.6c-0.6,0.4-1.3,0.6-2.2,0.6h-5.4V89.3z M827.4,91.6l3-0.5l4,6.9H831
				L827.4,91.6z"/>
			<path d="M842.5,83.1h3.4l5.5,11.4l-0.2,0.3V83.1h2.7V98h-3.5l-5.5-11.2l0.2-0.3V98h-2.7V83.1z"/>
			<path d="M859.5,97.5c-0.8-0.5-1.5-1.1-1.9-1.9c-0.5-0.8-0.7-1.8-0.7-2.9v-4.2c0-1.1,0.2-2.1,0.7-2.9c0.5-0.8,1.1-1.5,1.9-1.9
				c0.8-0.5,1.8-0.7,2.9-0.7s2,0.2,2.9,0.7c0.8,0.5,1.5,1.1,1.9,1.9c0.5,0.8,0.7,1.8,0.7,2.9v4.2c0,1.1-0.2,2.1-0.7,2.9
				c-0.5,0.8-1.1,1.5-1.9,1.9c-0.8,0.5-1.8,0.7-2.9,0.7S860.3,97.9,859.5,97.5z M863.6,95c0.4-0.2,0.7-0.5,0.9-0.9
				c0.2-0.4,0.3-0.9,0.3-1.4v-4.4c0-0.5-0.1-1-0.3-1.4c-0.2-0.4-0.5-0.7-0.9-0.9c-0.4-0.2-0.8-0.3-1.3-0.3s-1,0.1-1.3,0.3
				c-0.4,0.2-0.7,0.5-0.9,0.9c-0.2,0.4-0.3,0.9-0.3,1.4v4.4c0,0.5,0.1,1,0.3,1.4c0.2,0.4,0.5,0.7,0.9,0.9c0.4,0.2,0.8,0.3,1.3,0.3
				S863.3,95.3,863.6,95z"/>
			<path d="M876.8,83.1h2.3l2.9,9.9l1.9-9.9h2.9L883.3,98h-2.6L878,87.6L875.3,98h-2.6l-3.4-14.9h2.9l1.9,9.9L876.8,83.1z"/>
			<path d="M888.3,83.1h2.8v10.5h-2.8V83.1z M888.3,95.2h2.8V98h-2.8V95.2z"/>
			<path d="M726.7,108.3h2.8v14.9h-2.8V108.3z M727.7,108.3h9v2.7h-9V108.3z M727.7,114.5h7.8v2.7h-7.8V114.5z M727.7,120.5h9v2.7
				h-9V120.5z"/>
			<path d="M739,112.6h2.8v10.6H739V112.6z M745.2,116.8c0-0.5-0.1-0.9-0.4-1.2c-0.3-0.3-0.7-0.4-1.3-0.4c-0.5,0-0.9,0.1-1.2,0.4
				c-0.3,0.3-0.4,0.7-0.4,1.2l-0.2-2.4c0.3-0.7,0.7-1.2,1.2-1.5c0.4-0.3,1-0.5,1.7-0.5c1.1,0,2,0.4,2.6,1.1s0.9,1.8,0.9,3.2v6.5
				h-2.8V116.8z"/>
			<path d="M749.3,124.8h0.7c0.3,0,0.5-0.1,0.6-0.2c0.1-0.1,0.2-0.3,0.2-0.6v-11.5h2.8v12.2c0,0.9-0.2,1.6-0.7,2.1s-1.1,0.7-2,0.7
				h-1.6V124.8z M750.7,108.3h2.9v2.8h-2.9V108.3z"/>
			<path d="M758.2,122.8c-0.7-0.4-1.2-0.9-1.6-1.6c-0.4-0.7-0.5-1.5-0.5-2.5V117c0-1,0.2-1.8,0.5-2.5c0.4-0.7,0.9-1.2,1.6-1.6
				c0.7-0.4,1.5-0.5,2.5-0.5s1.8,0.2,2.5,0.5c0.7,0.4,1.2,0.9,1.6,1.6c0.4,0.7,0.5,1.5,0.5,2.5v1.8c0,1-0.2,1.8-0.5,2.5
				c-0.4,0.7-0.9,1.2-1.6,1.6c-0.7,0.4-1.5,0.5-2.5,0.5S758.8,123.2,758.2,122.8z M762,120.2c0.3-0.3,0.5-0.8,0.5-1.4V117
				c0-0.6-0.2-1.1-0.5-1.4s-0.8-0.5-1.3-0.5c-0.6,0-1,0.2-1.3,0.5c-0.3,0.3-0.5,0.8-0.5,1.4v1.8c0,0.6,0.2,1.1,0.5,1.4
				c0.3,0.3,0.7,0.5,1.3,0.5S761.6,120.5,762,120.2z"/>
			<path d="M766.7,112.6h2.6l3.6,9.2l-1.8,2.3L766.7,112.6z M776.5,112.6l-4.7,13.1c-0.2,0.5-0.4,0.9-0.7,1.2
				c-0.3,0.3-0.6,0.5-1,0.6c-0.4,0.1-0.9,0.2-1.4,0.2h-0.6v-2.7h0.6c0.3,0,0.6-0.1,0.8-0.2c0.2-0.1,0.4-0.4,0.5-0.7l3.9-11.5H776.5z
				"/>
			<path d="M783.8,108.3h2.8v14.9h-2.8V108.3z M785.2,120.5h3.6c0.9,0,1.6-0.2,2.1-0.7s0.8-1.1,0.8-1.9v-4.4c0-0.8-0.3-1.4-0.8-1.9
				s-1.2-0.7-2.1-0.7h-3.6v-2.7h3.5c1.2,0,2.3,0.2,3.2,0.6c0.9,0.4,1.5,1,2,1.8c0.5,0.8,0.7,1.8,0.7,2.9v4.2c0,1.1-0.2,2-0.7,2.8
				c-0.4,0.8-1.1,1.4-2,1.9s-2,0.7-3.2,0.7h-3.5V120.5z"/>
			<path d="M797.2,108.3h2.8v2.8h-2.8V108.3z M797.2,112.6h2.8v10.6h-2.8V112.6z"/>
			<path d="M804.9,123.2c-0.6-0.1-1.2-0.3-1.7-0.5c-0.5-0.2-1-0.5-1.4-0.8l1.7-2.2c0.5,0.3,1,0.6,1.6,0.8s1.1,0.3,1.6,0.3
				c0.7,0,1.2-0.1,1.5-0.2c0.4-0.1,0.5-0.3,0.5-0.6c0-0.2-0.1-0.4-0.2-0.5s-0.4-0.2-0.6-0.3c-0.2-0.1-0.6-0.1-1-0.1
				c-0.1,0-0.2,0-0.4,0c-0.1,0-0.3,0-0.4,0c0,0-0.1,0-0.1,0c0,0-0.1,0-0.1,0c-0.8-0.1-1.4-0.2-1.9-0.4c-0.5-0.2-0.9-0.4-1.2-0.9
				c-0.3-0.4-0.5-1-0.5-1.9c0-0.7,0.2-1.3,0.5-1.8s0.8-0.9,1.5-1.2c0.6-0.3,1.4-0.4,2.4-0.4c0.5,0,1.1,0.1,1.6,0.2
				c0.5,0.1,1.1,0.3,1.5,0.5s0.9,0.5,1.4,0.7l-1.7,2c-0.5-0.3-1-0.5-1.5-0.6s-1-0.2-1.5-0.2c-0.6,0-1,0.1-1.3,0.2s-0.5,0.3-0.5,0.5
				c0,0.2,0.1,0.3,0.3,0.4c0.2,0.1,0.4,0.2,0.6,0.2c0.2,0,0.6,0.1,1.1,0.1c0.1,0,0.1,0,0.2,0s0.1,0,0.2,0c0,0,0.1,0,0.1,0
				s0.1,0,0.1,0c0.8,0.1,1.5,0.2,2,0.4c0.5,0.2,1,0.5,1.3,0.9c0.4,0.5,0.5,1.1,0.5,2c0,0.7-0.2,1.4-0.5,1.9
				c-0.4,0.5-0.9,0.9-1.6,1.2c-0.7,0.3-1.5,0.4-2.5,0.4C806.1,123.4,805.5,123.3,804.9,123.2z"/>
			<path d="M815.4,122.8c-0.7-0.4-1.3-0.9-1.6-1.7s-0.6-1.6-0.6-2.7v-1.1c0-1,0.2-1.9,0.6-2.6c0.4-0.7,0.9-1.3,1.6-1.7
				c0.7-0.4,1.6-0.6,2.6-0.6c0.6,0,1.1,0.1,1.6,0.2c0.5,0.1,1,0.3,1.4,0.6s0.8,0.6,1,0.9l-1.8,1.8c-0.3-0.2-0.6-0.4-0.9-0.6
				c-0.3-0.1-0.7-0.2-1.1-0.2c-0.7,0-1.3,0.2-1.7,0.6c-0.4,0.4-0.6,0.9-0.6,1.6v1.1c0,0.7,0.2,1.3,0.6,1.6c0.4,0.4,0.9,0.6,1.7,0.6
				c0.4,0,0.8-0.1,1.1-0.2s0.6-0.3,0.9-0.6l1.8,1.9c-0.3,0.4-0.6,0.7-1,0.9c-0.4,0.3-0.9,0.4-1.4,0.6c-0.5,0.1-1.1,0.2-1.6,0.2
				C817,123.4,816.1,123.2,815.4,122.8z"/>
			<path d="M825.8,122.8c-0.7-0.4-1.2-0.9-1.6-1.6c-0.4-0.7-0.5-1.5-0.5-2.5V117c0-1,0.2-1.8,0.5-2.5c0.4-0.7,0.9-1.2,1.6-1.6
				c0.7-0.4,1.5-0.5,2.5-0.5s1.8,0.2,2.5,0.5c0.7,0.4,1.2,0.9,1.6,1.6c0.4,0.7,0.5,1.5,0.5,2.5v1.8c0,1-0.2,1.8-0.5,2.5
				c-0.4,0.7-0.9,1.2-1.6,1.6c-0.7,0.4-1.5,0.5-2.5,0.5S826.5,123.2,825.8,122.8z M829.6,120.2c0.3-0.3,0.5-0.8,0.5-1.4V117
				c0-0.6-0.2-1.1-0.5-1.4s-0.8-0.5-1.3-0.5c-0.6,0-1,0.2-1.3,0.5c-0.3,0.3-0.5,0.8-0.5,1.4v1.8c0,0.6,0.2,1.1,0.5,1.4
				c0.3,0.3,0.7,0.5,1.3,0.5S829.3,120.5,829.6,120.2z"/>
			<path d="M838.2,119c0,0.5,0.1,0.9,0.4,1.2c0.3,0.3,0.7,0.4,1.2,0.4s0.9-0.1,1.2-0.4c0.3-0.3,0.4-0.7,0.4-1.2l0.1,2.3
				c-0.2,0.6-0.5,1.1-1,1.5c-0.5,0.4-1,0.6-1.7,0.6c-1.1,0-2-0.4-2.6-1.1c-0.6-0.7-0.9-1.8-0.9-3.1v-6.6h2.8V119z M841.5,112.6h2.8
				v10.6h-2.8V112.6z"/>
			<path d="M847.1,112.6h2.8v10.6h-2.8V112.6z M853.3,116.8c0-0.5-0.1-0.9-0.4-1.2c-0.3-0.3-0.7-0.4-1.3-0.4c-0.5,0-0.9,0.1-1.2,0.4
				c-0.3,0.3-0.4,0.7-0.4,1.2l-0.2-2.4c0.3-0.7,0.7-1.2,1.2-1.5c0.4-0.3,1-0.5,1.7-0.5c1.1,0,2,0.4,2.6,1.1s0.9,1.8,0.9,3.2v6.5
				h-2.8V116.8z"/>
			<path d="M858,112.6h5.2v2.4H858V112.6z M859.8,122.6c-0.4-0.5-0.7-1.2-0.7-2.1v-11h2.8v10.3c0,0.3,0.1,0.5,0.2,0.6
				c0.1,0.1,0.3,0.2,0.5,0.2h0.7v2.7h-1.4C860.9,123.3,860.2,123,859.8,122.6z"/>
			<path d="M867.9,123.2c-0.6-0.1-1.2-0.3-1.7-0.5c-0.5-0.2-1-0.5-1.4-0.8l1.7-2.2c0.5,0.3,1,0.6,1.6,0.8s1.1,0.3,1.6,0.3
				c0.7,0,1.2-0.1,1.5-0.2c0.4-0.1,0.5-0.3,0.5-0.6c0-0.2-0.1-0.4-0.2-0.5s-0.4-0.2-0.6-0.3c-0.2-0.1-0.6-0.1-1-0.1
				c-0.1,0-0.2,0-0.4,0c-0.1,0-0.3,0-0.4,0c0,0-0.1,0-0.1,0c0,0-0.1,0-0.1,0c-0.8-0.1-1.4-0.2-1.9-0.4c-0.5-0.2-0.9-0.4-1.2-0.9
				c-0.3-0.4-0.5-1-0.5-1.9c0-0.7,0.2-1.3,0.5-1.8s0.8-0.9,1.5-1.2c0.6-0.3,1.4-0.4,2.4-0.4c0.5,0,1.1,0.1,1.6,0.2
				c0.5,0.1,1.1,0.3,1.5,0.5s0.9,0.5,1.4,0.7l-1.7,2c-0.5-0.3-1-0.5-1.5-0.6s-1-0.2-1.5-0.2c-0.6,0-1,0.1-1.3,0.2s-0.5,0.3-0.5,0.5
				c0,0.2,0.1,0.3,0.3,0.4c0.2,0.1,0.4,0.2,0.6,0.2c0.2,0,0.6,0.1,1.1,0.1c0.1,0,0.1,0,0.2,0s0.1,0,0.2,0c0,0,0.1,0,0.1,0
				s0.1,0,0.1,0c0.8,0.1,1.5,0.2,2,0.4c0.5,0.2,1,0.5,1.3,0.9c0.4,0.5,0.5,1.1,0.5,2c0,0.7-0.2,1.4-0.5,1.9
				c-0.4,0.5-0.9,0.9-1.6,1.2c-0.7,0.3-1.5,0.4-2.5,0.4C869.1,123.4,868.5,123.3,867.9,123.2z"/>
			<path d="M881.4,112.6h5.7v2.4h-5.7V112.6z M882.5,111.1c0-0.9,0.2-1.6,0.7-2.1c0.4-0.5,1.1-0.7,2-0.7h1.9v2.5h-1.2
				c-0.2,0-0.3,0.1-0.5,0.2c-0.1,0.2-0.2,0.3-0.2,0.6v11.6h-2.8V111.1z"/>
			<path d="M890.7,122.8c-0.7-0.4-1.2-0.9-1.6-1.6c-0.4-0.7-0.5-1.5-0.5-2.5V117c0-1,0.2-1.8,0.5-2.5c0.4-0.7,0.9-1.2,1.6-1.6
				c0.7-0.4,1.5-0.5,2.5-0.5s1.8,0.2,2.5,0.5c0.7,0.4,1.2,0.9,1.6,1.6c0.4,0.7,0.5,1.5,0.5,2.5v1.8c0,1-0.2,1.8-0.5,2.5
				c-0.4,0.7-0.9,1.2-1.6,1.6c-0.7,0.4-1.5,0.5-2.5,0.5S891.4,123.2,890.7,122.8z M894.5,120.2c0.3-0.3,0.5-0.8,0.5-1.4V117
				c0-0.6-0.2-1.1-0.5-1.4s-0.8-0.5-1.3-0.5c-0.6,0-1,0.2-1.3,0.5c-0.3,0.3-0.5,0.8-0.5,1.4v1.8c0,0.6,0.2,1.1,0.5,1.4
				c0.3,0.3,0.7,0.5,1.3,0.5S894.2,120.5,894.5,120.2z"/>
			<path d="M900.3,112.6h3v10.6h-3V112.6z M905.8,115.2c-0.2-0.1-0.4-0.1-0.7-0.1c-0.6,0-1,0.2-1.3,0.5c-0.3,0.4-0.5,0.9-0.5,1.5
				l-0.2-2.8c0.3-0.6,0.7-1.1,1.1-1.5c0.5-0.4,1-0.5,1.5-0.5c0.4,0,0.8,0.1,1.2,0.2c0.4,0.1,0.7,0.3,0.9,0.6l-1.6,2.3
				C906.2,115.4,906,115.3,905.8,115.2z"/>
			<path d="M725,133.5h2.8v14.9H725V133.5z M726.2,145.7h4.8c0.6,0,1.1-0.2,1.5-0.5c0.4-0.3,0.5-0.7,0.5-1.3v0c0-0.4-0.1-0.7-0.2-1
				s-0.4-0.5-0.7-0.6c-0.3-0.1-0.7-0.2-1.1-0.2h-4.8v-2.7h4.8c0.6,0,1-0.1,1.3-0.4c0.3-0.3,0.5-0.7,0.5-1.2c0-0.5-0.2-0.9-0.5-1.1
				c-0.3-0.3-0.8-0.4-1.3-0.4h-4.8v-2.7h4.8c1,0,1.8,0.2,2.5,0.5c0.7,0.3,1.2,0.8,1.6,1.4c0.4,0.6,0.5,1.3,0.5,2.2
				c0,0.6-0.1,1.1-0.3,1.5c-0.2,0.4-0.6,0.8-1,1.1c-0.4,0.3-1,0.5-1.6,0.6c0.7,0.1,1.2,0.3,1.7,0.6c0.5,0.3,0.8,0.7,1.1,1.2
				c0.2,0.5,0.4,1.1,0.4,1.7v0c0,0.9-0.2,1.6-0.5,2.2c-0.4,0.6-0.9,1.1-1.6,1.4c-0.7,0.3-1.5,0.5-2.5,0.5h-5V145.7z"/>
			<path d="M741.1,144.2c0,0.5,0.1,0.9,0.4,1.2c0.3,0.3,0.7,0.4,1.2,0.4s0.9-0.1,1.2-0.4c0.3-0.3,0.4-0.7,0.4-1.2l0.1,2.3
				c-0.2,0.6-0.5,1.1-1,1.5c-0.5,0.4-1,0.6-1.7,0.6c-1.1,0-2-0.4-2.6-1.1c-0.6-0.7-0.9-1.8-0.9-3.1v-6.6h2.8V144.2z M744.5,137.8
				h2.8v10.6h-2.8V137.8z"/>
			<path d="M750,137.8h2.8v10.6H750V137.8z M756.2,142c0-0.5-0.1-0.9-0.4-1.2c-0.3-0.3-0.7-0.4-1.3-0.4c-0.5,0-0.9,0.1-1.2,0.4
				c-0.3,0.3-0.4,0.7-0.4,1.2l-0.2-2.4c0.3-0.7,0.7-1.2,1.2-1.5c0.4-0.3,1-0.5,1.7-0.5c1.1,0,2,0.4,2.6,1.1c0.6,0.8,0.9,1.8,0.9,3.2
				v6.5h-2.8V142z"/>
			<path d="M763.1,148c-0.5-0.4-0.9-0.9-1.2-1.6c-0.3-0.7-0.4-1.5-0.4-2.5v-1.7c0-1,0.1-1.8,0.4-2.5c0.3-0.7,0.7-1.2,1.2-1.6
				c0.5-0.4,1.2-0.5,1.9-0.5c0.6,0,1.1,0.2,1.6,0.5c0.5,0.3,0.8,0.8,1.1,1.4l-0.2,2.4c0-0.4-0.1-0.7-0.2-0.9
				c-0.1-0.3-0.3-0.4-0.5-0.6c-0.2-0.1-0.5-0.2-0.9-0.2c-0.5,0-0.9,0.2-1.2,0.5c-0.3,0.4-0.4,0.9-0.4,1.5v1.7c0,0.6,0.1,1.1,0.4,1.5
				c0.3,0.3,0.7,0.5,1.2,0.5c0.3,0,0.6-0.1,0.9-0.2c0.2-0.1,0.4-0.3,0.5-0.6s0.2-0.5,0.2-0.9l0.1,2.4c-0.2,0.6-0.6,1-1,1.3
				c-0.5,0.3-1,0.5-1.6,0.5C764.3,148.6,763.6,148.4,763.1,148z M767.5,133.5h2.8v14.9h-2.8V133.5z"/>
			<path d="M775.9,144.9c0,0.3,0.1,0.5,0.2,0.6c0.1,0.1,0.4,0.2,0.6,0.2h0.5v2.7h-1.4c-0.9,0-1.5-0.2-2-0.7
				c-0.5-0.5-0.7-1.2-0.7-2.1v-12.1h2.8V144.9z"/>
			<path d="M781.1,148c-0.7-0.4-1.3-0.9-1.7-1.6c-0.4-0.7-0.6-1.6-0.6-2.6v-1.2c0-1.1,0.2-2,0.5-2.7c0.4-0.7,0.9-1.3,1.6-1.7
				c0.7-0.4,1.5-0.6,2.5-0.6c0.9,0,1.7,0.2,2.4,0.7s1.2,1.1,1.5,2c0.3,0.9,0.5,2,0.5,3.2v0.7h-7.3v-1.9h4.7l0-0.2
				c-0.1-0.6-0.3-1.1-0.6-1.4c-0.3-0.3-0.7-0.5-1.2-0.5c-0.7,0-1.2,0.2-1.6,0.6c-0.4,0.4-0.6,1-0.6,1.7v1.4c0,0.7,0.2,1.3,0.6,1.7
				c0.4,0.4,1,0.6,1.7,0.6c0.4,0,0.7-0.1,1.1-0.2c0.4-0.1,0.7-0.3,1-0.6l1.8,1.6c-0.6,0.5-1.2,0.9-1.9,1.2c-0.7,0.3-1.4,0.4-2.1,0.4
				C782.7,148.6,781.8,148.4,781.1,148z"/>
			<path d="M792.6,148.4c-0.6-0.1-1.2-0.3-1.7-0.5c-0.5-0.2-1-0.5-1.4-0.8l1.7-2.2c0.5,0.3,1,0.6,1.6,0.8s1.1,0.3,1.6,0.3
				c0.7,0,1.2-0.1,1.5-0.2c0.4-0.1,0.5-0.3,0.5-0.6c0-0.2-0.1-0.4-0.2-0.5s-0.4-0.2-0.6-0.3c-0.2-0.1-0.6-0.1-1-0.1
				c-0.1,0-0.2,0-0.4,0c-0.1,0-0.3,0-0.4,0c0,0-0.1,0-0.1,0c0,0-0.1,0-0.1,0c-0.8-0.1-1.4-0.2-1.9-0.4c-0.5-0.2-0.9-0.4-1.2-0.9
				c-0.3-0.4-0.5-1-0.5-1.9c0-0.7,0.2-1.3,0.5-1.8s0.8-0.9,1.5-1.2c0.6-0.3,1.4-0.4,2.4-0.4c0.5,0,1.1,0.1,1.6,0.2
				c0.5,0.1,1.1,0.3,1.5,0.5s0.9,0.5,1.4,0.7l-1.7,2c-0.5-0.3-1-0.5-1.5-0.6c-0.5-0.1-1-0.2-1.5-0.2c-0.6,0-1,0.1-1.3,0.2
				s-0.5,0.3-0.5,0.5c0,0.2,0.1,0.3,0.3,0.4c0.2,0.1,0.4,0.2,0.6,0.2c0.2,0,0.6,0.1,1.1,0.1c0.1,0,0.1,0,0.2,0s0.1,0,0.2,0
				c0,0,0.1,0,0.1,0s0.1,0,0.1,0c0.8,0.1,1.5,0.2,2,0.4c0.5,0.2,1,0.5,1.3,0.9c0.4,0.5,0.5,1.1,0.5,2c0,0.7-0.2,1.4-0.5,1.9
				c-0.4,0.5-0.9,0.9-1.6,1.2c-0.7,0.3-1.5,0.4-2.5,0.4C793.8,148.6,793.2,148.5,792.6,148.4z"/>
			<path d="M809.9,142.5c-0.4,0.4-0.6,1-0.6,1.8c0,0.6,0.2,1,0.6,1.3c0.4,0.3,1,0.5,1.8,0.5c0.7,0,1.4-0.2,1.9-0.7
				c0.5-0.4,0.9-1.1,1.2-1.9c0.3-0.8,0.4-1.8,0.4-2.9h2.7c0,1.6-0.3,3-0.8,4.2c-0.5,1.2-1.3,2.1-2.3,2.7c-1,0.6-2.2,1-3.7,1
				c-1,0-1.8-0.2-2.5-0.5s-1.2-0.8-1.6-1.5c-0.4-0.6-0.5-1.4-0.5-2.3c0-1.2,0.4-2.2,1.1-2.9c0.7-0.7,1.7-1.2,3-1.3l0.9,1.8
				C810.8,141.9,810.3,142.1,809.9,142.5z M810.3,142.5c-0.5-0.5-0.9-1.1-1.2-1.6c-0.3-0.5-0.6-1.1-0.8-1.7
				c-0.2-0.6-0.3-1.2-0.3-1.8c0-1.3,0.4-2.3,1.1-3c0.7-0.7,1.8-1.1,3.1-1.1c1.3,0,2.4,0.3,3.1,1c0.7,0.7,1.1,1.7,1.1,2.9v0.4h-2.8
				v-0.4c0-0.6-0.1-1.1-0.4-1.4s-0.6-0.5-1-0.5c-0.5,0-0.9,0.2-1.2,0.5c-0.3,0.4-0.4,0.9-0.4,1.5c0,0.4,0.1,0.8,0.3,1.2
				c0.2,0.4,0.4,0.9,0.8,1.4c0.3,0.5,0.7,1,1.2,1.5l6.1,6.8h-3.2L810.3,142.5z"/>
			<path d="M826.5,133.5h2.8v14.9h-2.8V133.5z M827.8,139.9h4.8c0.3,0,0.6-0.1,0.9-0.2c0.3-0.2,0.5-0.4,0.6-0.7
				c0.1-0.3,0.2-0.6,0.2-1c0-0.4-0.1-0.7-0.2-1c-0.1-0.3-0.3-0.5-0.6-0.7c-0.3-0.2-0.6-0.2-0.9-0.2h-4.8v-2.7h4.7
				c0.9,0,1.7,0.2,2.5,0.6c0.7,0.4,1.3,0.9,1.6,1.6c0.4,0.7,0.6,1.5,0.6,2.4s-0.2,1.7-0.6,2.4c-0.4,0.7-0.9,1.2-1.6,1.6
				c-0.7,0.4-1.5,0.6-2.5,0.6h-4.7V139.9z"/>
			<path d="M839.3,137.8h3v10.6h-3V137.8z M844.8,140.4c-0.2-0.1-0.4-0.1-0.7-0.1c-0.6,0-1,0.2-1.3,0.5c-0.3,0.4-0.5,0.9-0.5,1.5
				l-0.2-2.8c0.3-0.6,0.7-1.1,1.1-1.5c0.5-0.4,1-0.5,1.5-0.5c0.4,0,0.8,0.1,1.2,0.2c0.4,0.1,0.7,0.3,0.9,0.6l-1.6,2.3
				C845.2,140.6,845,140.5,844.8,140.4z"/>
			<path d="M850.1,148c-0.7-0.4-1.2-0.9-1.6-1.6c-0.4-0.7-0.5-1.5-0.5-2.5v-1.7c0-1,0.2-1.8,0.5-2.5c0.4-0.7,0.9-1.2,1.6-1.6
				c0.7-0.4,1.5-0.5,2.5-0.5s1.8,0.2,2.5,0.5c0.7,0.4,1.2,0.9,1.6,1.6c0.4,0.7,0.5,1.5,0.5,2.5v1.8c0,1-0.2,1.8-0.5,2.5
				c-0.4,0.7-0.9,1.2-1.6,1.6c-0.7,0.4-1.5,0.5-2.5,0.5S850.8,148.4,850.1,148z M853.9,145.4c0.3-0.3,0.5-0.8,0.5-1.4v-1.8
				c0-0.6-0.2-1.1-0.5-1.4s-0.8-0.5-1.3-0.5c-0.6,0-1,0.2-1.3,0.5c-0.3,0.3-0.5,0.8-0.5,1.4v1.8c0,0.6,0.2,1.1,0.5,1.4
				c0.3,0.3,0.7,0.5,1.3,0.5S853.6,145.7,853.9,145.4z"/>
			<path d="M861.1,148c-0.5-0.4-0.9-0.9-1.2-1.6c-0.3-0.7-0.4-1.5-0.4-2.5v-1.7c0-1,0.1-1.8,0.4-2.5c0.3-0.7,0.7-1.2,1.2-1.6
				c0.5-0.4,1.2-0.5,1.9-0.5c0.6,0,1.1,0.2,1.6,0.5c0.5,0.3,0.8,0.8,1.1,1.4l-0.2,2.4c0-0.4-0.1-0.7-0.2-0.9
				c-0.1-0.3-0.3-0.4-0.5-0.6c-0.2-0.1-0.5-0.2-0.9-0.2c-0.5,0-0.9,0.2-1.2,0.5c-0.3,0.4-0.4,0.9-0.4,1.5v1.7c0,0.6,0.1,1.1,0.4,1.5
				c0.3,0.3,0.7,0.5,1.2,0.5c0.3,0,0.6-0.1,0.9-0.2c0.2-0.1,0.4-0.3,0.5-0.6s0.2-0.5,0.2-0.9l0.1,2.4c-0.2,0.6-0.6,1-1,1.3
				c-0.5,0.3-1,0.5-1.6,0.5C862.3,148.6,861.6,148.4,861.1,148z M865.5,133.5h2.8v14.9h-2.8V133.5z"/>
			<path d="M873.9,144.2c0,0.5,0.1,0.9,0.4,1.2c0.3,0.3,0.7,0.4,1.2,0.4s0.9-0.1,1.2-0.4c0.3-0.3,0.4-0.7,0.4-1.2l0.1,2.3
				c-0.2,0.6-0.5,1.1-1,1.5c-0.5,0.4-1,0.6-1.7,0.6c-1.1,0-2-0.4-2.6-1.1c-0.6-0.7-0.9-1.8-0.9-3.1v-6.6h2.8V144.2z M877.2,137.8
				h2.8v10.6h-2.8V137.8z"/>
			<path d="M884.6,148c-0.7-0.4-1.3-0.9-1.6-1.7s-0.6-1.6-0.6-2.7v-1.1c0-1,0.2-1.9,0.6-2.6c0.4-0.7,0.9-1.3,1.6-1.7
				c0.7-0.4,1.6-0.6,2.6-0.6c0.6,0,1.1,0.1,1.6,0.2c0.5,0.1,1,0.3,1.4,0.6s0.8,0.6,1,0.9l-1.8,1.8c-0.3-0.2-0.6-0.4-0.9-0.6
				c-0.3-0.1-0.7-0.2-1.1-0.2c-0.7,0-1.3,0.2-1.7,0.6c-0.4,0.4-0.6,0.9-0.6,1.6v1.1c0,0.7,0.2,1.3,0.6,1.6c0.4,0.4,0.9,0.6,1.7,0.6
				c0.4,0,0.8-0.1,1.1-0.2s0.6-0.3,0.9-0.6l1.8,1.9c-0.3,0.4-0.6,0.7-1,0.9c-0.4,0.3-0.9,0.4-1.4,0.6c-0.5,0.1-1.1,0.2-1.6,0.2
				C886.2,148.6,885.4,148.4,884.6,148z"/>
			<path d="M892.4,137.8h5.2v2.4h-5.2V137.8z M894.1,147.8c-0.4-0.5-0.7-1.2-0.7-2.1v-11h2.8V145c0,0.3,0.1,0.5,0.2,0.6
				c0.1,0.1,0.3,0.2,0.5,0.2h0.7v2.7h-1.4C895.2,148.5,894.6,148.2,894.1,147.8z"/>
			<path d="M902.3,148.4c-0.6-0.1-1.2-0.3-1.7-0.5c-0.5-0.2-1-0.5-1.4-0.8l1.7-2.2c0.5,0.3,1,0.6,1.6,0.8s1.1,0.3,1.6,0.3
				c0.7,0,1.2-0.1,1.5-0.2c0.4-0.1,0.5-0.3,0.5-0.6c0-0.2-0.1-0.4-0.2-0.5s-0.4-0.2-0.6-0.3c-0.2-0.1-0.6-0.1-1-0.1
				c-0.1,0-0.2,0-0.4,0c-0.1,0-0.3,0-0.4,0c0,0-0.1,0-0.1,0c0,0-0.1,0-0.1,0c-0.8-0.1-1.4-0.2-1.9-0.4c-0.5-0.2-0.9-0.4-1.2-0.9
				c-0.3-0.4-0.5-1-0.5-1.9c0-0.7,0.2-1.3,0.5-1.8s0.8-0.9,1.5-1.2c0.6-0.3,1.4-0.4,2.4-0.4c0.5,0,1.1,0.1,1.6,0.2
				c0.5,0.1,1.1,0.3,1.5,0.5s0.9,0.5,1.4,0.7l-1.7,2c-0.5-0.3-1-0.5-1.5-0.6c-0.5-0.1-1-0.2-1.5-0.2c-0.6,0-1,0.1-1.3,0.2
				s-0.5,0.3-0.5,0.5c0,0.2,0.1,0.3,0.3,0.4c0.2,0.1,0.4,0.2,0.6,0.2c0.2,0,0.6,0.1,1.1,0.1c0.1,0,0.1,0,0.2,0s0.1,0,0.2,0
				c0,0,0.1,0,0.1,0s0.1,0,0.1,0c0.8,0.1,1.5,0.2,2,0.4c0.5,0.2,1,0.5,1.3,0.9c0.4,0.5,0.5,1.1,0.5,2c0,0.7-0.2,1.4-0.5,1.9
				c-0.4,0.5-0.9,0.9-1.6,1.2c-0.7,0.3-1.5,0.4-2.5,0.4C903.5,148.6,902.9,148.5,902.3,148.4z"/>
		</g>
	</g>
</g>
<g id="Layer_3">
	<rect x="31.1" y="26.6" class="st3" width="935.3" height="205.7"/>
	<path class="st2" d="M615.1,176.7l-262.2,5.9c-6.4,0.1-11.7-4.9-11.8-11.3l0-1.9c-0.1-6.4,4.9-11.7,11.3-11.8l262.2-5.9
		c6.4-0.1,11.7,4.9,11.8,11.3l0,1.9C626.5,171.3,621.4,176.6,615.1,176.7z"/>
</g>
<g id="Layer_2">
	<path class="st2" d="M193.3,36.7c0,7-2.9,13.3-7.5,17.9C181.3,59.2,175,62,168,62H0V11.3h168C181.9,11.3,193.3,22.7,193.3,36.7z"/>
	<path class="st4" d="M320.5,150l-182.6,4.1c-16.1,0.4-29.6-12.5-30-28.7l-0.3-15.1c-0.4-16.1,12.5-29.6,28.7-30l182.6-4.1
		c16.1-0.4,29.6,12.5,30,28.7l0.3,15.1C349.5,136.1,336.6,149.6,320.5,150z"/>
	<path class="st2" d="M640.8,145.2l-337.6,7.5c-12.1,0.3-22.3-9.4-22.5-21.5l-1-42.9c-0.3-12.1,9.4-22.3,21.5-22.5l337.6-7.5
		c12.1-0.3,22.3,9.4,22.5,21.5l1,42.9C662.6,134.8,652.9,145,640.8,145.2z"/>
	<g>
		<g>
			<path class="st2" d="M369.2,190.6l0.2-0.8l2,0.6l-0.2,0.8L369.2,190.6z M369.8,192.2l1.2-1.7l0.7,0.5l-1.2,1.7L369.8,192.2z
				 M370.8,188.7l0.8,0l0.1,2l-0.8,0L370.8,188.7z M370.9,191l0.7-0.5l1.2,1.6l-0.7,0.5L370.9,191z M371.1,190.3l1.9-0.7l0.3,0.8
				l-1.9,0.7L371.1,190.3z"/>
			<path class="st2" d="M373.9,198c0.5-0.6,0.9-1.3,1.2-2c0.2-0.7,0.4-1.6,0.3-2.5c0-0.9-0.2-1.7-0.5-2.4c-0.3-0.7-0.7-1.4-1.3-2
				l0.7-0.7c0.7,0.7,1.1,1.4,1.5,2.3c0.3,0.8,0.5,1.8,0.5,2.8c0,1-0.1,2-0.4,2.8c-0.3,0.9-0.7,1.6-1.4,2.3L373.9,198z"/>
			<path class="st2" d="M380.7,191.3l2.5-0.1l0,1l-2.5,0.1L380.7,191.3z M381.7,196.4c-0.2-0.2-0.3-0.6-0.3-1.1l-0.2-5.7l1.1,0
				l0.2,5.7c0,0.1,0,0.2,0.1,0.3c0.1,0.1,0.1,0.1,0.2,0.1l0.5,0l0,1l-0.6,0C382.3,196.8,381.9,196.7,381.7,196.4z"/>
			<path class="st2" d="M385.8,196.5c-0.4-0.2-0.7-0.5-0.9-0.8c-0.2-0.4-0.3-0.8-0.3-1.3l0-0.6c0-0.5,0.1-1,0.2-1.4
				c0.2-0.4,0.4-0.7,0.8-0.9c0.3-0.2,0.8-0.3,1.3-0.3c0.5,0,0.9,0.1,1.2,0.3c0.3,0.2,0.6,0.5,0.8,1c0.2,0.4,0.3,1,0.3,1.6l0,0.4
				l-3.7,0.1l0-0.9l2.7-0.1c0-0.5-0.2-0.8-0.4-1c-0.2-0.2-0.5-0.4-0.8-0.4c-0.4,0-0.7,0.2-0.9,0.4c-0.2,0.3-0.3,0.7-0.3,1.2l0,0.7
				c0,0.5,0.1,0.8,0.4,1c0.2,0.2,0.6,0.4,1,0.3c0.2,0,0.4-0.1,0.7-0.2c0.2-0.1,0.4-0.2,0.6-0.4l0.7,0.7c-0.3,0.3-0.6,0.5-0.9,0.6
				s-0.7,0.2-1,0.2C386.6,196.7,386.2,196.6,385.8,196.5z"/>
			<path class="st2" d="M390.6,191l1.1,0l0.1,5.5l-1.1,0L390.6,191z M393.3,192c-0.1-0.1-0.3-0.1-0.5-0.1c-0.3,0-0.6,0.1-0.8,0.3
				s-0.3,0.5-0.3,0.8l-0.1-1.1c0.2-0.3,0.4-0.6,0.6-0.8c0.3-0.2,0.6-0.3,0.9-0.3c0.3,0,0.5,0,0.7,0.1c0.2,0.1,0.4,0.2,0.5,0.3
				l-0.7,1C393.5,192.1,393.4,192,393.3,192z"/>
			<path class="st2" d="M395.2,190.9l1.1,0l0.1,5.5l-1.1,0L395.2,190.9z M398.6,193c0-0.4-0.1-0.7-0.3-0.9c-0.2-0.2-0.5-0.3-0.8-0.3
				c-0.4,0-0.6,0.1-0.8,0.3c-0.2,0.2-0.3,0.5-0.3,0.8l-0.1-1.1c0.2-0.3,0.4-0.6,0.6-0.8c0.3-0.2,0.6-0.3,0.9-0.3
				c0.4,0,0.7,0.1,1,0.2c0.3,0.2,0.5,0.4,0.6,0.8c0.2,0.3,0.2,0.7,0.2,1.2l0.1,3.4l-1.1,0L398.6,193z M401.9,192.9
				c0-0.4-0.1-0.7-0.3-0.9c-0.2-0.2-0.5-0.3-0.9-0.3c-0.3,0-0.6,0.1-0.8,0.3c-0.2,0.2-0.3,0.5-0.3,0.9l-0.2-1.1
				c0.2-0.4,0.4-0.7,0.7-0.9s0.6-0.3,0.9-0.3c0.4,0,0.7,0.1,1,0.2c0.3,0.2,0.5,0.4,0.7,0.8s0.2,0.7,0.3,1.2l0.1,3.4l-1.1,0
				L401.9,192.9z"/>
			<path class="st2" d="M405.8,196.1c-0.3-0.1-0.6-0.1-0.8-0.3c-0.3-0.1-0.5-0.3-0.7-0.5l0.6-0.8c0.3,0.2,0.6,0.4,0.9,0.5
				c0.3,0.1,0.6,0.2,0.9,0.1c0.4,0,0.8-0.1,1-0.2c0.2-0.1,0.3-0.3,0.3-0.6c0-0.2-0.1-0.3-0.2-0.4c-0.1-0.1-0.3-0.1-0.4-0.2
				c-0.2,0-0.4,0-0.7-0.1c0,0-0.1,0-0.1,0c0,0-0.1,0-0.1,0c0,0,0,0,0,0c0,0,0,0,0,0c-0.4,0-0.7-0.1-0.9-0.1
				c-0.3-0.1-0.5-0.2-0.6-0.4c-0.2-0.2-0.3-0.5-0.3-0.9c0-0.4,0.1-0.7,0.2-1c0.2-0.3,0.4-0.5,0.7-0.6c0.3-0.1,0.7-0.2,1.2-0.2
				c0.3,0,0.6,0,0.8,0.1c0.3,0,0.5,0.1,0.8,0.2c0.2,0.1,0.5,0.2,0.7,0.4l-0.6,0.8c-0.3-0.2-0.6-0.3-0.8-0.4
				c-0.3-0.1-0.5-0.1-0.8-0.1c-0.4,0-0.6,0.1-0.8,0.2c-0.2,0.1-0.3,0.3-0.3,0.6c0,0.1,0.1,0.3,0.2,0.3c0.1,0.1,0.2,0.1,0.4,0.1
				c0.2,0,0.4,0,0.7,0c0,0,0,0,0.1,0c0,0,0,0,0.1,0c0,0,0,0,0,0c0,0,0,0,0,0c0.4,0,0.7,0.1,1,0.1c0.3,0.1,0.5,0.2,0.7,0.4
				c0.2,0.2,0.3,0.6,0.3,1c0,0.4-0.1,0.7-0.2,1c-0.2,0.3-0.4,0.5-0.8,0.6c-0.3,0.1-0.8,0.2-1.3,0.2
				C406.4,196.2,406.1,196.2,405.8,196.1z"/>
			<path class="st2" d="M414.5,192.8c-0.2,0.2-0.3,0.5-0.3,0.9c0,0.4,0.1,0.7,0.4,0.9c0.3,0.2,0.6,0.3,1.1,0.3
				c0.4,0,0.8-0.1,1.1-0.4c0.3-0.2,0.5-0.6,0.7-1.1s0.2-1,0.2-1.6l1,0c0,0.8-0.1,1.6-0.3,2.2s-0.6,1.1-1.1,1.4
				c-0.5,0.3-1.1,0.5-1.8,0.5c-0.5,0-0.9-0.1-1.2-0.2c-0.3-0.2-0.6-0.4-0.8-0.7c-0.2-0.3-0.3-0.7-0.3-1.2c0-0.6,0.1-1.1,0.5-1.5
				c0.3-0.4,0.8-0.6,1.5-0.7l0.5,0.9C415.1,192.5,414.7,192.6,414.5,192.8z M415,192.8c-0.3-0.3-0.5-0.5-0.7-0.8
				c-0.2-0.3-0.3-0.6-0.4-0.9c-0.1-0.3-0.2-0.6-0.2-0.9c0-0.7,0.1-1.2,0.5-1.6c0.4-0.4,0.9-0.6,1.5-0.6c0.7,0,1.2,0.1,1.5,0.5
				s0.6,0.8,0.6,1.5l0,0.1l-1.1,0l0-0.1c0-0.3-0.1-0.6-0.3-0.7c-0.2-0.2-0.4-0.2-0.7-0.2c-0.3,0-0.6,0.1-0.7,0.3s-0.2,0.5-0.2,0.8
				c0,0.2,0,0.4,0.1,0.6c0.1,0.2,0.2,0.4,0.3,0.6c0.1,0.2,0.3,0.4,0.5,0.6l3.6,3.7l-1.4,0L415,192.8z"/>
			<path class="st2" d="M424.3,195.4c-0.4-0.2-0.6-0.4-0.8-0.8c-0.2-0.4-0.3-0.8-0.3-1.3l0-0.9c0-0.5,0.1-0.9,0.2-1.3
				c0.2-0.4,0.4-0.6,0.8-0.8c0.4-0.2,0.8-0.3,1.3-0.3c0.3,0,0.6,0,0.8,0.1c0.3,0.1,0.5,0.2,0.7,0.3c0.2,0.1,0.4,0.3,0.5,0.5
				l-0.8,0.7c-0.2-0.2-0.3-0.3-0.6-0.4c-0.2-0.1-0.4-0.1-0.7-0.1c-0.4,0-0.7,0.1-1,0.4c-0.2,0.2-0.3,0.6-0.3,1l0,0.9
				c0,0.4,0.1,0.8,0.4,1c0.2,0.2,0.6,0.3,1,0.3c0.2,0,0.5-0.1,0.7-0.2c0.2-0.1,0.4-0.3,0.5-0.5l0.8,0.7c-0.1,0.2-0.3,0.4-0.5,0.5
				c-0.2,0.1-0.4,0.2-0.7,0.3c-0.3,0.1-0.5,0.1-0.8,0.1C425.1,195.7,424.7,195.6,424.3,195.4z"/>
			<path class="st2" d="M429.7,195.3c-0.3-0.2-0.6-0.4-0.8-0.8s-0.3-0.8-0.3-1.3l0-0.9c0-0.5,0.1-0.9,0.2-1.3
				c0.2-0.4,0.4-0.6,0.8-0.8c0.3-0.2,0.7-0.3,1.2-0.3s0.9,0.1,1.2,0.2c0.3,0.2,0.6,0.4,0.8,0.8c0.2,0.4,0.3,0.8,0.3,1.3l0,0.9
				c0,0.5-0.1,0.9-0.2,1.3c-0.2,0.4-0.4,0.6-0.8,0.8s-0.7,0.3-1.2,0.3S430.1,195.5,429.7,195.3z M431.8,194.1c0.2-0.2,0.3-0.6,0.3-1
				l0-0.9c0-0.4-0.1-0.8-0.3-1c-0.2-0.2-0.5-0.3-0.9-0.3c-0.4,0-0.7,0.1-0.9,0.4c-0.2,0.2-0.3,0.6-0.3,1l0,0.9c0,0.4,0.1,0.8,0.3,1
				s0.5,0.3,0.9,0.3C431.3,194.5,431.6,194.4,431.8,194.1z"/>
			<path class="st2" d="M434.6,189.8l1.1,0l0.1,5.5l-1.1,0L434.6,189.8z M438.1,191.9c0-0.4-0.1-0.7-0.3-0.9
				c-0.2-0.2-0.5-0.3-0.9-0.3c-0.4,0-0.6,0.1-0.8,0.3c-0.2,0.2-0.3,0.5-0.3,0.8l-0.1-1.1c0.2-0.3,0.4-0.6,0.6-0.8
				c0.3-0.2,0.6-0.3,0.9-0.3c0.6,0,1.1,0.2,1.4,0.6c0.3,0.4,0.5,0.9,0.5,1.7l0.1,3.4l-1.1,0L438.1,191.9z"/>
			<path class="st2" d="M441.6,195c-0.3-0.2-0.5-0.4-0.7-0.8c-0.2-0.3-0.2-0.7-0.3-1.2l0-1.2c0-0.5,0-0.9,0.2-1.2
				c0.1-0.3,0.3-0.6,0.6-0.8c0.3-0.2,0.6-0.3,1-0.3c0.3,0,0.6,0.1,0.9,0.2c0.3,0.2,0.5,0.4,0.7,0.7l-0.1,1.1c0-0.2-0.1-0.4-0.1-0.6
				c-0.1-0.2-0.2-0.3-0.4-0.4c-0.2-0.1-0.4-0.1-0.6-0.1c-0.4,0-0.6,0.1-0.8,0.4s-0.3,0.5-0.3,1l0,1.2c0,0.4,0.1,0.7,0.3,0.9
				c0.2,0.2,0.5,0.3,0.8,0.3c0.2,0,0.4-0.1,0.6-0.2c0.2-0.1,0.3-0.2,0.4-0.4c0.1-0.2,0.1-0.4,0.1-0.6l0.1,1.2
				c-0.1,0.3-0.3,0.5-0.5,0.7s-0.6,0.3-0.9,0.3C442.2,195.3,441.9,195.2,441.6,195z M443.8,187.4l1.1,0l0.2,7.8l-1.1,0L443.8,187.4z
				"/>
			<path class="st2" d="M446.6,187.3l1.1,0l0,1.1l-1.1,0L446.6,187.3z M446.6,189.5l1.1,0l0.1,5.5l-1.1,0L446.6,189.5z"/>
			<path class="st2" d="M448.9,189.4l2.5-0.1l0,1l-2.5,0.1L448.9,189.4z M450,194.6c-0.2-0.2-0.3-0.6-0.3-1.1l-0.2-5.7l1.1,0
				l0.2,5.7c0,0.1,0,0.2,0.1,0.3c0.1,0.1,0.1,0.1,0.2,0.1l0.5,0l0,1l-0.6,0C450.5,195,450.2,194.9,450,194.6z"/>
			<path class="st2" d="M452.9,187.1l1.1,0l0,1.1l-1.1,0L452.9,187.1z M452.9,189.3l1.1,0l0.1,5.5l-1.1,0L452.9,189.3z"/>
			<path class="st2" d="M456.7,194.6c-0.3-0.2-0.6-0.4-0.8-0.8s-0.3-0.8-0.3-1.3l0-0.9c0-0.5,0.1-0.9,0.2-1.3
				c0.2-0.4,0.4-0.6,0.8-0.8c0.3-0.2,0.7-0.3,1.2-0.3c0.5,0,0.9,0.1,1.2,0.2c0.3,0.2,0.6,0.4,0.8,0.8c0.2,0.4,0.3,0.8,0.3,1.3l0,0.9
				c0,0.5-0.1,0.9-0.2,1.3c-0.2,0.4-0.4,0.6-0.8,0.8c-0.3,0.2-0.7,0.3-1.2,0.3C457.5,194.8,457.1,194.8,456.7,194.6z M458.8,193.4
				c0.2-0.2,0.3-0.6,0.3-1l0-0.9c0-0.4-0.1-0.8-0.3-1c-0.2-0.2-0.5-0.3-0.9-0.3c-0.4,0-0.7,0.1-0.9,0.4c-0.2,0.2-0.3,0.6-0.3,1
				l0,0.9c0,0.4,0.1,0.8,0.3,1s0.5,0.3,0.9,0.3C458.3,193.8,458.6,193.7,458.8,193.4z"/>
			<path class="st2" d="M461.6,189.1l1.1,0l0.1,5.5l-1.1,0L461.6,189.1z M465,191.2c0-0.4-0.1-0.7-0.3-0.9s-0.5-0.3-0.9-0.3
				c-0.4,0-0.6,0.1-0.8,0.3c-0.2,0.2-0.3,0.5-0.3,0.8l-0.1-1.1c0.2-0.3,0.4-0.6,0.6-0.8c0.3-0.2,0.6-0.3,0.9-0.3
				c0.6,0,1.1,0.2,1.4,0.6c0.3,0.4,0.5,0.9,0.5,1.7l0.1,3.4l-1.1,0L465,191.2z"/>
			<path class="st2" d="M468.9,194.4c-0.3-0.1-0.6-0.1-0.8-0.3c-0.3-0.1-0.5-0.3-0.7-0.5l0.6-0.8c0.3,0.2,0.6,0.4,0.9,0.5
				s0.6,0.2,0.9,0.1c0.4,0,0.8-0.1,1-0.2c0.2-0.1,0.3-0.3,0.3-0.6c0-0.2-0.1-0.3-0.2-0.4c-0.1-0.1-0.3-0.1-0.4-0.2
				c-0.2,0-0.4,0-0.7-0.1c0,0-0.1,0-0.1,0c0,0-0.1,0-0.1,0c0,0,0,0,0,0c0,0,0,0,0,0c-0.4,0-0.7-0.1-0.9-0.1s-0.5-0.2-0.6-0.4
				c-0.2-0.2-0.3-0.5-0.3-0.9c0-0.4,0.1-0.7,0.2-1c0.2-0.3,0.4-0.5,0.7-0.6c0.3-0.1,0.7-0.2,1.2-0.2c0.3,0,0.6,0,0.8,0.1
				c0.3,0,0.5,0.1,0.8,0.2c0.2,0.1,0.5,0.2,0.7,0.4l-0.6,0.8c-0.3-0.2-0.6-0.3-0.8-0.4c-0.3-0.1-0.5-0.1-0.8-0.1
				c-0.4,0-0.6,0.1-0.8,0.2c-0.2,0.1-0.3,0.3-0.3,0.6c0,0.1,0.1,0.3,0.2,0.3c0.1,0.1,0.2,0.1,0.4,0.1c0.2,0,0.4,0,0.7,0
				c0,0,0,0,0.1,0c0,0,0,0,0.1,0c0,0,0,0,0,0c0,0,0,0,0,0c0.4,0,0.7,0.1,1,0.1c0.3,0.1,0.5,0.2,0.7,0.4c0.2,0.2,0.3,0.6,0.3,1
				c0,0.4-0.1,0.7-0.2,1c-0.2,0.3-0.4,0.5-0.8,0.6c-0.3,0.1-0.8,0.2-1.3,0.2C469.5,194.5,469.2,194.5,468.9,194.4z"/>
			<path class="st2" d="M476.7,193.9c-0.3-0.3-0.5-0.7-0.5-1.3c0-0.5,0.1-1,0.4-1.2c0.3-0.3,0.8-0.4,1.4-0.4l1.6,0l0.1,0.9l-1.6,0
				c-0.3,0-0.5,0.1-0.6,0.2c-0.1,0.1-0.2,0.3-0.2,0.6c0,0.3,0.1,0.5,0.3,0.6c0.2,0.1,0.5,0.2,0.9,0.2c0.4,0,0.7-0.1,0.9-0.2
				c0.2-0.1,0.3-0.2,0.3-0.4l0.1,0.8c-0.1,0.2-0.2,0.3-0.3,0.4c-0.1,0.1-0.3,0.2-0.5,0.2c-0.2,0.1-0.4,0.1-0.6,0.1
				C477.6,194.3,477.1,194.2,476.7,193.9z M479.5,190.7c0-0.4-0.1-0.6-0.3-0.8s-0.5-0.3-0.8-0.3c-0.2,0-0.4,0-0.6,0.1
				c-0.2,0.1-0.4,0.2-0.6,0.3l-0.8-0.5c0.2-0.3,0.5-0.5,0.8-0.6c0.3-0.1,0.7-0.2,1.1-0.2c0.5,0,0.9,0.1,1.2,0.2
				c0.3,0.2,0.6,0.4,0.8,0.7c0.2,0.3,0.3,0.7,0.3,1.1l0.1,3.6l-1,0L479.5,190.7z"/>
			<path class="st2" d="M482.1,188.6l1.1,0l0.2,7.8l-1.1,0L482.1,188.6z M483.9,193.9c-0.3-0.2-0.5-0.4-0.6-0.7l0-1.2
				c0,0.2,0.1,0.4,0.1,0.6c0.1,0.2,0.2,0.3,0.4,0.4c0.2,0.1,0.4,0.1,0.6,0.1c0.4,0,0.6-0.1,0.8-0.4s0.3-0.5,0.3-0.9l0-1.2
				c0-0.4-0.1-0.7-0.3-0.9c-0.2-0.2-0.5-0.3-0.8-0.3c-0.2,0-0.4,0.1-0.6,0.1s-0.3,0.2-0.4,0.4c-0.1,0.2-0.1,0.4-0.1,0.6l-0.1-1.1
				c0.2-0.3,0.4-0.6,0.6-0.8c0.3-0.2,0.6-0.3,0.9-0.3c0.4,0,0.7,0.1,1,0.2s0.5,0.4,0.7,0.8c0.2,0.3,0.2,0.7,0.3,1.2l0,1.2
				c0,0.5-0.1,0.9-0.2,1.2c-0.1,0.3-0.4,0.6-0.6,0.8c-0.3,0.2-0.6,0.3-1,0.3C484.4,194.1,484.1,194,483.9,193.9z"/>
			<path class="st2" d="M488.1,188.4l1.1,0l0.2,7.8l-1.1,0L488.1,188.4z M489.8,193.7c-0.3-0.2-0.5-0.4-0.6-0.7l0-1.2
				c0,0.2,0.1,0.4,0.1,0.6c0.1,0.2,0.2,0.3,0.4,0.4c0.2,0.1,0.4,0.1,0.6,0.1c0.4,0,0.6-0.1,0.8-0.4c0.2-0.2,0.3-0.5,0.3-0.9l0-1.2
				c0-0.4-0.1-0.7-0.3-0.9c-0.2-0.2-0.5-0.3-0.8-0.3c-0.2,0-0.4,0.1-0.6,0.1c-0.2,0.1-0.3,0.2-0.4,0.4c-0.1,0.2-0.1,0.4-0.1,0.6
				l-0.1-1.1c0.2-0.3,0.4-0.6,0.6-0.8c0.3-0.2,0.6-0.3,0.9-0.3c0.4,0,0.7,0.1,1,0.2c0.3,0.2,0.5,0.4,0.7,0.8
				c0.2,0.3,0.2,0.7,0.3,1.2l0,1.2c0,0.5-0.1,0.9-0.2,1.2c-0.1,0.3-0.4,0.6-0.6,0.8c-0.3,0.2-0.6,0.3-1,0.3
				C490.4,194,490.1,193.9,489.8,193.7z"/>
			<path class="st2" d="M495.2,192.3c0,0.1,0,0.2,0.1,0.3c0.1,0.1,0.1,0.1,0.3,0.1l0.5,0l0,1l-0.6,0c-0.4,0-0.7-0.1-1-0.4
				s-0.4-0.6-0.4-1.1L494,186l1.1,0L495.2,192.3z"/>
			<path class="st2" d="M496.6,188.2l1.1,0l1.8,4.8l-0.6,1.2L496.6,188.2z M501.5,188l-2.2,6.9c-0.1,0.3-0.2,0.5-0.3,0.6
				c-0.1,0.2-0.3,0.3-0.5,0.3c-0.2,0.1-0.4,0.1-0.7,0.1l-0.2,0l0-1l0.2,0c0.2,0,0.4-0.1,0.5-0.1c0.1-0.1,0.2-0.2,0.3-0.4l1.9-6.3
				L501.5,188z"/>
			<path class="st2" d="M505.4,184.8l1.1,0l0.3,9.6l-1.1,0L505.4,184.8z"/>
			<path class="st2" d="M511.3,192.4l2.6-3.7c0.2-0.2,0.3-0.4,0.3-0.7s0.1-0.4,0.1-0.6v0c0-0.3-0.1-0.5-0.3-0.7
				c-0.2-0.2-0.4-0.2-0.8-0.2c-0.3,0-0.6,0.1-0.8,0.3c-0.2,0.2-0.3,0.5-0.3,0.8v0l-1.1,0v0c0.1-0.4,0.2-0.8,0.4-1.1
				c0.2-0.3,0.4-0.6,0.7-0.7s0.7-0.3,1.1-0.3c0.5,0,0.9,0.1,1.2,0.2c0.3,0.1,0.6,0.4,0.8,0.7c0.2,0.3,0.3,0.7,0.3,1.1l0,0
				c0,0.3,0,0.6-0.1,0.9s-0.3,0.6-0.5,0.9l-2.2,3.1l2.9-0.1l0,1l-4.4,0.1L511.3,192.4z"/>
			<path class="st2" d="M516.9,192.2l2.6-3.7c0.2-0.2,0.3-0.4,0.3-0.7c0.1-0.2,0.1-0.4,0.1-0.6v0c0-0.3-0.1-0.5-0.3-0.7
				c-0.2-0.2-0.4-0.2-0.8-0.2c-0.3,0-0.6,0.1-0.8,0.3c-0.2,0.2-0.3,0.5-0.3,0.8v0l-1.1,0v0c0.1-0.4,0.2-0.8,0.4-1.2
				c0.2-0.3,0.4-0.6,0.7-0.7c0.3-0.2,0.7-0.3,1.1-0.3c0.5,0,0.9,0.1,1.2,0.2c0.3,0.1,0.6,0.4,0.8,0.7c0.2,0.3,0.3,0.7,0.3,1.1l0,0
				c0,0.3,0,0.6-0.1,0.9s-0.3,0.6-0.5,0.9l-2.2,3.1l2.9-0.1l0,1l-4.4,0.1L516.9,192.2z"/>
			<path class="st2" d="M527.7,185.1l0.9,0l3.1,7.7l-1.2,0l-2.3-6.2l-2,6.3l-1.2,0L527.7,185.1z M526.3,190.2l4.1-0.1l0,1l-4.1,0.1
				L526.3,190.2z"/>
			<path class="st2" d="M532.6,187.2l1.1,0l0.2,7.8l-1.1,0L532.6,187.2z M534.4,192.5c-0.3-0.2-0.5-0.4-0.6-0.7l0-1.2
				c0,0.2,0.1,0.4,0.1,0.6s0.2,0.3,0.4,0.4c0.2,0.1,0.4,0.1,0.6,0.1c0.4,0,0.6-0.1,0.8-0.3c0.2-0.2,0.3-0.5,0.3-0.9l0-1.2
				c0-0.4-0.1-0.7-0.3-0.9c-0.2-0.2-0.5-0.3-0.8-0.3c-0.2,0-0.4,0.1-0.6,0.1c-0.2,0.1-0.3,0.2-0.4,0.4s-0.1,0.4-0.1,0.6l-0.1-1.1
				c0.2-0.3,0.4-0.6,0.6-0.8c0.3-0.2,0.6-0.3,0.9-0.3c0.4,0,0.7,0.1,1,0.2c0.3,0.2,0.5,0.4,0.7,0.8c0.2,0.3,0.2,0.7,0.3,1.2l0,1.2
				c0,0.5-0.1,0.9-0.2,1.2c-0.1,0.3-0.4,0.6-0.6,0.8c-0.3,0.2-0.6,0.3-1,0.3C534.9,192.8,534.6,192.7,534.4,192.5z"/>
			<path class="st2" d="M538.6,187l1.1,0l0.1,5.5l-1.1,0L538.6,187z M541.3,188c-0.1-0.1-0.3-0.1-0.5-0.1c-0.3,0-0.6,0.1-0.8,0.3
				c-0.2,0.2-0.3,0.5-0.3,0.8l-0.1-1.1c0.2-0.3,0.4-0.6,0.6-0.8c0.3-0.2,0.6-0.3,0.9-0.3c0.3,0,0.5,0,0.7,0.1
				c0.2,0.1,0.4,0.2,0.5,0.3l-0.7,1C541.6,188.2,541.4,188.1,541.3,188z"/>
			<path class="st2" d="M549.8,189l0,1l-3.6,0.1l0-1L549.8,189z"/>
			<path class="st2" d="M555.3,192c-0.3-0.1-0.6-0.4-0.8-0.7c-0.2-0.3-0.3-0.7-0.4-1.1l1.1,0c0,0.2,0.1,0.4,0.2,0.5
				c0.1,0.1,0.3,0.2,0.4,0.3c0.2,0.1,0.4,0.1,0.6,0.1c0.4,0,0.6-0.1,0.8-0.3c0.2-0.2,0.3-0.5,0.3-0.8l0-0.2c0-0.4-0.1-0.7-0.3-0.9
				c-0.2-0.2-0.5-0.3-0.8-0.3l-0.5,0l0-1l0.5,0c0.3,0,0.5-0.1,0.7-0.3c0.2-0.2,0.2-0.4,0.2-0.8l0-0.2c0-0.3-0.1-0.5-0.3-0.7
				s-0.4-0.2-0.8-0.2c-0.2,0-0.3,0-0.5,0.1c-0.1,0.1-0.3,0.2-0.4,0.3c-0.1,0.1-0.2,0.3-0.2,0.5l-1.1,0c0.1-0.4,0.2-0.8,0.4-1.1
				c0.2-0.3,0.4-0.5,0.7-0.7c0.3-0.2,0.6-0.3,1-0.3c0.7,0,1.2,0.1,1.6,0.5s0.6,0.8,0.6,1.5l0,0.1c0,0.4-0.1,0.7-0.3,1
				c-0.2,0.3-0.5,0.5-0.9,0.7c0.4,0.1,0.8,0.3,1,0.6c0.2,0.3,0.4,0.7,0.4,1.2l0,0.1c0,0.5-0.1,0.8-0.2,1.2c-0.2,0.3-0.4,0.6-0.7,0.8
				s-0.7,0.3-1.2,0.3C556,192.2,555.6,192.1,555.3,192z"/>
			<path class="st2" d="M560.8,191.5c-0.4-0.4-0.6-0.9-0.6-1.6l-0.1-3.5c0-0.7,0.2-1.2,0.5-1.6s0.9-0.6,1.6-0.6
				c0.7,0,1.3,0.2,1.7,0.5c0.4,0.4,0.6,0.9,0.6,1.6l0.1,3.5c0,0.7-0.2,1.2-0.5,1.6c-0.4,0.4-0.9,0.6-1.6,0.6
				C561.7,192,561.2,191.9,560.8,191.5z M563.3,190.7c0.2-0.2,0.3-0.5,0.3-0.9l-0.1-3.5c0-0.4-0.1-0.7-0.3-0.9s-0.5-0.3-0.9-0.3
				c-0.4,0-0.7,0.1-0.8,0.3s-0.3,0.5-0.2,0.9l0.1,3.5c0,0.4,0.1,0.7,0.3,0.9s0.5,0.3,0.9,0.3C562.8,191,563.1,190.9,563.3,190.7z"/>
			<path class="st2" d="M574.7,183.9l1,0l0.2,7.8l-1.1,0l-0.2-5.8l0.1,0.3l-1.8,4.4l-0.8,0l-2-4.2l0-0.5l0.2,5.8l-1.1,0l-0.2-7.8
				l1,0l2.4,5.1L574.7,183.9z"/>
			<path class="st2" d="M578,191.2c-0.3-0.3-0.5-0.7-0.5-1.3c0-0.5,0.1-1,0.4-1.2c0.3-0.3,0.8-0.4,1.4-0.4l1.6,0l0.1,0.9l-1.6,0
				c-0.3,0-0.5,0.1-0.6,0.2c-0.1,0.1-0.2,0.3-0.2,0.6c0,0.3,0.1,0.5,0.3,0.6c0.2,0.1,0.5,0.2,0.9,0.2c0.4,0,0.7-0.1,0.9-0.2
				c0.2-0.1,0.3-0.2,0.3-0.4l0.1,0.8c-0.1,0.2-0.2,0.3-0.3,0.4c-0.1,0.1-0.3,0.2-0.5,0.2c-0.2,0.1-0.4,0.1-0.6,0.1
				C578.8,191.6,578.3,191.5,578,191.2z M580.8,187.9c0-0.4-0.1-0.6-0.3-0.8c-0.2-0.2-0.5-0.3-0.8-0.3c-0.2,0-0.4,0-0.6,0.1
				c-0.2,0.1-0.4,0.2-0.6,0.3l-0.8-0.5c0.2-0.3,0.5-0.5,0.8-0.6c0.3-0.1,0.7-0.2,1.1-0.2c0.5,0,0.9,0.1,1.2,0.2
				c0.3,0.2,0.6,0.4,0.8,0.7c0.2,0.3,0.3,0.7,0.3,1.1l0.1,3.6l-1,0L580.8,187.9z"/>
			<path class="st2" d="M582.8,185.9l1.1,0l1.8,4.8l-0.6,1.2L582.8,185.9z M587.7,185.7l-2.2,6.9c-0.1,0.3-0.2,0.5-0.3,0.6
				c-0.1,0.2-0.3,0.3-0.5,0.3c-0.2,0.1-0.4,0.1-0.7,0.1l-0.2,0l0-1l0.2,0c0.2,0,0.4-0.1,0.5-0.1s0.2-0.2,0.3-0.4l1.9-6.3
				L587.7,185.7z"/>
			<path class="st2" d="M591.6,190.2l2.6-3.7c0.2-0.2,0.3-0.4,0.3-0.7s0.1-0.4,0.1-0.6v0c0-0.3-0.1-0.5-0.3-0.7
				c-0.2-0.2-0.4-0.2-0.8-0.2c-0.3,0-0.6,0.1-0.8,0.3c-0.2,0.2-0.3,0.5-0.3,0.8v0l-1.1,0v0c0.1-0.4,0.2-0.8,0.4-1.1
				c0.2-0.3,0.4-0.6,0.7-0.7s0.7-0.3,1.1-0.3c0.5,0,0.9,0.1,1.2,0.2s0.6,0.4,0.8,0.7s0.3,0.7,0.3,1.1l0,0c0,0.3,0,0.6-0.1,0.9
				s-0.3,0.6-0.5,0.9l-2.2,3.1l2.9-0.1l0,1l-4.4,0.1L591.6,190.2z"/>
			<path class="st2" d="M597.9,190.5c-0.4-0.4-0.6-0.9-0.6-1.6l-0.1-3.5c0-0.7,0.2-1.2,0.5-1.6c0.4-0.4,0.9-0.6,1.6-0.6
				c0.7,0,1.3,0.2,1.7,0.5c0.4,0.4,0.6,0.9,0.6,1.6l0.1,3.5c0,0.7-0.2,1.2-0.5,1.6c-0.4,0.4-0.9,0.6-1.6,0.6
				C598.9,191.1,598.3,190.9,597.9,190.5z M600.4,189.7c0.2-0.2,0.3-0.5,0.3-0.9l-0.1-3.5c0-0.4-0.1-0.7-0.3-0.9
				c-0.2-0.2-0.5-0.3-0.9-0.3c-0.4,0-0.7,0.1-0.8,0.3s-0.3,0.5-0.2,0.9l0.1,3.5c0,0.4,0.1,0.7,0.3,0.9c0.2,0.2,0.5,0.3,0.9,0.3
				C599.9,190,600.2,189.9,600.4,189.7z"/>
			<path class="st2" d="M603.3,189.9l2.6-3.7c0.2-0.2,0.3-0.4,0.3-0.7c0.1-0.2,0.1-0.4,0.1-0.6v0c0-0.3-0.1-0.5-0.3-0.7
				c-0.2-0.2-0.4-0.2-0.8-0.2c-0.3,0-0.6,0.1-0.8,0.3c-0.2,0.2-0.3,0.5-0.3,0.8v0l-1.1,0v0c0.1-0.4,0.2-0.8,0.4-1.2
				c0.2-0.3,0.4-0.6,0.7-0.7c0.3-0.2,0.7-0.3,1.1-0.3c0.5,0,0.9,0.1,1.2,0.2s0.6,0.4,0.8,0.7c0.2,0.3,0.3,0.7,0.3,1.1v0
				c0,0.3,0,0.6-0.1,0.9c-0.1,0.3-0.3,0.6-0.5,0.9l-2.2,3.1l2.9-0.1l0,1l-4.4,0.1L603.3,189.9z"/>
			<path class="st2" d="M610.9,190.7l-1.1,0l-0.2-6.6l-1.1,0.7l0-1.1l1.1-0.8l1.1,0L610.9,190.7z"/>
		</g>
	</g>
	<g>
		<g>
			<path d="M394.6,175.5c-0.6-0.1-1.2-0.3-1.8-0.6c-0.6-0.3-1.1-0.6-1.6-1l1.3-1.6c0.6,0.5,1.2,0.8,1.9,1.1c0.7,0.2,1.4,0.3,2.2,0.3
				c1.1,0,1.9-0.2,2.5-0.6c0.6-0.4,0.9-1,0.8-1.7l0,0c0-0.5-0.2-0.9-0.4-1.2s-0.6-0.5-1-0.6c-0.4-0.1-1-0.3-1.6-0.4c0,0,0,0-0.1,0
				c0,0,0,0-0.1,0l-0.2,0c-1-0.1-1.8-0.3-2.4-0.5c-0.6-0.2-1.2-0.6-1.6-1.1c-0.5-0.6-0.7-1.4-0.7-2.4v0c0-0.9,0.2-1.7,0.6-2.4
				c0.4-0.7,1-1.2,1.8-1.5c0.8-0.4,1.7-0.5,2.8-0.6c0.5,0,1,0,1.6,0.1c0.5,0.1,1,0.3,1.5,0.5c0.5,0.2,1,0.5,1.5,0.8l-1.1,1.7
				c-0.6-0.4-1.1-0.7-1.7-0.9c-0.6-0.2-1.1-0.3-1.7-0.3c-1,0-1.8,0.2-2.3,0.7c-0.5,0.4-0.8,1-0.8,1.7l0,0c0,0.5,0.2,0.9,0.5,1.2
				c0.3,0.3,0.7,0.5,1.1,0.6c0.4,0.1,1,0.3,1.8,0.4c0,0,0.1,0,0.1,0s0,0,0.1,0c0,0,0.1,0,0.1,0c0,0,0.1,0,0.1,0
				c0.9,0.2,1.6,0.4,2.2,0.6s1.1,0.6,1.5,1.2c0.4,0.5,0.6,1.3,0.7,2.3v0c0,0.9-0.2,1.7-0.6,2.3c-0.4,0.6-1,1.1-1.8,1.5
				c-0.8,0.4-1.8,0.5-2.9,0.6C395.9,175.7,395.2,175.6,394.6,175.5z"/>
			<path d="M406.6,174.9c-0.7-0.4-1.2-0.9-1.6-1.6c-0.4-0.7-0.6-1.5-0.6-2.5l0-1.2c0-1,0.1-1.9,0.5-2.7c0.3-0.7,0.8-1.3,1.5-1.7
				c0.7-0.4,1.4-0.6,2.4-0.6c0.9,0,1.6,0.2,2.3,0.6s1.1,1.1,1.5,1.9c0.3,0.8,0.5,1.8,0.6,3l0,0.7l-7.1,0.2l0-1.7l5.1-0.1
				c-0.1-0.9-0.3-1.5-0.7-2s-0.9-0.7-1.6-0.7c-0.8,0-1.4,0.3-1.8,0.8c-0.4,0.5-0.6,1.3-0.6,2.2l0,1.3c0,0.9,0.3,1.5,0.7,2
				c0.5,0.5,1.1,0.7,2,0.7c0.4,0,0.8-0.1,1.2-0.3c0.4-0.2,0.8-0.4,1.1-0.7l1.4,1.3c-0.5,0.5-1.1,0.9-1.7,1.2
				c-0.6,0.3-1.3,0.4-1.9,0.5C408.1,175.4,407.2,175.3,406.6,174.9z"/>
			<path d="M417.9,172.4c0,0.3,0.1,0.5,0.2,0.6c0.1,0.1,0.3,0.2,0.5,0.2l1,0l0,2l-1.2,0c-0.8,0-1.4-0.2-1.8-0.7
				c-0.4-0.5-0.7-1.2-0.7-2l-0.3-12l2.1,0L417.9,172.4z"/>
			<path d="M423.7,174.5c-0.7-0.4-1.2-0.9-1.6-1.6c-0.4-0.7-0.6-1.5-0.6-2.5l0-1.2c0-1,0.1-1.9,0.5-2.7c0.3-0.7,0.8-1.3,1.5-1.7
				c0.7-0.4,1.4-0.6,2.4-0.6c0.9,0,1.6,0.2,2.3,0.6c0.6,0.4,1.1,1.1,1.5,1.9c0.3,0.8,0.5,1.8,0.6,3l0,0.7l-7.1,0.2l0-1.7l5.1-0.1
				c-0.1-0.9-0.3-1.5-0.7-2s-0.9-0.7-1.6-0.7c-0.8,0-1.4,0.3-1.8,0.8c-0.4,0.5-0.6,1.3-0.6,2.2l0,1.3c0,0.9,0.3,1.5,0.7,2
				c0.5,0.5,1.1,0.7,2,0.7c0.4,0,0.8-0.1,1.2-0.3c0.4-0.2,0.8-0.4,1.1-0.7l1.4,1.3c-0.5,0.5-1.1,0.9-1.7,1.2
				c-0.6,0.3-1.3,0.4-1.9,0.5C425.2,175.1,424.4,174.9,423.7,174.5z"/>
			<path d="M434.8,174.3c-0.7-0.3-1.2-0.9-1.6-1.5c-0.4-0.7-0.6-1.5-0.6-2.5l0-1.7c0-1,0.1-1.8,0.5-2.5s0.9-1.2,1.5-1.6
				c0.7-0.4,1.5-0.6,2.4-0.6c0.5,0,1.1,0,1.6,0.2c0.5,0.1,0.9,0.3,1.3,0.5c0.4,0.2,0.7,0.5,1,0.9l-1.5,1.4c-0.3-0.3-0.7-0.6-1.1-0.8
				c-0.4-0.2-0.8-0.3-1.3-0.2c-0.8,0-1.4,0.3-1.8,0.7c-0.4,0.5-0.6,1.1-0.6,1.9l0,1.7c0,0.8,0.2,1.5,0.7,1.9
				c0.4,0.4,1.1,0.7,1.9,0.6c0.4,0,0.9-0.1,1.3-0.3c0.4-0.2,0.7-0.5,1-0.9l1.5,1.4c-0.3,0.4-0.6,0.7-1,0.9c-0.4,0.3-0.8,0.5-1.3,0.6
				c-0.5,0.1-1,0.2-1.5,0.2C436.3,174.8,435.5,174.7,434.8,174.3z"/>
			<path d="M442.3,164l4.7-0.1l0,1.9l-4.7,0.1L442.3,164z M444.2,173.9c-0.4-0.5-0.6-1.2-0.6-2.1l-0.2-10.8l2.1,0l0.2,10.9
				c0,0.3,0.1,0.5,0.2,0.6c0.1,0.1,0.3,0.2,0.5,0.2l1,0l0,2l-1.2,0C445.2,174.5,444.6,174.3,444.2,173.9z"/>
			<path d="M451.9,174c-0.7-0.4-1.2-0.9-1.6-1.6c-0.4-0.7-0.6-1.5-0.6-2.5l0-1.2c0-1,0.1-1.9,0.5-2.7s0.8-1.3,1.5-1.7
				c0.7-0.4,1.4-0.6,2.4-0.6c0.9,0,1.6,0.2,2.3,0.6c0.6,0.4,1.1,1.1,1.5,1.9c0.3,0.8,0.5,1.8,0.6,3l0,0.7l-7.1,0.2l0-1.7l5.1-0.1
				c-0.1-0.9-0.3-1.5-0.7-2c-0.4-0.5-0.9-0.7-1.6-0.7c-0.8,0-1.4,0.3-1.8,0.8c-0.4,0.5-0.6,1.3-0.6,2.2l0,1.3c0,0.9,0.3,1.5,0.7,2
				c0.5,0.5,1.1,0.7,2,0.7c0.4,0,0.8-0.1,1.2-0.3c0.4-0.2,0.8-0.4,1.1-0.7l1.4,1.3c-0.5,0.5-1.1,0.9-1.7,1.2
				c-0.6,0.3-1.3,0.4-1.9,0.5C453.5,174.5,452.6,174.3,451.9,174z"/>
			<path d="M462.6,173.8c-0.6-0.3-1-0.8-1.3-1.4c-0.3-0.6-0.5-1.4-0.5-2.3l0-2.3c0-0.9,0.1-1.7,0.4-2.3c0.3-0.6,0.7-1.1,1.2-1.5
				c0.5-0.3,1.2-0.5,1.9-0.5c0.6,0,1.2,0.1,1.7,0.4c0.5,0.3,1,0.8,1.3,1.3l-0.2,2.2c0-0.4-0.1-0.8-0.3-1.1c-0.2-0.3-0.4-0.6-0.7-0.7
				c-0.3-0.2-0.7-0.2-1.1-0.2c-0.7,0-1.2,0.2-1.6,0.7c-0.4,0.4-0.5,1-0.5,1.8l0,2.3c0,0.8,0.2,1.3,0.6,1.8c0.4,0.4,0.9,0.6,1.6,0.6
				c0.4,0,0.8-0.1,1.1-0.3c0.3-0.2,0.5-0.4,0.7-0.8c0.2-0.3,0.2-0.7,0.2-1.2l0.2,2.2c-0.2,0.5-0.5,1-1,1.3c-0.5,0.4-1.1,0.5-1.7,0.6
				C463.8,174.3,463.2,174.1,462.6,173.8z M466.9,159.3l2.1,0l0.3,14.7l-2.1,0L466.9,159.3z"/>
			<path d="M477.7,159.1l2.1,0l0,2.1l-2.1,0L477.7,159.1z M477.8,163.3l2.1,0l0.2,10.5l-2.1,0L477.8,163.3z"/>
			<path d="M482.2,163.2l4.7-0.1l0,1.9l-4.7,0.1L482.2,163.2z M484.1,173c-0.4-0.5-0.6-1.2-0.6-2.1l-0.2-10.8l2.1,0l0.2,10.9
				c0,0.3,0.1,0.5,0.2,0.6c0.1,0.1,0.3,0.2,0.4,0.2l1,0l0,2l-1.2,0C485.1,173.7,484.5,173.5,484.1,173z"/>
			<path d="M491.8,173.1c-0.7-0.4-1.2-0.9-1.6-1.6s-0.6-1.5-0.6-2.5l0-1.2c0-1,0.1-1.9,0.5-2.7c0.3-0.7,0.8-1.3,1.5-1.7
				c0.7-0.4,1.4-0.6,2.4-0.6c0.9,0,1.6,0.2,2.3,0.6c0.6,0.4,1.1,1.1,1.5,1.9c0.3,0.8,0.5,1.8,0.6,3l0,0.7l-7.1,0.1l0-1.7l5.1-0.1
				c-0.1-0.9-0.3-1.5-0.7-2c-0.4-0.5-0.9-0.7-1.6-0.7c-0.8,0-1.4,0.3-1.8,0.8c-0.4,0.5-0.6,1.3-0.6,2.2l0,1.3c0,0.9,0.3,1.5,0.7,2
				c0.5,0.5,1.1,0.7,2,0.7c0.4,0,0.8-0.1,1.2-0.3c0.4-0.2,0.8-0.4,1.1-0.7l1.4,1.3c-0.5,0.5-1.1,0.9-1.7,1.2
				c-0.6,0.3-1.3,0.4-1.9,0.5C493.4,173.6,492.5,173.5,491.8,173.1z"/>
			<path d="M500.9,162.8l2.1,0l0.2,10.5l-2.1,0L500.9,162.8z M507.3,166.8c0-0.7-0.2-1.3-0.6-1.7c-0.4-0.4-0.9-0.6-1.6-0.6
				c-0.7,0-1.2,0.2-1.6,0.6s-0.5,0.9-0.5,1.5l-0.3-2c0.3-0.6,0.7-1.1,1.2-1.5c0.5-0.4,1.1-0.5,1.7-0.6c0.7,0,1.4,0.1,1.9,0.5
				c0.5,0.3,0.9,0.8,1.2,1.4c0.3,0.6,0.4,1.4,0.5,2.3l0.1,6.4l-2.1,0L507.3,166.8z M513.6,166.7c0-0.7-0.2-1.3-0.6-1.7
				c-0.4-0.4-0.9-0.6-1.6-0.6c-0.6,0-1.1,0.2-1.5,0.6c-0.3,0.4-0.5,1-0.5,1.7l-0.5-2c0.3-0.7,0.7-1.3,1.3-1.6
				c0.5-0.4,1.1-0.6,1.8-0.6c0.8,0,1.4,0.1,2,0.5s1,0.8,1.3,1.4c0.3,0.6,0.5,1.4,0.5,2.3l0.1,6.4l-2.1,0L513.6,166.7z"/>
			<path d="M526.2,172.4c-0.7-0.3-1.2-0.9-1.5-1.5c-0.4-0.7-0.5-1.5-0.6-2.5l0-1.7c0-1,0.1-1.8,0.5-2.5c0.3-0.7,0.8-1.2,1.5-1.6
				c0.6-0.4,1.4-0.6,2.3-0.6c0.9,0,1.7,0.1,2.4,0.5c0.7,0.3,1.2,0.8,1.5,1.5s0.5,1.5,0.6,2.4l0,1.7c0,1-0.1,1.8-0.5,2.5
				c-0.3,0.7-0.8,1.2-1.5,1.6c-0.6,0.4-1.4,0.6-2.3,0.6C527.6,172.9,526.8,172.7,526.2,172.4z M530.2,170.2c0.4-0.5,0.6-1.1,0.6-1.9
				l0-1.7c0-0.8-0.2-1.4-0.6-1.9c-0.4-0.4-1-0.7-1.7-0.6c-0.7,0-1.3,0.3-1.7,0.7c-0.4,0.5-0.6,1.1-0.6,1.9l0,1.7
				c0,0.8,0.2,1.5,0.6,1.9s1,0.7,1.7,0.6S529.8,170.7,530.2,170.2z"/>
			<path d="M535.6,162.1l2.1,0l0.2,10.5l-2.1,0L535.6,162.1z M542.1,166.1c0-0.7-0.2-1.3-0.6-1.7c-0.4-0.4-0.9-0.6-1.6-0.6
				c-0.7,0-1.2,0.2-1.6,0.6c-0.4,0.4-0.5,0.9-0.5,1.5l-0.3-2c0.3-0.6,0.7-1.1,1.2-1.5c0.5-0.4,1.1-0.5,1.7-0.6c1.1,0,2,0.3,2.7,1.1
				c0.6,0.7,1,1.8,1,3.1l0.1,6.4l-2.1,0L542.1,166.1z"/>
			<path d="M549.4,169.6c0,0.3,0.1,0.5,0.2,0.6c0.1,0.1,0.3,0.2,0.5,0.2l1,0l0,2l-1.2,0c-0.8,0-1.4-0.2-1.8-0.7
				c-0.4-0.5-0.7-1.2-0.7-2l-0.3-12l2.1,0L549.4,169.6z"/>
			<path d="M552.1,161.7l2.1,0l3.4,9.1l-1.1,2.3L552.1,161.7z M561.4,161.5l-4.2,13.1c-0.2,0.5-0.4,0.9-0.6,1.2
				c-0.3,0.3-0.6,0.5-1,0.6c-0.4,0.1-0.9,0.2-1.4,0.2l-0.4,0l0-2l0.4,0c0.4,0,0.7-0.1,0.9-0.3c0.2-0.2,0.4-0.4,0.6-0.8l3.6-12
				L561.4,161.5z"/>
		</g>
	</g>
	<g>
		<g>
			<path class="st4" d="M308.6,93.8c-1.2-0.1-2.4-0.3-3.5-0.6c-1.1-0.3-2.1-0.6-3-1l2.3-2.5c1.1,0.5,2.3,0.8,3.7,1.1
				c1.4,0.2,2.8,0.3,4.2,0.3c1.7,0,3-0.2,3.9-0.6c0.9-0.3,1.4-0.8,1.4-1.4v0c0-0.4-0.2-0.7-0.6-1c-0.4-0.2-1-0.4-1.6-0.5
				c-0.7-0.1-1.5-0.2-2.6-0.3c0,0-0.1,0-0.1,0c0,0-0.1,0-0.1,0l-0.4,0c-1.8-0.1-3.3-0.3-4.6-0.5c-1.2-0.2-2.2-0.6-3.1-1.2
				c-0.9-0.6-1.3-1.5-1.3-2.6v0c0-1,0.4-1.9,1.1-2.6c0.8-0.7,1.9-1.3,3.4-1.7c1.5-0.4,3.3-0.6,5.4-0.7c1,0,2,0,3,0.1
				c1,0.1,2,0.3,3,0.5c1,0.2,1.9,0.5,2.8,0.8l-2.1,2.6c-1.1-0.4-2.2-0.7-3.3-0.9c-1.1-0.2-2.2-0.3-3.3-0.3c-1.6,0-2.8,0.2-3.6,0.5
				c-0.9,0.3-1.3,0.7-1.3,1.3v0c0,0.5,0.2,0.8,0.7,1.1c0.5,0.3,1,0.4,1.7,0.5c0.7,0.1,1.6,0.2,2.8,0.3c0,0,0.1,0,0.2,0
				c0,0,0.1,0,0.1,0c0.1,0,0.1,0,0.2,0c0.1,0,0.1,0,0.2,0c1.7,0.2,3.2,0.4,4.3,0.6c1.2,0.3,2.1,0.7,2.9,1.3c0.8,0.6,1.2,1.4,1.2,2.5
				l0,0c0,1-0.4,1.9-1.2,2.6c-0.8,0.7-2,1.3-3.5,1.7c-1.5,0.4-3.4,0.6-5.6,0.7C311.1,94,309.9,93.9,308.6,93.8z"/>
			<path class="st4" d="M327.2,77.7l5.1-0.1l0.3,15.8l-5.1,0.1L327.2,77.7z M329.7,84.5l8.7-0.2c0.6,0,1.2-0.1,1.6-0.3
				c0.5-0.2,0.8-0.4,1.1-0.7c0.3-0.3,0.4-0.6,0.4-1c0-0.4-0.1-0.7-0.4-1c-0.3-0.3-0.6-0.5-1.1-0.7c-0.5-0.2-1-0.2-1.6-0.2l-8.7,0.2
				l-0.1-2.9l8.6-0.2c1.7,0,3.2,0.1,4.5,0.5c1.3,0.4,2.3,0.9,3,1.6c0.7,0.7,1.1,1.6,1.1,2.5c0,1-0.3,1.8-1,2.6
				c-0.7,0.7-1.7,1.3-3,1.7c-1.3,0.4-2.8,0.7-4.5,0.7l-8.6,0.2L329.7,84.5z"/>
			<path class="st4" d="M351.1,77.2l5.1-0.1l0.3,15.8l-5.1,0.1L351.1,77.2z M353,77.2l16.4-0.3l0.1,2.9L353,80L353,77.2z
				 M353.1,83.7l14.3-0.3l0.1,2.9l-14.3,0.3L353.1,83.7z M353.2,90.1l16.4-0.3l0.1,2.9L353.3,93L353.2,90.1z"/>
			<path class="st4" d="M378.4,91.9c-1.5-0.4-2.6-1.1-3.4-1.9c-0.8-0.9-1.2-1.9-1.2-3.2l-0.1-4.3c0-1.2,0.3-2.3,1.1-3.2
				c0.8-0.9,1.9-1.6,3.3-2.1c1.5-0.5,3.2-0.8,5.3-0.8c1.7,0,3.2,0.1,4.6,0.5c1.4,0.4,2.5,1,3.4,1.8c0.9,0.8,1.5,1.8,1.9,2.9
				l-5.3,0.1c-0.2-0.5-0.5-1-1-1.3c-0.4-0.4-0.9-0.6-1.5-0.8c-0.6-0.2-1.3-0.3-2-0.3c-1,0-1.8,0.2-2.4,0.4s-1.2,0.6-1.5,1
				c-0.3,0.4-0.5,1-0.5,1.6l0.1,4.3c0,0.6,0.2,1.1,0.6,1.6c0.4,0.4,0.9,0.7,1.6,1c0.7,0.2,1.5,0.3,2.5,0.3c0.8,0,1.4-0.1,2-0.3
				c0.6-0.2,1.1-0.5,1.5-0.9c0.4-0.4,0.7-0.8,0.9-1.4l5.3-0.1c-0.3,1.2-0.9,2.2-1.8,3c-0.9,0.8-2,1.5-3.3,1.9
				c-1.3,0.5-2.9,0.7-4.6,0.7C381.6,92.5,379.8,92.3,378.4,91.9z"/>
			<path class="st4" d="M403.1,91.9l-5.3,0.1l-0.3-15.8l5.3-0.1L403.1,91.9z"/>
			<path class="st4" d="M416.2,75.9l3.3-0.1l10.8,15.6l-5.5,0.1l-6.8-10.6l-6.3,10.9l-5.5,0.1L416.2,75.9z M411,86.4l14.3-0.3
				l0.1,2.9l-14.3,0.3L411,86.4z"/>
			<path class="st4" d="M433.3,75.5l5.1-0.1l0.3,15.8l-5.1,0.1L433.3,75.5z M435.8,88.4l16-0.3l0.1,2.9l-16,0.3L435.8,88.4z"/>
			<path class="st4" d="M465.6,74.8l5.1-0.1l0.3,15.8l-5.1,0.1L465.6,74.8z M468.5,87.7l6.5-0.1c1.7,0,3-0.3,3.9-0.8
				c0.9-0.5,1.4-1.2,1.3-2l-0.1-4.6c0-0.9-0.5-1.5-1.4-2c-0.9-0.5-2.2-0.7-3.9-0.6l-6.5,0.1l-0.1-2.9l6.4-0.1c2.3,0,4.2,0.1,5.8,0.5
				c1.6,0.4,2.9,1,3.7,1.9c0.9,0.8,1.3,1.8,1.3,3l0.1,4.5c0,1.1-0.4,2.1-1.1,3c-0.8,0.9-2,1.5-3.6,2c-1.6,0.5-3.6,0.8-5.9,0.8
				l-6.4,0.1L468.5,87.7z"/>
			<path class="st4" d="M496.1,90l-5.3,0.1l-0.3-15.8l5.3-0.1L496.1,90z"/>
			<path class="st4" d="M506.5,89.7c-1.2-0.1-2.4-0.3-3.5-0.6c-1.1-0.3-2.1-0.6-3-1l2.3-2.5c1.1,0.5,2.3,0.8,3.7,1.1
				c1.4,0.2,2.8,0.3,4.2,0.3c1.7,0,3-0.2,3.9-0.6c0.9-0.3,1.4-0.8,1.4-1.4v0c0-0.4-0.2-0.7-0.6-1c-0.4-0.2-1-0.4-1.6-0.5
				c-0.7-0.1-1.5-0.2-2.6-0.3c0,0-0.1,0-0.1,0c0,0-0.1,0-0.1,0l-0.4,0c-1.8-0.1-3.3-0.3-4.6-0.5c-1.2-0.2-2.2-0.6-3.1-1.2
				c-0.9-0.6-1.3-1.5-1.3-2.6v0c0-1,0.4-1.9,1.1-2.6c0.8-0.7,1.9-1.3,3.4-1.7c1.5-0.4,3.3-0.6,5.4-0.7c1,0,2,0,3,0.1
				c1,0.1,2,0.3,3,0.5c1,0.2,1.9,0.5,2.8,0.8l-2.1,2.6c-1.1-0.4-2.2-0.7-3.3-0.9c-1.1-0.2-2.2-0.3-3.3-0.3c-1.6,0-2.8,0.2-3.6,0.5
				c-0.9,0.3-1.3,0.7-1.3,1.3l0,0c0,0.5,0.2,0.8,0.7,1.1c0.5,0.3,1,0.4,1.7,0.5c0.7,0.1,1.6,0.2,2.8,0.3c0,0,0.1,0,0.2,0
				c0,0,0.1,0,0.2,0c0.1,0,0.1,0,0.2,0c0.1,0,0.1,0,0.2,0c1.7,0.2,3.2,0.4,4.3,0.6c1.2,0.3,2.1,0.7,2.9,1.3c0.8,0.6,1.2,1.4,1.2,2.5
				l0,0c0,1-0.4,1.9-1.2,2.6c-0.8,0.7-2,1.3-3.5,1.7c-1.5,0.4-3.4,0.6-5.6,0.7C509,89.9,507.7,89.8,506.5,89.7z"/>
			<path class="st4" d="M529.3,88.8c-1.5-0.4-2.6-1.1-3.4-1.9c-0.8-0.9-1.2-1.9-1.2-3.2l-0.1-4.3c0-1.2,0.3-2.3,1.1-3.2
				s1.9-1.6,3.3-2.1c1.5-0.5,3.2-0.8,5.3-0.8c1.7,0,3.2,0.1,4.6,0.5c1.4,0.4,2.5,1,3.4,1.8c0.9,0.8,1.5,1.8,1.9,2.9l-5.3,0.1
				c-0.2-0.5-0.5-1-1-1.3c-0.4-0.4-0.9-0.6-1.5-0.8c-0.6-0.2-1.3-0.3-2-0.3c-1,0-1.8,0.2-2.5,0.4c-0.7,0.2-1.2,0.6-1.5,1
				c-0.3,0.4-0.5,1-0.5,1.6l0.1,4.3c0,0.6,0.2,1.1,0.6,1.6c0.4,0.4,0.9,0.7,1.6,1c0.7,0.2,1.5,0.3,2.5,0.3c0.7,0,1.4-0.1,2-0.3
				c0.6-0.2,1.1-0.5,1.5-0.9c0.4-0.4,0.7-0.8,0.9-1.4l5.3-0.1c-0.3,1.2-0.9,2.2-1.8,3c-0.9,0.8-2,1.5-3.3,1.9
				c-1.3,0.5-2.9,0.7-4.6,0.7C532.6,89.4,530.8,89.2,529.3,88.8z"/>
			<path class="st4" d="M553.3,88.2c-1.5-0.5-2.7-1.1-3.5-2c-0.8-0.9-1.3-1.9-1.3-3l-0.1-4.5c0-1.2,0.4-2.2,1.2-3.1
				c0.8-0.9,2-1.6,3.5-2.1c1.5-0.5,3.2-0.8,5.2-0.8c2,0,3.7,0.2,5.2,0.6c1.5,0.4,2.7,1.1,3.5,2s1.3,1.9,1.3,3l0.1,4.5
				c0,1.2-0.4,2.2-1.2,3.1c-0.8,0.9-2,1.6-3.5,2.1c-1.5,0.5-3.2,0.8-5.2,0.8C556.6,88.9,554.8,88.7,553.3,88.2z M560.9,85.5
				c0.7-0.2,1.2-0.6,1.6-1c0.4-0.4,0.6-0.9,0.5-1.5l-0.1-4.6c0-0.5-0.2-1-0.6-1.4c-0.4-0.4-0.9-0.7-1.6-0.9
				c-0.7-0.2-1.5-0.3-2.4-0.3c-0.9,0-1.7,0.2-2.4,0.4s-1.2,0.6-1.6,1c-0.4,0.4-0.6,0.9-0.5,1.5l0.1,4.6c0,0.5,0.2,1,0.6,1.4
				c0.4,0.4,0.9,0.7,1.6,0.9c0.7,0.2,1.5,0.3,2.4,0.3C559.4,85.8,560.2,85.7,560.9,85.5z"/>
			<path class="st4" d="M578.1,87.7c-1.5-0.4-2.6-1.1-3.4-1.9c-0.8-0.9-1.2-1.9-1.2-3.1l-0.2-10.1l5.1-0.1l0.2,10.1
				c0,0.9,0.5,1.6,1.3,2.1s2,0.7,3.6,0.7c1.5,0,2.7-0.3,3.6-0.8c0.8-0.5,1.2-1.2,1.2-2.1L588,72.3l5.1-0.1l0.2,10.1
				c0,1.2-0.3,2.3-1.1,3.2c-0.8,0.9-1.9,1.6-3.4,2.1c-1.5,0.5-3.3,0.8-5.4,0.8C581.4,88.4,579.6,88.2,578.1,87.7z"/>
			<path class="st4" d="M598.8,72.1l6.3-0.1l10.4,11.9l-0.4,0.3l-0.3-12.4l4.9-0.1l0.3,15.8l-6.3,0.1l-10.4-11.7l0.4-0.3l0.3,12.2
				l-4.9,0.1L598.8,72.1z"/>
			<path class="st4" d="M621.9,71.6l20-0.4L642,74l-20,0.4L621.9,71.6z M629.4,72.7l5.1-0.1l0.3,14.5l-5.1,0.1L629.4,72.7z"/>
			<path class="st4" d="M643.8,71.1l5.1-0.1l0.2,11.1l-5.1,0.1L643.8,71.1z M644,83.9l5.1-0.1l0.1,3l-5.1,0.1L644,83.9z"/>
			<path class="st4" d="M334.1,138.2c-2.6-0.7-4.5-1.8-5.9-3.3s-2.1-3.3-2.1-5.4l-0.4-17.3l8.8-0.2l0.4,17.4c0,1.5,0.8,2.7,2.2,3.6
				c1.5,0.8,3.5,1.2,6.1,1.2c2.6-0.1,4.7-0.5,6.1-1.4c1.4-0.9,2.1-2.1,2.1-3.7l-0.4-17.4l8.8-0.2l0.4,17.3c0,2.1-0.6,3.9-1.9,5.5
				c-1.3,1.5-3.2,2.7-5.8,3.6c-2.5,0.8-5.6,1.3-9.2,1.4C339.7,139.2,336.6,138.9,334.1,138.2z"/>
			<path class="st4" d="M369.5,111.3l8.8-0.2l0.6,27l-8.8,0.2L369.5,111.3z M373.7,122.8l15-0.3c1.1,0,2-0.2,2.8-0.5
				c0.8-0.3,1.4-0.7,1.9-1.2c0.4-0.5,0.7-1.1,0.6-1.8c0-0.7-0.2-1.3-0.7-1.8c-0.5-0.5-1.1-0.9-1.9-1.2c-0.8-0.3-1.8-0.4-2.8-0.4
				l-15,0.3l-0.1-4.9l14.7-0.3c2.9-0.1,5.5,0.2,7.7,0.9c2.2,0.6,4,1.6,5.2,2.8c1.2,1.2,1.9,2.7,1.9,4.3c0,1.6-0.5,3.1-1.7,4.4
				c-1.2,1.3-2.9,2.3-5.1,3c-2.2,0.7-4.8,1.1-7.7,1.2l-14.7,0.3L373.7,122.8z"/>
			<path class="st4" d="M421.7,110.2l34.3-0.7l0.1,4.9l-34.3,0.7L421.7,110.2z M434.5,112.1l8.8-0.2l0.5,24.8L435,137L434.5,112.1z"
				/>
			<path class="st4" d="M467.6,135.3c-2.6-0.8-4.6-1.9-6.1-3.4c-1.4-1.5-2.2-3.2-2.2-5.2l-0.2-7.7c0-2,0.6-3.7,2-5.3
				c1.4-1.5,3.4-2.7,5.9-3.6c2.6-0.9,5.5-1.4,8.9-1.4c3.4-0.1,6.4,0.3,9,1c2.6,0.8,4.6,1.9,6.1,3.4c1.4,1.5,2.2,3.2,2.2,5.2l0.2,7.7
				c0,2-0.6,3.7-2,5.3c-1.4,1.5-3.4,2.7-5.9,3.6c-2.6,0.9-5.5,1.4-8.9,1.4C473.2,136.5,470.2,136.1,467.6,135.3z M480.6,130.6
				c1.2-0.4,2.1-1,2.7-1.7c0.6-0.7,0.9-1.6,0.9-2.5l-0.2-7.9c0-0.9-0.4-1.8-1-2.5c-0.7-0.7-1.6-1.2-2.8-1.6
				c-1.2-0.4-2.6-0.5-4.2-0.5c-1.6,0-3,0.3-4.2,0.7c-1.2,0.4-2.1,1-2.7,1.7c-0.6,0.7-0.9,1.6-0.9,2.5l0.2,7.9c0,0.9,0.4,1.8,1,2.5
				c0.7,0.7,1.6,1.2,2.8,1.6c1.2,0.4,2.6,0.5,4.2,0.5C478,131.3,479.4,131,480.6,130.6z"/>
			<path class="st4" d="M526.6,134.4c-2-0.6-3.6-1.5-4.9-2.7c-1.2-1.2-2-2.6-2.2-4.3v0l8.8-0.2v0c0.2,1,0.7,1.7,1.6,2.3
				s2,0.8,3.5,0.8c1.5,0,2.7-0.3,3.6-0.9c0.8-0.6,1.2-1.4,1.2-2.5l0-2.3c0-1.1-0.4-1.9-1.2-2.4c-0.8-0.6-1.8-0.8-3.2-0.8
				c-1.3,0-2.3,0.2-3.2,0.6c-0.9,0.4-1.5,0.9-1.8,1.6l-8.2,0.2l-0.3-15.5l25.1-0.5l0.1,4.9l-16.3,0.3l0.1,4.8
				c0.7-0.4,1.6-0.7,2.7-0.9c1.1-0.2,2.3-0.4,3.4-0.4c2.4-0.1,4.5,0.2,6.2,0.8c1.7,0.6,3.1,1.5,4,2.7c0.9,1.2,1.4,2.7,1.4,4.5l0,2.3
				c0,1.7-0.5,3.3-1.5,4.5s-2.6,2.2-4.7,2.9c-2,0.7-4.5,1.1-7.4,1.1C530.8,135.2,528.6,135,526.6,134.4z"/>
			<path class="st4" d="M559,132.6c-2.4-1.3-3.6-3.2-3.7-5.6l-0.3-12.3c-0.1-2.4,1.1-4.3,3.5-5.7c2.4-1.4,5.8-2.1,10.4-2.2
				c4.6-0.1,8.1,0.5,10.5,1.8c2.4,1.3,3.6,3.2,3.7,5.6l0.3,12.3c0,2.4-1.1,4.3-3.5,5.7c-2.4,1.4-5.8,2.1-10.4,2.2
				C564.9,134.5,561.4,133.9,559,132.6z M573.3,128.4c0.8-0.7,1.2-1.7,1.2-3l-0.2-9.7c0-1.3-0.5-2.3-1.3-3c-0.9-0.7-2.2-1-3.9-1
				c-1.8,0-3.1,0.4-3.9,1.1c-0.8,0.7-1.2,1.7-1.2,3l0.2,9.7c0,1.3,0.5,2.3,1.3,3c0.9,0.7,2.2,1,3.9,1
				C571.2,129.5,572.5,129.1,573.3,128.4z"/>
			<path class="st4" d="M592.1,117c-1.5-0.8-2.2-2-2.3-3.5l0-2.3c0-1.5,0.7-2.7,2.1-3.6c1.5-0.9,3.5-1.3,6.2-1.4
				c2.7-0.1,4.8,0.3,6.3,1.1c1.5,0.8,2.2,2,2.3,3.5l0,2.3c0,1.5-0.7,2.7-2.1,3.6c-1.5,0.9-3.5,1.3-6.2,1.4
				C595.6,118.2,593.6,117.8,592.1,117z M618.3,106.1l8-0.2l-23.9,27.5l-8,0.2L618.3,106.1z M599.3,113.9c0.2-0.2,0.4-0.5,0.4-0.8
				l0-2c0-0.3-0.1-0.6-0.4-0.7c-0.3-0.2-0.6-0.3-1.1-0.2c-0.5,0-0.8,0.1-1.1,0.3c-0.2,0.2-0.4,0.5-0.4,0.8l0,2
				c0,0.4,0.1,0.6,0.4,0.8c0.3,0.2,0.6,0.3,1.1,0.2C598.7,114.2,599.1,114.1,599.3,113.9z M615.6,132.2c-1.5-0.8-2.2-2-2.3-3.5
				l0-2.3c0-1.5,0.7-2.7,2.1-3.6c1.5-0.9,3.5-1.3,6.2-1.4c2.7-0.1,4.8,0.3,6.3,1.1c1.5,0.8,2.2,2,2.3,3.5l0,2.3
				c0,1.5-0.7,2.7-2.1,3.6c-1.5,0.9-3.5,1.3-6.2,1.4C619.2,133.4,617.1,133,615.6,132.2z M622.9,129.2c0.2-0.2,0.4-0.5,0.4-0.8l0-2
				c0-0.3-0.1-0.6-0.4-0.7c-0.3-0.2-0.6-0.3-1.1-0.2c-0.5,0-0.8,0.1-1.1,0.3c-0.2,0.2-0.4,0.5-0.4,0.8l0,2c0,0.4,0.1,0.6,0.4,0.8
				s0.6,0.3,1.1,0.2S622.6,129.4,622.9,129.2z"/>
		</g>
	</g>
	<g>
		<g>
			<path class="st1" d="M310.7,93.8c-1.2-0.1-2.4-0.3-3.5-0.6c-1.1-0.3-2.1-0.6-3-1l2.3-2.5c1.1,0.5,2.3,0.8,3.7,1.1
				c1.4,0.2,2.8,0.3,4.2,0.3c1.7,0,3-0.2,3.9-0.6c0.9-0.3,1.4-0.8,1.4-1.4v0c0-0.4-0.2-0.7-0.6-1c-0.4-0.2-1-0.4-1.6-0.5
				c-0.7-0.1-1.5-0.2-2.6-0.3c0,0-0.1,0-0.1,0c0,0-0.1,0-0.1,0l-0.4,0c-1.8-0.1-3.3-0.3-4.6-0.5c-1.2-0.2-2.2-0.6-3.1-1.2
				c-0.9-0.6-1.3-1.5-1.3-2.6v0c0-1,0.4-1.9,1.1-2.6c0.8-0.7,1.9-1.3,3.4-1.7c1.5-0.4,3.3-0.6,5.4-0.7c1,0,2,0,3,0.1
				c1,0.1,2,0.3,3,0.5c1,0.2,1.9,0.5,2.8,0.8l-2.1,2.6c-1.1-0.4-2.2-0.7-3.3-0.9c-1.1-0.2-2.2-0.3-3.3-0.3c-1.6,0-2.8,0.2-3.6,0.5
				c-0.9,0.3-1.3,0.7-1.3,1.3v0c0,0.5,0.2,0.8,0.7,1.1c0.5,0.3,1,0.4,1.7,0.5c0.7,0.1,1.6,0.2,2.8,0.3c0,0,0.1,0,0.2,0
				c0,0,0.1,0,0.1,0c0.1,0,0.1,0,0.2,0c0.1,0,0.1,0,0.2,0c1.7,0.2,3.2,0.4,4.3,0.6c1.2,0.3,2.1,0.7,2.9,1.3c0.8,0.6,1.2,1.4,1.2,2.5
				l0,0c0,1-0.4,1.9-1.2,2.6c-0.8,0.7-2,1.3-3.5,1.7c-1.5,0.4-3.4,0.6-5.6,0.7C313.2,94,311.9,93.9,310.7,93.8z"/>
			<path class="st1" d="M329.2,77.7l5.1-0.1l0.3,15.8l-5.1,0.1L329.2,77.7z M331.7,84.5l8.7-0.2c0.6,0,1.2-0.1,1.6-0.3
				c0.5-0.2,0.8-0.4,1.1-0.7c0.3-0.3,0.4-0.6,0.4-1c0-0.4-0.1-0.7-0.4-1c-0.3-0.3-0.6-0.5-1.1-0.7c-0.5-0.2-1-0.2-1.6-0.2l-8.7,0.2
				l-0.1-2.9l8.6-0.2c1.7,0,3.2,0.1,4.5,0.5c1.3,0.4,2.3,0.9,3,1.6c0.7,0.7,1.1,1.6,1.1,2.5c0,1-0.3,1.8-1,2.6
				c-0.7,0.7-1.7,1.3-3,1.7c-1.3,0.4-2.8,0.7-4.5,0.7l-8.6,0.2L331.7,84.5z"/>
			<path class="st1" d="M353.2,77.2l5.1-0.1l0.3,15.8l-5.1,0.1L353.2,77.2z M355,77.2l16.4-0.3l0.1,2.9L355.1,80L355,77.2z
				 M355.2,83.7l14.3-0.3l0.1,2.9l-14.3,0.3L355.2,83.7z M355.3,90.1l16.4-0.3l0.1,2.9L355.3,93L355.3,90.1z"/>
			<path class="st1" d="M380.4,91.9c-1.5-0.4-2.6-1.1-3.4-1.9c-0.8-0.9-1.2-1.9-1.2-3.2l-0.1-4.3c0-1.2,0.3-2.3,1.1-3.2
				c0.8-0.9,1.9-1.6,3.3-2.1c1.5-0.5,3.2-0.8,5.3-0.8c1.7,0,3.2,0.1,4.6,0.5c1.4,0.4,2.5,1,3.4,1.8c0.9,0.8,1.5,1.8,1.9,2.9
				l-5.3,0.1c-0.2-0.5-0.5-1-1-1.3c-0.4-0.4-0.9-0.6-1.5-0.8c-0.6-0.2-1.3-0.3-2-0.3c-1,0-1.8,0.2-2.4,0.4s-1.2,0.6-1.5,1
				c-0.3,0.4-0.5,1-0.5,1.6l0.1,4.3c0,0.6,0.2,1.1,0.6,1.6c0.4,0.4,0.9,0.7,1.6,1c0.7,0.2,1.5,0.3,2.5,0.3c0.8,0,1.4-0.1,2-0.3
				c0.6-0.2,1.1-0.5,1.5-0.9c0.4-0.4,0.7-0.8,0.9-1.4l5.3-0.1c-0.3,1.2-0.9,2.2-1.8,3c-0.9,0.8-2,1.5-3.3,1.9
				c-1.3,0.5-2.9,0.7-4.6,0.7C383.7,92.5,381.9,92.3,380.4,91.9z"/>
			<path class="st1" d="M405.2,91.9l-5.3,0.1l-0.3-15.8l5.3-0.1L405.2,91.9z"/>
			<path class="st1" d="M418.3,75.9l3.3-0.1l10.8,15.6l-5.5,0.1L420,80.8l-6.3,10.9l-5.5,0.1L418.3,75.9z M413.1,86.4l14.3-0.3
				l0.1,2.9l-14.3,0.3L413.1,86.4z"/>
			<path class="st1" d="M435.3,75.5l5.1-0.1l0.3,15.8l-5.1,0.1L435.3,75.5z M437.9,88.4l16-0.3l0.1,2.9l-16,0.3L437.9,88.4z"/>
			<path class="st1" d="M467.7,74.8l5.1-0.1l0.3,15.8l-5.1,0.1L467.7,74.8z M470.5,87.7l6.5-0.1c1.7,0,3-0.3,3.9-0.8
				c0.9-0.5,1.4-1.2,1.3-2l-0.1-4.6c0-0.9-0.5-1.5-1.4-2c-0.9-0.5-2.2-0.7-3.9-0.6l-6.5,0.1l-0.1-2.9l6.4-0.1c2.3,0,4.2,0.1,5.8,0.5
				c1.6,0.4,2.9,1,3.7,1.9c0.9,0.8,1.3,1.8,1.3,3l0.1,4.5c0,1.1-0.4,2.1-1.1,3c-0.8,0.9-2,1.5-3.6,2c-1.6,0.5-3.6,0.8-5.9,0.8
				l-6.4,0.1L470.5,87.7z"/>
			<path class="st1" d="M498.1,90l-5.3,0.1l-0.3-15.8l5.3-0.1L498.1,90z"/>
			<path class="st1" d="M508.5,89.7c-1.2-0.1-2.4-0.3-3.5-0.6c-1.1-0.3-2.1-0.6-3-1l2.3-2.5c1.1,0.5,2.3,0.8,3.7,1.1
				c1.4,0.2,2.8,0.3,4.2,0.3c1.7,0,3-0.2,3.9-0.6c0.9-0.3,1.4-0.8,1.4-1.4v0c0-0.4-0.2-0.7-0.6-1c-0.4-0.2-1-0.4-1.6-0.5
				c-0.7-0.1-1.5-0.2-2.6-0.3c0,0-0.1,0-0.1,0c0,0-0.1,0-0.1,0l-0.4,0c-1.8-0.1-3.3-0.3-4.6-0.5c-1.2-0.2-2.2-0.6-3.1-1.2
				c-0.9-0.6-1.3-1.5-1.3-2.6v0c0-1,0.4-1.9,1.1-2.6c0.8-0.7,1.9-1.3,3.4-1.7c1.5-0.4,3.3-0.6,5.4-0.7c1,0,2,0,3,0.1
				c1,0.1,2,0.3,3,0.5c1,0.2,1.9,0.5,2.8,0.8l-2.1,2.6c-1.1-0.4-2.2-0.7-3.3-0.9c-1.1-0.2-2.2-0.3-3.3-0.3c-1.6,0-2.8,0.2-3.6,0.5
				c-0.9,0.3-1.3,0.7-1.3,1.3l0,0c0,0.5,0.2,0.8,0.7,1.1c0.5,0.3,1,0.4,1.7,0.5c0.7,0.1,1.6,0.2,2.8,0.3c0,0,0.1,0,0.2,0
				c0,0,0.1,0,0.2,0c0.1,0,0.1,0,0.2,0c0.1,0,0.1,0,0.2,0c1.7,0.2,3.2,0.4,4.3,0.6c1.2,0.3,2.1,0.7,2.9,1.3c0.8,0.6,1.2,1.4,1.2,2.5
				l0,0c0,1-0.4,1.9-1.2,2.6c-0.8,0.7-2,1.3-3.5,1.7c-1.5,0.4-3.4,0.6-5.6,0.7C511,89.9,509.8,89.8,508.5,89.7z"/>
			<path class="st1" d="M531.4,88.8c-1.5-0.4-2.6-1.1-3.4-1.9c-0.8-0.9-1.2-1.9-1.2-3.2l-0.1-4.3c0-1.2,0.3-2.3,1.1-3.2
				s1.9-1.6,3.3-2.1c1.5-0.5,3.2-0.8,5.3-0.8c1.7,0,3.2,0.1,4.6,0.5c1.4,0.4,2.5,1,3.4,1.8c0.9,0.8,1.5,1.8,1.9,2.9l-5.3,0.1
				c-0.2-0.5-0.5-1-1-1.3c-0.4-0.4-0.9-0.6-1.5-0.8c-0.6-0.2-1.3-0.3-2-0.3c-1,0-1.8,0.2-2.5,0.4c-0.7,0.2-1.2,0.6-1.5,1
				c-0.3,0.4-0.5,1-0.5,1.6l0.1,4.3c0,0.6,0.2,1.1,0.6,1.6c0.4,0.4,0.9,0.7,1.6,1c0.7,0.2,1.5,0.3,2.5,0.3c0.7,0,1.4-0.1,2-0.3
				c0.6-0.2,1.1-0.5,1.5-0.9c0.4-0.4,0.7-0.8,0.9-1.4l5.3-0.1c-0.3,1.2-0.9,2.2-1.8,3c-0.9,0.8-2,1.5-3.3,1.9
				c-1.3,0.5-2.9,0.7-4.6,0.7C534.7,89.4,532.9,89.2,531.4,88.8z"/>
			<path class="st1" d="M555.3,88.2c-1.5-0.5-2.7-1.1-3.5-2c-0.8-0.9-1.3-1.9-1.3-3l-0.1-4.5c0-1.2,0.4-2.2,1.2-3.1
				c0.8-0.9,2-1.6,3.5-2.1c1.5-0.5,3.2-0.8,5.2-0.8c2,0,3.7,0.2,5.2,0.6c1.5,0.4,2.7,1.1,3.5,2s1.3,1.9,1.3,3l0.1,4.5
				c0,1.2-0.4,2.2-1.2,3.1c-0.8,0.9-2,1.6-3.5,2.1c-1.5,0.5-3.2,0.8-5.2,0.8C558.6,88.9,556.9,88.7,555.3,88.2z M563,85.5
				c0.7-0.2,1.2-0.6,1.6-1c0.4-0.4,0.6-0.9,0.5-1.5l-0.1-4.6c0-0.5-0.2-1-0.6-1.4c-0.4-0.4-0.9-0.7-1.6-0.9
				c-0.7-0.2-1.5-0.3-2.4-0.3c-0.9,0-1.7,0.2-2.4,0.4s-1.2,0.6-1.6,1c-0.4,0.4-0.6,0.9-0.5,1.5l0.1,4.6c0,0.5,0.2,1,0.6,1.4
				c0.4,0.4,0.9,0.7,1.6,0.9c0.7,0.2,1.5,0.3,2.4,0.3C561.4,85.8,562.3,85.7,563,85.5z"/>
			<path class="st1" d="M580.1,87.7c-1.5-0.4-2.6-1.1-3.4-1.9c-0.8-0.9-1.2-1.9-1.2-3.1l-0.2-10.1l5.1-0.1l0.2,10.1
				c0,0.9,0.5,1.6,1.3,2.1s2,0.7,3.6,0.7c1.5,0,2.7-0.3,3.6-0.8c0.8-0.5,1.2-1.2,1.2-2.1l-0.2-10.1l5.1-0.1l0.2,10.1
				c0,1.2-0.3,2.3-1.1,3.2c-0.8,0.9-1.9,1.6-3.4,2.1c-1.5,0.5-3.3,0.8-5.4,0.8C583.4,88.4,581.6,88.2,580.1,87.7z"/>
			<path class="st1" d="M600.8,72.1l6.3-0.1l10.4,11.9l-0.4,0.3l-0.3-12.4l4.9-0.1l0.3,15.8l-6.3,0.1l-10.4-11.7l0.4-0.3l0.3,12.2
				l-4.9,0.1L600.8,72.1z"/>
			<path class="st1" d="M624,71.6l20-0.4L644,74l-20,0.4L624,71.6z M631.4,72.7l5.1-0.1l0.3,14.5l-5.1,0.1L631.4,72.7z"/>
			<path class="st1" d="M645.8,71.1L651,71l0.2,11.1l-5.1,0.1L645.8,71.1z M646.1,83.9l5.1-0.1l0.1,3l-5.1,0.1L646.1,83.9z"/>
			<path class="st1" d="M336.1,138.2c-2.6-0.7-4.5-1.8-5.9-3.3s-2.1-3.3-2.1-5.4l-0.4-17.3l8.8-0.2l0.4,17.4c0,1.5,0.8,2.7,2.2,3.6
				c1.5,0.8,3.5,1.2,6.1,1.2c2.6-0.1,4.7-0.5,6.1-1.4c1.4-0.9,2.1-2.1,2.1-3.7l-0.4-17.4l8.8-0.2l0.4,17.3c0,2.1-0.6,3.9-1.9,5.5
				c-1.3,1.5-3.2,2.7-5.8,3.6c-2.5,0.8-5.6,1.3-9.2,1.4C341.8,139.2,338.7,138.9,336.1,138.2z"/>
			<path class="st1" d="M371.5,111.3l8.8-0.2l0.6,27l-8.8,0.2L371.5,111.3z M375.8,122.8l15-0.3c1.1,0,2-0.2,2.8-0.5
				c0.8-0.3,1.4-0.7,1.9-1.2c0.4-0.5,0.7-1.1,0.6-1.8c0-0.7-0.2-1.3-0.7-1.8c-0.5-0.5-1.1-0.9-1.9-1.2c-0.8-0.3-1.8-0.4-2.8-0.4
				l-15,0.3l-0.1-4.9l14.7-0.3c2.9-0.1,5.5,0.2,7.7,0.9c2.2,0.6,4,1.6,5.2,2.8c1.2,1.2,1.9,2.7,1.9,4.3c0,1.6-0.5,3.1-1.7,4.4
				c-1.2,1.3-2.9,2.3-5.1,3c-2.2,0.7-4.8,1.1-7.7,1.2l-14.7,0.3L375.8,122.8z"/>
			<path class="st1" d="M423.8,110.2l34.3-0.7l0.1,4.9l-34.3,0.7L423.8,110.2z M436.6,112.1l8.8-0.2l0.5,24.8l-8.8,0.2L436.6,112.1z
				"/>
			<path class="st1" d="M469.6,135.3c-2.6-0.8-4.6-1.9-6.1-3.4c-1.4-1.5-2.2-3.2-2.2-5.2l-0.2-7.7c0-2,0.6-3.7,2-5.3
				c1.4-1.5,3.4-2.7,5.9-3.6c2.6-0.9,5.5-1.4,8.9-1.4c3.4-0.1,6.4,0.3,9,1c2.6,0.8,4.6,1.9,6.1,3.4c1.4,1.5,2.2,3.2,2.2,5.2l0.2,7.7
				c0,2-0.6,3.7-2,5.3c-1.4,1.5-3.4,2.7-5.9,3.6c-2.6,0.9-5.5,1.4-8.9,1.4C475.2,136.5,472.2,136.1,469.6,135.3z M482.7,130.6
				c1.2-0.4,2.1-1,2.7-1.7c0.6-0.7,0.9-1.6,0.9-2.5l-0.2-7.9c0-0.9-0.4-1.8-1-2.5c-0.7-0.7-1.6-1.2-2.8-1.6
				c-1.2-0.4-2.6-0.5-4.2-0.5c-1.6,0-3,0.3-4.2,0.7c-1.2,0.4-2.1,1-2.7,1.7c-0.6,0.7-0.9,1.6-0.9,2.5l0.2,7.9c0,0.9,0.4,1.8,1,2.5
				c0.7,0.7,1.6,1.2,2.8,1.6c1.2,0.4,2.6,0.5,4.2,0.5C480.1,131.3,481.5,131,482.7,130.6z"/>
			<path class="st1" d="M528.6,134.4c-2-0.6-3.6-1.5-4.9-2.7c-1.2-1.2-2-2.6-2.2-4.3v0l8.8-0.2v0c0.2,1,0.7,1.7,1.6,2.3
				s2,0.8,3.5,0.8c1.5,0,2.7-0.3,3.6-0.9c0.8-0.6,1.2-1.4,1.2-2.5l0-2.3c0-1.1-0.4-1.9-1.2-2.4c-0.8-0.6-1.8-0.8-3.2-0.8
				c-1.3,0-2.3,0.2-3.2,0.6c-0.9,0.4-1.5,0.9-1.8,1.6l-8.2,0.2l-0.3-15.5l25.1-0.5l0.1,4.9l-16.3,0.3l0.1,4.8
				c0.7-0.4,1.6-0.7,2.7-0.9c1.1-0.2,2.3-0.4,3.4-0.4c2.4-0.1,4.5,0.2,6.2,0.8c1.7,0.6,3.1,1.5,4,2.7c0.9,1.2,1.4,2.7,1.4,4.5l0,2.3
				c0,1.7-0.5,3.3-1.5,4.5s-2.6,2.2-4.7,2.9c-2,0.7-4.5,1.1-7.4,1.1C532.9,135.2,530.6,135,528.6,134.4z"/>
			<path class="st1" d="M561.1,132.6c-2.4-1.3-3.6-3.2-3.7-5.6l-0.3-12.3c-0.1-2.4,1.1-4.3,3.5-5.7c2.4-1.4,5.8-2.1,10.4-2.2
				c4.6-0.1,8.1,0.5,10.5,1.8c2.4,1.3,3.6,3.2,3.7,5.6l0.3,12.3c0,2.4-1.1,4.3-3.5,5.7c-2.4,1.4-5.8,2.1-10.4,2.2
				C567,134.5,563.5,133.9,561.1,132.6z M575.3,128.4c0.8-0.7,1.2-1.7,1.2-3l-0.2-9.7c0-1.3-0.5-2.3-1.3-3c-0.9-0.7-2.2-1-3.9-1
				c-1.8,0-3.1,0.4-3.9,1.1c-0.8,0.7-1.2,1.7-1.2,3l0.2,9.7c0,1.3,0.5,2.3,1.3,3c0.9,0.7,2.2,1,3.9,1
				C573.2,129.5,574.5,129.1,575.3,128.4z"/>
			<path class="st1" d="M594.1,117c-1.5-0.8-2.2-2-2.3-3.5l0-2.3c0-1.5,0.7-2.7,2.1-3.6c1.5-0.9,3.5-1.3,6.2-1.4
				c2.7-0.1,4.8,0.3,6.3,1.1c1.5,0.8,2.2,2,2.3,3.5l0,2.3c0,1.5-0.7,2.7-2.1,3.6c-1.5,0.9-3.5,1.3-6.2,1.4
				C597.7,118.2,595.6,117.8,594.1,117z M620.3,106.1l8-0.2l-23.9,27.5l-8,0.2L620.3,106.1z M601.4,113.9c0.2-0.2,0.4-0.5,0.4-0.8
				l0-2c0-0.3-0.1-0.6-0.4-0.7c-0.3-0.2-0.6-0.3-1.1-0.2c-0.5,0-0.8,0.1-1.1,0.3c-0.2,0.2-0.4,0.5-0.4,0.8l0,2
				c0,0.4,0.1,0.6,0.4,0.8c0.3,0.2,0.6,0.3,1.1,0.2C600.8,114.2,601.1,114.1,601.4,113.9z M617.7,132.2c-1.5-0.8-2.2-2-2.3-3.5
				l0-2.3c0-1.5,0.7-2.7,2.1-3.6c1.5-0.9,3.5-1.3,6.2-1.4c2.7-0.1,4.8,0.3,6.3,1.1c1.5,0.8,2.2,2,2.3,3.5l0,2.3
				c0,1.5-0.7,2.7-2.1,3.6c-1.5,0.9-3.5,1.3-6.2,1.4C621.3,133.4,619.2,133,617.7,132.2z M624.9,129.2c0.2-0.2,0.4-0.5,0.4-0.8l0-2
				c0-0.3-0.1-0.6-0.4-0.7c-0.3-0.2-0.6-0.3-1.1-0.2c-0.5,0-0.8,0.1-1.1,0.3c-0.2,0.2-0.4,0.5-0.4,0.8l0,2c0,0.4,0.1,0.6,0.4,0.8
				s0.6,0.3,1.1,0.2S624.7,129.4,624.9,129.2z"/>
		</g>
	</g>
	<g>
		<g>
			<path class="st2" d="M135.6,110.7c-0.8-0.2-1.6-0.4-2.4-0.7c-0.8-0.3-1.4-0.7-2-1.2l1.6-2.9c0.7,0.6,1.6,1,2.5,1.3
				c0.9,0.3,1.9,0.4,2.9,0.4c1.1,0,2-0.2,2.6-0.6c0.6-0.4,0.9-1,0.9-1.7v0c0-0.5-0.2-0.9-0.4-1.2c-0.3-0.3-0.7-0.5-1.1-0.6
				c-0.5-0.1-1-0.2-1.7-0.3c0,0,0,0-0.1,0s0,0-0.1,0l-0.3,0c-1.2-0.2-2.3-0.4-3.1-0.7c-0.8-0.3-1.5-0.8-2.1-1.5
				c-0.6-0.7-0.9-1.8-0.9-3.1v0c0-1.2,0.2-2.2,0.7-3.1c0.5-0.9,1.3-1.5,2.3-2c1-0.5,2.2-0.7,3.7-0.7c0.7,0,1.3,0,2,0.2
				c0.7,0.1,1.4,0.3,2,0.6c0.7,0.3,1.3,0.6,1.9,1l-1.4,3c-0.7-0.5-1.5-0.8-2.3-1.1c-0.8-0.3-1.5-0.4-2.2-0.4c-1.1,0-1.9,0.2-2.5,0.6
				c-0.6,0.4-0.9,0.9-0.8,1.5v0c0,0.5,0.2,1,0.5,1.3c0.3,0.3,0.7,0.5,1.1,0.7s1.1,0.3,1.9,0.4c0,0,0.1,0,0.1,0c0,0,0.1,0,0.1,0
				c0.1,0,0.1,0,0.1,0c0,0,0.1,0,0.1,0c1.2,0.2,2.2,0.5,3,0.8c0.8,0.3,1.5,0.8,2,1.5s0.8,1.7,0.9,3l0,0c0,1.2-0.2,2.2-0.8,3
				c-0.5,0.9-1.3,1.5-2.4,2c-1,0.5-2.3,0.7-3.8,0.7C137.3,110.9,136.4,110.8,135.6,110.7z"/>
			<path class="st2" d="M145.4,92l13.6-0.3l0.1,3.4l-13.6,0.3L145.4,92z M150.5,93.4l3.5-0.1l0.4,17l-3.5,0.1L150.5,93.4z"/>
			<path class="st2" d="M165.8,91.6l2.2,0l7.5,18.4l-3.8,0.1l-4.7-12.5l-4.2,12.7l-3.8,0.1L165.8,91.6z M162.4,103.9l9.7-0.2
				l0.1,3.4l-9.7,0.2L162.4,103.9z"/>
			<path class="st2" d="M183.9,102.6l0.1,7.1l-3.5,0.1l-0.1-7.1l-5.7-11.2l3.7-0.1l3.7,7.9l3.4-8l3.7-0.1L183.9,102.6z"/>
			<path class="st2" d="M197.5,90.9l3.5-0.1l0.4,18.5l-3.5,0.1L197.5,90.9z M199.3,98.6l10.8-0.2l0.1,3.4l-10.8,0.2L199.3,98.6z
				 M207.6,90.7l3.5-0.1l0.4,18.5l-3.5,0.1L207.6,90.7z"/>
			<path class="st2" d="M218.4,108.4c-1-0.5-1.8-1.3-2.4-2.3c-0.6-1-0.9-2.2-0.9-3.6l-0.1-5.2c0-1.4,0.2-2.6,0.8-3.6
				c0.5-1,1.3-1.9,2.3-2.4s2.2-0.9,3.5-0.9c1.3,0,2.5,0.2,3.6,0.8s1.8,1.3,2.4,2.3c0.6,1,0.9,2.2,0.9,3.6l0.1,5.2
				c0,1.4-0.2,2.6-0.8,3.6c-0.5,1-1.3,1.9-2.3,2.4c-1,0.6-2.2,0.9-3.5,0.9C220.6,109.2,219.4,108.9,218.4,108.4z M223.5,105.2
				c0.5-0.3,0.8-0.7,1.1-1.2c0.2-0.5,0.4-1.1,0.4-1.7l-0.1-5.4c0-0.6-0.2-1.2-0.4-1.7c-0.3-0.5-0.6-0.9-1.1-1.1
				c-0.5-0.3-1-0.4-1.7-0.4c-0.6,0-1.2,0.2-1.6,0.4c-0.5,0.3-0.8,0.7-1.1,1.2s-0.4,1.1-0.4,1.7l0.1,5.4c0,0.6,0.2,1.2,0.4,1.7
				s0.6,0.9,1.1,1.1c0.5,0.3,1,0.4,1.7,0.4C222.5,105.6,223.1,105.5,223.5,105.2z"/>
			<path class="st2" d="M243.7,90l4.6-0.1l0.4,18.5l-3.2,0.1l-0.3-14.4l0.1,0.8l-3.3,11.6l-3.1,0.1l-3.8-11.2l0.1-1.1l0.3,14.4
				l-3.2,0.1L232,90.2l4.6-0.1l3.8,12.4L243.7,90z"/>
			<path class="st2" d="M252.3,89.8l3.5-0.1l0.4,18.5l-3.5,0.1L252.3,89.8z M253.6,89.8l11.1-0.2l0.1,3.4l-11.1,0.2L253.6,89.8z
				 M253.7,97.4l9.7-0.2l0.1,3.4l-9.7,0.2L253.7,97.4z M253.9,104.9l11.1-0.2l0.1,3.4l-11.1,0.2L253.9,104.9z"/>
			<path class="st2" d="M157,123.1l3.5-0.1l0.4,18.5l-3.5,0.1L157,123.1z M158.7,131l5.9-0.1c0.4,0,0.8-0.1,1.1-0.3
				c0.3-0.2,0.6-0.5,0.7-0.8s0.3-0.8,0.2-1.2c0-0.5-0.1-0.9-0.3-1.2c-0.2-0.3-0.4-0.6-0.8-0.8c-0.3-0.2-0.7-0.3-1.1-0.3l-5.9,0.1
				l-0.1-3.4l5.8-0.1c1.2,0,2.2,0.2,3.1,0.6c0.9,0.5,1.6,1.1,2.1,1.9c0.5,0.8,0.8,1.8,0.8,3c0,1.1-0.2,2.1-0.7,3
				c-0.5,0.9-1.1,1.5-2,2c-0.9,0.5-1.9,0.7-3,0.8l-5.8,0.1L158.7,131z"/>
			<path class="st2" d="M173.2,122.7l3.5-0.1l0.4,18.5l-3.5,0.1L173.2,122.7z M174.8,130.4l6.4-0.1c0.4,0,0.7-0.1,0.9-0.3
				c0.3-0.2,0.5-0.4,0.6-0.8s0.2-0.7,0.2-1.1c0-0.4-0.1-0.8-0.2-1.1s-0.4-0.6-0.6-0.8c-0.3-0.2-0.6-0.3-1-0.2l-6.4,0.1l-0.1-3.4
				l6.7-0.1c1,0,1.9,0.2,2.7,0.6c0.8,0.4,1.4,1.1,1.8,1.9c0.4,0.8,0.7,1.8,0.7,2.9s-0.2,2.1-0.6,2.9c-0.4,0.8-1,1.5-1.8,2
				s-1.7,0.7-2.7,0.7l-6.7,0.1L174.8,130.4z M178.7,133.1l3.7-0.7l5.2,8.5l-4.2,0.1L178.7,133.1z"/>
			<path class="st2" d="M193.4,140.2c-1-0.5-1.8-1.3-2.4-2.3c-0.6-1-0.9-2.2-0.9-3.6L190,129c0-1.4,0.2-2.6,0.8-3.6
				c0.5-1,1.3-1.9,2.3-2.4c1-0.6,2.2-0.9,3.5-0.9c1.3,0,2.5,0.2,3.6,0.8c1,0.5,1.8,1.3,2.4,2.3c0.6,1,0.9,2.2,0.9,3.6l0.1,5.2
				c0,1.4-0.2,2.6-0.8,3.6c-0.5,1-1.3,1.9-2.3,2.4c-1,0.6-2.2,0.9-3.5,0.9C195.6,141,194.4,140.7,193.4,140.2z M198.5,137
				c0.5-0.3,0.8-0.7,1.1-1.2c0.2-0.5,0.4-1.1,0.4-1.7l-0.1-5.4c0-0.6-0.2-1.2-0.4-1.7c-0.3-0.5-0.6-0.9-1.1-1.1
				c-0.5-0.3-1-0.4-1.7-0.4c-0.6,0-1.2,0.2-1.6,0.4c-0.5,0.3-0.8,0.7-1.1,1.2c-0.2,0.5-0.4,1.1-0.4,1.7l0.1,5.4
				c0,0.6,0.2,1.2,0.4,1.7c0.3,0.5,0.6,0.9,1.1,1.1c0.5,0.3,1,0.4,1.7,0.4C197.5,137.4,198.1,137.3,198.5,137z"/>
			<path class="st2" d="M218.7,121.8l4.6-0.1l0.4,18.5l-3.2,0.1l-0.3-14.4l0.1,0.8l-3.3,11.6l-3.1,0.1l-3.8-11.2l0.1-1.1l0.3,14.4
				l-3.2,0.1L207,122l4.6-0.1l3.8,12.4L218.7,121.8z"/>
			<path class="st2" d="M230.5,139.4c-1-0.5-1.8-1.3-2.4-2.3c-0.6-1-0.9-2.2-0.9-3.6l-0.1-5.2c0-1.4,0.2-2.6,0.8-3.6
				c0.5-1,1.3-1.9,2.3-2.4c1-0.6,2.2-0.9,3.5-0.9c1.3,0,2.5,0.2,3.6,0.8c1,0.5,1.8,1.3,2.4,2.3c0.6,1,0.9,2.2,0.9,3.6l0.1,5.2
				c0,1.4-0.2,2.6-0.8,3.6c-0.5,1-1.3,1.9-2.3,2.4c-1,0.6-2.2,0.9-3.5,0.9C232.7,140.2,231.6,139.9,230.5,139.4z M235.7,136.2
				c0.5-0.3,0.8-0.7,1.1-1.2c0.2-0.5,0.4-1.1,0.4-1.7l-0.1-5.4c0-0.6-0.2-1.2-0.4-1.7c-0.3-0.5-0.6-0.9-1.1-1.1
				c-0.5-0.3-1-0.4-1.7-0.4c-0.6,0-1.2,0.2-1.6,0.4c-0.5,0.3-0.8,0.7-1.1,1.2c-0.2,0.5-0.4,1.1-0.4,1.7l0.1,5.4
				c0,0.6,0.2,1.2,0.4,1.7c0.3,0.5,0.6,0.9,1.1,1.1c0.5,0.3,1,0.4,1.7,0.4C234.6,136.7,235.2,136.5,235.7,136.2z"/>
		</g>
	</g>
	<g>
		<path class="st5" d="M24.9,35.1c0,1.7-0.3,3.4-0.8,5c-0.5,1.5-1.2,2.9-2.2,4.1c-0.9,1.1-2,2.1-3.3,2.7c-2.5,1.3-5.4,1.3-7.9,0
			c-1.3-0.7-2.4-1.6-3.3-2.7c-1-1.2-1.7-2.6-2.2-4.1c-0.5-1.6-0.8-3.3-0.8-5c0-1.7,0.3-3.4,0.8-5c0.5-1.5,1.2-2.9,2.2-4.1
			c0.9-1.1,2-2,3.3-2.7c2.5-1.3,5.4-1.3,7.9,0c1.3,0.7,2.4,1.6,3.3,2.7c1,1.2,1.7,2.6,2.2,4.1C24.6,31.7,24.9,33.4,24.9,35.1z
			 M21.1,35.1c0-1.1-0.2-2.2-0.5-3.2c-0.3-0.9-0.8-1.8-1.4-2.6c-0.6-0.7-1.3-1.3-2.1-1.8c-1.6-0.9-3.5-0.9-5.1,0
			c-0.8,0.5-1.5,1.1-2.1,1.8C9.5,30.1,9,31,8.7,31.9C8,34,8,36.2,8.7,38.3c0.3,1,0.8,1.9,1.4,2.6c0.6,0.7,1.3,1.3,2.1,1.8
			c1.6,0.9,3.5,0.9,5.1,0c0.8-0.5,1.5-1.1,2.1-1.8c0.6-0.8,1.1-1.7,1.4-2.6C21,37.3,21.2,36.2,21.1,35.1z"/>
		<path class="st5" d="M40.2,47.6h-3.6V36.9c0-0.6-0.1-1.1-0.2-1.7c-0.1-0.4-0.3-0.8-0.6-1.2c-0.2-0.3-0.5-0.5-0.9-0.7
			c-0.3-0.2-0.7-0.2-1-0.2c-0.5,0-1.1,0.1-1.5,0.4c-0.5,0.3-1,0.7-1.4,1.1v13h-3.6V29.5h3.5l0,1.3c0.2-0.3,0.5-0.5,0.8-0.8
			c0.3-0.2,0.6-0.4,1-0.6c0.3-0.2,0.6-0.3,1-0.4c0.3-0.1,0.7-0.1,1-0.1c0.7,0,1.4,0.1,2.1,0.4c0.7,0.3,1.3,0.8,1.8,1.3
			c0.6,0.7,1,1.5,1.2,2.4c0.3,1.1,0.5,2.3,0.5,3.4L40.2,47.6z"/>
		<path class="st5" d="M48.6,47.4c-0.3,0.2-0.6,0.3-0.9,0.4C47.3,48,46.9,48,46.5,48c-0.5,0-1-0.1-1.5-0.3c-0.5-0.2-0.9-0.5-1.3-0.9
			c-0.4-0.4-0.7-1-0.9-1.5c-0.2-0.7-0.3-1.5-0.3-2.3V21.9h3.6v20.5c0,0.7,0.1,1.3,0.4,1.5c0.2,0.3,0.5,0.4,0.9,0.4
			c0.4,0,0.9-0.2,1.2-0.5V47.4z"/>
		<path class="st5" d="M53.8,26.7h-3.6v-4.8h3.6V26.7z M53.8,47.6h-3.6V29.5h3.6V47.6z"/>
		<path class="st5" d="M69.9,47.6h-3.6V36.9c0-0.6-0.1-1.1-0.2-1.7c-0.1-0.4-0.3-0.8-0.6-1.2c-0.2-0.3-0.5-0.5-0.9-0.7
			c-0.3-0.2-0.7-0.2-1-0.2c-0.5,0-1.1,0.1-1.5,0.4c-0.5,0.3-1,0.7-1.4,1.1v13H57V29.5h3.5l0,1.3c0.2-0.3,0.5-0.5,0.8-0.8
			c0.3-0.2,0.6-0.4,1-0.6c0.3-0.2,0.7-0.3,1-0.4c0.3-0.1,0.7-0.1,1-0.1c0.7,0,1.4,0.1,2.1,0.4c0.7,0.3,1.3,0.8,1.8,1.3
			c0.6,0.7,1,1.5,1.2,2.3c0.3,1.1,0.5,2.3,0.5,3.4L69.9,47.6z"/>
		<path class="st5" d="M86.8,38.5c0,0.3,0,0.6,0,0.9c0,0.3-0.1,0.6-0.1,1H75.5c0.1,0.5,0.3,1,0.5,1.5c0.2,0.4,0.5,0.9,0.9,1.2
			c0.3,0.3,0.7,0.6,1.1,0.8c0.4,0.2,0.9,0.3,1.4,0.3c0.6,0,1.3-0.1,1.9-0.4c0.6-0.3,1.1-0.6,1.6-1.1l2.2,2.8c-0.8,0.8-1.8,1.5-2.8,2
			c-0.9,0.4-1.9,0.6-2.9,0.6c-1,0-2-0.3-2.9-0.7c-0.9-0.5-1.7-1.2-2.4-2c-0.7-0.9-1.2-1.9-1.6-3c-0.8-2.4-0.8-4.9,0-7.3
			c0.4-1.1,0.9-2.1,1.6-3c0.5-0.7,1.2-1.2,1.9-1.7c0.9-0.6,2-1,3.2-1c1,0,2.1,0.2,3,0.7c0.9,0.5,1.7,1.1,2.4,1.9
			c0.7,0.9,1.3,1.9,1.6,3C86.6,35.9,86.8,37.2,86.8,38.5z M83.1,36.7c-0.2-1-0.7-2-1.5-2.7c-0.6-0.7-1.5-1-2.4-1
			c-0.9,0-1.7,0.4-2.3,1c-0.7,0.8-1.2,1.7-1.4,2.7H83.1z"/>
		<path class="st5" d="M114.9,43c-0.5,0.8-1.1,1.6-1.8,2.2c-0.6,0.6-1.3,1.1-2,1.6c-0.7,0.4-1.4,0.7-2.2,0.9
			c-0.7,0.2-1.5,0.3-2.2,0.3c-1.4,0-2.8-0.3-4.1-1c-1.3-0.7-2.4-1.6-3.3-2.7c-1-1.2-1.7-2.6-2.2-4.1c-0.6-1.6-0.8-3.3-0.8-5.1
			c0-1.7,0.3-3.4,0.8-5c0.5-1.5,1.3-2.9,2.2-4.1c0.9-1.1,2-2.1,3.3-2.7c1.2-0.7,2.6-1,4-1c1.6,0,3.2,0.4,4.5,1.3
			c1.4,0.9,2.6,2.1,3.5,3.5l-2.5,3.3c-0.6-1.1-1.4-2-2.4-2.7c-1.1-0.7-2.4-0.9-3.6-0.8c-0.5,0-0.9,0.2-1.4,0.3
			c-1.1,0.4-2,1.2-2.7,2.1c-0.6,0.8-1.1,1.7-1.4,2.6c-0.4,1-0.5,2.1-0.5,3.2c0,1.1,0.2,2.2,0.5,3.2c0.3,1,0.8,1.8,1.4,2.6
			c0.6,0.8,1.4,1.5,2.3,1.9c1.5,0.7,3.3,0.7,4.8-0.1c0.8-0.4,1.5-1,2.1-1.6v-2.5h-4v-4h7.6V43z"/>
		<path class="st5" d="M120.9,26.7h-3.6v-4.8h3.6V26.7z M120.9,47.6h-3.6V29.5h3.6V47.6z"/>
		<path class="st5" d="M131.7,25.9c-0.3-0.1-0.6-0.3-0.9-0.3c-0.3-0.1-0.6-0.1-0.9-0.1c-0.5-0.1-1.1,0.2-1.4,0.6
			c-0.3,0.4-0.4,1.1-0.4,2.1v1.3h2v4h-2v14.1h-3.6V33.5h-1.6v-4h1.6v-1.4c0-2.2,0.3-4,1-5.1c0.7-1.2,1.8-1.8,3.5-1.8
			c0.9,0,1.8,0.1,2.7,0.4V25.9z"/>
		<path class="st5" d="M140.6,47c-0.4,0.3-0.8,0.5-1.2,0.7c-0.4,0.1-0.9,0.2-1.4,0.2c-0.7,0-1.4-0.1-2-0.4c-0.5-0.3-1-0.7-1.3-1.2
			c-0.4-0.6-0.6-1.3-0.7-2c-0.2-1-0.2-1.9-0.2-2.9v-7.8h-2v-2c1.1-0.6,2.1-1.5,2.7-2.7c0.8-1.4,1.2-3,1.4-4.6h1.1v5.2h3.6v4H137v8.1
			c0,0.4,0,0.8,0.1,1.1c0.1,0.2,0.2,0.5,0.4,0.7c0.1,0.2,0.3,0.3,0.5,0.3c0.2,0.1,0.4,0.1,0.6,0.1c0.3,0,0.7-0.1,1-0.2
			c0.4-0.1,0.7-0.3,1-0.6L140.6,47z"/>
		<path class="st5" d="M146.2,26.7h-3.6v-4.8h3.6V26.7z M146.2,47.6h-3.6V29.5h3.6V47.6z"/>
		<path class="st5" d="M162.3,47.6h-3.6V36.9c0-0.6-0.1-1.1-0.2-1.7c-0.1-0.4-0.3-0.8-0.6-1.2c-0.2-0.3-0.5-0.5-0.9-0.7
			c-0.3-0.2-0.7-0.2-1-0.2c-0.5,0-1.1,0.1-1.5,0.4c-0.5,0.3-1,0.7-1.4,1.1v13h-3.6V29.5h3.5l0,1.3c0.2-0.3,0.5-0.5,0.8-0.8
			c0.3-0.2,0.6-0.4,1-0.6c0.3-0.2,0.7-0.3,1-0.4c0.3-0.1,0.7-0.1,1-0.1c0.7,0,1.4,0.1,2.1,0.4c0.7,0.3,1.3,0.8,1.8,1.3
			c0.6,0.7,1,1.5,1.2,2.3c0.3,1.1,0.5,2.3,0.5,3.4L162.3,47.6z"/>
		<path class="st5" d="M177.5,33.1H176c0.4,1,0.6,2,0.6,3c0,0.8-0.1,1.6-0.4,2.4c-0.2,0.8-0.6,1.5-1,2.1c-0.4,0.6-1,1.2-1.6,1.6
			c-0.6,0.4-1.4,0.7-2.1,0.9c-0.4,0.1-0.8,0.2-1.2,0.5c-0.2,0.2-0.4,0.4-0.4,0.7c0,0.3,0.2,0.5,0.4,0.6c0.4,0.2,0.8,0.4,1.2,0.4
			c1.8,0.2,3.3,0.8,4.3,1.8c1,1,1.6,2.4,1.5,3.9c0,0.8-0.2,1.6-0.5,2.3c-0.3,0.7-0.8,1.3-1.3,1.8c-0.6,0.5-1.3,0.9-2.1,1.2
			c-0.9,0.3-1.8,0.4-2.8,0.4c-1,0-1.9-0.1-2.8-0.4c-0.8-0.2-1.5-0.6-2.1-1.2c-0.6-0.5-1-1.1-1.4-1.8c-0.7-1.8-0.6-3.8,0.4-5.5
			c0.7-0.9,1.7-1.6,2.8-1.9c-0.4-0.2-0.7-0.4-0.9-0.8c-0.2-0.3-0.2-0.7-0.2-1c0-0.3,0.1-0.7,0.3-1c0.2-0.3,0.5-0.6,0.9-0.7
			c-0.5-0.3-0.9-0.6-1.2-1c-0.4-0.4-0.8-0.9-1.1-1.4c-0.3-0.6-0.6-1.2-0.7-1.8c-0.2-0.7-0.3-1.4-0.3-2.1c0-1,0.2-1.9,0.5-2.8
			c0.3-0.8,0.8-1.6,1.3-2.3c0.5-0.6,1.2-1.1,2-1.5c0.7-0.4,1.5-0.6,2.3-0.6c0.8,0,1.5,0.2,2.2,0.5h4.9L177.5,33.1z M173.8,50.6
			c0-0.6-0.3-1.3-0.9-1.6c-0.7-0.4-1.4-0.5-2.2-0.5c-0.8,0-1.6,0.1-2.3,0.5c-0.9,0.6-1.1,1.7-0.5,2.6c0.1,0.2,0.3,0.4,0.5,0.5
			c0.7,0.4,1.5,0.6,2.2,0.5c0.8,0,1.5-0.1,2.2-0.5C173.5,51.8,173.9,51.2,173.8,50.6z M173.2,36.1c0-0.4-0.1-0.9-0.2-1.3
			c-0.1-0.4-0.3-0.7-0.6-1c-0.2-0.3-0.5-0.5-0.8-0.7c-0.3-0.2-0.6-0.3-1-0.3c-0.3,0-0.7,0.1-1,0.3c-0.3,0.2-0.6,0.4-0.8,0.7
			c-0.2,0.3-0.4,0.7-0.6,1c-0.1,0.4-0.2,0.8-0.2,1.3c0,0.4,0.1,0.9,0.2,1.3c0.1,0.4,0.3,0.7,0.6,1.1c0.2,0.3,0.5,0.5,0.8,0.7
			c0.3,0.2,0.6,0.3,1,0.3c0.3,0,0.7-0.1,1-0.3c0.3-0.2,0.6-0.4,0.8-0.7c0.2-0.3,0.4-0.7,0.6-1.1C173.1,37,173.2,36.5,173.2,36.1
			L173.2,36.1z"/>
	</g>
</g>
</svg>
