<?xml version="1.0" encoding="utf-8"?>
<!-- Generator: Adobe Illustrator 24.2.0, SVG Export Plug-In . SVG Version: 6.00 Build 0)  -->
<svg version="1.1" xmlns="http://www.w3.org/2000/svg" xmlns:xlink="http://www.w3.org/1999/xlink" x="0px" y="0px"
	 viewBox="0 0 1000 257" style="enable-background:new 0 0 1000 257;" xml:space="preserve">
<style type="text/css">
	.st0{fill:#F89938;}
	.st1{fill:#E6E6E5;}
	.st2{fill:#FFFFFF;}
	.st3{fill:#F9B7B8;}
	.st4{fill:#CCCCCC;}
	.st5{fill:#302E41;}
	.st6{fill:#34679A;}
	.st7{fill:#74CBC8;}
	.st8{fill:#497CA7;}
	.st9{opacity:0.2;}
	.st10{fill:#2F3090;}
	.st11{fill:#363896;}
	.st12{fill:#010101;}
	.st13{opacity:0.2;fill:#010101;enable-background:new    ;}
	.st14{fill:#EE3E96;}
	.st15{fill:#F8993A;}
	.st16{fill:none;stroke:#FFFFFF;stroke-width:2;stroke-miterlimit:10;}
	.st17{fill:#33669A;}
	.st18{fill:#EE3C96;}
	.st19{fill:#CCCCCB;}
	.st20{fill:#FFFFFF;stroke:#000000;stroke-miterlimit:10;}
</style>
<g id="Layer_5">
	<rect class="st0" width="1000" height="257"/>
	<g>
		<g>
			<path class="st1" d="M884.6,132.1h-0.7v-19.5c0-6.2-5-11.3-11.3-11.3l0,0h-41.3c-6.2,0-11.3,5-11.3,11.3v106.9
				c0,6.2,5,11.3,11.3,11.3h41.3c6.2,0,11.3-5,11.3-11.3V146h0.7V132.1z"/>
			<path class="st2" d="M881.5,112.7v106.7c0,4.7-3.8,8.4-8.4,8.4h-41.5c-4.7,0-8.4-3.8-8.4-8.4V112.7c0-4.7,3.8-8.4,8.4-8.4h5
				c-0.8,2,0.2,4.4,2.2,5.2c0.5,0.2,1,0.3,1.5,0.3H864c2.2,0,4-1.8,4-4c0-0.5-0.1-1-0.3-1.5h5.4
				C877.7,104.3,881.5,108.1,881.5,112.7z"/>
			<path class="st2" d="M840.9,133.6h-6.4c-1.1,0-2-0.9-2-2v-6.4c0-1.1,0.9-2,2-2h6.4c1.1,0,2,0.9,2,2v6.4
				C842.9,132.7,842,133.6,840.9,133.6z"/>
			<path class="st2" d="M855.5,133.6h-6.4c-1.1,0-2-0.9-2-2v-6.4c0-1.1,0.9-2,2-2h6.4c1.1,0,2,0.9,2,2v6.4
				C857.5,132.7,856.6,133.6,855.5,133.6z"/>
			<path class="st1" d="M870.2,133.6h-6.4c-1.1,0-2-0.9-2-2v-6.4c0-1.1,0.9-2,2-2h6.4c1.1,0,2,0.9,2,2v6.4
				C872.1,132.7,871.2,133.6,870.2,133.6z"/>
			<path class="st1" d="M840.9,149.9h-6.4c-1.1,0-2-0.9-2-2v-6.4c0-1.1,0.9-2,2-2h6.4c1.1,0,2,0.9,2,2v6.4
				C842.9,149,842,149.9,840.9,149.9z"/>
			<path class="st1" d="M855.5,149.9h-6.4c-1.1,0-2-0.9-2-2v-6.4c0-1.1,0.9-2,2-2h6.4c1.1,0,2,0.9,2,2v6.4
				C857.5,149,856.6,149.9,855.5,149.9z"/>
			<path class="st1" d="M870.2,149.9h-6.4c-1.1,0-2-0.9-2-2v-6.4c0-1.1,0.9-2,2-2h6.4c1.1,0,2,0.9,2,2v6.4
				C872.1,149,871.2,149.9,870.2,149.9z"/>
			<path class="st1" d="M840.9,166.1h-6.4c-1.1,0-2-0.9-2-2v-6.4c0-1.1,0.9-2,2-2h6.4c1.1,0,2,0.9,2,2v6.4
				C842.9,165.2,842,166.1,840.9,166.1z"/>
			<path class="st1" d="M855.5,166.1h-6.4c-1.1,0-2-0.9-2-2v-6.4c0-1.1,0.9-2,2-2h6.4c1.1,0,2,0.9,2,2v6.4
				C857.5,165.2,856.6,166.1,855.5,166.1z"/>
			<path class="st1" d="M870.2,166.1h-6.4c-1.1,0-2-0.9-2-2v-6.4c0-1.1,0.9-2,2-2h6.4c1.1,0,2,0.9,2,2v6.4
				C872.1,165.2,871.2,166.1,870.2,166.1z"/>
			<path class="st1" d="M840.9,182.4h-6.4c-1.1,0-2-0.9-2-2v-6.4c0-1.1,0.9-2,2-2h6.4c1.1,0,2,0.9,2,2v6.4
				C842.9,181.5,842,182.4,840.9,182.4z"/>
			<path class="st1" d="M855.5,182.4h-6.4c-1.1,0-2-0.9-2-2v-6.4c0-1.1,0.9-2,2-2h6.4c1.1,0,2,0.9,2,2v6.4
				C857.5,181.5,856.6,182.4,855.5,182.4z"/>
			<path class="st1" d="M870.2,182.4h-6.4c-1.1,0-2-0.9-2-2v-6.4c0-1.1,0.9-2,2-2h6.4c1.1,0,2,0.9,2,2v6.4
				C872.1,181.5,871.2,182.4,870.2,182.4z"/>
			<path class="st2" d="M859.6,180.5h-6.4c-1.1,0-2.1-0.9-2.1-2.1v-6.4c0-1.1,0.9-2.1,2.1-2.1h6.4c1.1,0,2.1,0.9,2.1,2.1v6.4
				C861.7,179.6,860.8,180.5,859.6,180.5z"/>
			<path class="st3" d="M829.5,197c0.9-0.5,1.3-1.6,0.8-2.5c0-0.1-0.1-0.2-0.2-0.3l1.4-13.4h-3l-1.1,13.1c-0.8,0.7-0.9,1.8-0.2,2.6
				C827.8,197.2,828.7,197.3,829.5,197z"/>
			<circle class="st3" cx="832.2" cy="169.1" r="4.2"/>
			<path class="st4" d="M833,188.6c-0.3,0-0.6-0.2-0.7-0.6c-0.3-1.2-1.2-3.3-2.6-6.2c-1.2-2.5-0.2-5.6,2.4-6.8
				c0.2-0.1,0.4-0.2,0.5-0.2l0,0c2.7-0.9,5.6,0.5,6.5,3.1c0,0,0,0.1,0,0.1c1.1,3.4,1,7,1,8.4c0,0.3-0.3,0.6-0.6,0.7l-6.3,1.4
				C833.1,188.6,833,188.6,833,188.6z"/>
			<polygon class="st3" points="839.1,228.5 841.2,228.5 842.2,220.4 839.1,220.4 			"/>
			<path class="st5" d="M845.2,230.5l-6.6,0l0,0l0-2.5l0,0l4,0C844.1,227.9,845.2,229.1,845.2,230.5L845.2,230.5L845.2,230.5z"/>
			<polygon class="st3" points="818.1,225.8 819.9,226.8 824.7,220.2 822,218.7 			"/>
			<path class="st5" d="M822.5,230.5l-5.8-3.2l0,0l1.2-2.2l0,0l3.5,2C822.8,227.7,823.2,229.2,822.5,230.5
				C822.5,230.5,822.5,230.5,822.5,230.5L822.5,230.5L822.5,230.5z"/>
			<path class="st5" d="M839,224c-0.4,0-0.7-0.3-0.8-0.7l-2.6-20.2c0-0.2-0.2-0.4-0.5-0.4c-0.1,0-0.3,0.1-0.3,0.2l-10.9,19.9
				c-0.2,0.3-0.6,0.5-0.9,0.3l-2.4-0.9c-0.4-0.2-0.6-0.6-0.4-1c0,0,0,0,0,0l7.6-18.6c0,0,0-0.1,0-0.1c1-7.9,3.6-12,4.4-13
				c0.1-0.2,0.1-0.4,0.1-0.5l-0.1-0.3c-0.1-0.3,0-0.5,0.1-0.7c2.8-3.2,7.7-1.4,7.7-1.4l0,0l0,0c5.5,7.5,3.4,31.8,3,36.6
				c0,0.4-0.3,0.7-0.7,0.7L839,224C839,224,839,224,839,224z"/>
			<path class="st3" d="M848.6,174c0,0.1,0,0.2,0,0.3l-7.4,4.2l-1.8-1l-1.9,2.5l3,2.1c0.5,0.4,1.2,0.3,1.6,0l7.6-6
				c0.9,0.3,2-0.1,2.3-1.1c0.3-0.9-0.1-2-1.1-2.3c-0.9-0.3-2,0.1-2.3,1.1C848.6,173.9,848.6,173.9,848.6,174L848.6,174z"/>
			<path class="st4" d="M840.9,178.7l-2.4,3.1c-0.3,0.3-0.7,0.4-1.1,0.1c0,0-0.1,0-0.1-0.1l-2.7-2.8c-0.9-0.7-1.1-2.1-0.4-3
				c0.7-0.9,2.1-1.1,3-0.4l3.4,1.9C841,177.8,841.2,178.3,840.9,178.7C841,178.7,840.9,178.7,840.9,178.7L840.9,178.7z"/>
			<path class="st4" d="M831.7,184.1l-3.8-0.7c-0.4-0.1-0.7-0.5-0.6-0.9c0,0,0-0.1,0-0.1l1.2-3.7c0.2-1.2,1.3-1.9,2.5-1.7
				c1.2,0.2,1.9,1.3,1.7,2.5l-0.1,3.9c0,0.4-0.4,0.8-0.8,0.7C831.8,184.1,831.7,184.1,831.7,184.1L831.7,184.1z"/>
			<path class="st5" d="M832.9,168.2c1.1,0.7,2.5,1.5,3.6,0.7c0.7-0.5,1-1.5,0.7-2.3c-0.5-1.5-2-2.2-3.4-2.7
				c-1.8-0.7-3.8-1.2-5.6-0.7c-1.9,0.5-3.5,2.3-3.2,4.2c0.3,1.5,1.7,2.8,1.5,4.3c-0.2,1.5-1.9,2.4-3.5,2.6c-1.5,0.3-3.2,0.4-4.3,1.5
				c-1.4,1.4-1.1,3.9,0.3,5.4c1.3,1.5,3.3,2.2,5.2,2.6c2.6,0.6,5.3,0.9,7.8-0.1c2.4-1,4.3-3.7,3.6-6.2c-0.3-1.1-1-2-1.7-2.9
				c-0.7-0.9-1.4-1.8-1.6-2.9c-0.2-0.9-0.1-1.9,0.5-2.6C833,168.8,833,168.5,832.9,168.2L832.9,168.2z"/>
			<polygon class="st3" points="875.6,228.8 873.4,228.8 872.4,220.4 875.6,220.4 			"/>
			<path class="st5" d="M871.9,228.2h4.2l0,0v2.6l0,0h-6.9l0,0l0,0C869.2,229.4,870.4,228.2,871.9,228.2z"/>
			<polygon class="st3" points="883.8,228.8 881.6,228.8 880.6,220.4 883.8,220.4 			"/>
			<path class="st5" d="M880.1,228.2h4.2l0,0v2.6l0,0h-6.9l0,0l0,0C877.4,229.4,878.6,228.2,880.1,228.2z"/>
			<path class="st3" d="M883.5,203.8c-0.9-0.6-1.1-1.8-0.6-2.6c0.1-0.1,0.1-0.2,0.2-0.3l-1.4-20.4l4.1,0.4l0.1,20
				c0.7,0.8,0.7,2-0.1,2.7C885.3,204.2,884.3,204.2,883.5,203.8L883.5,203.8z"/>
			<path class="st5" d="M875.5,224.6l-2.4-0.1c-0.4,0-0.8-0.4-0.8-0.8l-0.2-24.3c0-0.4,0.4-0.8,0.8-0.8c0,0,0.1,0,0.1,0l9.6,1.4
				c0.4,0.1,0.7,0.4,0.7,0.8l1.2,22.5c0,0.4-0.4,0.8-0.8,0.8c0,0,0,0,0,0h-2.6c-0.4,0-0.7-0.3-0.8-0.7l-1.6-10.1
				c-0.1-0.3-0.4-0.6-0.7-0.5c-0.3,0-0.5,0.3-0.5,0.5l-1.3,10.6C876.3,224.3,876,224.6,875.5,224.6
				C875.5,224.6,875.5,224.6,875.5,224.6z"/>
			<path class="st2" d="M877.2,200.8c-2.1-1.2-3.8-1.5-4.6-1.6c-0.2,0-0.4-0.1-0.5-0.3c-0.1-0.2-0.2-0.4-0.2-0.6l2.3-17.1
				c0.3-2,1.6-3.8,3.4-4.6c1.8-0.8,3.9-0.7,5.6,0.4c0.1,0.1,0.2,0.1,0.2,0.2c1.9,1.4,2.8,3.8,2.2,6.1c-1.4,5.8-1.9,15.2-2,17.1
				c0,0.3-0.2,0.6-0.5,0.7c-0.9,0.3-1.8,0.5-2.7,0.5C879.4,201.6,878.2,201.3,877.2,200.8z"/>
			<path class="st2" d="M882.7,187.3c-0.2-0.1-0.3-0.4-0.3-0.6l-0.3-5.5c-0.1-1.2,0.9-2.3,2.1-2.3c1-0.1,2,0.6,2.2,1.6l1.3,4.9
				c0.1,0.4-0.1,0.9-0.6,1l-3.8,1C883.1,187.5,882.9,187.5,882.7,187.3z"/>
			<circle class="st3" cx="879.1" cy="169.9" r="4.4"/>
			<path class="st3" d="M863.3,178.5c0,0.1,0,0.2,0,0.3l7.6,4.4l1.9-1.1l2,2.6l-4,2.8l-8.7-6.9c-1,0.4-2-0.1-2.4-1.1s0.1-2,1.1-2.4
				c1-0.4,2,0.1,2.4,1.1C863.3,178.3,863.3,178.4,863.3,178.5z"/>
			<path class="st2" d="M871.3,182.8c0-0.2,0.1-0.5,0.2-0.6l3.9-3.9c0.9-0.9,2.3-0.9,3.1,0c0.7,0.7,0.9,1.9,0.3,2.8l-2.8,4.3
				c-0.2,0.4-0.7,0.5-1.1,0.2l-3.3-2.1C871.4,183.3,871.3,183.1,871.3,182.8z"/>
			<path class="st5" d="M882.2,173.4c-0.8,0.9-2.3,0.4-2.4-0.8c0-0.1,0-0.2,0-0.3c0.1-0.5,0.4-1,0.3-1.6c0-0.1-0.1-0.3-0.1-0.4
				c-0.6-0.9-2.2,0.4-2.8-0.4c-0.4-0.5,0.1-1.2-0.2-1.8c-0.4-0.7-1.5-0.4-2.2-0.8c-0.8-0.4-0.7-1.6-0.2-2.4c0.6-0.9,1.7-1.4,2.8-1.4
				c1.1-0.1,2.2,0.2,3.2,0.6c1.2,0.5,2.3,1.1,3,2.1c0.9,1.2,1,2.9,0.5,4.4C883.8,171.6,882.9,172.7,882.2,173.4z"/>
			<path class="st4" d="M917.8,231H786.9c-0.1,0-0.2-0.1-0.2-0.2s0.1-0.2,0.2-0.2h130.9c0.1,0,0.2,0.1,0.2,0.2S917.9,231,917.8,231z
				"/>
		</g>
		<g>
			<path class="st6" d="M851.8,159.1h-1.6c-0.5,0-1,0.4-1,1v2.8c0,0.5,0.4,1,1,1h1.6c0.5,0,1-0.4,1-1v-2.8
				C852.8,159.6,852.3,159.1,851.8,159.1z M852.4,162.7c0,0.5-0.4,0.8-0.8,0.8h-1.2c-0.5,0-0.8-0.4-0.8-0.8v-2.4
				c0-0.5,0.4-0.8,0.8-0.8h1.2c0.5,0,0.8,0.4,0.8,0.8L852.4,162.7z"/>
			<path class="st7" d="M852.3,163.9c0.1,0,0.1,0,0.2,0C852.4,163.9,852.3,163.9,852.3,163.9L852.3,163.9z"/>
			<path class="st7" d="M852.8,163.5L852.8,163.5L852.8,163.5L852.8,163.5z"/>
			<path class="st6" d="M855.1,161.9v2h0.3c0.1,0,0.1-0.1,0.1-0.1v-1.8c0,0,0-0.1-0.1-0.1L855.1,161.9z"/>
			<path class="st6" d="M853.8,162.1L853.8,162.1c0,0.1,0.1,0.2,0.2,0.2h1.1v-0.4H854C853.9,161.9,853.8,162,853.8,162.1z"/>
			<path class="st6" d="M855.5,159.2v0.3h-2.6c-0.1-0.2-0.4-0.3-0.6-0.4c0,0-0.1,0-0.1,0L855.5,159.2
				C855.5,159.1,855.5,159.2,855.5,159.2C855.5,159.2,855.5,159.2,855.5,159.2z"/>
			<path class="st6" d="M853,159.5h-0.3c0,0,0,0,0,0c-0.2-0.3-0.5-0.4-0.5-0.4h0.5L853,159.5z"/>
			<path class="st6" d="M855.3,160.3L855.3,160.3c-0.1,0-0.2-0.1-0.2-0.2v-0.6h0.4v0.6C855.5,160.2,855.4,160.3,855.3,160.3
				C855.3,160.3,855.3,160.3,855.3,160.3z"/>
			<path class="st6" d="M855.3,163.5v0.4h-3.1c0.1,0,0.2,0,0.3,0c0.2-0.1,0.4-0.2,0.5-0.3l0,0L855.3,163.5L855.3,163.5z"/>
			<path class="st6" d="M852.9,163.5L852.9,163.5C852.9,163.5,852.9,163.5,852.9,163.5L852.9,163.5z"/>
			<path class="st6" d="M852.2,163.9c0,0,0.3-0.1,0.5-0.4h0.3l-0.1,0.4H852.2z"/>
			<path class="st6" d="M852.8,159.5L852.8,159.5c-0.2-0.3-0.5-0.4-0.5-0.4h0.1c0,0,0,0,0,0C852.7,159.3,852.8,159.5,852.8,159.5z"
				/>
			<path class="st8" d="M852.2,163.9"/>
			<g class="st9">
				<path class="st10" d="M848,162.3c0.1,0,0.5-0.1,0.9,0c0,0,0,0,0,0s0,0,0,0C848.8,162.3,848.3,162.3,848,162.3
					C848,162.3,848,162.3,848,162.3C848,162.3,848,162.3,848,162.3z"/>
				<path class="st10" d="M848.5,162.8c0-0.1-0.1-0.6,0-1c0,0,0,0,0,0c0,0,0,0,0,0C848.5,161.9,848.5,162.4,848.5,162.8
					C848.5,162.8,848.5,162.8,848.5,162.8C848.5,162.8,848.5,162.8,848.5,162.8L848.5,162.8z"/>
			</g>
			<path class="st11" d="M848,162.3c0.1,0,0.5-0.1,0.9,0c0,0,0,0,0,0c0,0,0,0,0,0l0,0C848.8,162.3,848.3,162.3,848,162.3
				C848,162.3,848,162.3,848,162.3C848,162.3,848,162.3,848,162.3z"/>
			<path class="st11" d="M848.5,162.8c0-0.1-0.1-0.6,0-1c0,0,0,0,0,0c0,0,0,0,0,0C848.5,161.9,848.5,162.4,848.5,162.8
				C848.5,162.8,848.5,162.8,848.5,162.8C848.5,162.8,848.5,162.8,848.5,162.8L848.5,162.8z"/>
			<g class="st9">
				<path class="st12" d="M855.5,161.6c0.1,0,0.3,0,0.6,0c0,0,0,0,0,0c0,0,0,0,0,0C856,161.6,855.7,161.6,855.5,161.6
					C855.5,161.6,855.5,161.6,855.5,161.6C855.5,161.6,855.5,161.6,855.5,161.6z"/>
				<path class="st12" d="M855.8,161.9c0-0.1,0-0.4,0-0.7c0,0,0,0,0,0c0,0,0,0,0,0C855.8,161.3,855.9,161.7,855.8,161.9
					C855.8,161.9,855.8,161.9,855.8,161.9C855.8,161.9,855.8,161.9,855.8,161.9L855.8,161.9z"/>
			</g>
			<path class="st11" d="M855.5,161.6c0.1,0,0.3,0,0.6,0c0,0,0,0,0,0c0,0,0,0,0,0C856,161.6,855.7,161.6,855.5,161.6
				C855.5,161.6,855.5,161.6,855.5,161.6C855.5,161.6,855.5,161.6,855.5,161.6z"/>
			<path class="st11" d="M855.8,161.9c0-0.1,0-0.4,0-0.7c0,0,0,0,0,0c0,0,0,0,0,0C855.8,161.3,855.8,161.7,855.8,161.9
				C855.8,161.9,855.8,161.9,855.8,161.9C855.8,161.9,855.8,161.9,855.8,161.9L855.8,161.9z"/>
			<circle class="st13" cx="852.3" cy="158.4" r="0.1"/>
			<circle class="st10" cx="852.3" cy="158.4" r="0.1"/>
			<circle class="st13" cx="855.8" cy="163.7" r="0.1"/>
			<circle class="st11" cx="855.8" cy="163.6" r="0.1"/>
			<g class="st9">
				<path class="st12" d="M855.7,163c0.1,0,0.5-0.1,0.9,0c0,0,0,0,0,0c0,0,0,0,0,0C856.6,163.1,856.1,163.1,855.7,163
					C855.7,163,855.7,163,855.7,163C855.7,163,855.7,163,855.7,163z"/>
				<path class="st12" d="M856.2,163.5c0-0.1-0.1-0.5,0-1c0,0,0,0,0,0c0,0,0,0,0,0C856.2,162.6,856.3,163.2,856.2,163.5
					C856.2,163.5,856.2,163.5,856.2,163.5C856.2,163.5,856.2,163.5,856.2,163.5z"/>
			</g>
			<path class="st14" d="M855.7,163c0.1,0,0.5-0.1,0.9,0c0,0,0,0,0,0c0,0,0,0,0,0C856.6,163,856.1,163.1,855.7,163
				C855.7,163,855.7,163,855.7,163C855.7,163,855.7,163,855.7,163z"/>
			<path class="st14" d="M856.2,163.5c0-0.1-0.1-0.5,0-1c0,0,0,0,0,0c0,0,0,0,0,0C856.2,162.6,856.3,163.2,856.2,163.5
				C856.2,163.5,856.2,163.5,856.2,163.5C856.2,163.5,856.2,163.5,856.2,163.5z"/>
			<g class="st9">
				<path class="st12" d="M855.3,158.8c0.1,0,0.5-0.1,0.9,0c0,0,0,0,0,0c0,0,0,0,0,0C856.2,158.8,855.7,158.9,855.3,158.8
					C855.3,158.8,855.3,158.8,855.3,158.8C855.3,158.8,855.3,158.8,855.3,158.8z"/>
				<path class="st12" d="M855.8,159.3c0-0.1-0.1-0.5,0-1c0,0,0,0,0,0c0,0,0,0,0,0C855.8,158.4,855.9,159,855.8,159.3
					C855.8,159.3,855.8,159.3,855.8,159.3C855.8,159.3,855.8,159.3,855.8,159.3z"/>
			</g>
			<path class="st14" d="M855.3,158.8c0.1,0,0.5-0.1,0.9,0c0,0,0,0,0,0c0,0,0,0,0,0C856.2,158.8,855.7,158.9,855.3,158.8
				C855.3,158.8,855.3,158.8,855.3,158.8C855.3,158.8,855.3,158.8,855.3,158.8z"/>
			<path class="st14" d="M855.8,159.3c0-0.1-0.1-0.5,0-1c0,0,0,0,0,0c0,0,0,0,0,0C855.8,158.4,855.9,159,855.8,159.3
				C855.8,159.3,855.8,159.3,855.8,159.3C855.8,159.3,855.8,159.3,855.8,159.3z"/>
			<circle class="st13" cx="852.2" cy="158.8" r="0.1"/>
			<circle class="st14" cx="852.2" cy="158.8" r="0.1"/>
			<circle class="st13" cx="849" cy="162.8" r="0.1"/>
			<circle class="st14" cx="849" cy="162.8" r="0.1"/>
			<g class="st9">
				<path class="st12" d="M854.8,158.5c0,0,0.3,0,0.6,0c0,0,0,0,0,0c0,0,0,0,0,0C855.2,158.5,855,158.5,854.8,158.5
					C854.8,158.5,854.8,158.5,854.8,158.5C854.8,158.5,854.8,158.5,854.8,158.5z"/>
				<path class="st12" d="M855,158.8c0-0.1,0-0.3,0-0.6c0,0,0,0,0,0c0,0,0,0,0,0C855,158.3,855.1,158.6,855,158.8
					C855,158.8,855,158.8,855,158.8C855,158.8,855,158.8,855,158.8z"/>
			</g>
			<path class="st15" d="M854.7,158.5c0,0,0.3,0,0.6,0c0,0,0,0,0,0c0,0,0,0,0,0C855.2,158.5,854.9,158.5,854.7,158.5
				C854.7,158.5,854.7,158.5,854.7,158.5C854.7,158.5,854.7,158.5,854.7,158.5z"/>
			<path class="st15" d="M855,158.8c0-0.1,0-0.3,0-0.6c0,0,0,0,0,0c0,0,0,0,0,0C855,158.3,855.1,158.6,855,158.8
				C855,158.8,855,158.8,855,158.8C855,158.8,855,158.8,855,158.8z"/>
			<g class="st9">
				<path class="st12" d="M848.5,163.3c0,0,0.3,0,0.6,0c0,0,0,0,0,0c0,0,0,0,0,0C849,163.3,848.7,163.4,848.5,163.3
					C848.5,163.3,848.5,163.3,848.5,163.3C848.5,163.3,848.5,163.3,848.5,163.3z"/>
				<path class="st12" d="M848.8,163.6c0-0.1,0-0.3,0-0.6c0,0,0,0,0,0c0,0,0,0,0,0C848.8,163.1,848.8,163.4,848.8,163.6
					C848.8,163.6,848.8,163.6,848.8,163.6C848.8,163.6,848.8,163.6,848.8,163.6z"/>
			</g>
			<path class="st15" d="M848.5,163.3c0,0,0.3,0,0.6,0c0,0,0,0,0,0c0,0,0,0,0,0C849,163.3,848.7,163.4,848.5,163.3
				C848.5,163.3,848.5,163.3,848.5,163.3z"/>
			<path class="st15" d="M848.8,163.6c0-0.1,0-0.3,0-0.6c0,0,0,0,0,0c0,0,0,0,0,0C848.8,163.1,848.8,163.4,848.8,163.6
				C848.8,163.6,848.8,163.6,848.8,163.6C848.8,163.6,848.8,163.6,848.8,163.6z"/>
			<circle class="st13" cx="851.8" cy="158.4" r="0.2"/>
			<circle class="st15" cx="851.7" cy="158.4" r="0.2"/>
			<circle class="st13" cx="848.8" cy="161.7" r="0.1"/>
			<circle class="st15" cx="848.8" cy="161.7" r="0.1"/>
			<circle class="st13" cx="856.3" cy="162" r="0.1"/>
			<circle class="st15" cx="856.3" cy="162" r="0.1"/>
			<g class="st9">
				<path class="st12" d="M849.3,159.6c0,0-0.1,0.1-0.2,0.2c-0.1,0.1-0.4,0.3-0.4,0.6c0.2-0.1,0.4-0.1,0.4-0.1l0.2,0.5
					c0,0,0-0.4,0.1-0.6c0.1-0.2,0.1-0.2,0.1-0.3c0.1-0.1,0.1-0.1,0.2-0.4l-0.1-0.2c0,0-0.3-0.1-0.8-0.1c-0.2,0-0.5,0-0.5-0.2
					c0,0,0-0.1,0.2-0.1s0.5-0.1,1.1,0.3l0-0.1c0,0-0.6-0.4-1.1-0.4c-0.5,0.1-0.2,0.5-0.2,0.5c0,0.1,0,0.1,0,0.2
					c0,0.1,0.1,0.3,0.2,0.2c0.1,0,0.2,0,0.4-0.1S849.3,159.6,849.3,159.6z"/>
				<path class="st12" d="M850.4,159.3c0,0,0.1,0,0.3,0c0.1,0,0.4,0,0.7,0.2c-0.2,0.1-0.4,0.1-0.4,0.1l0.1,0.5c0,0-0.3-0.3-0.4-0.4
					c-0.2-0.1-0.2-0.1-0.3-0.1c-0.1,0-0.2,0-0.4-0.2l-0.1-0.2c0,0,0.2-0.3,0.6-0.5c0.1-0.1,0.4-0.3,0.3-0.4c0,0,0-0.1-0.2,0
					s-0.5,0.3-0.7,0.9l0-0.1c0,0,0.2-0.7,0.7-0.9c0.5-0.3,0.4,0.2,0.4,0.3c0,0.1,0,0.1,0.1,0.2c0.1,0.1,0.1,0.3,0,0.3
					c-0.1,0.1-0.1,0.1-0.4,0.1C850.6,159.2,850.5,159.3,850.4,159.3z"/>
				<path class="st12" d="M849.7,159.1L849.7,159.1c0.2-0.1,0.3,0,0.3,0.1l0,0.1c0,0.1,0,0.2-0.1,0.3l-0.1,0c-0.1,0-0.2,0-0.3-0.1
					l0-0.1C849.5,159.2,849.6,159.1,849.7,159.1z"/>
			</g>
			<path class="st14" d="M849.3,159.6c0,0-0.1,0.1-0.2,0.2c-0.1,0.1-0.4,0.3-0.4,0.6c0.2-0.1,0.4-0.1,0.4-0.1l0.2,0.5
				c0,0,0-0.4,0.1-0.6c0.1-0.2,0.1-0.2,0.1-0.3c0.1-0.1,0.1-0.1,0.2-0.4l-0.1-0.2c0,0-0.3-0.1-0.8-0.1c-0.2,0-0.5,0-0.5-0.2
				c0,0,0-0.1,0.2-0.1c0.2,0,0.5-0.1,1.1,0.3l0-0.1c0,0-0.6-0.4-1.1-0.4c-0.5,0.1-0.2,0.5-0.2,0.5c0,0.1,0,0.1,0,0.2
				c0,0.1,0.1,0.3,0.2,0.2s0.2,0,0.4-0.1S849.2,159.6,849.3,159.6z"/>
			<path class="st14" d="M850.4,159.2c0,0,0.1,0,0.3,0c0.1,0,0.4,0,0.7,0.2c-0.2,0.1-0.4,0.1-0.4,0.1l0.1,0.5c0,0-0.3-0.3-0.4-0.4
				c-0.2-0.1-0.2-0.1-0.3-0.1c-0.1,0-0.2,0-0.4-0.2l-0.1-0.2c0,0,0.2-0.3,0.6-0.5c0.1-0.1,0.4-0.3,0.3-0.4c0,0,0-0.1-0.2,0
				c-0.2,0.1-0.5,0.3-0.7,0.9l0-0.1c0,0,0.2-0.7,0.7-0.9s0.4,0.2,0.4,0.3s0,0.1,0.1,0.2c0.1,0.1,0.1,0.3,0,0.3
				c-0.1,0.1-0.1,0.1-0.4,0.1C850.6,159.1,850.4,159.2,850.4,159.2z"/>
			<path class="st14" d="M849.7,159L849.7,159c0.2-0.1,0.3,0,0.3,0.1l0,0.1c0,0.1,0,0.2-0.1,0.3l-0.1,0c-0.1,0-0.2,0-0.3-0.1l0-0.1
				C849.5,159.1,849.6,159,849.7,159z"/>
		</g>
	</g>
</g>
<g id="Layer_3">
	<rect x="32.3" y="25.6" class="st16" width="935.3" height="205.7"/>
	<g>
		<path class="st17" d="M293.8,194.6H81c-6.6,0-12-5.4-12-12v-73.9c0-6.6,5.4-12,12-12h212.8c6.6,0,12,5.4,12,12v73.9
			C305.8,189.2,300.4,194.6,293.8,194.6z"/>
		<g>
			<g>
				<path class="st2" d="M85.8,155.5h-4.8v-24.3h4.8V155.5z"/>
				<path class="st2" d="M90.9,131.1h5.6l9.1,18.7l-0.4,0.4v-19.1h4.4v24.3h-5.6l-9-18.4l0.4-0.4v18.8h-4.4V131.1z"/>
				<path class="st2" d="M119.1,155.4c-1.1-0.2-2.2-0.6-3.1-1c-1-0.5-1.9-1-2.6-1.6l2.1-3.8c0.9,0.8,2,1.4,3.2,1.8
					c1.2,0.4,2.5,0.6,3.8,0.6c1.5,0,2.7-0.3,3.5-0.8c0.8-0.5,1.2-1.2,1.2-2.2v0c0-0.6-0.2-1.2-0.6-1.5c-0.4-0.4-0.8-0.7-1.4-0.8
					c-0.6-0.2-1.4-0.3-2.3-0.5c0,0-0.1,0-0.1,0s-0.1,0-0.1,0l-0.4,0c-1.6-0.3-3-0.6-4.1-1c-1.1-0.4-2-1.1-2.7-2
					c-0.7-1-1.1-2.3-1.1-4.1v0c0-1.6,0.4-2.9,1.1-4c0.7-1.1,1.7-2,3.1-2.6s3-0.9,4.9-0.9c0.9,0,1.8,0.1,2.7,0.3
					c0.9,0.2,1.8,0.5,2.7,0.9c0.9,0.4,1.7,0.8,2.5,1.4l-1.9,3.9c-0.9-0.6-1.9-1.2-2.9-1.5s-2-0.5-2.9-0.5c-1.4,0-2.5,0.2-3.3,0.7
					c-0.8,0.5-1.2,1.1-1.2,2v0c0,0.7,0.2,1.3,0.6,1.7c0.4,0.4,0.9,0.7,1.5,0.9c0.6,0.2,1.4,0.4,2.5,0.6c0,0,0.1,0,0.1,0
					c0,0,0.1,0,0.1,0c0.1,0,0.1,0,0.2,0c0.1,0,0.1,0,0.2,0c1.5,0.3,2.8,0.7,3.9,1.1c1,0.4,1.9,1.1,2.6,2.1c0.7,1,1,2.3,1,3.9v0
					c0,1.6-0.4,2.9-1.1,4s-1.8,1.9-3.2,2.5c-1.4,0.6-3.1,0.9-5,0.9C121.4,155.7,120.2,155.6,119.1,155.4z"/>
				<path class="st2" d="M132.6,131.1h17.9v4.4h-17.9V131.1z M139.3,133.1h4.6v22.4h-4.6V133.1z"/>
				<path class="st2" d="M159.5,131.1h2.9l9.3,24.3h-4.9l-5.8-16.6l-5.8,16.6h-4.9L159.5,131.1z M154.6,147.2h12.8v4.4h-12.8V147.2z
					"/>
				<path class="st2" d="M174.7,131.1h4.6v24.3h-4.6V131.1z M176.8,151.1H191v4.4h-14.3V151.1z"/>
				<path class="st2" d="M194.4,131.1h4.6v24.3h-4.6V131.1z M196.4,151.1h14.3v4.4h-14.3V151.1z"/>
				<path class="st2" d="M221,131.1h2.9l9.3,24.3h-4.9l-5.8-16.6l-5.8,16.6h-4.9L221,131.1z M216.2,147.2H229v4.4h-12.8V147.2z"/>
				<path class="st2" d="M236.2,131.1h4.6v24.3h-4.6V131.1z M238.2,151.1h7.8c1,0,1.9-0.3,2.4-0.8c0.6-0.5,0.9-1.2,0.9-2.1v0
					c0-0.6-0.1-1.1-0.4-1.6c-0.3-0.4-0.6-0.8-1.1-1c-0.5-0.2-1.1-0.3-1.8-0.3h-7.8v-4.4h7.8c0.9,0,1.7-0.2,2.2-0.7
					c0.5-0.5,0.8-1.2,0.8-2c0-0.8-0.3-1.4-0.8-1.8s-1.3-0.7-2.2-0.7h-7.8v-4.4h7.9c1.6,0,2.9,0.3,4,0.8c1.1,0.5,2,1.3,2.5,2.3
					c0.6,1,0.9,2.2,0.9,3.6c0,0.9-0.2,1.8-0.6,2.5s-0.9,1.3-1.6,1.8c-0.7,0.5-1.6,0.8-2.6,1c1.1,0.1,2,0.5,2.8,1
					c0.8,0.5,1.3,1.2,1.7,2c0.4,0.8,0.6,1.8,0.6,2.8v0c0,1.4-0.3,2.6-0.9,3.6c-0.6,1-1.4,1.8-2.6,2.3c-1.1,0.5-2.5,0.8-4,0.8h-8.2
					V151.1z"/>
				<path class="st2" d="M258.4,131.1h4.6v24.3h-4.6V131.1z M260.4,151.1h14.3v4.4h-14.3V151.1z"/>
				<path class="st2" d="M278,131.1h4.6v24.3H278V131.1z M279.7,131.1h14.7v4.4h-14.7V131.1z M279.7,141.2h12.8v4.4h-12.8V141.2z
					 M279.7,151.1h14.7v4.4h-14.7V151.1z"/>
			</g>
		</g>
	</g>
</g>
<g id="Layer_2">
	<path class="st2" d="M193.3,36.7c0,7-2.9,13.3-7.5,17.9C181.3,59.2,175,62,168,62H0V11.3h168C181.9,11.3,193.3,22.7,193.3,36.7z"/>
	<g>
		<path class="st6" d="M24.9,35.1c0,1.7-0.3,3.4-0.8,5c-0.5,1.5-1.2,2.9-2.2,4.1c-0.9,1.1-2,2.1-3.3,2.7c-2.5,1.3-5.4,1.3-7.9,0
			c-1.3-0.7-2.4-1.6-3.3-2.7c-1-1.2-1.7-2.6-2.2-4.1c-0.5-1.6-0.8-3.3-0.8-5c0-1.7,0.3-3.4,0.8-5c0.5-1.5,1.2-2.9,2.2-4.1
			c0.9-1.1,2-2,3.3-2.7c2.5-1.3,5.4-1.3,7.9,0c1.3,0.7,2.4,1.6,3.3,2.7c1,1.2,1.7,2.6,2.2,4.1C24.6,31.7,24.9,33.4,24.9,35.1z
			 M21.1,35.1c0-1.1-0.2-2.2-0.5-3.2c-0.3-0.9-0.8-1.8-1.4-2.6c-0.6-0.7-1.3-1.3-2.1-1.8c-1.6-0.9-3.5-0.9-5.1,0
			c-0.8,0.5-1.5,1.1-2.1,1.8C9.5,30.1,9,31,8.7,31.9C8,34,8,36.2,8.7,38.3c0.3,1,0.8,1.9,1.4,2.6c0.6,0.7,1.3,1.3,2.1,1.8
			c1.6,0.9,3.5,0.9,5.1,0c0.8-0.5,1.5-1.1,2.1-1.8c0.6-0.8,1.1-1.7,1.4-2.6C21,37.3,21.2,36.2,21.1,35.1z"/>
		<path class="st6" d="M40.2,47.6h-3.6V36.9c0-0.6-0.1-1.1-0.2-1.7c-0.1-0.4-0.3-0.8-0.6-1.2c-0.2-0.3-0.5-0.5-0.9-0.7
			c-0.3-0.2-0.7-0.2-1-0.2c-0.5,0-1.1,0.1-1.5,0.4c-0.5,0.3-1,0.7-1.4,1.1v13h-3.6V29.5h3.5l0,1.3c0.2-0.3,0.5-0.5,0.8-0.8
			c0.3-0.2,0.6-0.4,1-0.6c0.3-0.2,0.6-0.3,1-0.4c0.3-0.1,0.7-0.1,1-0.1c0.7,0,1.4,0.1,2.1,0.4c0.7,0.3,1.3,0.8,1.8,1.3
			c0.6,0.7,1,1.5,1.2,2.4c0.3,1.1,0.5,2.3,0.5,3.4L40.2,47.6z"/>
		<path class="st6" d="M48.6,47.4c-0.3,0.2-0.6,0.3-0.9,0.4C47.3,48,46.9,48,46.5,48c-0.5,0-1-0.1-1.5-0.3c-0.5-0.2-0.9-0.5-1.3-0.9
			c-0.4-0.4-0.7-1-0.9-1.5c-0.2-0.7-0.3-1.5-0.3-2.3V21.9h3.6v20.5c0,0.7,0.1,1.3,0.4,1.5c0.2,0.3,0.5,0.4,0.9,0.4
			c0.4,0,0.9-0.2,1.2-0.5V47.4z"/>
		<path class="st6" d="M53.8,26.7h-3.6v-4.8h3.6V26.7z M53.8,47.6h-3.6V29.5h3.6V47.6z"/>
		<path class="st6" d="M69.9,47.6h-3.6V36.9c0-0.6-0.1-1.1-0.2-1.7c-0.1-0.4-0.3-0.8-0.6-1.2c-0.2-0.3-0.5-0.5-0.9-0.7
			c-0.3-0.2-0.7-0.2-1-0.2c-0.5,0-1.1,0.1-1.5,0.4c-0.5,0.3-1,0.7-1.4,1.1v13H57V29.5h3.5l0,1.3c0.2-0.3,0.5-0.5,0.8-0.8
			c0.3-0.2,0.6-0.4,1-0.6c0.3-0.2,0.7-0.3,1-0.4c0.3-0.1,0.7-0.1,1-0.1c0.7,0,1.4,0.1,2.1,0.4c0.7,0.3,1.3,0.8,1.8,1.3
			c0.6,0.7,1,1.5,1.2,2.3c0.3,1.1,0.5,2.3,0.5,3.4L69.9,47.6z"/>
		<path class="st6" d="M86.8,38.5c0,0.3,0,0.6,0,0.9c0,0.3-0.1,0.6-0.1,1H75.5c0.1,0.5,0.3,1,0.5,1.5c0.2,0.4,0.5,0.9,0.9,1.2
			c0.3,0.3,0.7,0.6,1.1,0.8c0.4,0.2,0.9,0.3,1.4,0.3c0.6,0,1.3-0.1,1.9-0.4c0.6-0.3,1.1-0.6,1.6-1.1l2.2,2.8c-0.8,0.8-1.8,1.5-2.8,2
			c-0.9,0.4-1.9,0.6-2.9,0.6c-1,0-2-0.3-2.9-0.7c-0.9-0.5-1.7-1.2-2.4-2c-0.7-0.9-1.2-1.9-1.6-3c-0.8-2.4-0.8-4.9,0-7.3
			c0.4-1.1,0.9-2.1,1.6-3c0.5-0.7,1.2-1.2,1.9-1.7c0.9-0.6,2-1,3.2-1c1,0,2.1,0.2,3,0.7c0.9,0.5,1.7,1.1,2.4,1.9
			c0.7,0.9,1.3,1.9,1.6,3C86.6,35.9,86.8,37.2,86.8,38.5z M83.1,36.7c-0.2-1-0.7-2-1.5-2.7c-0.6-0.7-1.5-1-2.4-1
			c-0.9,0-1.7,0.4-2.3,1c-0.7,0.8-1.2,1.7-1.4,2.7H83.1z"/>
		<path class="st6" d="M114.9,43c-0.5,0.8-1.1,1.6-1.8,2.2c-0.6,0.6-1.3,1.1-2,1.6c-0.7,0.4-1.4,0.7-2.2,0.9
			c-0.7,0.2-1.5,0.3-2.2,0.3c-1.4,0-2.8-0.3-4.1-1c-1.3-0.7-2.4-1.6-3.3-2.7c-1-1.2-1.7-2.6-2.2-4.1c-0.6-1.6-0.8-3.3-0.8-5.1
			c0-1.7,0.3-3.4,0.8-5c0.5-1.5,1.3-2.9,2.2-4.1c0.9-1.1,2-2.1,3.3-2.7c1.2-0.7,2.6-1,4-1c1.6,0,3.2,0.4,4.5,1.3
			c1.4,0.9,2.6,2.1,3.5,3.5l-2.5,3.3c-0.6-1.1-1.4-2-2.4-2.7c-1.1-0.7-2.4-0.9-3.6-0.8c-0.5,0-0.9,0.2-1.4,0.3
			c-1.1,0.4-2,1.2-2.7,2.1c-0.6,0.8-1.1,1.7-1.4,2.6c-0.4,1-0.5,2.1-0.5,3.2c0,1.1,0.2,2.2,0.5,3.2c0.3,1,0.8,1.8,1.4,2.6
			c0.6,0.8,1.4,1.5,2.3,1.9c1.5,0.7,3.3,0.7,4.8-0.1c0.8-0.4,1.5-1,2.1-1.6v-2.5h-4v-4h7.6V43z"/>
		<path class="st6" d="M120.9,26.7h-3.6v-4.8h3.6V26.7z M120.9,47.6h-3.6V29.5h3.6V47.6z"/>
		<path class="st6" d="M131.7,25.9c-0.3-0.1-0.6-0.3-0.9-0.3c-0.3-0.1-0.6-0.1-0.9-0.1c-0.5-0.1-1.1,0.2-1.4,0.6
			c-0.3,0.4-0.4,1.1-0.4,2.1v1.3h2v4h-2v14.1h-3.6V33.5h-1.6v-4h1.6v-1.4c0-2.2,0.3-4,1-5.1c0.7-1.2,1.8-1.8,3.5-1.8
			c0.9,0,1.8,0.1,2.7,0.4V25.9z"/>
		<path class="st6" d="M140.6,47c-0.4,0.3-0.8,0.5-1.2,0.7c-0.4,0.1-0.9,0.2-1.4,0.2c-0.7,0-1.4-0.1-2-0.4c-0.5-0.3-1-0.7-1.3-1.2
			c-0.4-0.6-0.6-1.3-0.7-2c-0.2-1-0.2-1.9-0.2-2.9v-7.8h-2v-2c1.1-0.6,2.1-1.5,2.7-2.7c0.8-1.4,1.2-3,1.4-4.6h1.1v5.2h3.6v4H137v8.1
			c0,0.4,0,0.8,0.1,1.1c0.1,0.2,0.2,0.5,0.4,0.7c0.1,0.2,0.3,0.3,0.5,0.3c0.2,0.1,0.4,0.1,0.6,0.1c0.3,0,0.7-0.1,1-0.2
			c0.4-0.1,0.7-0.3,1-0.6L140.6,47z"/>
		<path class="st6" d="M146.2,26.7h-3.6v-4.8h3.6V26.7z M146.2,47.6h-3.6V29.5h3.6V47.6z"/>
		<path class="st6" d="M162.3,47.6h-3.6V36.9c0-0.6-0.1-1.1-0.2-1.7c-0.1-0.4-0.3-0.8-0.6-1.2c-0.2-0.3-0.5-0.5-0.9-0.7
			c-0.3-0.2-0.7-0.2-1-0.2c-0.5,0-1.1,0.1-1.5,0.4c-0.5,0.3-1,0.7-1.4,1.1v13h-3.6V29.5h3.5l0,1.3c0.2-0.3,0.5-0.5,0.8-0.8
			c0.3-0.2,0.6-0.4,1-0.6c0.3-0.2,0.7-0.3,1-0.4c0.3-0.1,0.7-0.1,1-0.1c0.7,0,1.4,0.1,2.1,0.4c0.7,0.3,1.3,0.8,1.8,1.3
			c0.6,0.7,1,1.5,1.2,2.3c0.3,1.1,0.5,2.3,0.5,3.4L162.3,47.6z"/>
		<path class="st6" d="M177.5,33.1H176c0.4,1,0.6,2,0.6,3c0,0.8-0.1,1.6-0.4,2.4c-0.2,0.8-0.6,1.5-1,2.1c-0.4,0.6-1,1.2-1.6,1.6
			c-0.6,0.4-1.4,0.7-2.1,0.9c-0.4,0.1-0.8,0.2-1.2,0.5c-0.2,0.2-0.4,0.4-0.4,0.7c0,0.3,0.2,0.5,0.4,0.6c0.4,0.2,0.8,0.4,1.2,0.4
			c1.8,0.2,3.3,0.8,4.3,1.8c1,1,1.6,2.4,1.5,3.9c0,0.8-0.2,1.6-0.5,2.3c-0.3,0.7-0.8,1.3-1.3,1.8c-0.6,0.5-1.3,0.9-2.1,1.2
			c-0.9,0.3-1.8,0.4-2.8,0.4c-1,0-1.9-0.1-2.8-0.4c-0.8-0.2-1.5-0.6-2.1-1.2c-0.6-0.5-1-1.1-1.4-1.8c-0.7-1.8-0.6-3.8,0.4-5.5
			c0.7-0.9,1.7-1.6,2.8-1.9c-0.4-0.2-0.7-0.4-0.9-0.8c-0.2-0.3-0.2-0.7-0.2-1c0-0.3,0.1-0.7,0.3-1c0.2-0.3,0.5-0.6,0.9-0.7
			c-0.5-0.3-0.9-0.6-1.2-1c-0.4-0.4-0.8-0.9-1.1-1.4c-0.3-0.6-0.6-1.2-0.7-1.8c-0.2-0.7-0.3-1.4-0.3-2.1c0-1,0.2-1.9,0.5-2.8
			c0.3-0.8,0.8-1.6,1.3-2.3c0.5-0.6,1.2-1.1,2-1.5c0.7-0.4,1.5-0.6,2.3-0.6c0.8,0,1.5,0.2,2.2,0.5h4.9L177.5,33.1z M173.8,50.6
			c0-0.6-0.3-1.3-0.9-1.6c-0.7-0.4-1.4-0.5-2.2-0.5c-0.8,0-1.6,0.1-2.3,0.5c-0.9,0.6-1.1,1.7-0.5,2.6c0.1,0.2,0.3,0.4,0.5,0.5
			c0.7,0.4,1.5,0.6,2.2,0.5c0.8,0,1.5-0.1,2.2-0.5C173.5,51.8,173.9,51.2,173.8,50.6z M173.2,36.1c0-0.4-0.1-0.9-0.2-1.3
			c-0.1-0.4-0.3-0.7-0.6-1c-0.2-0.3-0.5-0.5-0.8-0.7c-0.3-0.2-0.6-0.3-1-0.3c-0.3,0-0.7,0.1-1,0.3c-0.3,0.2-0.6,0.4-0.8,0.7
			c-0.2,0.3-0.4,0.7-0.6,1c-0.1,0.4-0.2,0.8-0.2,1.3c0,0.4,0.1,0.9,0.2,1.3c0.1,0.4,0.3,0.7,0.6,1.1c0.2,0.3,0.5,0.5,0.8,0.7
			c0.3,0.2,0.6,0.3,1,0.3c0.3,0,0.7-0.1,1-0.3c0.3-0.2,0.6-0.4,0.8-0.7c0.2-0.3,0.4-0.7,0.6-1.1C173.1,37,173.2,36.5,173.2,36.1
			L173.2,36.1z"/>
	</g>
</g>
<g id="Layer_4">
	<path class="st2" d="M354.1,150.9h-40.4c-2.8,0-5.2-2.3-5.2-5.2l0,0c0-2.8,2.3-5.2,5.2-5.2h40.4c2.8,0,5.2,2.3,5.2,5.2l0,0
		C359.3,148.6,357,150.9,354.1,150.9z"/>
	<path class="st2" d="M788.6,89.2h-57.8c-3.4,0-6.1-2.7-6.1-6.1v0c0-3.4,2.7-6.1,6.1-6.1h57.8c3.4,0,6.1,2.7,6.1,6.1v0
		C794.7,86.5,792,89.2,788.6,89.2z"/>
	<g>
		<path class="st18" d="M722.8,218.7H358.7c-6.6,0-12-5.4-12-12V50.5c0-6.6,5.4-12,12-12h364.1c6.6,0,12,5.4,12,12v156.2
			C734.8,213.3,729.4,218.7,722.8,218.7z"/>
		<g>
			<path class="st2" d="M628.1,85.7v110.6c0,6.6-5.4,12-12,12H379.5c-6.6,0-12-5.4-12-12V85.7c0-6.6,5.4-12,12-12h236.6
				C622.7,73.7,628.1,79.1,628.1,85.7z"/>
			<path class="st19" d="M628.1,85.7v6.5H367.5v-6.5c0-6.6,5.4-12,12-12h236.6C622.7,73.7,628.1,79.1,628.1,85.7z"/>
			<path class="st2" d="M563.6,90.1H379.8c-3.8,0-6.9-3.1-6.9-6.9v0c0-3.8,3.1-6.9,6.9-6.9h183.8c3.8,0,6.9,3.1,6.9,6.9v0
				C570.5,87.1,567.4,90.1,563.6,90.1z"/>
			<g>
				<g>
					<path d="M378.7,80.4h0.9v6.4h-0.9V80.4z M381.5,84c0-0.3-0.1-0.6-0.3-0.7s-0.4-0.3-0.7-0.3c-0.3,0-0.5,0.1-0.7,0.2
						s-0.2,0.4-0.2,0.6l-0.1-0.9c0.1-0.3,0.3-0.5,0.6-0.6s0.5-0.2,0.8-0.2c0.5,0,0.9,0.2,1.1,0.5c0.3,0.3,0.4,0.8,0.4,1.4v2.8h-0.9
						V84z"/>
					<path d="M383.4,82.3h2.1v0.8h-2.1V82.3z M384.1,86.5c-0.2-0.2-0.3-0.5-0.3-0.9v-4.7h0.9v4.7c0,0.1,0,0.2,0.1,0.3
						c0,0.1,0.1,0.1,0.2,0.1h0.4v0.9h-0.5C384.6,86.8,384.3,86.7,384.1,86.5z"/>
					<path d="M386.3,82.3h2.1v0.8h-2.1V82.3z M387.1,86.5c-0.2-0.2-0.3-0.5-0.3-0.9v-4.7h0.9v4.7c0,0.1,0,0.2,0.1,0.3
						c0,0.1,0.1,0.1,0.2,0.1h0.4v0.9h-0.5C387.5,86.8,387.2,86.7,387.1,86.5z"/>
					<path d="M389.6,82.3h0.9v6.4h-0.9V82.3z M390.9,86.7c-0.2-0.1-0.4-0.3-0.5-0.6l0.1-1c0,0.2,0,0.4,0.1,0.5s0.2,0.2,0.3,0.3
						c0.1,0.1,0.3,0.1,0.5,0.1c0.3,0,0.5-0.1,0.7-0.3c0.2-0.2,0.2-0.4,0.2-0.8v-1c0-0.3-0.1-0.6-0.2-0.8c-0.2-0.2-0.4-0.3-0.7-0.3
						c-0.2,0-0.4,0-0.5,0.1c-0.1,0.1-0.2,0.2-0.3,0.3c-0.1,0.1-0.1,0.3-0.1,0.5l-0.1-0.9c0.1-0.3,0.3-0.5,0.5-0.6
						c0.2-0.1,0.5-0.2,0.7-0.2c0.3,0,0.6,0.1,0.8,0.2c0.2,0.1,0.4,0.4,0.5,0.6s0.2,0.6,0.2,1v1c0,0.4-0.1,0.7-0.2,1
						s-0.3,0.5-0.5,0.6c-0.2,0.1-0.5,0.2-0.9,0.2C391.4,86.9,391.1,86.8,390.9,86.7z"/>
					<path d="M395.4,86.8c-0.2-0.1-0.5-0.1-0.7-0.2s-0.4-0.2-0.6-0.4l0.5-0.7c0.2,0.2,0.5,0.3,0.7,0.4s0.5,0.1,0.7,0.1
						c0.4,0,0.6-0.1,0.8-0.2c0.2-0.1,0.3-0.3,0.3-0.5c0-0.1,0-0.3-0.1-0.3s-0.2-0.1-0.4-0.1s-0.3,0-0.6-0.1c0,0,0,0-0.1,0
						s-0.1,0-0.1,0c0,0,0,0,0,0s0,0,0,0c-0.3,0-0.5-0.1-0.8-0.1s-0.4-0.2-0.5-0.4c-0.1-0.2-0.2-0.4-0.2-0.7s0.1-0.6,0.2-0.8
						s0.3-0.4,0.6-0.5s0.6-0.2,1-0.2c0.2,0,0.5,0,0.7,0.1c0.2,0,0.4,0.1,0.6,0.2c0.2,0.1,0.4,0.2,0.6,0.3l-0.5,0.7
						c-0.2-0.1-0.5-0.3-0.7-0.3c-0.2-0.1-0.4-0.1-0.6-0.1c-0.3,0-0.5,0.1-0.7,0.2s-0.2,0.3-0.2,0.5c0,0.1,0,0.2,0.1,0.3
						c0.1,0.1,0.2,0.1,0.3,0.1s0.3,0,0.6,0.1c0,0,0,0,0.1,0s0,0,0.1,0c0,0,0,0,0,0s0,0,0,0c0.3,0,0.6,0.1,0.8,0.1
						c0.2,0.1,0.4,0.2,0.6,0.4s0.2,0.5,0.2,0.8c0,0.3-0.1,0.6-0.2,0.8c-0.1,0.2-0.4,0.4-0.6,0.5c-0.3,0.1-0.6,0.2-1.1,0.2
						C395.9,86.9,395.6,86.9,395.4,86.8z"/>
					<path d="M399,82.2h0.9v0.9H399V82.2z M399,85.9h0.9v0.9H399V85.9z"/>
					<path d="M401.3,88h-0.9l3-8.4h0.9L401.3,88z"/>
					<path d="M404.7,88h-0.9l3-8.4h0.9L404.7,88z"/>
					<path d="M408.8,86.6c-0.3-0.2-0.5-0.4-0.6-0.7s-0.2-0.7-0.2-1.1v-0.7c0-0.4,0.1-0.8,0.2-1.1c0.1-0.3,0.4-0.5,0.6-0.7
						c0.3-0.2,0.6-0.2,1-0.2s0.7,0.1,1,0.2c0.3,0.2,0.5,0.4,0.6,0.7c0.1,0.3,0.2,0.6,0.2,1.1v0.8c0,0.4-0.1,0.8-0.2,1.1
						c-0.1,0.3-0.4,0.5-0.6,0.7s-0.6,0.2-1,0.2S409,86.8,408.8,86.6z M410.5,85.7c0.2-0.2,0.3-0.5,0.3-0.8v-0.8
						c0-0.4-0.1-0.6-0.3-0.8c-0.2-0.2-0.4-0.3-0.7-0.3s-0.6,0.1-0.7,0.3c-0.2,0.2-0.3,0.5-0.3,0.8v0.8c0,0.4,0.1,0.6,0.3,0.8
						c0.2,0.2,0.4,0.3,0.7,0.3S410.3,85.9,410.5,85.7z"/>
					<path d="M412.9,82.3h0.9v4.6h-0.9V82.3z M415.7,84c0-0.3-0.1-0.6-0.3-0.7s-0.4-0.3-0.7-0.3c-0.3,0-0.5,0.1-0.7,0.2
						s-0.2,0.4-0.2,0.7l-0.1-0.9c0.1-0.3,0.3-0.5,0.6-0.6s0.5-0.2,0.8-0.2c0.5,0,0.9,0.2,1.1,0.5c0.3,0.3,0.4,0.8,0.4,1.4v2.8h-0.9
						V84z"/>
					<path d="M418.9,85.6c0,0.1,0,0.2,0.1,0.3c0,0.1,0.1,0.1,0.2,0.1h0.4v0.9H419c-0.3,0-0.6-0.1-0.8-0.3c-0.2-0.2-0.3-0.5-0.3-0.9
						v-5.2h0.9V85.6z"/>
					<path d="M420.6,80.4h0.9v0.9h-0.9V80.4z M420.6,82.3h0.9v4.6h-0.9V82.3z"/>
					<path d="M422.8,82.3h0.9v4.6h-0.9V82.3z M425.6,84c0-0.3-0.1-0.6-0.3-0.7s-0.4-0.3-0.7-0.3c-0.3,0-0.5,0.1-0.7,0.2
						s-0.2,0.4-0.2,0.7l-0.1-0.9c0.1-0.3,0.3-0.5,0.6-0.6s0.5-0.2,0.8-0.2c0.5,0,0.9,0.2,1.1,0.5c0.3,0.3,0.4,0.8,0.4,1.4v2.8h-0.9
						V84z"/>
					<path d="M428.6,86.6c-0.3-0.2-0.5-0.4-0.7-0.7c-0.2-0.3-0.2-0.7-0.2-1.1v-0.5c0-0.5,0.1-0.8,0.2-1.2c0.2-0.3,0.4-0.6,0.7-0.7
						c0.3-0.2,0.6-0.3,1-0.3c0.4,0,0.7,0.1,1,0.3s0.5,0.5,0.6,0.8c0.1,0.4,0.2,0.8,0.2,1.3v0.3h-3.1v-0.7h2.2c0-0.4-0.1-0.7-0.3-0.9
						c-0.2-0.2-0.4-0.3-0.7-0.3c-0.3,0-0.6,0.1-0.8,0.3c-0.2,0.2-0.3,0.5-0.3,0.9v0.6c0,0.4,0.1,0.7,0.3,0.9s0.5,0.3,0.8,0.3
						c0.2,0,0.4,0,0.5-0.1s0.3-0.2,0.5-0.3l0.6,0.6c-0.2,0.2-0.5,0.4-0.8,0.5c-0.3,0.1-0.6,0.2-0.8,0.2
						C429.3,86.9,428.9,86.8,428.6,86.6z"/>
					<path d="M433.3,86.7c-0.2-0.1-0.4-0.4-0.5-0.6s-0.2-0.6-0.2-1v-1c0-0.4,0.1-0.7,0.2-1c0.1-0.3,0.3-0.5,0.5-0.6
						c0.2-0.1,0.5-0.2,0.8-0.2c0.3,0,0.5,0.1,0.7,0.2c0.2,0.1,0.4,0.3,0.5,0.6l-0.1,0.9c0-0.2,0-0.4-0.1-0.5s-0.2-0.2-0.3-0.3
						c-0.1-0.1-0.3-0.1-0.5-0.1c-0.3,0-0.5,0.1-0.7,0.3c-0.2,0.2-0.2,0.4-0.2,0.8v1c0,0.3,0.1,0.6,0.2,0.8c0.2,0.2,0.4,0.3,0.7,0.3
						c0.2,0,0.4,0,0.5-0.1c0.1-0.1,0.2-0.2,0.3-0.3s0.1-0.3,0.1-0.5l0.1,1c-0.1,0.2-0.2,0.4-0.4,0.6c-0.2,0.2-0.5,0.2-0.8,0.2
						C433.8,86.9,433.5,86.8,433.3,86.7z M433.3,88.5c-0.3-0.1-0.5-0.3-0.6-0.5l0.6-0.5c0.1,0.2,0.3,0.3,0.4,0.4
						c0.2,0.1,0.3,0.1,0.5,0.1c0.3,0,0.6-0.1,0.8-0.3c0.2-0.2,0.3-0.5,0.3-0.8v-4.6h0.9v4.4c0,0.4-0.1,0.8-0.2,1.1
						c-0.2,0.3-0.4,0.5-0.7,0.7s-0.6,0.2-1.1,0.2C433.9,88.7,433.6,88.6,433.3,88.5z"/>
					<path d="M437.5,80.4h0.9v0.9h-0.9V80.4z M437.5,82.3h0.9v4.6h-0.9V82.3z"/>
					<path d="M439.4,82.3h2.3V83h-2.3V82.3z M439.9,81.6c0-0.4,0.1-0.7,0.3-0.9c0.2-0.2,0.5-0.3,0.9-0.3h0.7v0.9h-0.6
						c-0.1,0-0.1,0-0.2,0.1c0,0.1-0.1,0.1-0.1,0.3v5.2h-0.9V81.6z"/>
					<path d="M442.3,82.3h2.1v0.8h-2.1V82.3z M443,86.5c-0.2-0.2-0.3-0.5-0.3-0.9v-4.7h0.9v4.7c0,0.1,0,0.2,0.1,0.3
						c0,0.1,0.1,0.1,0.2,0.1h0.4v0.9h-0.5C443.5,86.8,443.2,86.7,443,86.5z"/>
					<path d="M445.6,80.4h0.9v0.9h-0.9V80.4z M445.6,82.3h0.9v4.6h-0.9V82.3z"/>
					<path d="M447.8,82.3h0.9v4.6h-0.9V82.3z M450.6,84c0-0.3-0.1-0.6-0.3-0.7c-0.2-0.2-0.4-0.3-0.7-0.3c-0.3,0-0.5,0.1-0.7,0.2
						c-0.2,0.2-0.2,0.4-0.2,0.7l-0.1-0.9c0.1-0.3,0.3-0.5,0.6-0.6c0.2-0.1,0.5-0.2,0.8-0.2c0.5,0,0.9,0.2,1.1,0.5
						c0.3,0.3,0.4,0.8,0.4,1.4v2.8h-0.9V84z"/>
					<path d="M453.5,86.7c-0.2-0.1-0.4-0.4-0.5-0.6s-0.2-0.6-0.2-1v-1c0-0.4,0.1-0.7,0.2-1c0.1-0.3,0.3-0.5,0.5-0.6
						c0.2-0.1,0.5-0.2,0.8-0.2c0.3,0,0.5,0.1,0.7,0.2c0.2,0.1,0.4,0.3,0.5,0.6l-0.1,0.9c0-0.2,0-0.4-0.1-0.5s-0.2-0.2-0.3-0.3
						c-0.1-0.1-0.3-0.1-0.5-0.1c-0.3,0-0.5,0.1-0.7,0.3c-0.2,0.2-0.2,0.4-0.2,0.8v1c0,0.3,0.1,0.6,0.2,0.8c0.2,0.2,0.4,0.3,0.7,0.3
						c0.2,0,0.4,0,0.5-0.1c0.1-0.1,0.2-0.2,0.3-0.3s0.1-0.3,0.1-0.5l0.1,1c-0.1,0.2-0.2,0.4-0.4,0.6c-0.2,0.2-0.5,0.2-0.8,0.2
						C454,86.9,453.7,86.8,453.5,86.7z M453.5,88.5c-0.3-0.1-0.5-0.3-0.6-0.5l0.6-0.5c0.1,0.2,0.3,0.3,0.4,0.4
						c0.2,0.1,0.3,0.1,0.5,0.1c0.3,0,0.6-0.1,0.8-0.3c0.2-0.2,0.3-0.5,0.3-0.8v-4.6h0.9v4.4c0,0.4-0.1,0.8-0.2,1.1
						c-0.2,0.3-0.4,0.5-0.7,0.7s-0.6,0.2-1.1,0.2C454.1,88.7,453.7,88.6,453.5,88.5z"/>
					<path d="M457.6,85.9h0.9v0.9h-0.9V85.9z"/>
					<path d="M460.6,86.8c-0.2-0.1-0.5-0.1-0.7-0.2s-0.4-0.2-0.6-0.4l0.5-0.7c0.2,0.2,0.5,0.3,0.7,0.4c0.2,0.1,0.5,0.1,0.7,0.1
						c0.4,0,0.6-0.1,0.8-0.2c0.2-0.1,0.3-0.3,0.3-0.5c0-0.1,0-0.3-0.1-0.3s-0.2-0.1-0.4-0.1s-0.3,0-0.6-0.1c0,0,0,0-0.1,0
						c0,0-0.1,0-0.1,0c0,0,0,0,0,0s0,0,0,0c-0.3,0-0.5-0.1-0.8-0.1c-0.2-0.1-0.4-0.2-0.5-0.4c-0.1-0.2-0.2-0.4-0.2-0.7
						s0.1-0.6,0.2-0.8c0.1-0.2,0.3-0.4,0.6-0.5c0.3-0.1,0.6-0.2,1-0.2c0.2,0,0.5,0,0.7,0.1c0.2,0,0.4,0.1,0.6,0.2
						c0.2,0.1,0.4,0.2,0.6,0.3l-0.5,0.7c-0.2-0.1-0.5-0.3-0.7-0.3c-0.2-0.1-0.4-0.1-0.6-0.1c-0.3,0-0.5,0.1-0.7,0.2
						s-0.2,0.3-0.2,0.5c0,0.1,0,0.2,0.1,0.3c0.1,0.1,0.2,0.1,0.3,0.1s0.3,0,0.6,0.1c0,0,0,0,0.1,0c0,0,0,0,0.1,0c0,0,0,0,0,0
						s0,0,0,0c0.3,0,0.6,0.1,0.8,0.1c0.2,0.1,0.4,0.2,0.6,0.4s0.2,0.5,0.2,0.8c0,0.3-0.1,0.6-0.2,0.8c-0.1,0.2-0.4,0.4-0.6,0.5
						c-0.3,0.1-0.6,0.2-1.1,0.2C461.1,86.9,460.8,86.9,460.6,86.8z"/>
					<path d="M464.4,80.4h0.9v6.4h-0.9V80.4z M467.2,84c0-0.3-0.1-0.6-0.3-0.7c-0.2-0.2-0.4-0.3-0.7-0.3c-0.3,0-0.5,0.1-0.7,0.2
						c-0.2,0.2-0.2,0.4-0.2,0.6l-0.1-0.9c0.1-0.3,0.3-0.5,0.6-0.6c0.2-0.1,0.5-0.2,0.8-0.2c0.5,0,0.9,0.2,1.1,0.5
						c0.3,0.3,0.4,0.8,0.4,1.4v2.8h-0.9V84z"/>
					<path d="M470.2,86.6c-0.3-0.2-0.5-0.4-0.6-0.7c-0.1-0.3-0.2-0.7-0.2-1.1v-0.7c0-0.4,0.1-0.8,0.2-1.1c0.1-0.3,0.4-0.5,0.6-0.7
						c0.3-0.2,0.6-0.2,1-0.2s0.7,0.1,1,0.2c0.3,0.2,0.5,0.4,0.6,0.7c0.1,0.3,0.2,0.6,0.2,1.1v0.8c0,0.4-0.1,0.8-0.2,1.1
						c-0.1,0.3-0.4,0.5-0.6,0.7s-0.6,0.2-1,0.2S470.5,86.8,470.2,86.6z M471.9,85.7c0.2-0.2,0.3-0.5,0.3-0.8v-0.8
						c0-0.4-0.1-0.6-0.3-0.8c-0.2-0.2-0.4-0.3-0.7-0.3s-0.6,0.1-0.7,0.3c-0.2,0.2-0.3,0.5-0.3,0.8v0.8c0,0.4,0.1,0.6,0.3,0.8
						c0.2,0.2,0.4,0.3,0.7,0.3S471.8,85.9,471.9,85.7z"/>
					<path d="M474.4,82.3h0.9v6.4h-0.9V82.3z M475.7,86.7c-0.2-0.1-0.4-0.3-0.5-0.6l0.1-1c0,0.2,0,0.4,0.1,0.5s0.2,0.2,0.3,0.3
						c0.1,0.1,0.3,0.1,0.5,0.1c0.3,0,0.5-0.1,0.7-0.3c0.2-0.2,0.2-0.4,0.2-0.8v-1c0-0.3-0.1-0.6-0.2-0.8c-0.2-0.2-0.4-0.3-0.7-0.3
						c-0.2,0-0.4,0-0.5,0.1c-0.1,0.1-0.2,0.2-0.3,0.3c-0.1,0.1-0.1,0.3-0.1,0.5l-0.1-0.9c0.1-0.3,0.3-0.5,0.5-0.6
						c0.2-0.1,0.5-0.2,0.7-0.2c0.3,0,0.6,0.1,0.8,0.2c0.2,0.1,0.4,0.4,0.5,0.6c0.1,0.3,0.2,0.6,0.2,1v1c0,0.4-0.1,0.7-0.2,1
						s-0.3,0.5-0.5,0.6c-0.2,0.1-0.5,0.2-0.9,0.2C476.1,86.9,475.9,86.8,475.7,86.7z"/>
				</g>
			</g>
			<circle class="st2" cx="580.8" cy="82.9" r="6.3"/>
			<circle class="st2" cx="600" cy="83.3" r="6.3"/>
			<g>
				<circle class="st17" cx="615.7" cy="78.5" r="1.5"/>
				<circle class="st17" cx="615.7" cy="83.3" r="1.5"/>
				<circle class="st17" cx="615.7" cy="88.1" r="1.5"/>
			</g>
			<g>
				<polygon class="st2" points="622.8,82 633.7,69.9 642.9,56.8 648,70.5 655,83.3 639,81.6 				"/>
				<path class="st2" d="M677.2,55.4l1.4,3c0.7,1.6,0,3.6-1.6,4.3l-30,13.7c-1.6,0.7-3.6,0-4.3-1.6l-1.4-3c-0.7-1.6,0-3.6,1.6-4.3
					l30-13.7C674.5,53,676.5,53.8,677.2,55.4z"/>
			</g>
			<rect x="509.4" y="92.2" class="st20" width="118.2" height="98.2"/>
			<g>
				<g>
					<path d="M512,106.9h1.3v1.4H512V106.9z"/>
					<path d="M514.9,106.9h1.3v1.4h-1.3V106.9z"/>
					<path d="M517.8,106.9h1.3v1.4h-1.3V106.9z"/>
					<path d="M520.7,106.9h1.3v1.4h-1.3V106.9z"/>
					<path d="M526.9,106.9h1.3v1.4h-1.3V106.9z"/>
					<path d="M529.8,106.9h1.3v1.4h-1.3V106.9z"/>
					<path d="M532.7,106.9h1.3v1.4h-1.3V106.9z"/>
					<path d="M538.9,106.9h1.3v1.4h-1.3V106.9z"/>
					<path d="M545.2,106.9h1.3v1.4h-1.3V106.9z"/>
					<path d="M548.1,106.9h1.3v1.4h-1.3V106.9z"/>
					<path d="M550.9,106.9h1.3v1.4h-1.3V106.9z"/>
					<path d="M557.2,106.9h1.3v1.4h-1.3V106.9z"/>
					<path d="M560.1,106.9h1.3v1.4h-1.3V106.9z"/>
					<path d="M562.9,106.9h1.3v1.4h-1.3V106.9z"/>
					<path d="M569.2,106.9h1.3v1.4h-1.3V106.9z"/>
					<path d="M572.1,106.9h1.3v1.4h-1.3V106.9z"/>
					<path d="M578.3,106.9h1.3v1.4h-1.3V106.9z"/>
					<path d="M581.2,106.9h1.3v1.4h-1.3V106.9z"/>
					<path d="M584.1,106.9h1.3v1.4h-1.3V106.9z"/>
					<path d="M586.9,106.9h1.3v1.4h-1.3V106.9z"/>
					<path d="M589.8,106.9h1.3v1.4h-1.3V106.9z"/>
					<path d="M592.7,106.9h1.3v1.4h-1.3V106.9z"/>
					<path d="M595.5,106.9h1.3v1.4h-1.3V106.9z"/>
					<path d="M598.4,106.9h1.3v1.4h-1.3V106.9z"/>
					<path d="M601.3,106.9h1.3v1.4h-1.3V106.9z"/>
					<path d="M604.1,106.9h1.3v1.4h-1.3V106.9z"/>
					<path d="M607,106.9h1.3v1.4H607V106.9z"/>
					<path d="M609.9,106.9h1.3v1.4h-1.3V106.9z"/>
					<path d="M612.7,106.9h1.3v1.4h-1.3V106.9z"/>
					<path d="M615.6,106.9h1.3v1.4h-1.3V106.9z"/>
					<path d="M618.5,106.9h1.3v1.4h-1.3V106.9z"/>
					<path d="M621.3,106.9h1.3v1.4h-1.3V106.9z"/>
					<path d="M624.2,106.9h1.3v1.4h-1.3V106.9z"/>
					<path d="M512,123h1.3v1.4H512V123z"/>
					<path d="M518.3,123h1.3v1.4h-1.3V123z"/>
					<path d="M521.2,123h1.3v1.4h-1.3V123z"/>
					<path d="M527.4,123h1.3v1.4h-1.3V123z"/>
					<path d="M533.7,123h1.3v1.4h-1.3V123z"/>
					<path d="M536.6,123h1.3v1.4h-1.3V123z"/>
					<path d="M539.4,123h1.3v1.4h-1.3V123z"/>
					<path d="M545.7,123h1.3v1.4h-1.3V123z"/>
					<path d="M548.6,123h1.3v1.4h-1.3V123z"/>
					<path d="M554.8,123h1.3v1.4h-1.3V123z"/>
					<path d="M561.1,123h1.3v1.4h-1.3V123z"/>
					<path d="M567.4,123h1.3v1.4h-1.3V123z"/>
					<path d="M570.2,123h1.3v1.4h-1.3V123z"/>
					<path d="M573.1,123h1.3v1.4h-1.3V123z"/>
					<path d="M579.4,123h1.3v1.4h-1.3V123z"/>
					<path d="M582.2,123h1.3v1.4h-1.3V123z"/>
					<path d="M588.5,123h1.3v1.4h-1.3V123z"/>
					<path d="M591.4,123h1.3v1.4h-1.3V123z"/>
					<path d="M594.3,123h1.3v1.4h-1.3V123z"/>
					<path d="M597.1,123h1.3v1.4h-1.3V123z"/>
					<path d="M600,123h1.3v1.4H600V123z"/>
					<path d="M606.3,123h1.3v1.4h-1.3V123z"/>
					<path d="M609.1,123h1.3v1.4h-1.3V123z"/>
					<path d="M612,123h1.3v1.4H612V123z"/>
					<path d="M618.3,123h1.3v1.4h-1.3V123z"/>
					<path d="M621.1,123h1.3v1.4h-1.3V123z"/>
					<path d="M624,123h1.3v1.4H624V123z"/>
					<path d="M515.4,139.1h1.3v1.4h-1.3V139.1z"/>
					<path d="M518.3,139.1h1.3v1.4h-1.3V139.1z"/>
					<path d="M524.6,139.1h1.3v1.4h-1.3V139.1z"/>
					<path d="M530.8,139.1h1.3v1.4h-1.3V139.1z"/>
					<path d="M537.1,139.1h1.3v1.4h-1.3V139.1z"/>
					<path d="M540,139.1h1.3v1.4H540V139.1z"/>
					<path d="M542.8,139.1h1.3v1.4h-1.3V139.1z"/>
					<path d="M545.7,139.1h1.3v1.4h-1.3V139.1z"/>
					<path d="M548.6,139.1h1.3v1.4h-1.3V139.1z"/>
					<path d="M551.4,139.1h1.3v1.4h-1.3V139.1z"/>
					<path d="M557.7,139.1h1.3v1.4h-1.3V139.1z"/>
					<path d="M564,139.1h1.3v1.4H564V139.1z"/>
					<path d="M566.8,139.1h1.3v1.4h-1.3V139.1z"/>
					<path d="M573.1,139.1h1.3v1.4h-1.3V139.1z"/>
					<path d="M576,139.1h1.3v1.4H576V139.1z"/>
					<path d="M578.9,139.1h1.3v1.4h-1.3V139.1z"/>
					<path d="M581.7,139.1h1.3v1.4h-1.3V139.1z"/>
					<path d="M584.6,139.1h1.3v1.4h-1.3V139.1z"/>
					<path d="M587.5,139.1h1.3v1.4h-1.3V139.1z"/>
					<path d="M593.7,139.1h1.3v1.4h-1.3V139.1z"/>
					<path d="M596.6,139.1h1.3v1.4h-1.3V139.1z"/>
					<path d="M599.5,139.1h1.3v1.4h-1.3V139.1z"/>
					<path d="M602.3,139.1h1.3v1.4h-1.3V139.1z"/>
					<path d="M605.2,139.1h1.3v1.4h-1.3V139.1z"/>
					<path d="M611.5,139.1h1.3v1.4h-1.3V139.1z"/>
					<path d="M614.3,139.1h1.3v1.4h-1.3V139.1z"/>
					<path d="M617.2,139.1h1.3v1.4h-1.3V139.1z"/>
					<path d="M620.1,139.1h1.3v1.4h-1.3V139.1z"/>
					<path d="M622.9,139.1h1.3v1.4h-1.3V139.1z"/>
					<path d="M512,155.2h1.3v1.4H512V155.2z"/>
					<path d="M518.3,155.2h1.3v1.4h-1.3V155.2z"/>
					<path d="M521.2,155.2h1.3v1.4h-1.3V155.2z"/>
					<path d="M527.4,155.2h1.3v1.4h-1.3V155.2z"/>
					<path d="M533.7,155.2h1.3v1.4h-1.3V155.2z"/>
					<path d="M540,155.2h1.3v1.4H540V155.2z"/>
					<path d="M542.8,155.2h1.3v1.4h-1.3V155.2z"/>
					<path d="M545.7,155.2h1.3v1.4h-1.3V155.2z"/>
					<path d="M548.6,155.2h1.3v1.4h-1.3V155.2z"/>
					<path d="M551.4,155.2h1.3v1.4h-1.3V155.2z"/>
					<path d="M557.7,155.2h1.3v1.4h-1.3V155.2z"/>
					<path d="M564,155.2h1.3v1.4H564V155.2z"/>
					<path d="M570.2,155.2h1.3v1.4h-1.3V155.2z"/>
					<path d="M573.1,155.2h1.3v1.4h-1.3V155.2z"/>
					<path d="M576,155.2h1.3v1.4H576V155.2z"/>
					<path d="M582.2,155.2h1.3v1.4h-1.3V155.2z"/>
					<path d="M585.1,155.2h1.3v1.4h-1.3V155.2z"/>
					<path d="M588,155.2h1.3v1.4H588V155.2z"/>
					<path d="M590.9,155.2h1.3v1.4h-1.3V155.2z"/>
					<path d="M597.1,155.2h1.3v1.4h-1.3V155.2z"/>
					<path d="M600,155.2h1.3v1.4H600V155.2z"/>
					<path d="M602.9,155.2h1.3v1.4h-1.3V155.2z"/>
					<path d="M605.7,155.2h1.3v1.4h-1.3V155.2z"/>
					<path d="M608.6,155.2h1.3v1.4h-1.3V155.2z"/>
					<path d="M611.5,155.2h1.3v1.4h-1.3V155.2z"/>
					<path d="M614.3,155.2h1.3v1.4h-1.3V155.2z"/>
					<path d="M617.2,155.2h1.3v1.4h-1.3V155.2z"/>
					<path d="M620.1,155.2h1.3v1.4h-1.3V155.2z"/>
					<path d="M622.9,155.2h1.3v1.4h-1.3V155.2z"/>
					<path class="st17" d="M513.9,172.7h-1.8v-9.5h1.8V172.7z"/>
					<path class="st17" d="M515.6,165.9h1.7v6.8h-1.7V165.9z M519.3,168.6c0-0.3-0.1-0.6-0.3-0.8c-0.2-0.2-0.4-0.3-0.8-0.3
						c-0.3,0-0.6,0.1-0.7,0.3s-0.3,0.4-0.3,0.8l-0.1-1.5c0.2-0.4,0.4-0.8,0.7-1c0.3-0.2,0.6-0.3,1-0.3c0.7,0,1.2,0.2,1.6,0.7
						c0.4,0.5,0.6,1.2,0.6,2v4.1h-1.7V168.6z"/>
					<path class="st17" d="M524,172.7c-0.4-0.1-0.7-0.2-1-0.3c-0.3-0.1-0.6-0.3-0.8-0.5l1-1.4c0.3,0.2,0.6,0.4,1,0.5
						c0.3,0.1,0.7,0.2,1,0.2c0.4,0,0.7,0,0.9-0.1c0.2-0.1,0.3-0.2,0.3-0.4c0-0.2,0-0.3-0.1-0.3c-0.1-0.1-0.2-0.1-0.4-0.2
						c-0.1,0-0.4-0.1-0.6-0.1c-0.1,0-0.1,0-0.2,0s-0.2,0-0.2,0c0,0,0,0-0.1,0s0,0-0.1,0c-0.5-0.1-0.9-0.1-1.1-0.2
						c-0.3-0.1-0.5-0.3-0.7-0.6c-0.2-0.3-0.3-0.7-0.3-1.2c0-0.5,0.1-0.8,0.3-1.2c0.2-0.3,0.5-0.6,0.9-0.7c0.4-0.2,0.9-0.3,1.4-0.3
						c0.3,0,0.7,0,1,0.1c0.3,0.1,0.6,0.2,0.9,0.3s0.6,0.3,0.8,0.5l-1,1.3c-0.3-0.2-0.6-0.3-0.9-0.4c-0.3-0.1-0.6-0.1-0.9-0.1
						c-0.3,0-0.6,0-0.8,0.1s-0.3,0.2-0.3,0.3c0,0.1,0,0.2,0.2,0.3c0.1,0.1,0.2,0.1,0.4,0.1s0.4,0.1,0.7,0.1c0,0,0.1,0,0.1,0
						s0.1,0,0.1,0c0,0,0,0,0.1,0c0,0,0,0,0.1,0c0.5,0.1,0.9,0.1,1.2,0.2c0.3,0.1,0.6,0.3,0.8,0.6c0.2,0.3,0.3,0.7,0.3,1.3
						c0,0.5-0.1,0.9-0.3,1.2c-0.2,0.3-0.5,0.6-0.9,0.8c-0.4,0.2-0.9,0.3-1.5,0.3C524.8,172.8,524.4,172.8,524,172.7z"/>
					<path class="st17" d="M528.8,165.9h3.1v1.5h-3.1V165.9z M529.8,172.3c-0.3-0.3-0.4-0.8-0.4-1.3v-7h1.7v6.6c0,0.2,0,0.3,0.1,0.4
						c0.1,0.1,0.2,0.1,0.3,0.1h0.4v1.7h-0.9C530.5,172.8,530.1,172.6,529.8,172.3z"/>
					<path class="st17" d="M533.6,172.3c-0.3-0.3-0.5-0.9-0.5-1.6c0-0.7,0.2-1.2,0.6-1.5s1-0.5,1.7-0.5h1.6l0.1,1.4h-1.7
						c-0.3,0-0.4,0.1-0.6,0.2c-0.1,0.1-0.2,0.3-0.2,0.5c0,0.2,0.1,0.4,0.2,0.5c0.2,0.1,0.4,0.2,0.7,0.2c0.5,0,0.8-0.1,1-0.2
						c0.2-0.1,0.3-0.3,0.3-0.5l0.1,1c0,0.2-0.1,0.5-0.3,0.6s-0.4,0.3-0.7,0.4c-0.3,0.1-0.6,0.1-0.9,0.1
						C534.4,172.8,533.9,172.7,533.6,172.3z M536.9,168.4c0-0.3-0.1-0.6-0.3-0.7c-0.2-0.2-0.5-0.3-0.8-0.3c-0.2,0-0.5,0-0.7,0.1
						c-0.2,0.1-0.4,0.2-0.6,0.3l-1.1-1.1c0.3-0.3,0.6-0.6,1-0.7s0.9-0.3,1.4-0.3c0.6,0,1,0.1,1.4,0.3c0.4,0.2,0.7,0.5,0.9,0.9
						c0.2,0.4,0.3,0.8,0.3,1.4v4.4h-1.5V168.4z"/>
					<path class="st17" d="M541.8,170.5c0,0.2,0,0.3,0.1,0.4c0.1,0.1,0.2,0.1,0.4,0.1h0.3v1.7h-0.9c-0.5,0-0.9-0.2-1.2-0.5
						c-0.3-0.3-0.4-0.8-0.4-1.3v-7.7h1.7V170.5z"/>
					<path class="st17" d="M545.5,170.5c0,0.2,0,0.3,0.1,0.4c0.1,0.1,0.2,0.1,0.4,0.1h0.3v1.7h-0.9c-0.5,0-0.9-0.2-1.2-0.5
						c-0.3-0.3-0.4-0.8-0.4-1.3v-7.7h1.7V170.5z"/>
					<path class="st17" d="M552.3,172.4c-0.5-0.3-0.9-0.7-1.2-1.2c-0.3-0.5-0.4-1.1-0.4-1.8v-2.7c0-0.7,0.1-1.3,0.4-1.8
						c0.3-0.5,0.7-0.9,1.2-1.2c0.5-0.3,1.1-0.4,1.7-0.4c0.7,0,1.2,0.1,1.7,0.4c0.5,0.3,0.9,0.7,1.2,1.2c0.3,0.5,0.4,1.1,0.4,1.8v2.7
						c0,0.7-0.1,1.3-0.4,1.8c-0.3,0.5-0.7,0.9-1.2,1.2s-1.1,0.4-1.7,0.4C553.4,172.8,552.8,172.7,552.3,172.4z M554.9,170.8
						c0.2-0.1,0.4-0.3,0.5-0.6c0.1-0.3,0.2-0.5,0.2-0.9v-2.8c0-0.3-0.1-0.6-0.2-0.9c-0.1-0.3-0.3-0.4-0.5-0.6
						c-0.2-0.1-0.5-0.2-0.8-0.2s-0.6,0.1-0.8,0.2s-0.4,0.3-0.5,0.6c-0.1,0.3-0.2,0.5-0.2,0.9v2.8c0,0.3,0.1,0.6,0.2,0.9
						c0.1,0.3,0.3,0.4,0.5,0.6s0.5,0.2,0.8,0.2S554.6,171,554.9,170.8z"/>
					<path class="st17" d="M559,165.9h1.7v6.8H559V165.9z M562.7,168.6c0-0.3-0.1-0.6-0.3-0.8c-0.2-0.2-0.4-0.3-0.8-0.3
						c-0.3,0-0.6,0.1-0.7,0.3s-0.3,0.4-0.3,0.8l-0.1-1.5c0.2-0.4,0.4-0.8,0.7-1c0.3-0.2,0.6-0.3,1-0.3c0.7,0,1.2,0.2,1.6,0.7
						c0.4,0.5,0.6,1.2,0.6,2v4.1h-1.7V168.6z"/>
					<path class="st17" d="M567.8,170.5c0,0.2,0,0.3,0.1,0.4c0.1,0.1,0.2,0.1,0.4,0.1h0.3v1.7h-0.9c-0.5,0-0.9-0.2-1.2-0.5
						c-0.3-0.3-0.4-0.8-0.4-1.3v-7.7h1.7V170.5z"/>
					<path class="st17" d="M569.7,163.2h1.7v1.8h-1.7V163.2z M569.7,165.9h1.7v6.8h-1.7V165.9z"/>
					<path class="st17" d="M572.9,165.9h1.7v6.8h-1.7V165.9z M576.6,168.6c0-0.3-0.1-0.6-0.3-0.8c-0.2-0.2-0.4-0.3-0.8-0.3
						c-0.3,0-0.6,0.1-0.7,0.3s-0.3,0.4-0.3,0.8l-0.1-1.5c0.2-0.4,0.4-0.8,0.7-1c0.3-0.2,0.6-0.3,1-0.3c0.7,0,1.2,0.2,1.6,0.7
						c0.4,0.5,0.6,1.2,0.6,2v4.1h-1.7V168.6z"/>
					<path class="st17" d="M581.2,172.5c-0.4-0.2-0.8-0.6-1-1c-0.2-0.5-0.3-1-0.3-1.6V169c0-0.7,0.1-1.2,0.3-1.7
						c0.2-0.5,0.5-0.8,1-1.1c0.4-0.2,0.9-0.4,1.5-0.4c0.6,0,1,0.1,1.4,0.4c0.4,0.3,0.7,0.7,0.9,1.3c0.2,0.6,0.3,1.2,0.3,2v0.4h-4.4
						v-1.2h2.8l0-0.2c0-0.4-0.2-0.7-0.3-0.9s-0.4-0.3-0.8-0.3c-0.4,0-0.7,0.1-0.9,0.4s-0.3,0.6-0.3,1.1v0.9c0,0.5,0.1,0.8,0.4,1.1
						c0.2,0.3,0.6,0.4,1,0.4c0.2,0,0.5,0,0.7-0.1c0.2-0.1,0.4-0.2,0.6-0.4l1.1,1c-0.3,0.3-0.7,0.6-1.1,0.8c-0.4,0.2-0.8,0.3-1.3,0.3
						C582.1,172.8,581.6,172.7,581.2,172.5z"/>
					<path class="st17" d="M596.7,167.4v1.9c0,0.7-0.1,1.3-0.4,1.9s-0.7,1-1.1,1.3c-0.5,0.3-1.1,0.4-1.7,0.4c-0.7,0-1.2-0.1-1.7-0.4
						c-0.5-0.3-0.9-0.7-1.2-1.2c-0.3-0.5-0.4-1.1-0.4-1.8v-2.8c0-0.7,0.1-1.3,0.4-1.9c0.3-0.5,0.7-1,1.1-1.3
						c0.5-0.3,1.1-0.4,1.7-0.4c0.5,0,1,0.1,1.5,0.4c0.5,0.2,0.8,0.6,1.1,1s0.5,0.9,0.6,1.5h-1.8c-0.1-0.2-0.2-0.4-0.3-0.5
						c-0.1-0.1-0.3-0.3-0.5-0.3c-0.2-0.1-0.4-0.1-0.6-0.1c-0.3,0-0.6,0.1-0.8,0.2s-0.4,0.3-0.5,0.6c-0.1,0.3-0.2,0.6-0.2,0.9v2.8
						c0,0.3,0.1,0.6,0.2,0.8c0.1,0.2,0.3,0.4,0.5,0.5c0.2,0.1,0.5,0.2,0.8,0.2c0.3,0,0.6-0.1,0.8-0.2c0.2-0.1,0.4-0.3,0.5-0.6
						c0.1-0.3,0.2-0.6,0.2-0.9v-0.2h-1.4v-1.7H596.7z"/>
					<path class="st17" d="M598.3,163.2h1.7v1.8h-1.7V163.2z M598.3,165.9h1.7v6.8h-1.7V165.9z"/>
					<path class="st17" d="M601,165.9h3.5v1.5H601V165.9z M601.7,165c0-0.6,0.1-1.1,0.4-1.4c0.3-0.3,0.7-0.4,1.2-0.4h1.2v1.6h-0.7
						c-0.1,0-0.2,0-0.3,0.1c-0.1,0.1-0.1,0.2-0.1,0.4v7.4h-1.7V165z"/>
					<path class="st17" d="M605.1,165.9h3.1v1.5h-3.1V165.9z M606.1,172.3c-0.3-0.3-0.4-0.8-0.4-1.3v-7h1.7v6.6c0,0.2,0,0.3,0.1,0.4
						c0.1,0.1,0.2,0.1,0.3,0.1h0.4v1.7h-0.9C606.8,172.8,606.4,172.6,606.1,172.3z"/>
					<path class="st17" d="M609.6,163.2h1.7v1.8h-1.7V163.2z M609.6,165.9h1.7v6.8h-1.7V165.9z"/>
					<path class="st17" d="M612.9,165.9h1.7v6.8h-1.7V165.9z M616.6,168.6c0-0.3-0.1-0.6-0.3-0.8c-0.2-0.2-0.4-0.3-0.8-0.3
						c-0.3,0-0.6,0.1-0.7,0.3s-0.3,0.4-0.3,0.8l-0.1-1.5c0.2-0.4,0.4-0.8,0.7-1c0.3-0.2,0.6-0.3,1-0.3c0.7,0,1.2,0.2,1.6,0.7
						c0.4,0.5,0.6,1.2,0.6,2v4.1h-1.7V168.6z"/>
					<path class="st17" d="M620.7,172.5c-0.3-0.2-0.6-0.6-0.7-1c-0.2-0.4-0.3-1-0.3-1.6v-1.1c0-0.6,0.1-1.2,0.3-1.6
						c0.2-0.4,0.4-0.8,0.7-1c0.3-0.2,0.7-0.3,1.2-0.3c0.3,0,0.7,0.1,0.9,0.3s0.5,0.5,0.7,0.9l-0.1,1.5c0-0.2,0-0.4-0.1-0.6
						c-0.1-0.2-0.2-0.3-0.3-0.4c-0.1-0.1-0.3-0.1-0.5-0.1c-0.3,0-0.6,0.1-0.7,0.3s-0.3,0.6-0.3,1v1.1c0,0.4,0.1,0.7,0.3,0.9
						c0.2,0.2,0.4,0.3,0.7,0.3c0.2,0,0.4,0,0.5-0.1c0.1-0.1,0.3-0.2,0.3-0.4s0.1-0.3,0.1-0.6l0.1,1.6c-0.1,0.4-0.3,0.7-0.6,0.9
						c-0.3,0.2-0.6,0.3-1,0.3C621.4,172.8,621.1,172.7,620.7,172.5z M620.8,175.2c-0.4-0.2-0.7-0.5-0.9-0.8l1.1-1.1
						c0.1,0.2,0.3,0.3,0.5,0.4s0.4,0.1,0.6,0.1c0.4,0,0.6-0.1,0.9-0.3c0.2-0.2,0.3-0.5,0.3-0.9v-6.7h1.7v6.6c0,0.6-0.1,1.2-0.3,1.6
						c-0.2,0.4-0.6,0.8-1,1c-0.4,0.2-1,0.3-1.6,0.3C621.7,175.5,621.2,175.4,620.8,175.2z"/>
				</g>
			</g>
			<g>
				<g>
					<path class="st2" d="M700.8,72.9h-5.4V50.4l-3.5,1.3V46l4.3-1.9h4.7V72.9z"/>
				</g>
			</g>
			<g>
				<polygon class="st2" points="629.6,169 644.5,162.3 658.2,154.1 657.3,168.6 658.6,183.1 644.6,175.2 				"/>
				<path class="st2" d="M690.2,166.6l0,3.3c0,1.8-1.4,3.3-3.2,3.3l-33,0.4c-1.8,0-3.3-1.4-3.3-3.2l0-3.3c0-1.8,1.4-3.3,3.2-3.3
					l33-0.4C688.7,163.3,690.1,164.8,690.2,166.6z"/>
			</g>
			<g>
				<g>
					<path class="st2" d="M697.8,174.7l9.9-13c0.5-0.6,0.8-1.2,1-1.8s0.4-1.2,0.4-1.7v0c0-0.8-0.3-1.4-0.8-1.8
						c-0.5-0.4-1.2-0.6-2.1-0.6c-0.9,0-1.6,0.3-2.2,0.9s-0.9,1.4-1,2.5v0h-5.6v0c0.1-1.8,0.6-3.4,1.3-4.7c0.7-1.3,1.8-2.3,3-3
						c1.3-0.7,2.7-1,4.4-1c1.8,0,3.3,0.3,4.6,0.9s2.3,1.4,2.9,2.6c0.7,1.1,1,2.5,1,4.1v0c0,1.3-0.2,2.6-0.7,3.9
						c-0.5,1.3-1.1,2.5-1.9,3.5l-7.1,9h9.9v5.2h-17.1V174.7z"/>
				</g>
			</g>
		</g>
	</g>
	<path class="st2" d="M293.6,72.9h-83.3c-2.2,0-3.9-1.8-3.9-3.9v0c0-2.2,1.8-3.9,3.9-3.9h83.3c2.2,0,3.9,1.8,3.9,3.9v0
		C297.6,71.2,295.8,72.9,293.6,72.9z"/>
	<path class="st2" d="M903.5,214.5h52.3c1.9,0,3.4,1.5,3.4,3.4v0c0,1.9-1.5,3.4-3.4,3.4h-52.3c-1.9,0-3.4-1.5-3.4-3.4v0
		C900.1,216.1,901.6,214.5,903.5,214.5z"/>
	<path class="st2" d="M943.1,52.7h-54.2c-3.6,0-6.6-3-6.6-6.6v0c0-3.6,3-6.6,6.6-6.6h54.2c3.6,0,6.6,3,6.6,6.6v0
		C949.7,49.7,946.7,52.7,943.1,52.7z"/>
	<path class="st2" d="M141.7,224H89.4c-1.5,0-2.7-1.2-2.7-2.7v0c0-1.5,1.2-2.7,2.7-2.7h52.3c1.5,0,2.7,1.2,2.7,2.7v0
		C144.4,222.8,143.2,224,141.7,224z"/>
	<path class="st2" d="M298.1,215.4h-53.9c-2,0-3.6-1.6-3.6-3.6v0c0-2,1.6-3.6,3.6-3.6h53.9c2,0,3.6,1.6,3.6,3.6v0
		C301.7,213.8,300.1,215.4,298.1,215.4z"/>
	<circle class="st2" cx="48.6" cy="76.4" r="3.6"/>
	<circle class="st2" cx="320.2" cy="116.9" r="4.5"/>
	<path class="st2" d="M930,141h52.3c1.9,0,3.4,1.5,3.4,3.4v0c0,1.9-1.5,3.4-3.4,3.4H930c-1.9,0-3.4-1.5-3.4-3.4v0
		C926.6,142.5,928.1,141,930,141z"/>
	<circle class="st2" cx="759.7" cy="123.3" r="5.2"/>
	<circle class="st2" cx="934.6" cy="83.3" r="5.9"/>
	<circle class="st2" cx="742.9" cy="215.5" r="3"/>
</g>
</svg>
