<?xml version="1.0" encoding="utf-8"?>
<!-- Generator: Adobe Illustrator 24.2.0, SVG Export Plug-In . SVG Version: 6.00 Build 0)  -->
<svg version="1.1" xmlns="http://www.w3.org/2000/svg" xmlns:xlink="http://www.w3.org/1999/xlink" x="0px" y="0px"
	 viewBox="0 0 1000 257" style="enable-background:new 0 0 1000 257;" xml:space="preserve">
<style type="text/css">
	.st0{fill:#EE3C96;}
	.st1{fill:#999999;}
	.st2{fill:#33669A;}
	.st3{fill:#FFFFFF;}
	.st4{fill:none;stroke:#FFFFFF;stroke-width:2;stroke-miterlimit:10;}
	.st5{fill:#F89938;}
	.st6{fill:#CCCCCC;}
	.st7{fill:#B4B4B4;}
	.st8{fill:#F9B7B8;}
	.st9{opacity:0.2;fill:#010101;enable-background:new    ;}
	.st10{fill:#403E56;}
	.st11{fill:#302E41;}
	.st12{fill:#34679A;}
	.st13{fill:#74CBC8;}
	.st14{fill:#497CA7;}
	.st15{opacity:0.2;}
	.st16{fill:#2F3090;}
	.st17{fill:#363896;}
	.st18{fill:#010101;}
	.st19{fill:#EE3E96;}
	.st20{fill:#F8993A;}
</style>
<g id="Layer_5">
	<path class="st0" d="M808.8,34.8c0,7,2.9,13.3,7.5,17.9c4.6,4.6,10.9,7.5,17.9,7.5H1000V257H0V0h1000v9.5H834.2
		C820.2,9.5,808.8,20.9,808.8,34.8z"/>
	<path class="st1" d="M738.4,172c0,0-30.5,28.2-121.7,14.2c-91.2-14.1-68.2-22.2-104.9-44.7c-28.9-17.7-14.6-34.1-44.3-42.5
		c-23.3-6.7-45-17.9-63.8-33.2c-12.5-10.2-18.9-10.8-32.6-16.3c-21.3-8.6-61.4-12-79.5,0c-18.2,12-55.3-6.1-89.6-7.8
		s-48.9,19.3-70.2,61.2s-20.3,122,15.5,109.4c35.9-12.6,77.7,19.7,106.5,9.3c28.8-10.4,91.2,8.2,135.8-17s86.1-11.8,104.9-2.2
		c18.9,9.6,69.3,18.1,88.5,7c19.2-11.1,44.3-2.9,65.1,0S729.7,220.6,738.4,172S738.4,172,738.4,172L738.4,172L738.4,172z"/>
	<path class="st2" d="M696.8,113.6h-281c-6.6,0-12-5.4-12-12V51.2c0-6.6,5.4-12,12-12h281c6.6,0,12,5.4,12,12v50.3
		C708.8,108.2,703.4,113.6,696.8,113.6z"/>
	<path class="st3" d="M737.6,171.6c0,0-32.6,28.1-130.2,14.1c-97.6-14-73-22.1-112.3-44.5c-30.9-17.7-15.6-33.9-47.4-42.4
		c-24.9-6.6-48.2-17.8-68.3-33.1c-13.4-10.2-20.2-10.8-34.9-16.3c-22.8-8.5-65.7-12-85.1,0s-59.2-6.1-95.9-7.7
		c-36.7-1.7-52.4,19.3-75.1,61s-21.8,121.5,16.6,109c38.4-12.5,83.2,19.7,114,9.3s97.6,8.2,145.3-16.9s92.1-11.8,112.3-2.2
		c20.2,9.6,74.1,18.1,94.7,7c20.6-11.1,47.5-2.9,69.7,0C663.5,211.6,728.4,220,737.6,171.6S737.6,171.6,737.6,171.6L737.6,171.6
		L737.6,171.6z"/>
	<g>
		<g>
			<path class="st2" d="M117.1,139.4c-2.3-1.3-4.1-3.1-5.4-5.4c-1.3-2.3-1.9-5-1.9-8.1v-11.8c0-3.1,0.6-5.8,1.9-8.1
				c1.3-2.3,3.1-4.1,5.4-5.4c2.3-1.3,5-1.9,8-1.9c3,0,5.7,0.6,8,1.9c2.3,1.3,4.1,3.1,5.4,5.4c1.3,2.3,1.9,5,1.9,8.1v11.8
				c0,3.1-0.6,5.8-1.9,8.1c-1.3,2.3-3.1,4.1-5.4,5.4c-2.3,1.3-5,1.9-8,1.9C122,141.4,119.4,140.7,117.1,139.4z M128.8,132.6
				c1.1-0.6,1.9-1.5,2.5-2.6s0.9-2.4,0.9-3.9v-12.3c0-1.5-0.3-2.7-0.9-3.9c-0.6-1.1-1.4-2-2.5-2.6c-1.1-0.6-2.3-0.9-3.7-0.9
				c-1.4,0-2.7,0.3-3.7,0.9c-1.1,0.6-1.9,1.5-2.5,2.6c-0.6,1.1-0.9,2.4-0.9,3.9v12.3c0,1.5,0.3,2.7,0.9,3.9c0.6,1.1,1.4,2,2.5,2.6
				c1.1,0.6,2.3,0.9,3.7,0.9C126.5,133.5,127.7,133.2,128.8,132.6z"/>
			<path class="st2" d="M178.4,117.5v8.2c0,3.1-0.6,5.8-1.9,8.2c-1.3,2.4-3,4.2-5.3,5.5c-2.3,1.3-5,1.9-8,1.9c-3,0-5.7-0.6-8.1-1.8
				c-2.3-1.2-4.1-2.9-5.4-5.2c-1.3-2.2-1.9-4.8-1.9-7.7v-12.3c0-3.1,0.6-5.8,1.9-8.2c1.3-2.4,3-4.2,5.3-5.5c2.3-1.3,5-1.9,8-1.9
				c2.5,0,4.8,0.5,6.9,1.5c2.1,1,3.9,2.5,5.3,4.4c1.4,1.9,2.4,4.1,2.9,6.5h-8.5c-0.3-0.9-0.8-1.6-1.4-2.3c-0.7-0.6-1.4-1.1-2.3-1.5
				c-0.9-0.3-1.8-0.5-2.8-0.5c-1.4,0-2.6,0.3-3.7,0.9c-1.1,0.6-1.9,1.5-2.5,2.6c-0.6,1.1-0.9,2.4-0.9,3.9v12.3
				c0,1.3,0.3,2.5,0.9,3.5c0.6,1,1.4,1.8,2.5,2.3c1.1,0.5,2.4,0.8,3.8,0.8c1.4,0,2.7-0.3,3.7-0.9c1.1-0.6,1.9-1.4,2.5-2.5
				c0.6-1.1,0.9-2.4,0.9-3.9v-0.7h-6.3v-7.6H178.4z"/>
			<path class="st2" d="M208.7,139.5c-2.3-1.2-4-3-5.2-5.3c-1.2-2.3-1.8-5.1-1.8-8.4v-11.5c0-3.3,0.6-6.1,1.8-8.4
				c1.2-2.3,2.9-4.1,5.2-5.3c2.3-1.2,5-1.8,8.2-1.8c2.6,0,5,0.6,7,1.7c2.1,1.1,3.8,2.8,5.1,4.9c1.4,2.2,2.3,4.8,2.8,7.8h-8.2
				c-0.3-1.4-0.8-2.6-1.4-3.5c-0.6-1-1.4-1.7-2.3-2.2c-0.9-0.5-1.9-0.8-3.1-0.8c-1.5,0-2.7,0.3-3.8,0.9c-1,0.6-1.8,1.5-2.4,2.6
				c-0.5,1.2-0.8,2.6-0.8,4.2v11.5c0,1.6,0.3,3,0.8,4.2c0.5,1.2,1.3,2,2.4,2.6c1,0.6,2.3,0.9,3.8,0.9c1.2,0,2.2-0.3,3.1-0.8
				s1.7-1.3,2.3-2.2c0.6-1,1.1-2.2,1.4-3.6h8.2c-0.5,3-1.5,5.7-2.8,7.8c-1.4,2.2-3.1,3.8-5.1,4.9c-2.1,1.1-4.4,1.7-7,1.7
				C213.7,141.4,210.9,140.7,208.7,139.5z"/>
			<path class="st2" d="M245.4,139.4c-2.3-1.3-4.1-3.1-5.4-5.4c-1.3-2.3-1.9-5-1.9-8.1v-11.8c0-3.1,0.6-5.8,1.9-8.1
				c1.3-2.3,3.1-4.1,5.4-5.4c2.3-1.3,5-1.9,8-1.9c3,0,5.7,0.6,8,1.9c2.3,1.3,4.1,3.1,5.4,5.4c1.3,2.3,1.9,5,1.9,8.1v11.8
				c0,3.1-0.6,5.8-1.9,8.1c-1.3,2.3-3.1,4.1-5.4,5.4c-2.3,1.3-5,1.9-8,1.9C250.4,141.4,247.7,140.7,245.4,139.4z M257.2,132.6
				c1.1-0.6,1.9-1.5,2.5-2.6s0.9-2.4,0.9-3.9v-12.3c0-1.5-0.3-2.7-0.9-3.9c-0.6-1.1-1.4-2-2.5-2.6c-1.1-0.6-2.3-0.9-3.7-0.9
				c-1.4,0-2.7,0.3-3.7,0.9c-1.1,0.6-1.9,1.5-2.5,2.6c-0.6,1.1-0.9,2.4-0.9,3.9v12.3c0,1.5,0.3,2.7,0.9,3.9c0.6,1.1,1.4,2,2.5,2.6
				c1.1,0.6,2.3,0.9,3.7,0.9C254.8,133.5,256.1,133.2,257.2,132.6z"/>
			<path class="st2" d="M283.5,139.5c-2.3-1.2-4-3-5.2-5.3c-1.2-2.3-1.8-5.1-1.8-8.4V99.1h7.9V126c0,2.4,0.6,4.3,1.9,5.6
				c1.3,1.3,3.1,2,5.4,2c2.4,0,4.2-0.7,5.5-2c1.3-1.3,1.9-3.2,1.9-5.6V99.1h7.9v26.7c0,3.3-0.6,6.1-1.8,8.4
				c-1.2,2.3-2.9,4.1-5.2,5.3c-2.3,1.2-5,1.8-8.3,1.8C288.5,141.4,285.7,140.7,283.5,139.5z"/>
			<path class="st2" d="M315.6,99.1h7.9v41.8h-7.9V99.1z M318.8,116.5h14.6c0.8,0,1.5-0.2,2.1-0.6c0.6-0.4,1.1-1,1.4-1.7
				c0.3-0.7,0.5-1.6,0.5-2.6c0-1-0.2-1.8-0.5-2.6c-0.3-0.7-0.8-1.3-1.4-1.7c-0.6-0.4-1.3-0.6-2.2-0.6h-14.6v-7.6H334
				c2.3,0,4.3,0.5,6.1,1.6c1.7,1,3.1,2.5,4.1,4.4c1,1.9,1.4,4.1,1.4,6.6c0,2.5-0.5,4.7-1.4,6.6c-1,1.9-2.3,3.4-4.1,4.4
				c-1.8,1-3.8,1.6-6.1,1.6h-15.2V116.5z M327.6,122.8l8.4-1.3l11.3,19.4h-9.5L327.6,122.8z"/>
			<path class="st2" d="M361.6,140.9h-8.2V99.1h8.2V140.9z"/>
			<path class="st2" d="M370.2,99.1h7.9v41.8h-7.9V99.1z M373.1,99.1h25.2v7.6h-25.2V99.1z M373.1,116.4h22v7.6h-22V116.4z
				 M373.1,133.3h25.2v7.6h-25.2V133.3z"/>
			<path class="st2" d="M405.4,99.1h7.9v41.8h-7.9V99.1z M408.6,116.5h14.6c0.8,0,1.5-0.2,2.1-0.6c0.6-0.4,1.1-1,1.4-1.7
				c0.3-0.7,0.5-1.6,0.5-2.6c0-1-0.2-1.8-0.5-2.6c-0.3-0.7-0.8-1.3-1.4-1.7c-0.6-0.4-1.3-0.6-2.2-0.6h-14.6v-7.6h15.2
				c2.3,0,4.3,0.5,6.1,1.6c1.7,1,3.1,2.5,4.1,4.4c1,1.9,1.4,4.1,1.4,6.6c0,2.5-0.5,4.7-1.4,6.6c-1,1.9-2.3,3.4-4.1,4.4
				c-1.8,1-3.8,1.6-6.1,1.6h-15.2V116.5z M417.4,122.8l8.4-1.3l11.3,19.4h-9.5L417.4,122.8z"/>
		</g>
	</g>
	<g>
		<g>
			<path d="M141.2,155.8h3.1v16.4h-3.1V155.8z M142.6,162.8h5.2c0.4,0,0.7-0.1,1-0.3c0.3-0.2,0.5-0.4,0.7-0.7
				c0.2-0.3,0.2-0.7,0.2-1.1c0-0.4-0.1-0.8-0.2-1.1s-0.4-0.6-0.7-0.7c-0.3-0.2-0.6-0.3-1-0.3h-5.2v-3h5.2c1,0,1.9,0.2,2.7,0.6
				c0.8,0.4,1.4,1,1.8,1.8c0.4,0.8,0.6,1.6,0.6,2.6c0,1-0.2,1.9-0.6,2.6c-0.4,0.8-1,1.3-1.8,1.8c-0.8,0.4-1.7,0.6-2.7,0.6h-5.2
				V162.8z"/>
			<path d="M155.1,155.8h3.1v3.1h-3.1V155.8z M155.1,160.5h3.1v11.7h-3.1V160.5z"/>
			<path d="M163.2,171.7c-0.8-0.4-1.4-1-1.8-1.9c-0.4-0.8-0.6-1.8-0.6-2.9v-1.3c0-1.1,0.2-2.1,0.6-2.9c0.4-0.8,1-1.4,1.8-1.8
				c0.8-0.4,1.7-0.6,2.9-0.6c0.6,0,1.2,0.1,1.8,0.2s1.1,0.4,1.5,0.6c0.5,0.3,0.8,0.6,1.1,1l-2,1.9c-0.3-0.3-0.6-0.5-1-0.6
				s-0.8-0.2-1.2-0.2c-0.8,0-1.4,0.2-1.8,0.6c-0.4,0.4-0.6,1-0.6,1.8v1.3c0,0.8,0.2,1.4,0.6,1.8c0.4,0.4,1,0.6,1.8,0.6
				c0.4,0,0.8-0.1,1.2-0.2c0.4-0.2,0.7-0.4,1-0.7l2,2.1c-0.3,0.4-0.7,0.7-1.1,1c-0.5,0.3-1,0.5-1.5,0.6c-0.6,0.1-1.2,0.2-1.8,0.2
				C165,172.4,164,172.1,163.2,171.7z"/>
			<path d="M172.6,155.8h3.1v16.4h-3.1V155.8z M174.1,168l5.5-7.5h3.3l-8.3,10.9L174.1,168z M176.9,166.1l2.6-1.5l4,7.6h-3.6
				L176.9,166.1z"/>
			<path d="M189.8,160.5h2.9l3.9,10.2l-2,2.5L189.8,160.5z M200.6,160.5l-5.2,14.5c-0.2,0.5-0.4,1-0.7,1.3c-0.3,0.3-0.6,0.5-1.1,0.7
				c-0.4,0.1-1,0.2-1.6,0.2h-0.7v-3h0.7c0.3,0,0.6-0.1,0.8-0.2c0.2-0.1,0.4-0.4,0.5-0.7l4.3-12.7H200.6z"/>
			<path d="M204.2,171.8c-0.8-0.4-1.3-1-1.7-1.7s-0.6-1.7-0.6-2.8v-1.9c0-1.1,0.2-2,0.6-2.7c0.4-0.8,1-1.3,1.7-1.7
				c0.8-0.4,1.7-0.6,2.7-0.6c1.1,0,2,0.2,2.7,0.6c0.8,0.4,1.3,1,1.7,1.7c0.4,0.8,0.6,1.7,0.6,2.7v1.9c0,1.1-0.2,2-0.6,2.7
				c-0.4,0.8-1,1.3-1.7,1.7c-0.8,0.4-1.7,0.6-2.7,0.6C205.9,172.4,205,172.2,204.2,171.8z M208.4,168.8c0.3-0.4,0.5-0.9,0.5-1.5
				v-1.9c0-0.7-0.2-1.2-0.5-1.5c-0.3-0.4-0.8-0.5-1.5-0.5c-0.6,0-1.1,0.2-1.4,0.5c-0.3,0.4-0.5,0.9-0.5,1.5v1.9
				c0,0.7,0.2,1.2,0.5,1.5c0.3,0.4,0.8,0.5,1.4,0.5C207.6,169.4,208,169.2,208.4,168.8z"/>
			<path d="M217.9,167.6c0,0.6,0.2,1,0.5,1.3c0.3,0.3,0.8,0.5,1.3,0.5c0.6,0,1-0.2,1.3-0.5c0.3-0.3,0.5-0.8,0.5-1.4l0.2,2.6
				c-0.2,0.6-0.6,1.2-1.1,1.6s-1.1,0.7-1.9,0.7c-1.3,0-2.2-0.4-2.9-1.2c-0.7-0.8-1-2-1-3.4v-7.2h3.1V167.6z M221.5,160.5h3.1v11.7
				h-3.1V160.5z"/>
			<path d="M227.7,160.5h3.3v11.7h-3.3V160.5z M233.7,163.4c-0.2-0.1-0.5-0.1-0.8-0.1c-0.6,0-1.1,0.2-1.5,0.6s-0.5,1-0.5,1.7l-0.2-3
				c0.3-0.7,0.7-1.2,1.3-1.6c0.5-0.4,1.1-0.6,1.7-0.6c0.5,0,0.9,0.1,1.3,0.2c0.4,0.2,0.7,0.4,1,0.7l-1.8,2.5
				C234.1,163.6,233.9,163.5,233.7,163.4z"/>
			<path d="M245.2,171.8c-0.6-0.4-1-1-1.3-1.7c-0.3-0.8-0.5-1.7-0.5-2.7v-1.9c0-1.1,0.2-2,0.5-2.8c0.3-0.8,0.8-1.4,1.3-1.8
				c0.6-0.4,1.3-0.6,2.1-0.6c0.6,0,1.2,0.2,1.7,0.6c0.5,0.4,0.9,0.9,1.2,1.6l-0.2,2.6c0-0.4-0.1-0.7-0.2-1s-0.3-0.5-0.6-0.6
				c-0.3-0.1-0.6-0.2-0.9-0.2c-0.6,0-1,0.2-1.3,0.6s-0.5,1-0.5,1.7v1.9c0,0.7,0.2,1.2,0.5,1.6s0.8,0.6,1.3,0.6
				c0.4,0,0.7-0.1,0.9-0.2c0.3-0.1,0.5-0.3,0.6-0.6c0.1-0.3,0.2-0.6,0.2-1l0.2,2.7c-0.2,0.6-0.6,1.1-1.1,1.5s-1.1,0.5-1.8,0.5
				C246.5,172.4,245.8,172.2,245.2,171.8z M250.1,155.8h3.1v16.4h-3.1V155.8z"/>
			<path d="M256.6,171.5c-0.6-0.6-0.9-1.5-0.9-2.7c0-1.2,0.3-2,1-2.6c0.7-0.6,1.7-0.9,3.1-0.9h2.9l0.2,2.4h-3.1
				c-0.5,0-0.8,0.1-1,0.3c-0.2,0.2-0.4,0.5-0.4,0.8c0,0.4,0.1,0.7,0.4,0.9s0.7,0.3,1.3,0.3c0.8,0,1.4-0.1,1.8-0.3
				c0.4-0.2,0.6-0.5,0.6-0.9l0.2,1.7c0,0.4-0.2,0.8-0.6,1.1c-0.3,0.3-0.8,0.5-1.3,0.7s-1.1,0.2-1.6,0.2
				C258.1,172.4,257.2,172.1,256.6,171.5z M262.7,164.8c0-0.5-0.2-1-0.5-1.3c-0.4-0.3-0.9-0.4-1.5-0.4c-0.4,0-0.9,0.1-1.3,0.2
				c-0.4,0.1-0.8,0.3-1.1,0.6l-1.9-1.9c0.5-0.5,1.1-0.9,1.9-1.2c0.8-0.3,1.6-0.4,2.6-0.4c1,0,1.9,0.2,2.6,0.5
				c0.7,0.3,1.3,0.8,1.7,1.5c0.4,0.7,0.6,1.4,0.6,2.4v7.5h-2.8V164.8z"/>
			<path d="M267.6,160.5h5.7v2.6h-5.7V160.5z M269.5,171.5c-0.5-0.5-0.7-1.3-0.7-2.3v-12.1h3.1v11.3c0,0.3,0.1,0.5,0.2,0.7
				s0.3,0.2,0.5,0.2h0.8v3h-1.6C270.8,172.2,270,172,269.5,171.5z"/>
			<path d="M278.2,171.7c-0.8-0.4-1.4-1-1.8-1.8s-0.6-1.7-0.6-2.8v-1.3c0-1.2,0.2-2.1,0.6-3c0.4-0.8,1-1.4,1.8-1.9
				c0.8-0.4,1.7-0.6,2.8-0.6c1,0,1.9,0.3,2.6,0.8c0.7,0.5,1.3,1.3,1.7,2.2s0.6,2.2,0.6,3.5v0.8h-8v-2.1h5.2l0-0.3
				c-0.1-0.7-0.3-1.2-0.6-1.6c-0.3-0.4-0.8-0.6-1.4-0.6c-0.7,0-1.3,0.2-1.7,0.7c-0.4,0.4-0.6,1.1-0.6,1.9v1.5c0,0.8,0.2,1.4,0.7,1.9
				s1.1,0.7,1.9,0.7c0.4,0,0.8-0.1,1.2-0.2c0.4-0.1,0.8-0.4,1.1-0.6l2,1.8c-0.6,0.6-1.3,1-2.1,1.3c-0.8,0.3-1.5,0.5-2.3,0.5
				C279.9,172.4,279,172.2,278.2,171.7z"/>
			<path d="M287.9,169.1h3.1v4l-3.1,3V169.1z"/>
			<path d="M298.9,160.5h3l2.1,7.2l2.5-7.2h1.8l2.5,7.2l2.1-7.2h3l-3.6,11.7h-2.3l-2.5-7.6l-2.5,7.6h-2.3L298.9,160.5z"/>
			<path d="M319.9,171.7c-0.8-0.4-1.4-1-1.8-1.8s-0.6-1.7-0.6-2.8v-1.3c0-1.2,0.2-2.1,0.6-3c0.4-0.8,1-1.4,1.8-1.9
				c0.8-0.4,1.7-0.6,2.8-0.6c1,0,1.9,0.3,2.6,0.8c0.7,0.5,1.3,1.3,1.7,2.2s0.6,2.2,0.6,3.5v0.8h-8v-2.1h5.2l0-0.3
				c-0.1-0.7-0.3-1.2-0.6-1.6c-0.3-0.4-0.8-0.6-1.4-0.6c-0.7,0-1.3,0.2-1.7,0.7c-0.4,0.4-0.6,1.1-0.6,1.9v1.5c0,0.8,0.2,1.4,0.7,1.9
				s1.1,0.7,1.9,0.7c0.4,0,0.8-0.1,1.2-0.2c0.4-0.1,0.8-0.4,1.1-0.6l2,1.8c-0.6,0.6-1.3,1-2.1,1.3c-0.8,0.3-1.5,0.5-2.3,0.5
				C321.7,172.4,320.7,172.2,319.9,171.7z"/>
			<path d="M337.8,171.8c-0.6-0.4-1-1-1.3-1.7c-0.3-0.8-0.5-1.7-0.5-2.7v-1.9c0-1.1,0.2-2,0.5-2.8c0.3-0.8,0.8-1.4,1.3-1.8
				c0.6-0.4,1.3-0.6,2.1-0.6c0.6,0,1.2,0.2,1.7,0.6c0.5,0.4,0.9,0.9,1.2,1.6l-0.2,2.6c0-0.4-0.1-0.7-0.2-1s-0.3-0.5-0.6-0.6
				c-0.3-0.1-0.6-0.2-0.9-0.2c-0.6,0-1,0.2-1.3,0.6s-0.5,1-0.5,1.7v1.9c0,0.7,0.2,1.2,0.5,1.6s0.8,0.6,1.3,0.6
				c0.4,0,0.7-0.1,0.9-0.2c0.3-0.1,0.5-0.3,0.6-0.6c0.1-0.3,0.2-0.6,0.2-1l0.2,2.7c-0.2,0.6-0.6,1.1-1.1,1.5s-1.1,0.5-1.8,0.5
				C339.1,172.4,338.4,172.2,337.8,171.8z M342.7,155.8h3.1v16.4h-3.1V155.8z"/>
			<path d="M351,171.7c-0.8-0.4-1.4-1-1.8-1.8s-0.6-1.7-0.6-2.8v-1.3c0-1.2,0.2-2.1,0.6-3c0.4-0.8,1-1.4,1.8-1.9
				c0.8-0.4,1.7-0.6,2.8-0.6c1,0,1.9,0.3,2.6,0.8c0.7,0.5,1.3,1.3,1.7,2.2s0.6,2.2,0.6,3.5v0.8h-8v-2.1h5.2l0-0.3
				c-0.1-0.7-0.3-1.2-0.6-1.6c-0.3-0.4-0.8-0.6-1.4-0.6c-0.7,0-1.3,0.2-1.7,0.7c-0.4,0.4-0.6,1.1-0.6,1.9v1.5c0,0.8,0.2,1.4,0.7,1.9
				s1.1,0.7,1.9,0.7c0.4,0,0.8-0.1,1.2-0.2c0.4-0.1,0.8-0.4,1.1-0.6l2,1.8c-0.6,0.6-1.3,1-2.1,1.3c-0.8,0.3-1.5,0.5-2.3,0.5
				C352.7,172.4,351.8,172.2,351,171.7z"/>
			<path d="M364.3,168.3c0,0.3,0.1,0.5,0.2,0.7c0.2,0.2,0.4,0.2,0.7,0.2h0.5v3h-1.6c-0.9,0-1.7-0.3-2.2-0.8
				c-0.5-0.5-0.8-1.3-0.8-2.3v-13.3h3.1V168.3z"/>
			<path d="M367.8,155.8h3.1v3.1h-3.1V155.8z M367.8,160.5h3.1v11.7h-3.1V160.5z"/>
			<path d="M380.4,160.5h3.1l-4.4,11.7h-2.2l-4.4-11.7h3.1l2.4,7.3L380.4,160.5z"/>
			<path d="M387.4,171.7c-0.8-0.4-1.4-1-1.8-1.8s-0.6-1.7-0.6-2.8v-1.3c0-1.2,0.2-2.1,0.6-3c0.4-0.8,1-1.4,1.8-1.9
				c0.8-0.4,1.7-0.6,2.8-0.6c1,0,1.9,0.3,2.6,0.8c0.7,0.5,1.3,1.3,1.7,2.2s0.6,2.2,0.6,3.5v0.8h-8v-2.1h5.2l0-0.3
				c-0.1-0.7-0.3-1.2-0.6-1.6c-0.3-0.4-0.8-0.6-1.4-0.6c-0.7,0-1.3,0.2-1.7,0.7c-0.4,0.4-0.6,1.1-0.6,1.9v1.5c0,0.8,0.2,1.4,0.7,1.9
				s1.1,0.7,1.9,0.7c0.4,0,0.8-0.1,1.2-0.2c0.4-0.1,0.8-0.4,1.1-0.6l2,1.8c-0.6,0.6-1.3,1-2.1,1.3c-0.8,0.3-1.5,0.5-2.3,0.5
				C389.2,172.4,388.2,172.2,387.4,171.7z"/>
			<path d="M397.7,160.5h3.3v11.7h-3.3V160.5z M403.7,163.4c-0.2-0.1-0.5-0.1-0.8-0.1c-0.6,0-1.1,0.2-1.5,0.6s-0.5,1-0.5,1.7l-0.2-3
				c0.3-0.7,0.7-1.2,1.3-1.6c0.5-0.4,1.1-0.6,1.7-0.6c0.5,0,0.9,0.1,1.3,0.2c0.4,0.2,0.7,0.4,1,0.7l-1.8,2.5
				C404.1,163.6,403.9,163.5,403.7,163.4z"/>
		</g>
	</g>
	<g>
		<g>
			<path class="st3" d="M495.1,102.5h3.5v0.7h-3.5V102.5z M496.5,102.9h0.7v4.6h-0.7V102.9z"/>
			<path class="st3" d="M499.7,107.4c-0.2-0.1-0.4-0.3-0.5-0.5c-0.1-0.2-0.2-0.5-0.2-0.9v-0.4c0-0.4,0.1-0.7,0.2-0.9
				c0.1-0.2,0.3-0.4,0.5-0.6s0.5-0.2,0.8-0.2c0.3,0,0.5,0.1,0.8,0.2c0.2,0.1,0.4,0.4,0.5,0.6s0.2,0.6,0.2,1v0.2h-2.4v-0.6h1.7
				c0-0.3-0.1-0.5-0.2-0.7c-0.1-0.2-0.3-0.2-0.5-0.2c-0.3,0-0.5,0.1-0.6,0.3c-0.1,0.2-0.2,0.4-0.2,0.7v0.5c0,0.3,0.1,0.5,0.2,0.7
				s0.4,0.2,0.7,0.2c0.1,0,0.3,0,0.4-0.1s0.3-0.1,0.4-0.2l0.5,0.5c-0.2,0.2-0.4,0.3-0.6,0.4c-0.2,0.1-0.4,0.1-0.7,0.1
				C500.2,107.5,499.9,107.5,499.7,107.4z"/>
			<path class="st3" d="M502.8,103.9h0.7v3.5h-0.7V103.9z M504.6,104.6c-0.1,0-0.2-0.1-0.3-0.1c-0.2,0-0.4,0.1-0.5,0.2
				c-0.1,0.1-0.2,0.3-0.2,0.5l-0.1-0.7c0.1-0.2,0.3-0.4,0.4-0.5c0.2-0.1,0.4-0.2,0.6-0.2c0.2,0,0.3,0,0.4,0.1c0.1,0,0.2,0.1,0.3,0.2
				l-0.5,0.6C504.7,104.7,504.7,104.6,504.6,104.6z"/>
			<path class="st3" d="M505.8,103.9h0.7v3.5h-0.7V103.9z M508,105.3c0-0.3-0.1-0.4-0.2-0.6s-0.3-0.2-0.5-0.2
				c-0.2,0-0.4,0.1-0.5,0.2c-0.1,0.1-0.2,0.3-0.2,0.5l-0.1-0.7c0.1-0.2,0.3-0.4,0.4-0.5c0.2-0.1,0.4-0.2,0.6-0.2
				c0.2,0,0.5,0.1,0.6,0.2c0.2,0.1,0.3,0.3,0.4,0.5c0.1,0.2,0.1,0.5,0.1,0.8v2.2H508V105.3z M510.1,105.3c0-0.3-0.1-0.4-0.2-0.6
				s-0.3-0.2-0.5-0.2c-0.2,0-0.4,0.1-0.5,0.2c-0.1,0.1-0.2,0.3-0.2,0.6l-0.1-0.7c0.1-0.2,0.3-0.4,0.4-0.5c0.2-0.1,0.4-0.2,0.6-0.2
				c0.3,0,0.5,0.1,0.7,0.2c0.2,0.1,0.3,0.3,0.4,0.5c0.1,0.2,0.1,0.5,0.1,0.8v2.2h-0.7V105.3z"/>
			<path class="st3" d="M512.5,107.5c-0.2,0-0.4-0.1-0.5-0.2c-0.2-0.1-0.3-0.2-0.4-0.3l0.4-0.5c0.2,0.1,0.4,0.3,0.6,0.3
				c0.2,0.1,0.4,0.1,0.6,0.1c0.3,0,0.5,0,0.6-0.1c0.1-0.1,0.2-0.2,0.2-0.4c0-0.1,0-0.2-0.1-0.3s-0.2-0.1-0.3-0.1
				c-0.1,0-0.3,0-0.5-0.1c0,0,0,0-0.1,0c0,0,0,0-0.1,0c0,0,0,0,0,0c0,0,0,0,0,0c-0.2,0-0.4-0.1-0.6-0.1c-0.2,0-0.3-0.1-0.4-0.3
				c-0.1-0.1-0.2-0.3-0.2-0.6s0.1-0.5,0.2-0.6s0.3-0.3,0.5-0.4c0.2-0.1,0.5-0.1,0.8-0.1c0.2,0,0.4,0,0.5,0.1c0.2,0,0.3,0.1,0.5,0.2
				c0.2,0.1,0.3,0.2,0.4,0.3l-0.4,0.5c-0.2-0.1-0.4-0.2-0.5-0.3s-0.3-0.1-0.5-0.1c-0.2,0-0.4,0-0.5,0.1c-0.1,0.1-0.2,0.2-0.2,0.4
				c0,0.1,0,0.2,0.1,0.2s0.2,0.1,0.3,0.1s0.2,0,0.4,0c0,0,0,0,0,0c0,0,0,0,0,0c0,0,0,0,0,0s0,0,0,0c0.2,0,0.5,0,0.6,0.1
				c0.2,0.1,0.3,0.1,0.4,0.3c0.1,0.1,0.2,0.4,0.2,0.6c0,0.3-0.1,0.5-0.2,0.6c-0.1,0.2-0.3,0.3-0.5,0.4s-0.5,0.1-0.8,0.1
				C512.9,107.5,512.7,107.5,512.5,107.5z"/>
			<path class="st3" d="M518.1,105.5c-0.2,0.1-0.2,0.3-0.2,0.6c0,0.3,0.1,0.4,0.2,0.6c0.2,0.1,0.4,0.2,0.7,0.2
				c0.3,0,0.5-0.1,0.7-0.2s0.4-0.4,0.5-0.7c0.1-0.3,0.2-0.6,0.2-1.1h0.7c0,0.5-0.1,1-0.3,1.4c-0.2,0.4-0.4,0.7-0.7,0.9
				c-0.3,0.2-0.7,0.3-1.2,0.3c-0.3,0-0.6-0.1-0.8-0.2s-0.4-0.3-0.5-0.5c-0.1-0.2-0.2-0.5-0.2-0.8c0-0.4,0.1-0.7,0.3-1
				c0.2-0.2,0.5-0.4,0.9-0.4l0.3,0.6C518.5,105.3,518.3,105.4,518.1,105.5z M518.5,105.5c-0.2-0.2-0.3-0.3-0.4-0.5
				c-0.1-0.2-0.2-0.4-0.3-0.6c-0.1-0.2-0.1-0.4-0.1-0.6c0-0.4,0.1-0.8,0.3-1c0.2-0.2,0.6-0.4,1-0.4c0.4,0,0.7,0.1,1,0.3
				c0.2,0.2,0.3,0.6,0.3,1v0.1h-0.7v-0.1c0-0.2-0.1-0.4-0.2-0.5c-0.1-0.1-0.3-0.2-0.5-0.2c-0.2,0-0.4,0.1-0.5,0.2
				c-0.1,0.1-0.2,0.3-0.2,0.5c0,0.1,0,0.3,0.1,0.4c0,0.1,0.1,0.3,0.2,0.4c0.1,0.1,0.2,0.3,0.3,0.4l2.3,2.4h-0.9L518.5,105.5z"/>
			<path class="st3" d="M524.4,107.4c-0.2-0.1-0.4-0.3-0.5-0.5c-0.1-0.2-0.2-0.5-0.2-0.8v-0.6c0-0.3,0.1-0.6,0.2-0.8
				c0.1-0.2,0.3-0.4,0.5-0.5c0.2-0.1,0.5-0.2,0.8-0.2c0.2,0,0.4,0,0.5,0.1c0.2,0,0.3,0.1,0.4,0.2s0.2,0.2,0.3,0.3l-0.5,0.5
				c-0.1-0.1-0.2-0.2-0.4-0.3c-0.1-0.1-0.3-0.1-0.4-0.1c-0.3,0-0.5,0.1-0.6,0.2c-0.1,0.2-0.2,0.4-0.2,0.6v0.6c0,0.3,0.1,0.5,0.2,0.6
				c0.1,0.2,0.4,0.2,0.6,0.2c0.1,0,0.3,0,0.4-0.1c0.1-0.1,0.3-0.2,0.3-0.3l0.5,0.5c-0.1,0.1-0.2,0.2-0.3,0.3
				c-0.1,0.1-0.3,0.1-0.4,0.2s-0.3,0.1-0.5,0.1C524.9,107.5,524.6,107.5,524.4,107.4z"/>
			<path class="st3" d="M527.8,107.4c-0.2-0.1-0.4-0.3-0.5-0.5c-0.1-0.2-0.2-0.5-0.2-0.8v-0.6c0-0.3,0.1-0.6,0.2-0.8
				c0.1-0.2,0.3-0.4,0.5-0.5c0.2-0.1,0.5-0.2,0.8-0.2s0.6,0.1,0.8,0.2c0.2,0.1,0.4,0.3,0.5,0.5c0.1,0.2,0.2,0.5,0.2,0.8v0.6
				c0,0.3-0.1,0.6-0.2,0.8c-0.1,0.2-0.3,0.4-0.5,0.5s-0.5,0.2-0.8,0.2S528.1,107.5,527.8,107.4z M529.2,106.6
				c0.1-0.2,0.2-0.4,0.2-0.6v-0.6c0-0.3-0.1-0.5-0.2-0.6c-0.1-0.2-0.3-0.2-0.6-0.2c-0.2,0-0.4,0.1-0.6,0.2c-0.1,0.2-0.2,0.4-0.2,0.6
				v0.6c0,0.3,0.1,0.5,0.2,0.6c0.1,0.2,0.3,0.2,0.6,0.2C528.9,106.9,529.1,106.8,529.2,106.6z"/>
			<path class="st3" d="M531.1,103.9h0.7v3.5h-0.7V103.9z M533.2,105.3c0-0.3-0.1-0.4-0.2-0.6s-0.3-0.2-0.5-0.2
				c-0.2,0-0.4,0.1-0.5,0.2s-0.2,0.3-0.2,0.5l-0.1-0.7c0.1-0.2,0.3-0.4,0.4-0.5s0.4-0.2,0.6-0.2c0.4,0,0.7,0.1,0.9,0.4
				c0.2,0.3,0.3,0.6,0.3,1.1v2.2h-0.7V105.3z"/>
			<path class="st3" d="M535.5,107.4c-0.2-0.1-0.3-0.3-0.4-0.5s-0.1-0.5-0.1-0.8v-0.8c0-0.3,0-0.6,0.1-0.8c0.1-0.2,0.2-0.4,0.4-0.5
				c0.2-0.1,0.4-0.2,0.6-0.2c0.2,0,0.4,0.1,0.6,0.2c0.2,0.1,0.3,0.3,0.4,0.5l-0.1,0.7c0-0.2,0-0.3-0.1-0.4s-0.1-0.2-0.2-0.2
				c-0.1-0.1-0.2-0.1-0.4-0.1c-0.2,0-0.4,0.1-0.5,0.2c-0.1,0.1-0.2,0.3-0.2,0.6v0.8c0,0.3,0.1,0.5,0.2,0.6c0.1,0.1,0.3,0.2,0.5,0.2
				c0.1,0,0.3,0,0.4-0.1c0.1-0.1,0.2-0.1,0.2-0.3s0.1-0.2,0.1-0.4l0,0.7c-0.1,0.2-0.2,0.3-0.3,0.4c-0.2,0.1-0.4,0.2-0.6,0.2
				C535.9,107.5,535.6,107.5,535.5,107.4z M537,102.5h0.7v5H537V102.5z"/>
			<path class="st3" d="M538.8,102.5h0.7v0.7h-0.7V102.5z M538.8,103.9h0.7v3.5h-0.7V103.9z"/>
			<path class="st3" d="M540.3,103.9h1.6v0.6h-1.6V103.9z M540.8,107.3c-0.1-0.2-0.2-0.4-0.2-0.7v-3.7h0.7v3.7c0,0.1,0,0.2,0.1,0.2
				c0,0,0.1,0.1,0.2,0.1h0.3v0.7h-0.4C541.2,107.5,541,107.4,540.8,107.3z"/>
			<path class="st3" d="M542.8,102.5h0.7v0.7h-0.7V102.5z M542.8,103.9h0.7v3.5h-0.7V103.9z"/>
			<path class="st3" d="M545.1,107.4c-0.2-0.1-0.4-0.3-0.5-0.5c-0.1-0.2-0.2-0.5-0.2-0.8v-0.6c0-0.3,0.1-0.6,0.2-0.8
				c0.1-0.2,0.3-0.4,0.5-0.5c0.2-0.1,0.5-0.2,0.8-0.2s0.6,0.1,0.8,0.2c0.2,0.1,0.4,0.3,0.5,0.5c0.1,0.2,0.2,0.5,0.2,0.8v0.6
				c0,0.3-0.1,0.6-0.2,0.8c-0.1,0.2-0.3,0.4-0.5,0.5s-0.5,0.2-0.8,0.2S545.4,107.5,545.1,107.4z M546.5,106.6
				c0.1-0.2,0.2-0.4,0.2-0.6v-0.6c0-0.3-0.1-0.5-0.2-0.6c-0.1-0.2-0.3-0.2-0.6-0.2c-0.2,0-0.4,0.1-0.6,0.2c-0.1,0.2-0.2,0.4-0.2,0.6
				v0.6c0,0.3,0.1,0.5,0.2,0.6c0.1,0.2,0.3,0.2,0.6,0.2C546.2,106.9,546.4,106.8,546.5,106.6z"/>
			<path class="st3" d="M548.4,103.9h0.7v3.5h-0.7V103.9z M550.5,105.3c0-0.3-0.1-0.4-0.2-0.6s-0.3-0.2-0.5-0.2
				c-0.2,0-0.4,0.1-0.5,0.2s-0.2,0.3-0.2,0.5l-0.1-0.7c0.1-0.2,0.3-0.4,0.4-0.5s0.4-0.2,0.6-0.2c0.4,0,0.7,0.1,0.9,0.4
				c0.2,0.3,0.3,0.6,0.3,1.1v2.2h-0.7V105.3z"/>
			<path class="st3" d="M553,107.5c-0.2,0-0.4-0.1-0.5-0.2c-0.2-0.1-0.3-0.2-0.4-0.3l0.4-0.5c0.2,0.1,0.4,0.3,0.6,0.3
				c0.2,0.1,0.4,0.1,0.6,0.1c0.3,0,0.5,0,0.6-0.1c0.1-0.1,0.2-0.2,0.2-0.4c0-0.1,0-0.2-0.1-0.3s-0.2-0.1-0.3-0.1
				c-0.1,0-0.3,0-0.5-0.1c0,0,0,0-0.1,0c0,0,0,0-0.1,0c0,0,0,0,0,0c0,0,0,0,0,0c-0.2,0-0.4-0.1-0.6-0.1c-0.2,0-0.3-0.1-0.4-0.3
				c-0.1-0.1-0.2-0.3-0.2-0.6s0.1-0.5,0.2-0.6s0.3-0.3,0.5-0.4c0.2-0.1,0.5-0.1,0.8-0.1c0.2,0,0.4,0,0.5,0.1c0.2,0,0.3,0.1,0.5,0.2
				c0.2,0.1,0.3,0.2,0.4,0.3l-0.4,0.5c-0.2-0.1-0.4-0.2-0.5-0.3c-0.2-0.1-0.3-0.1-0.5-0.1c-0.2,0-0.4,0-0.5,0.1
				c-0.1,0.1-0.2,0.2-0.2,0.4c0,0.1,0,0.2,0.1,0.2c0.1,0,0.2,0.1,0.3,0.1s0.2,0,0.4,0c0,0,0,0,0,0s0,0,0,0c0,0,0,0,0,0s0,0,0,0
				c0.2,0,0.5,0,0.6,0.1c0.2,0.1,0.3,0.1,0.4,0.3c0.1,0.1,0.2,0.4,0.2,0.6c0,0.3-0.1,0.5-0.2,0.6c-0.1,0.2-0.3,0.3-0.5,0.4
				c-0.2,0.1-0.5,0.1-0.8,0.1C553.3,107.5,553.1,107.5,553,107.5z"/>
			<path class="st3" d="M558,107.3c-0.2-0.2-0.3-0.5-0.3-0.8c0-0.4,0.1-0.6,0.3-0.8s0.5-0.3,0.9-0.3h1l0,0.6h-1.1
				c-0.2,0-0.3,0-0.4,0.1c-0.1,0.1-0.1,0.2-0.1,0.4c0,0.2,0.1,0.3,0.2,0.4c0.1,0.1,0.3,0.1,0.5,0.1c0.3,0,0.5,0,0.6-0.1
				s0.2-0.1,0.2-0.3l0.1,0.5c-0.1,0.1-0.1,0.2-0.2,0.2s-0.2,0.1-0.3,0.1c-0.1,0-0.3,0-0.4,0C558.5,107.5,558.2,107.4,558,107.3z
				 M559.8,105.2c0-0.2-0.1-0.4-0.2-0.5c-0.1-0.1-0.3-0.2-0.5-0.2c-0.1,0-0.3,0-0.4,0.1c-0.1,0-0.3,0.1-0.4,0.2l-0.5-0.3
				c0.1-0.2,0.3-0.3,0.5-0.4c0.2-0.1,0.5-0.1,0.7-0.1c0.3,0,0.5,0.1,0.8,0.2c0.2,0.1,0.4,0.3,0.5,0.5c0.1,0.2,0.2,0.4,0.2,0.7v2.3
				h-0.7V105.2z"/>
			<path class="st3" d="M561.5,103.9h0.7v5h-0.7V103.9z M562.5,107.4c-0.2-0.1-0.3-0.3-0.4-0.4l0-0.7c0,0.2,0,0.3,0.1,0.4
				s0.1,0.2,0.2,0.2c0.1,0.1,0.2,0.1,0.4,0.1c0.2,0,0.4-0.1,0.5-0.2c0.1-0.1,0.2-0.3,0.2-0.6v-0.8c0-0.3-0.1-0.5-0.2-0.6
				c-0.1-0.1-0.3-0.2-0.5-0.2c-0.1,0-0.3,0-0.4,0.1c-0.1,0.1-0.2,0.1-0.2,0.2c-0.1,0.1-0.1,0.2-0.1,0.4l-0.1-0.7
				c0.1-0.2,0.2-0.4,0.4-0.5c0.2-0.1,0.4-0.2,0.6-0.2c0.3,0,0.5,0.1,0.6,0.2c0.2,0.1,0.3,0.3,0.4,0.5c0.1,0.2,0.1,0.5,0.1,0.8v0.8
				c0,0.3,0,0.6-0.1,0.8s-0.2,0.4-0.4,0.5c-0.2,0.1-0.4,0.2-0.7,0.2C562.9,107.5,562.7,107.5,562.5,107.4z"/>
			<path class="st3" d="M565.3,103.9h0.7v5h-0.7V103.9z M566.3,107.4c-0.2-0.1-0.3-0.3-0.4-0.4l0-0.7c0,0.2,0,0.3,0.1,0.4
				s0.1,0.2,0.2,0.2c0.1,0.1,0.2,0.1,0.4,0.1c0.2,0,0.4-0.1,0.5-0.2c0.1-0.1,0.2-0.3,0.2-0.6v-0.8c0-0.3-0.1-0.5-0.2-0.6
				c-0.1-0.1-0.3-0.2-0.5-0.2c-0.1,0-0.3,0-0.4,0.1c-0.1,0.1-0.2,0.1-0.2,0.2c-0.1,0.1-0.1,0.2-0.1,0.4l-0.1-0.7
				c0.1-0.2,0.2-0.4,0.4-0.5c0.2-0.1,0.4-0.2,0.6-0.2c0.3,0,0.5,0.1,0.6,0.2c0.2,0.1,0.3,0.3,0.4,0.5c0.1,0.2,0.1,0.5,0.1,0.8v0.8
				c0,0.3,0,0.6-0.1,0.8s-0.2,0.4-0.4,0.5c-0.2,0.1-0.4,0.2-0.7,0.2C566.7,107.5,566.5,107.5,566.3,107.4z"/>
			<path class="st3" d="M569.8,106.6c0,0.1,0,0.2,0.1,0.2c0,0,0.1,0.1,0.2,0.1h0.3v0.7H570c-0.3,0-0.5-0.1-0.6-0.2
				c-0.1-0.2-0.2-0.4-0.2-0.7v-4h0.7V106.6z"/>
			<path class="st3" d="M570.8,103.9h0.7l1.1,3.1l-0.4,0.8L570.8,103.9z M573.9,103.9l-1.5,4.4c-0.1,0.2-0.1,0.3-0.2,0.4
				c-0.1,0.1-0.2,0.2-0.3,0.2s-0.3,0.1-0.5,0.1h-0.1v-0.7h0.1c0.1,0,0.2,0,0.3-0.1c0.1-0.1,0.1-0.1,0.2-0.3l1.3-4H573.9z"/>
			<path class="st3" d="M576.5,101.9h0.7v6.1h-0.7V101.9z"/>
			<path class="st3" d="M580.3,102.5h0.7v5h-0.7V102.5z M580.7,104.7h2.8v0.7h-2.8V104.7z M583.1,102.5h0.7v5h-0.7V102.5z"/>
			<path class="st3" d="M587.3,105.4v0.7H585v-0.7H587.3z"/>
			<path class="st3" d="M590.9,103.1l-1.3,4.3h-0.7l1.3-4.3h-1.3v0.7h-0.7v-1.4h2.7V103.1z"/>
			<path class="st3" d="M594.3,107.4c-0.2-0.1-0.4-0.3-0.5-0.5c-0.1-0.2-0.2-0.5-0.2-0.8v-0.6c0-0.3,0.1-0.6,0.2-0.8
				c0.1-0.2,0.3-0.4,0.5-0.5c0.2-0.1,0.5-0.2,0.8-0.2s0.6,0.1,0.8,0.2c0.2,0.1,0.4,0.3,0.5,0.5c0.1,0.2,0.2,0.5,0.2,0.8v0.6
				c0,0.3-0.1,0.6-0.2,0.8c-0.1,0.2-0.3,0.4-0.5,0.5s-0.5,0.2-0.8,0.2S594.5,107.5,594.3,107.4z M595.7,106.6
				c0.1-0.2,0.2-0.4,0.2-0.6v-0.6c0-0.3-0.1-0.5-0.2-0.6c-0.1-0.2-0.3-0.2-0.6-0.2s-0.4,0.1-0.6,0.2c-0.1,0.2-0.2,0.4-0.2,0.6v0.6
				c0,0.3,0.1,0.5,0.2,0.6c0.1,0.2,0.3,0.2,0.6,0.2S595.5,106.8,595.7,106.6z"/>
			<path class="st3" d="M597.6,103.9h0.7v3.5h-0.7V103.9z M599.3,104.6c-0.1,0-0.2-0.1-0.3-0.1c-0.2,0-0.4,0.1-0.5,0.2
				c-0.1,0.1-0.2,0.3-0.2,0.5l-0.1-0.7c0.1-0.2,0.3-0.4,0.4-0.5c0.2-0.1,0.4-0.2,0.6-0.2c0.2,0,0.3,0,0.4,0.1c0.1,0,0.2,0.1,0.3,0.2
				l-0.5,0.6C599.5,104.7,599.4,104.6,599.3,104.6z"/>
			<path class="st3" d="M601,107.4c-0.2-0.1-0.3-0.3-0.4-0.5s-0.1-0.5-0.1-0.8v-0.8c0-0.3,0-0.6,0.1-0.8c0.1-0.2,0.2-0.4,0.4-0.5
				c0.2-0.1,0.4-0.2,0.6-0.2c0.2,0,0.4,0.1,0.6,0.2c0.2,0.1,0.3,0.3,0.4,0.5l-0.1,0.7c0-0.2,0-0.3-0.1-0.4s-0.1-0.2-0.2-0.2
				c-0.1-0.1-0.2-0.1-0.4-0.1c-0.2,0-0.4,0.1-0.5,0.2c-0.1,0.1-0.2,0.3-0.2,0.6v0.8c0,0.3,0.1,0.5,0.2,0.6c0.1,0.1,0.3,0.2,0.5,0.2
				c0.1,0,0.3,0,0.4-0.1c0.1-0.1,0.2-0.1,0.2-0.3s0.1-0.2,0.1-0.4l0,0.7c-0.1,0.2-0.2,0.3-0.3,0.4c-0.2,0.1-0.4,0.2-0.6,0.2
				C601.4,107.5,601.2,107.5,601,107.4z M602.6,102.5h0.7v5h-0.7V102.5z"/>
			<path class="st3" d="M604.9,107.4c-0.2-0.1-0.4-0.3-0.5-0.5c-0.1-0.2-0.2-0.5-0.2-0.9v-0.4c0-0.4,0.1-0.7,0.2-0.9
				s0.3-0.4,0.5-0.6c0.2-0.1,0.5-0.2,0.8-0.2c0.3,0,0.5,0.1,0.8,0.2c0.2,0.1,0.4,0.4,0.5,0.6s0.2,0.6,0.2,1v0.2h-2.4v-0.6h1.7
				c0-0.3-0.1-0.5-0.2-0.7c-0.1-0.2-0.3-0.2-0.5-0.2c-0.3,0-0.5,0.1-0.6,0.3s-0.2,0.4-0.2,0.7v0.5c0,0.3,0.1,0.5,0.2,0.7
				s0.4,0.2,0.7,0.2c0.1,0,0.3,0,0.4-0.1s0.3-0.1,0.4-0.2l0.5,0.5c-0.2,0.2-0.4,0.3-0.6,0.4c-0.2,0.1-0.4,0.1-0.7,0.1
				C605.4,107.5,605.2,107.5,604.9,107.4z"/>
			<path class="st3" d="M608.1,103.9h0.7v3.5h-0.7V103.9z M609.8,104.6c-0.1,0-0.2-0.1-0.3-0.1c-0.2,0-0.4,0.1-0.5,0.2
				c-0.1,0.1-0.2,0.3-0.2,0.5l-0.1-0.7c0.1-0.2,0.3-0.4,0.4-0.5c0.2-0.1,0.4-0.2,0.6-0.2c0.2,0,0.3,0,0.4,0.1c0.1,0,0.2,0.1,0.3,0.2
				l-0.5,0.6C610,104.7,609.9,104.6,609.8,104.6z"/>
		</g>
	</g>
	<g>
		<g>
			<path class="st3" d="M449.5,63.4l5.3-6.9c0.2-0.3,0.4-0.6,0.6-1c0.1-0.3,0.2-0.6,0.2-0.9v0c0-0.4-0.1-0.7-0.4-1
				c-0.3-0.2-0.6-0.3-1.1-0.3c-0.5,0-0.9,0.2-1.2,0.5c-0.3,0.3-0.5,0.8-0.5,1.3v0h-3v0c0.1-1,0.3-1.8,0.7-2.5
				c0.4-0.7,0.9-1.2,1.6-1.6c0.7-0.4,1.5-0.5,2.3-0.5c1,0,1.8,0.2,2.5,0.5c0.7,0.3,1.2,0.8,1.6,1.4c0.4,0.6,0.5,1.3,0.5,2.2v0
				c0,0.7-0.1,1.4-0.4,2.1c-0.2,0.7-0.6,1.3-1,1.9l-3.8,4.8h5.2V66h-9.1V63.4z"/>
			<path class="st3" d="M462.1,65c-0.8-0.8-1.2-1.8-1.2-3.2v-7c0-1.4,0.4-2.5,1.2-3.2c0.8-0.8,1.9-1.1,3.4-1.1
				c1.5,0,2.6,0.4,3.4,1.1c0.8,0.8,1.2,1.8,1.2,3.2v7c0,1.4-0.4,2.5-1.2,3.2s-1.9,1.1-3.4,1.1C464,66.2,462.8,65.8,462.1,65z
				 M466.8,62.8c0.3-0.4,0.4-1,0.4-1.7v-5.5c0-0.7-0.1-1.3-0.4-1.7c-0.3-0.4-0.7-0.6-1.3-0.6c-0.6,0-1,0.2-1.3,0.6
				c-0.3,0.4-0.4,1-0.4,1.7v5.5c0,0.7,0.1,1.3,0.4,1.7c0.3,0.4,0.7,0.6,1.3,0.6C466.1,63.4,466.5,63.2,466.8,62.8z"/>
			<path class="st3" d="M472.6,63.4l5.3-6.9c0.2-0.3,0.4-0.6,0.6-1c0.1-0.3,0.2-0.6,0.2-0.9v0c0-0.4-0.1-0.7-0.4-1
				c-0.3-0.2-0.6-0.3-1.1-0.3c-0.5,0-0.9,0.2-1.2,0.5c-0.3,0.3-0.5,0.8-0.5,1.3v0h-3v0c0.1-1,0.3-1.8,0.7-2.5
				c0.4-0.7,0.9-1.2,1.6-1.6c0.7-0.4,1.5-0.5,2.3-0.5c1,0,1.8,0.2,2.5,0.5c0.7,0.3,1.2,0.8,1.6,1.4c0.4,0.6,0.5,1.3,0.5,2.2v0
				c0,0.7-0.1,1.4-0.4,2.1c-0.2,0.7-0.6,1.3-1,1.9l-3.8,4.8h5.2V66h-9.1V63.4z"/>
			<path class="st3" d="M488.1,66h-2.9V54l-1.9,0.7v-3.1l2.3-1h2.5V66z"/>
			<path class="st3" d="M501.7,50.6h1.8l5.9,15.4h-3.1l-3.7-10.5L499,66h-3.1L501.7,50.6z M498.7,60.8h8.1v2.8h-8.1V60.8z"/>
			<path class="st3" d="M511.3,50.6h2.9V66h-2.9V50.6z M512.6,63.2h9V66h-9V63.2z"/>
			<path class="st3" d="M523.7,50.6h2.9V66h-2.9V50.6z M525,63.2h9V66h-9V63.2z"/>
			<path class="st3" d="M547.1,60.1V66h-2.9v-5.9l-4.5-9.4h3l2.9,6.6l2.9-6.6h3L547.1,60.1z"/>
			<path class="st3" d="M552.8,50.6h2.9V66h-2.9V50.6z M553.8,50.6h9.2v2.8h-9.2V50.6z M553.8,57h8.1v2.8h-8.1V57z M553.8,63.2h9.2
				V66h-9.2V63.2z"/>
			<path class="st3" d="M570.1,50.6h1.8l5.9,15.4h-3.1L571,55.5L567.4,66h-3.1L570.1,50.6z M567.1,60.8h8.1v2.8h-8.1V60.8z"/>
			<path class="st3" d="M579.7,50.6h2.9V66h-2.9V50.6z M580.9,57h5.3c0.3,0,0.6-0.1,0.8-0.2c0.2-0.1,0.4-0.4,0.5-0.6
				c0.1-0.3,0.2-0.6,0.2-1c0-0.4-0.1-0.7-0.2-1s-0.3-0.5-0.5-0.6c-0.2-0.1-0.5-0.2-0.8-0.2h-5.3v-2.8h5.6c0.8,0,1.6,0.2,2.2,0.6
				c0.6,0.4,1.1,0.9,1.5,1.6c0.4,0.7,0.5,1.5,0.5,2.4c0,0.9-0.2,1.7-0.5,2.4c-0.4,0.7-0.9,1.2-1.5,1.6c-0.6,0.4-1.4,0.6-2.2,0.6
				h-5.6V57z M584.1,59.4l3.1-0.5l4.1,7.1h-3.5L584.1,59.4z"/>
			<path class="st3" d="M599.6,50.6h2.9V66h-2.9V50.6z M601,57.3h4.9c0.3,0,0.6-0.1,0.9-0.2c0.3-0.2,0.5-0.4,0.6-0.7
				c0.1-0.3,0.2-0.6,0.2-1c0-0.4-0.1-0.7-0.2-1c-0.1-0.3-0.3-0.5-0.6-0.7c-0.3-0.2-0.6-0.2-0.9-0.2H601v-2.8h4.8
				c1,0,1.8,0.2,2.5,0.6c0.7,0.4,1.3,0.9,1.7,1.7s0.6,1.5,0.6,2.5s-0.2,1.8-0.6,2.5s-1,1.3-1.7,1.6c-0.7,0.4-1.6,0.6-2.5,0.6H601
				V57.3z"/>
			<path class="st3" d="M613.1,50.6h2.9V66h-2.9V50.6z M614.3,57h5.3c0.3,0,0.6-0.1,0.8-0.2c0.2-0.1,0.4-0.4,0.5-0.6
				c0.1-0.3,0.2-0.6,0.2-1c0-0.4-0.1-0.7-0.2-1s-0.3-0.5-0.5-0.6c-0.2-0.1-0.5-0.2-0.8-0.2h-5.3v-2.8h5.6c0.8,0,1.6,0.2,2.2,0.6
				c0.6,0.4,1.1,0.9,1.5,1.6c0.4,0.7,0.5,1.5,0.5,2.4c0,0.9-0.2,1.7-0.5,2.4c-0.4,0.7-0.9,1.2-1.5,1.6c-0.6,0.4-1.4,0.6-2.2,0.6
				h-5.6V57z M617.5,59.4l3.1-0.5l4.1,7.1h-3.5L617.5,59.4z"/>
			<path class="st3" d="M629.5,65.5c-0.8-0.5-1.5-1.1-2-2c-0.5-0.9-0.7-1.8-0.7-3v-4.4c0-1.1,0.2-2.1,0.7-3c0.5-0.9,1.1-1.5,2-2
				s1.8-0.7,2.9-0.7s2.1,0.2,2.9,0.7c0.8,0.5,1.5,1.1,2,2s0.7,1.8,0.7,3v4.4c0,1.1-0.2,2.1-0.7,3s-1.1,1.5-2,2
				c-0.8,0.5-1.8,0.7-2.9,0.7S630.4,65.9,629.5,65.5z M633.9,62.9c0.4-0.2,0.7-0.5,0.9-0.9s0.3-0.9,0.3-1.4v-4.5
				c0-0.5-0.1-1-0.3-1.4c-0.2-0.4-0.5-0.7-0.9-0.9c-0.4-0.2-0.9-0.3-1.4-0.3c-0.5,0-1,0.1-1.4,0.3s-0.7,0.5-0.9,0.9
				c-0.2,0.4-0.3,0.9-0.3,1.4v4.5c0,0.5,0.1,1,0.3,1.4c0.2,0.4,0.5,0.7,0.9,0.9s0.9,0.3,1.4,0.3C633,63.3,633.5,63.2,633.9,62.9z"/>
			<path class="st3" d="M650.8,50.6h3.8V66H652V54.1l0.1,0.7l-2.9,9.5h-2.6l-2.9-9.3l0.1-0.9V66h-2.6V50.6h3.8l2.9,10.3L650.8,50.6z
				"/>
			<path class="st3" d="M660.4,65.5c-0.8-0.5-1.5-1.1-2-2c-0.5-0.9-0.7-1.8-0.7-3v-4.4c0-1.1,0.2-2.1,0.7-3c0.5-0.9,1.1-1.5,2-2
				s1.8-0.7,2.9-0.7s2.1,0.2,2.9,0.7c0.8,0.5,1.5,1.1,2,2s0.7,1.8,0.7,3v4.4c0,1.1-0.2,2.1-0.7,3s-1.1,1.5-2,2
				c-0.8,0.5-1.8,0.7-2.9,0.7S661.2,65.9,660.4,65.5z M664.7,62.9c0.4-0.2,0.7-0.5,0.9-0.9s0.3-0.9,0.3-1.4v-4.5
				c0-0.5-0.1-1-0.3-1.4c-0.2-0.4-0.5-0.7-0.9-0.9c-0.4-0.2-0.9-0.3-1.4-0.3c-0.5,0-1,0.1-1.4,0.3s-0.7,0.5-0.9,0.9
				c-0.2,0.4-0.3,0.9-0.3,1.4v4.5c0,0.5,0.1,1,0.3,1.4c0.2,0.4,0.5,0.7,0.9,0.9s0.9,0.3,1.4,0.3C663.8,63.3,664.3,63.2,664.7,62.9z"
				/>
			<path class="st3" d="M489.1,76.6h2.9V92h-2.9V76.6z M490.2,76.6h9v2.8h-9V76.6z M490.2,83.1h7.9v2.8h-7.9V83.1z"/>
			<path class="st3" d="M501.2,76.6h2.9V92h-2.9V76.6z M502.4,83h5.3c0.3,0,0.6-0.1,0.8-0.2c0.2-0.1,0.4-0.4,0.5-0.6
				c0.1-0.3,0.2-0.6,0.2-1c0-0.4-0.1-0.7-0.2-1s-0.3-0.5-0.5-0.6c-0.2-0.1-0.5-0.2-0.8-0.2h-5.3v-2.8h5.6c0.8,0,1.6,0.2,2.2,0.6
				c0.6,0.4,1.1,0.9,1.5,1.6c0.4,0.7,0.5,1.5,0.5,2.4c0,0.9-0.2,1.7-0.5,2.4c-0.4,0.7-0.9,1.2-1.5,1.6c-0.6,0.4-1.4,0.6-2.2,0.6
				h-5.6V83z M505.6,85.3l3.1-0.5l4.1,7.1h-3.5L505.6,85.3z"/>
			<path class="st3" d="M515.3,76.6h2.9V92h-2.9V76.6z M516.4,76.6h9.2v2.8h-9.2V76.6z M516.4,82.9h8.1v2.8h-8.1V82.9z M516.4,89.2
				h9.2V92h-9.2V89.2z"/>
			<path class="st3" d="M528.3,76.6h2.9V92h-2.9V76.6z M529.3,76.6h9.2v2.8h-9.2V76.6z M529.3,82.9h8.1v2.8h-8.1V82.9z M529.3,89.2
				h9.2V92h-9.2V89.2z"/>
			<path class="st3" d="M544.9,76.6h11.3v2.8h-11.3V76.6z M549.1,77.9h2.9V92h-2.9V77.9z"/>
			<path class="st3" d="M560.2,92h-3V76.6h3V92z"/>
			<path class="st3" d="M563.4,76.6h2.9V92h-2.9V76.6z M564.6,89.2h9V92h-9V89.2z"/>
			<path class="st3" d="M581,89.3l5.3-6.9c0.2-0.3,0.4-0.6,0.6-1c0.1-0.3,0.2-0.6,0.2-0.9v0c0-0.4-0.1-0.7-0.4-1
				c-0.3-0.2-0.6-0.3-1.1-0.3c-0.5,0-0.9,0.2-1.2,0.5c-0.3,0.3-0.5,0.8-0.5,1.3v0h-3v0c0.1-1,0.3-1.8,0.7-2.5
				c0.4-0.7,0.9-1.2,1.6-1.6c0.7-0.4,1.5-0.5,2.3-0.5c1,0,1.8,0.2,2.5,0.5c0.7,0.3,1.2,0.8,1.6,1.4c0.4,0.6,0.5,1.3,0.5,2.2v0
				c0,0.7-0.1,1.4-0.4,2.1c-0.2,0.7-0.6,1.3-1,1.9l-3.8,4.8h5.2V92H581V89.3z"/>
			<path class="st3" d="M593.6,91c-0.8-0.8-1.2-1.8-1.2-3.2v-7c0-1.4,0.4-2.5,1.2-3.2c0.8-0.8,1.9-1.1,3.4-1.1
				c1.5,0,2.6,0.4,3.4,1.1c0.8,0.8,1.2,1.8,1.2,3.2v7c0,1.4-0.4,2.5-1.2,3.2s-1.9,1.1-3.4,1.1C595.5,92.1,594.4,91.7,593.6,91z
				 M598.3,88.7c0.3-0.4,0.4-1,0.4-1.7v-5.5c0-0.7-0.1-1.3-0.4-1.7c-0.3-0.4-0.7-0.6-1.3-0.6c-0.6,0-1,0.2-1.3,0.6
				c-0.3,0.4-0.4,1-0.4,1.7V87c0,0.7,0.1,1.3,0.4,1.7c0.3,0.4,0.7,0.6,1.3,0.6C597.6,89.3,598,89.1,598.3,88.7z"/>
			<path class="st3" d="M604.1,89.3l5.3-6.9c0.2-0.3,0.4-0.6,0.6-1c0.1-0.3,0.2-0.6,0.2-0.9v0c0-0.4-0.1-0.7-0.4-1
				c-0.3-0.2-0.6-0.3-1.1-0.3c-0.5,0-0.9,0.2-1.2,0.5c-0.3,0.3-0.5,0.8-0.5,1.3v0h-3v0c0.1-1,0.3-1.8,0.7-2.5
				c0.4-0.7,0.9-1.2,1.6-1.6c0.7-0.4,1.5-0.5,2.3-0.5c1,0,1.8,0.2,2.5,0.5c0.7,0.3,1.2,0.8,1.6,1.4c0.4,0.6,0.5,1.3,0.5,2.2v0
				c0,0.7-0.1,1.4-0.4,2.1c-0.2,0.7-0.6,1.3-1,1.9l-3.8,4.8h5.2V92h-9.1V89.3z"/>
			<path class="st3" d="M615.3,89.3l5.3-6.9c0.2-0.3,0.4-0.6,0.6-1c0.1-0.3,0.2-0.6,0.2-0.9v0c0-0.4-0.1-0.7-0.4-1
				c-0.3-0.2-0.6-0.3-1.1-0.3c-0.5,0-0.9,0.2-1.2,0.5c-0.3,0.3-0.5,0.8-0.5,1.3v0h-3v0c0.1-1,0.3-1.8,0.7-2.5
				c0.4-0.7,0.9-1.2,1.6-1.6c0.7-0.4,1.5-0.5,2.3-0.5c1,0,1.8,0.2,2.5,0.5c0.7,0.3,1.2,0.8,1.6,1.4c0.4,0.6,0.5,1.3,0.5,2.2v0
				c0,0.7-0.1,1.4-0.4,2.1c-0.2,0.7-0.6,1.3-1,1.9l-3.8,4.8h5.2V92h-9.1V89.3z"/>
			<path class="st3" d="M626.8,76.6h2.9v10.8h-2.9V76.6z M626.8,89.1h2.9V92h-2.9V89.1z"/>
		</g>
	</g>
</g>
<g id="Layer_3">
	<rect x="31.1" y="26.6" class="st4" width="935.3" height="205.7"/>
	<path class="st5" d="M700.4,203.3c-1.3,10.1-6,19.3-11.1,28.2c-0.2,0.3-0.3,0.6-0.5,0.9h-52.4c-1.1-0.3-2.1-0.6-3.2-0.9
		c-5.9-1.8-11.5-4.6-16.6-8.1c-19.3-13.9-26.7-40.2-23.4-63.7c2.1-14.6,8.5-29.6,21-37.4c6.6-4.2,15.1-5.5,22.7-4
		c0.2,0,0.4,0.1,0.6,0.1c6.5,1.5,12.4,5.1,15.7,11c6,10.6,2.4,23.7-0.5,35.5c-2.9,11.8-4.5,25.9,4,34.6c-2.8-8.2,0-18.1,6.6-23.6
		c5.1-4.2,12.1-5.8,18.5-4.5c0.6,0.1,1.2,0.3,1.8,0.5c1.4,0.4,2.8,1,4.1,1.7C697.8,179,701.9,191.9,700.4,203.3z"/>
	<path class="st3" d="M669.3,231.4c1.5,0.3,2.9,0.6,4.4,0.9h-7.9c-1-0.3-2.1-0.6-3.1-0.9c-2.3-0.7-4.5-1.5-6.7-2.4
		c-8.8-3.7-16.8-9.2-22.9-16.5c-3-3.6-5.4-7.5-7.2-11.8c-2-4.8-3.2-9.9-3.7-15.1c-1.1-10.7,0-21.6,2.1-32.1
		c2.2-10.8,5.7-21.4,10.5-31.4c0.6-1.2,1.2-2.4,1.8-3.6c0.1-0.2,0.3-0.3,0.5-0.4c0.2,0,0.4,0,0.6,0.1c0.4,0.3,0.6,0.8,0.4,1.3
		c-4.9,9.6-8.6,19.7-11.1,30.2c-2.4,10.2-3.8,20.9-3.3,31.5c0.4,9.8,3,19.5,8.8,27.5c5.3,7.3,12.7,13.1,20.8,17.1
		C658.4,228.3,663.8,230.2,669.3,231.4z"/>
	<path class="st3" d="M686.8,232.3h-2.3c-0.3-0.3-0.5-0.6-0.8-0.9c-5.3-6.5-8.9-14.2-10.5-22.4c-1.9-10.3-0.4-20.9,4.2-30.3
		c1.3-2.6,2.8-5.1,4.5-7.5c0.6,0.1,1.2,0.3,1.8,0.5c-4.5,6-7.6,13-8.9,20.5c-2.4,14.1,1.7,28.5,11.2,39.3
		C686.2,231.7,686.5,232,686.8,232.3z"/>
	<path class="st5" d="M897.4,224.7c0.3,2.7,1.6,5.1,2.9,7.4c0,0.1,0.1,0.2,0.1,0.2h13.8c0.3-0.1,0.6-0.2,0.8-0.2
		c1.6-0.5,3-1.2,4.4-2.1c5.1-3.7,7.1-10.6,6.2-16.8c-0.6-3.9-2.2-7.8-5.5-9.9c-1.8-1.1-3.9-1.5-6-1c-0.1,0-0.1,0-0.2,0
		c-1.7,0.3-3.2,1.4-4.1,2.9c-1.6,2.8-0.6,6.3,0.1,9.4c0.8,3.1,1.2,6.8-1,9.1c1-3-0.6-6.2-3.6-7.2c-1-0.3-2.1-0.4-3.1-0.2
		c-0.2,0-0.3,0.1-0.5,0.1c-0.4,0.1-0.7,0.3-1.1,0.5C898,218.3,897,221.7,897.4,224.7z"/>
	<path class="st3" d="M905.6,232.1c-0.4,0.1-0.8,0.2-1.2,0.2h2.1c0.3-0.1,0.5-0.2,0.8-0.2c0.6-0.2,1.2-0.4,1.8-0.6
		c2.3-0.9,4.4-2.4,6-4.4c0.8-0.9,1.4-2,1.9-3.1c0.5-1.3,0.8-2.6,1-4c0.2-2.8,0-5.7-0.6-8.5c-0.6-2.9-1.5-5.6-2.8-8.3
		c-0.2-0.3-0.3-0.6-0.5-0.9c0-0.1-0.1-0.1-0.1-0.1c-0.1,0-0.1,0-0.2,0c-0.1,0.1-0.2,0.2-0.1,0.3c1.3,2.5,2.3,5.2,2.9,8
		c0.7,2.7,1,5.5,0.9,8.3c0,2.6-0.9,5.1-2.3,7.3c-1.4,1.9-3.3,3.5-5.5,4.5C908.5,231.3,907,231.8,905.6,232.1z"/>
	<path class="st3" d="M901,232.3h0.6c0.1-0.1,0.1-0.2,0.2-0.2c1.4-1.7,2.4-3.7,2.8-5.9c0.5-2.7,0.1-5.5-1.1-8
		c-0.3-0.7-0.7-1.4-1.2-2c-0.2,0-0.3,0.1-0.5,0.1c1.2,1.6,2,3.4,2.4,5.4c0.6,3.7-0.5,7.5-2.9,10.4C901.1,232.2,901,232.3,901,232.3z
		"/>
	<path class="st3" d="M772.6,163.6h-43.3l-0.5-13.3c-0.1-2.2,1.7-4.1,3.9-4.1c0.2,0,0.4,0,0.6,0l25.2,3.1h0
		c7.8,0,14.1,6.3,14.1,14.1V163.6z"/>
	<path class="st6" d="M753.3,116.4h-30.2c-1.7,0-3.1,1.4-3.1,3.1c0,0,0,0,0,0v30.2c0,1.7,1.4,3.1,3.1,3.1c0,0,0,0,0,0h30.2
		c1.7,0,3.1-1.4,3.1-3.1c0,0,0,0,0,0v-30.2C756.4,117.7,755,116.4,753.3,116.4C753.3,116.4,753.3,116.4,753.3,116.4z"/>
	<path class="st7" d="M756.4,119.4v4H720v-4c0-1.7,1.4-3.1,3.1-3.1c0,0,0,0,0,0h30.2C755,116.4,756.4,117.7,756.4,119.4
		C756.4,119.4,756.4,119.4,756.4,119.4z"/>
	<path class="st8" d="M828.9,124.7c-0.8-2.6-3.5-4-6.1-3.2c-0.3,0.1-0.5,0.2-0.8,0.3l-41.6-14.9l-1.8,10.4l41.4,11.4
		c1.4,2.3,4.4,3,6.7,1.7C828.7,129.2,829.6,126.8,828.9,124.7z"/>
	<path class="st9" d="M828.9,124.7c-0.8-2.6-3.5-4-6.1-3.2c-0.3,0.1-0.5,0.2-0.8,0.3l-41.6-14.9l-1.8,10.4l41.4,11.4
		c1.4,2.3,4.4,3,6.7,1.7C828.7,129.2,829.6,126.8,828.9,124.7z"/>
	<path class="st3" d="M787.9,108.8l-3.9,10.3c-0.4,1.1-1.7,1.7-2.8,1.3c-0.1,0-0.2-0.1-0.3-0.1l-9.5-5.4c-3.1-1.2-4.6-4.7-3.4-7.8
		c1.2-3.1,4.7-4.6,7.8-3.4l10.7,2.4c1.2,0.3,1.9,1.4,1.7,2.6C787.9,108.6,787.9,108.7,787.9,108.8z"/>
	<path class="st3" d="M832.2,134.2l-14.9,6.8l2,7.4c3.8,14.2,4.8,29,3,43.6l0,0l10.9,2.3l9-23l-3.2-26.2L832.2,134.2z"/>
	<path class="st10" d="M861.4,168.3c-9.8,0-17.8,7.1-18.1,16h36.3C879.2,175.4,871.2,168.3,861.4,168.3z"/>
	<path class="st10" d="M853.8,169.8c-0.5-40.2-23.4-36.5-23.4-36.5s0.4,12.5,0.6,12.9c14.6,27.6-9.5,60-40.1,54
		c-0.6-0.1-1.1-0.2-1.7-0.3c-8.1-1.7-13.4-9.3-12.3-17.5c3-24.3-12-23.8-12-23.8h-22l-11.4-10.3c-1.4-1.2-3.5-1.1-4.7,0.2
		c-0.3,0.3-0.5,0.7-0.6,1.1l-1.5,4c0,0-21.7,2.3-19.9,23.5h6.7c0,0.6,0,1.2,0.1,1.8l50-0.4c2.9,0,5.5,2.4,5.5,5.3
		c0,2.9-2.4,5.3-5.3,5.3c-0.1,0-0.1,0-0.2,0l-8.1-0.3c-2.5,11.1,3.6,18.5,10.3,23.2c6.3,4.3,13.8,6.6,21.5,6.6h21.9
		c28.4,0,33.4-23.9,33.4-23.9C855.6,188.3,853.8,169.8,853.8,169.8z"/>
	<circle class="st10" cx="860" cy="206.3" r="25.4"/>
	<circle class="st3" cx="860" cy="206.3" r="6.2"/>
	<circle class="st10" cx="731.9" cy="202.4" r="29.2"/>
	<circle class="st3" cx="731.9" cy="202.4" r="7.2"/>
	<path class="st10" d="M817.3,143l-5.4-14.6c-1.2-3.2,0.5-6.7,3.6-7.9c0,0,0,0,0,0l15.4-5.7c5.6-2.1,11.8,0.8,13.9,6.4c0,0,0,0,0,0
		c0.4,1.2,0.7,2.5,0.7,3.7c0,3.3-1.5,6.4-4.1,8.5c-0.9,0.7-1.9,1.3-3,1.7L817.3,143z"/>
	<path class="st3" d="M845.3,125c0,3.2-1.5,6.3-4,8.3c-7.2-1.9-11.5-9.3-9.6-16.5c0.2-0.7,0.4-1.4,0.7-2.1
		c5.7-1.2,11.4,2.4,12.6,8.1C845.2,123.5,845.3,124.2,845.3,125z"/>
	<ellipse class="st3" cx="708.7" cy="172.3" rx="6.3" ry="7.7"/>
	<polygon class="st8" points="792.3,199.5 797.8,199.5 800.4,185.1 792.3,185.1 	"/>
	<path class="st11" d="M790.8,197.7l10.9,0h0c3.8,0,6.9,3.1,6.9,6.9c0,0,0,0,0,0v0.2l-17.8,0L790.8,197.7z"/>
	<path class="st11" d="M798.7,193.6c-0.1,0-0.1,0-0.2,0l-7.7-0.6c-1.1-0.1-1.9-1.1-1.8-2.2c0-0.2,0.1-0.3,0.1-0.5l10.2-23
		c0.1-0.4,0.1-0.9-0.1-1.3c-0.2-0.4-0.6-0.7-1-0.8c-4.8-1.3-17.2-4.6-27.9-8.5c-4.6-1.7-7.5-4.1-8.6-7.2c-1.5-4.1,0.7-7.8,0.8-8
		l0.1-0.1l10.1,0.9l10.9,0.9l23.9,12.8c4.2,2.2,5.9,7.3,4,11.6l-11,24.7C800.2,193.1,799.5,193.6,798.7,193.6z"/>
	<circle class="st8" cx="774.5" cy="85.6" r="11.1"/>
	<polygon class="st8" points="789.1,200.8 794.6,200.8 797.3,186.5 789.1,186.5 	"/>
	<path class="st11" d="M787.7,199l10.9,0h0c3.8,0,6.9,3.1,6.9,6.9c0,0,0,0,0,0v0.2l-17.8,0L787.7,199z"/>
	<path class="st11" d="M795.5,194.9c-0.1,0-0.1,0-0.2,0l-7.7-0.6c-1.1-0.1-1.9-1.1-1.8-2.2c0-0.2,0.1-0.3,0.1-0.5l10.2-23
		c0.1-0.4,0.1-0.9-0.1-1.3c-0.2-0.4-0.6-0.7-1-0.8c-4.8-1.3-17.2-4.6-27.9-8.5c-4.6-1.7-7.5-4.1-8.6-7.2c-1.5-4.1,0.7-7.8,0.8-8
		l0.1-0.1l10.1,0.9l10.9,0.9l23.9,12.8c4.2,2.2,5.9,7.3,4,11.6l-11,24.7C797.1,194.5,796.3,194.9,795.5,194.9z"/>
	<path class="st3" d="M777.9,103l-11.7-4.1c0,0-7.4,5.7-3.8,19.7c1.8,7.2,1.3,14.9-1.5,21.8c-0.3,0.9-0.7,1.7-1.2,2.5
		c0,0,13.1,15.8,25.3,4.1l-4.7-22.8C780.2,124.2,787.6,109.1,777.9,103z"/>
	<path class="st11" d="M775.9,97.1c-1.6-2.4-2.8-5.6-1.1-7.9c1.7-2.2,5.1-1.9,7.7-2.9c3.7-1.4,5.8-5.7,5.1-9.5
		c-0.7-3.8-3.8-7-7.4-8.3c-3.7-1.3-7.8-0.9-11.4,0.6c-4.4,1.9-8.2,5.4-9.8,10c-1.6,4.5-0.7,10,2.6,13.5c3.5,3.7,9.1,4.7,14.3,4.7"/>
	<path class="st11" d="M765.6,76.9c-2,1.6-5,0.9-7.2-0.5c-2.1-1.4-3.9-3.4-6.2-4.6c-4.1-2-9-0.7-13,1.5c-4,2.2-7.5,5.2-11.7,6.9
		s-9.5,1.8-12.7-1.4c-2.1,6.1,1.1,12.7,7.2,14.8c3.3,1.1,6.9,0.7,9.8-1.1c4.6-2.8,7.1-8.6,12.3-10.2c2.8-0.9,5.9-0.2,8.8,0.6
		c2.9,0.7,5.9,1.5,8.8,0.9c2.9-0.6,5.6-3.2,5.2-6.2L765.6,76.9z"/>
	<path class="st8" d="M828.3,124.2c-1.1-2.4-4-3.5-6.4-2.4c-0.3,0.1-0.5,0.3-0.7,0.4l-43.1-9.7l-0.5,10.5l42.5,6.2
		c1.7,2.1,4.7,2.5,6.8,0.8C828.7,128.7,829.3,126.3,828.3,124.2L828.3,124.2z"/>
	<path class="st3" d="M785.7,113.5l-2.6,10.7c-0.3,1.2-1.5,1.9-2.6,1.6c-0.1,0-0.2-0.1-0.3-0.1l-10.1-4.2c-3.2-0.8-5.2-4.1-4.4-7.3
		c0.8-3.2,4.1-5.2,7.3-4.4l10.9,1c1.2,0.1,2.1,1.2,2,2.4C785.7,113.3,785.7,113.4,785.7,113.5L785.7,113.5z"/>
	<circle class="st3" cx="823.4" cy="129.4" r="3.2"/>
	<path class="st10" d="M963.3,231.9c0,0.2-0.2,0.5-0.5,0.5H589.6c-0.2,0-0.5-0.2-0.5-0.5c0-0.2,0.2-0.5,0.5-0.5h373.2
		C963.1,231.4,963.3,231.6,963.3,231.9z"/>
	<g>
		<path class="st12" d="M736.7,129.8h-5.5c-1.9,0-3.5,1.6-3.5,3.5v9.9c0,1.9,1.6,3.5,3.5,3.5h5.5c1.9,0,3.5-1.6,3.5-3.5v-9.9
			C740.2,131.3,738.6,129.8,736.7,129.8z M739,142.4c0,1.6-1.3,2.9-2.9,2.9h-4.3c-1.6,0-2.9-1.3-2.9-2.9V134c0-1.6,1.3-2.9,2.9-2.9
			h4.3c1.6,0,2.9,1.3,2.9,2.9L739,142.4z"/>
		<path class="st13" d="M738.3,146.7c0.2,0,0.4-0.1,0.6-0.1C738.7,146.6,738.5,146.7,738.3,146.7L738.3,146.7z"/>
		<path class="st13" d="M740.1,145.3L740.1,145.3L740.1,145.3L740.1,145.3z"/>
		<path class="st12" d="M748.4,139.5v7.2h1c0.2,0,0.4-0.2,0.4-0.4v-6.5c0-0.1-0.1-0.2-0.2-0.2L748.4,139.5z"/>
		<path class="st12" d="M743.9,140.2L743.9,140.2c0,0.4,0.3,0.7,0.7,0.7h3.9v-1.4h-3.9C744.2,139.5,743.9,139.8,743.9,140.2z"/>
		<path class="st12" d="M749.8,130v1h-9.1c-0.5-0.7-1.3-1.1-2.1-1.2c-0.2,0-0.3,0-0.5,0h11.5C749.7,129.8,749.8,129.9,749.8,130
			C749.8,130,749.8,130,749.8,130z"/>
		<path class="st12" d="M741.1,131h-1.2c0,0,0,0,0,0c-0.6-0.9-1.8-1.3-1.8-1.3h1.9L741.1,131z"/>
		<path class="st12" d="M749.1,133.8L749.1,133.8c-0.5,0-0.8-0.3-0.8-0.7V131h1.5v2.1C749.8,133.5,749.5,133.8,749.1,133.8
			C749.1,133.8,749.1,133.8,749.1,133.8z"/>
		<path class="st12" d="M749,145.3v1.4h-10.9c0.3,0,0.6,0,0.9-0.1c0.7-0.2,1.3-0.6,1.7-1.2l0-0.1L749,145.3L749,145.3z"/>
		<path class="st12" d="M740.7,145.3l-0.1,0.1C740.6,145.3,740.6,145.3,740.7,145.3L740.7,145.3z"/>
		<path class="st12" d="M738.1,146.7c0,0,1.2-0.2,1.8-1.4h1.2l-0.3,1.4H738.1z"/>
		<path class="st12" d="M740.2,131L740.2,131c-0.6-0.9-1.8-1.3-1.8-1.3h0.4c0,0,0.1,0,0.1,0C740,130.3,740.2,131,740.2,131z"/>
		<path class="st14" d="M738,146.7"/>
		<g class="st15">
			<path class="st16" d="M723.3,140.9c0.3,0,1.8-0.2,3.3,0c0,0,0,0,0,0c0,0,0,0,0,0C726.3,141,724.5,141.2,723.3,140.9
				C723.3,140.9,723.3,140.9,723.3,140.9C723.3,140.9,723.3,140.9,723.3,140.9z"/>
			<path class="st16" d="M724.9,142.7c0-0.3-0.2-2,0-3.6c0,0,0,0,0,0c0,0,0,0,0,0C725,139.5,725.2,141.4,724.9,142.7
				C725,142.7,725,142.7,724.9,142.7C724.9,142.7,724.9,142.7,724.9,142.7L724.9,142.7z"/>
		</g>
		<path class="st17" d="M723.2,140.8c0.3,0,1.8-0.2,3.3,0c0,0,0,0,0,0c0,0,0,0,0,0l0,0C726.2,140.9,724.5,141.1,723.2,140.8
			C723.2,140.8,723.2,140.8,723.2,140.8C723.2,140.8,723.2,140.8,723.2,140.8z"/>
		<path class="st17" d="M724.9,142.6c0-0.3-0.2-2,0-3.6c0,0,0,0,0,0c0,0,0,0,0,0C724.9,139.4,725.2,141.3,724.9,142.6
			C724.9,142.6,724.9,142.6,724.9,142.6C724.9,142.6,724.9,142.6,724.9,142.6L724.9,142.6z"/>
		<g class="st15">
			<path class="st18" d="M749.8,138.5c0.2,0,1.2-0.1,2.2,0c0,0,0,0,0,0c0,0,0,0,0,0C751.7,138.5,750.6,138.7,749.8,138.5
				C749.8,138.5,749.8,138.5,749.8,138.5C749.8,138.5,749.8,138.5,749.8,138.5z"/>
			<path class="st18" d="M750.9,139.7c0-0.2-0.1-1.3,0-2.3c0,0,0,0,0,0s0,0,0,0C750.9,137.6,751,138.8,750.9,139.7
				C750.9,139.7,750.9,139.7,750.9,139.7C750.9,139.7,750.9,139.7,750.9,139.7L750.9,139.7z"/>
		</g>
		<path class="st17" d="M749.8,138.5c0.2,0,1.2-0.1,2.2,0c0,0,0,0,0,0c0,0,0,0,0,0C751.7,138.5,750.5,138.6,749.8,138.5
			C749.7,138.5,749.7,138.5,749.8,138.5C749.7,138.5,749.7,138.5,749.8,138.5z"/>
		<path class="st17" d="M750.8,139.6c0-0.2-0.1-1.3,0-2.3c0,0,0,0,0,0c0,0,0,0,0,0C750.9,137.6,751,138.8,750.8,139.6
			C750.8,139.6,750.8,139.6,750.8,139.6C750.8,139.6,750.8,139.6,750.8,139.6L750.8,139.6z"/>
		<circle class="st9" cx="738.6" cy="127.2" r="0.3"/>
		<circle class="st16" cx="738.5" cy="127.2" r="0.3"/>
		<circle class="st9" cx="750.9" cy="145.8" r="0.3"/>
		<circle class="st17" cx="750.9" cy="145.8" r="0.3"/>
		<g class="st15">
			<path class="st18" d="M750.6,143.6c0.3,0,1.8-0.2,3.3,0c0,0,0,0,0,0c0,0,0,0,0,0C753.6,143.7,751.8,143.9,750.6,143.6
				C750.6,143.6,750.6,143.6,750.6,143.6C750.6,143.6,750.6,143.6,750.6,143.6z"/>
			<path class="st18" d="M752.3,145.4c0-0.3-0.2-1.9,0-3.5c0,0,0,0,0,0c0,0,0,0,0,0C752.3,142.2,752.5,144.1,752.3,145.4
				C752.3,145.4,752.3,145.4,752.3,145.4C752.3,145.4,752.3,145.4,752.3,145.4z"/>
		</g>
		<path class="st19" d="M750.6,143.6c0.3,0,1.8-0.2,3.3,0c0,0,0,0,0,0c0,0,0,0,0,0C753.6,143.6,751.8,143.8,750.6,143.6
			C750.6,143.6,750.6,143.6,750.6,143.6C750.6,143.6,750.6,143.6,750.6,143.6z"/>
		<path class="st19" d="M752.2,145.3c0-0.3-0.2-1.9,0-3.5c0,0,0,0,0,0c0,0,0,0,0,0C752.3,142.2,752.5,144,752.2,145.3
			C752.2,145.4,752.2,145.4,752.2,145.3C752.2,145.3,752.2,145.3,752.2,145.3z"/>
		<g class="st15">
			<path class="st18" d="M749.2,128.7c0.3,0,1.8-0.2,3.3,0c0,0,0,0,0,0c0,0,0,0,0,0C752.2,128.8,750.4,129,749.2,128.7
				C749.2,128.8,749.2,128.7,749.2,128.7C749.2,128.7,749.2,128.7,749.2,128.7z"/>
			<path class="st18" d="M750.8,130.5c0-0.3-0.2-1.9,0-3.5c0,0,0,0,0,0c0,0,0,0,0,0C750.9,127.4,751.1,129.2,750.8,130.5
				C750.9,130.5,750.9,130.5,750.8,130.5C750.8,130.5,750.8,130.5,750.8,130.5z"/>
		</g>
		<path class="st19" d="M749.1,128.7c0.3,0,1.8-0.2,3.3,0c0,0,0,0,0,0c0,0,0,0,0,0C752.1,128.8,750.4,129,749.1,128.7
			C749.1,128.7,749.1,128.7,749.1,128.7C749.1,128.7,749.1,128.7,749.1,128.7z"/>
		<path class="st19" d="M750.8,130.5c0-0.3-0.2-1.9,0-3.5c0,0,0,0,0,0c0,0,0,0,0,0C750.9,127.3,751.1,129.2,750.8,130.5
			C750.8,130.5,750.8,130.5,750.8,130.5C750.8,130.5,750.8,130.5,750.8,130.5z"/>
		<circle class="st9" cx="738.3" cy="128.7" r="0.2"/>
		<circle class="st19" cx="738.3" cy="128.6" r="0.2"/>
		<circle class="st9" cx="726.7" cy="142.7" r="0.2"/>
		<circle class="st19" cx="726.7" cy="142.6" r="0.2"/>
		<g class="st15">
			<path class="st18" d="M747.2,127.6c0.2,0,1.1-0.1,1.9,0c0,0,0,0,0,0c0,0,0,0,0,0C748.9,127.6,747.9,127.7,747.2,127.6
				C747.2,127.6,747.2,127.6,747.2,127.6C747.2,127.6,747.2,127.6,747.2,127.6z"/>
			<path class="st18" d="M748.1,128.6c0-0.2-0.1-1.1,0-2.1c0,0,0,0,0,0c0,0,0,0,0,0C748.2,126.8,748.3,127.8,748.1,128.6
				C748.1,128.6,748.1,128.6,748.1,128.6C748.1,128.6,748.1,128.6,748.1,128.6z"/>
		</g>
		<path class="st20" d="M747.1,127.5c0.2,0,1.1-0.1,1.9,0c0,0,0,0,0,0c0,0,0,0,0,0C748.9,127.6,747.8,127.7,747.1,127.5
			C747.1,127.5,747.1,127.5,747.1,127.5C747.1,127.5,747.1,127.5,747.1,127.5z"/>
		<path class="st20" d="M748.1,128.6c0-0.2-0.1-1.1,0-2.1c0,0,0,0,0,0c0,0,0,0,0,0C748.1,126.7,748.3,127.8,748.1,128.6
			C748.1,128.6,748.1,128.6,748.1,128.6C748.1,128.6,748.1,128.6,748.1,128.6z"/>
		<g class="st15">
			<path class="st18" d="M725,144.7c0.2,0,1.1-0.1,1.9,0c0,0,0,0,0,0c0,0,0,0,0,0C726.8,144.7,725.7,144.8,725,144.7
				C725,144.7,725,144.7,725,144.7C725,144.7,725,144.7,725,144.7z"/>
			<path class="st18" d="M726,145.7c0-0.2-0.1-1.1,0-2.1c0,0,0,0,0,0c0,0,0,0,0,0C726,143.9,726.2,144.9,726,145.7
				C726,145.7,726,145.7,726,145.7C726,145.7,726,145.7,726,145.7z"/>
		</g>
		<path class="st20" d="M725,144.6c0.2,0,1.1-0.1,1.9,0c0,0,0,0,0,0c0,0,0,0,0,0C726.7,144.7,725.7,144.8,725,144.6
			C725,144.6,725,144.6,725,144.6z"/>
		<path class="st20" d="M725.9,145.7c0-0.2-0.1-1.1,0-2.1c0,0,0,0,0,0c0,0,0,0,0,0C726,143.8,726.1,144.9,725.9,145.7
			C726,145.7,726,145.7,725.9,145.7C726,145.7,725.9,145.7,725.9,145.7z"/>
		<circle class="st9" cx="736.6" cy="127.2" r="0.6"/>
		<circle class="st20" cx="736.5" cy="127.1" r="0.6"/>
		<circle class="st9" cx="726.1" cy="138.8" r="0.3"/>
		<circle class="st20" cx="726" cy="138.8" r="0.3"/>
		<circle class="st9" cx="752.7" cy="140.1" r="0.3"/>
		<circle class="st20" cx="752.7" cy="140.1" r="0.3"/>
		<g class="st15">
			<path class="st18" d="M727.9,131.6c0,0-0.3,0.3-0.9,0.7c-0.4,0.3-1.2,0.9-1.6,2.2c0.8-0.3,1.3-0.5,1.3-0.5l0.8,1.8
				c0,0,0.2-1.5,0.4-2.1c0.2-0.6,0.3-0.7,0.5-0.9s0.5-0.4,0.6-1.3l-0.3-0.8c0,0-1.1-0.5-2.7-0.4c-0.6,0-1.8-0.1-1.9-0.6
				c0-0.1-0.1-0.3,0.7-0.4c0.8,0,1.9-0.2,3.8,1.1l-0.1-0.3c0,0-2-1.5-3.9-1.2c-1.9,0.3-0.7,1.6-0.6,1.9c0.1,0.3,0.2,0.4,0.1,0.8
				c-0.1,0.4,0.2,1,0.7,0.9s0.5-0.1,1.4-0.4C727.1,131.8,727.7,131.6,727.9,131.6z"/>
			<path class="st18" d="M731.8,130.3c0,0,0.4,0.1,1.1,0.1c0.5,0,1.5,0,2.6,0.9c-0.8,0.2-1.4,0.4-1.4,0.4l0.4,1.9c0,0-1-1.1-1.5-1.5
				c-0.5-0.3-0.6-0.4-0.9-0.5s-0.6,0-1.3-0.7l-0.3-0.8c0,0,0.6-1,1.9-1.9c0.4-0.3,1.4-1.1,1.2-1.6c-0.1-0.1-0.1-0.3-0.8,0.1
				c-0.7,0.5-1.6,0.9-2.4,3.2l-0.1-0.3c0,0,0.7-2.4,2.4-3.3c1.7-0.9,1.5,0.9,1.6,1.2c0.1,0.3,0.1,0.4,0.4,0.7
				c0.3,0.3,0.4,0.9-0.1,1.1c-0.4,0.2-0.5,0.2-1.4,0.4S732,130.3,731.8,130.3z"/>
			<path class="st18" d="M729.2,129.5l0.3-0.1c0.4-0.1,0.8,0.1,0.9,0.5l0.1,0.3c0.1,0.4-0.1,0.8-0.5,0.9l-0.3,0.1
				c-0.4,0.1-0.8-0.1-0.9-0.5l-0.1-0.3C728.7,130.1,728.9,129.7,729.2,129.5z"/>
		</g>
		<path class="st19" d="M727.8,131.4c0,0-0.3,0.3-0.9,0.7c-0.4,0.3-1.2,0.9-1.6,2.2c0.8-0.3,1.3-0.5,1.3-0.5l0.8,1.8
			c0,0,0.2-1.5,0.4-2.1c0.2-0.6,0.3-0.7,0.5-0.9c0.2-0.2,0.5-0.4,0.6-1.3l-0.3-0.8c0,0-1.1-0.5-2.7-0.4c-0.6,0-1.8-0.1-1.9-0.6
			c0-0.1-0.1-0.3,0.7-0.4c0.8,0,1.9-0.2,3.8,1.1l-0.1-0.3c0,0-2-1.5-3.9-1.2c-1.9,0.3-0.7,1.6-0.6,1.9c0.1,0.3,0.2,0.4,0.1,0.8
			c-0.1,0.4,0.2,1,0.7,0.9c0.5-0.1,0.5-0.1,1.4-0.4C727,131.6,727.6,131.4,727.8,131.4z"/>
		<path class="st19" d="M731.7,130.1c0,0,0.4,0.1,1.1,0.1c0.5,0,1.5,0,2.6,0.9c-0.8,0.2-1.4,0.4-1.4,0.4l0.4,1.9c0,0-1-1.1-1.5-1.5
			c-0.5-0.3-0.6-0.4-0.9-0.5s-0.6,0-1.3-0.7l-0.3-0.8c0,0,0.6-1,1.9-1.9c0.4-0.3,1.4-1.1,1.2-1.6c-0.1-0.1-0.1-0.3-0.8,0.1
			c-0.7,0.5-1.6,0.9-2.4,3.2l-0.1-0.3c0,0,0.7-2.4,2.4-3.3c1.7-0.9,1.5,0.9,1.6,1.2c0.1,0.3,0.1,0.4,0.4,0.7
			c0.3,0.3,0.4,0.9-0.1,1.1c-0.4,0.2-0.5,0.2-1.4,0.4C732.5,129.8,731.9,130.1,731.7,130.1z"/>
		<path class="st19" d="M729.2,129.3l0.3-0.1c0.4-0.1,0.8,0.1,0.9,0.5l0.1,0.3c0.1,0.4-0.1,0.8-0.5,0.9l-0.3,0.1
			c-0.4,0.1-0.8-0.1-0.9-0.5l-0.1-0.3C728.6,129.8,728.8,129.4,729.2,129.3z"/>
	</g>
	<g>
		<path class="st12" d="M726.6,119.7c0,0.3,0,0.6-0.1,0.9c-0.1,0.3-0.2,0.5-0.4,0.7c-0.2,0.2-0.3,0.4-0.6,0.5c-0.4,0.2-1,0.2-1.4,0
			c-0.2-0.1-0.4-0.3-0.6-0.5c-0.2-0.2-0.3-0.5-0.4-0.7c-0.1-0.3-0.1-0.6-0.1-0.9c0-0.3,0-0.6,0.1-0.9c0.1-0.3,0.2-0.5,0.4-0.7
			c0.2-0.2,0.4-0.4,0.6-0.5c0.4-0.2,1-0.2,1.4,0c0.2,0.1,0.4,0.3,0.6,0.5c0.2,0.2,0.3,0.5,0.4,0.7
			C726.6,119.1,726.6,119.4,726.6,119.7z M726,119.7c0-0.2,0-0.4-0.1-0.6c-0.1-0.2-0.1-0.3-0.2-0.5c-0.1-0.1-0.2-0.2-0.4-0.3
			c-0.3-0.2-0.6-0.2-0.9,0c-0.1,0.1-0.3,0.2-0.4,0.3c-0.1,0.1-0.2,0.3-0.2,0.5c-0.1,0.4-0.1,0.8,0,1.1c0.1,0.2,0.1,0.3,0.2,0.5
			c0.1,0.1,0.2,0.2,0.4,0.3c0.3,0.2,0.6,0.2,0.9,0c0.1-0.1,0.3-0.2,0.4-0.3c0.1-0.1,0.2-0.3,0.2-0.5
			C725.9,120.1,726,119.9,726,119.7z"/>
		<path class="st12" d="M729.3,121.9h-0.6V120c0-0.1,0-0.2,0-0.3c0-0.1-0.1-0.1-0.1-0.2c0-0.1-0.1-0.1-0.2-0.1c-0.1,0-0.1,0-0.2,0
			c-0.1,0-0.2,0-0.3,0.1c-0.1,0-0.2,0.1-0.2,0.2v2.3h-0.6v-3.2h0.6l0,0.2c0,0,0.1-0.1,0.1-0.1c0.1,0,0.1-0.1,0.2-0.1
			c0.1,0,0.1,0,0.2-0.1c0.1,0,0.1,0,0.2,0c0.1,0,0.2,0,0.4,0.1c0.1,0.1,0.2,0.1,0.3,0.2c0.1,0.1,0.2,0.3,0.2,0.4
			c0.1,0.2,0.1,0.4,0.1,0.6L729.3,121.9z"/>
		<path class="st12" d="M730.8,121.9c-0.1,0-0.1,0.1-0.2,0.1c-0.1,0-0.1,0-0.2,0c-0.1,0-0.2,0-0.3,0c-0.1,0-0.2-0.1-0.2-0.1
			c-0.1-0.1-0.1-0.2-0.2-0.3c0-0.1-0.1-0.3-0.1-0.4v-3.7h0.6v3.6c0,0.1,0,0.2,0.1,0.3c0,0,0.1,0.1,0.1,0.1c0.1,0,0.2,0,0.2-0.1
			V121.9z"/>
		<path class="st12" d="M731.7,118.2h-0.6v-0.8h0.6V118.2z M731.7,121.9h-0.6v-3.2h0.6V121.9z"/>
		<path class="st12" d="M734.5,121.9h-0.6V120c0-0.1,0-0.2,0-0.3c0-0.1-0.1-0.1-0.1-0.2c0-0.1-0.1-0.1-0.2-0.1c-0.1,0-0.1,0-0.2,0
			c-0.1,0-0.2,0-0.3,0.1c-0.1,0-0.2,0.1-0.2,0.2v2.3h-0.6v-3.2h0.6l0,0.2c0,0,0.1-0.1,0.1-0.1c0.1,0,0.1-0.1,0.2-0.1
			c0.1,0,0.1,0,0.2-0.1c0.1,0,0.1,0,0.2,0c0.1,0,0.2,0,0.4,0.1c0.1,0.1,0.2,0.1,0.3,0.2c0.1,0.1,0.2,0.3,0.2,0.4
			c0.1,0.2,0.1,0.4,0.1,0.6L734.5,121.9z"/>
		<path class="st12" d="M737.5,120.3c0,0.1,0,0.1,0,0.2c0,0.1,0,0.1,0,0.2h-2c0,0.1,0.1,0.2,0.1,0.3c0,0.1,0.1,0.1,0.1,0.2
			c0.1,0.1,0.1,0.1,0.2,0.1c0.1,0,0.2,0.1,0.2,0.1c0.1,0,0.2,0,0.3-0.1c0.1,0,0.2-0.1,0.3-0.2l0.4,0.5c-0.1,0.1-0.3,0.3-0.5,0.3
			c-0.2,0.1-0.3,0.1-0.5,0.1c-0.2,0-0.4,0-0.5-0.1c-0.2-0.1-0.3-0.2-0.4-0.4c-0.1-0.2-0.2-0.3-0.3-0.5c-0.1-0.4-0.1-0.9,0-1.3
			c0.1-0.2,0.2-0.4,0.3-0.5c0.1-0.1,0.2-0.2,0.3-0.3c0.2-0.1,0.4-0.2,0.6-0.2c0.2,0,0.4,0,0.5,0.1c0.2,0.1,0.3,0.2,0.4,0.3
			c0.1,0.2,0.2,0.3,0.3,0.5C737.4,119.8,737.5,120.1,737.5,120.3z M736.8,120c0-0.2-0.1-0.3-0.3-0.5c-0.1-0.1-0.3-0.2-0.4-0.2
			c-0.2,0-0.3,0.1-0.4,0.2c-0.1,0.1-0.2,0.3-0.3,0.5H736.8z"/>
		<path class="st12" d="M742.4,121.1c-0.1,0.1-0.2,0.3-0.3,0.4c-0.1,0.1-0.2,0.2-0.4,0.3c-0.1,0.1-0.2,0.1-0.4,0.2
			c-0.1,0-0.3,0.1-0.4,0.1c-0.2,0-0.5-0.1-0.7-0.2c-0.2-0.1-0.4-0.3-0.6-0.5c-0.2-0.2-0.3-0.5-0.4-0.7c-0.1-0.3-0.1-0.6-0.1-0.9
			c0-0.3,0-0.6,0.1-0.9c0.1-0.3,0.2-0.5,0.4-0.7c0.2-0.2,0.4-0.4,0.6-0.5c0.2-0.1,0.5-0.2,0.7-0.2c0.3,0,0.6,0.1,0.8,0.2
			c0.2,0.2,0.5,0.4,0.6,0.6l-0.4,0.6c-0.1-0.2-0.2-0.4-0.4-0.5c-0.2-0.1-0.4-0.2-0.6-0.1c-0.1,0-0.2,0-0.2,0.1
			c-0.2,0.1-0.4,0.2-0.5,0.4c-0.1,0.1-0.2,0.3-0.3,0.5c-0.1,0.2-0.1,0.4-0.1,0.6c0,0.2,0,0.4,0.1,0.6c0.1,0.2,0.1,0.3,0.3,0.5
			c0.1,0.1,0.2,0.3,0.4,0.3c0.3,0.1,0.6,0.1,0.8,0c0.1-0.1,0.3-0.2,0.4-0.3v-0.4H741v-0.7h1.3V121.1z"/>
		<path class="st12" d="M743.4,118.2h-0.6v-0.8h0.6V118.2z M743.4,121.9h-0.6v-3.2h0.6V121.9z"/>
		<path class="st12" d="M745.3,118.1c0,0-0.1,0-0.2-0.1c0,0-0.1,0-0.1,0c-0.1,0-0.2,0-0.3,0.1c0,0.1-0.1,0.2-0.1,0.4v0.2h0.4v0.7
			h-0.4v2.5h-0.6v-2.5h-0.3v-0.7h0.3v-0.2c0-0.4,0.1-0.7,0.2-0.9c0.1-0.2,0.3-0.3,0.6-0.3c0.2,0,0.3,0,0.5,0.1V118.1z"/>
		<path class="st12" d="M746.9,121.8c-0.1,0.1-0.1,0.1-0.2,0.1c-0.1,0-0.2,0-0.2,0c-0.1,0-0.2,0-0.4-0.1c-0.1,0-0.2-0.1-0.2-0.2
			c-0.1-0.1-0.1-0.2-0.1-0.4c0-0.2,0-0.3,0-0.5v-1.4h-0.4v-0.4c0.2-0.1,0.4-0.3,0.5-0.5c0.1-0.2,0.2-0.5,0.2-0.8h0.2v0.9h0.6v0.7
			h-0.6v1.4c0,0.1,0,0.1,0,0.2c0,0,0,0.1,0.1,0.1c0,0,0.1,0,0.1,0.1c0,0,0.1,0,0.1,0c0.1,0,0.1,0,0.2,0c0.1,0,0.1-0.1,0.2-0.1
			L746.9,121.8z"/>
		<path class="st12" d="M747.9,118.2h-0.6v-0.8h0.6V118.2z M747.9,121.9h-0.6v-3.2h0.6V121.9z"/>
		<path class="st12" d="M750.7,121.9H750V120c0-0.1,0-0.2,0-0.3c0-0.1-0.1-0.1-0.1-0.2c0-0.1-0.1-0.1-0.2-0.1c-0.1,0-0.1,0-0.2,0
			c-0.1,0-0.2,0-0.3,0.1c-0.1,0-0.2,0.1-0.2,0.2v2.3h-0.6v-3.2h0.6l0,0.2c0,0,0.1-0.1,0.1-0.1c0.1,0,0.1-0.1,0.2-0.1
			c0.1,0,0.1,0,0.2-0.1c0.1,0,0.1,0,0.2,0c0.1,0,0.2,0,0.4,0.1c0.1,0.1,0.2,0.1,0.3,0.2c0.1,0.1,0.2,0.3,0.2,0.4
			c0.1,0.2,0.1,0.4,0.1,0.6L750.7,121.9z"/>
		<path class="st12" d="M753.3,119.3h-0.3c0.1,0.2,0.1,0.4,0.1,0.5c0,0.1,0,0.3-0.1,0.4c0,0.1-0.1,0.3-0.2,0.4
			c-0.1,0.1-0.2,0.2-0.3,0.3c-0.1,0.1-0.2,0.1-0.4,0.2c-0.1,0-0.1,0-0.2,0.1c0,0-0.1,0.1-0.1,0.1c0,0,0,0.1,0.1,0.1
			c0.1,0,0.1,0.1,0.2,0.1c0.3,0,0.6,0.1,0.8,0.3c0.2,0.2,0.3,0.4,0.3,0.7c0,0.1,0,0.3-0.1,0.4c-0.1,0.1-0.1,0.2-0.2,0.3
			c-0.1,0.1-0.2,0.2-0.4,0.2c-0.2,0-0.3,0.1-0.5,0.1c-0.2,0-0.3,0-0.5-0.1c-0.1,0-0.3-0.1-0.4-0.2c-0.1-0.1-0.2-0.2-0.2-0.3
			c-0.1-0.3-0.1-0.7,0.1-1c0.1-0.2,0.3-0.3,0.5-0.3c-0.1,0-0.1-0.1-0.1-0.1c0-0.1,0-0.1,0-0.2c0-0.1,0-0.1,0.1-0.2
			c0-0.1,0.1-0.1,0.2-0.1c-0.1,0-0.2-0.1-0.2-0.2c-0.1-0.1-0.1-0.2-0.2-0.2c-0.1-0.1-0.1-0.2-0.1-0.3c0-0.1,0-0.2,0-0.4
			c0-0.2,0-0.3,0.1-0.5c0.1-0.1,0.1-0.3,0.2-0.4c0.1-0.1,0.2-0.2,0.3-0.3c0.1-0.1,0.3-0.1,0.4-0.1c0.1,0,0.3,0,0.4,0.1h0.9V119.3z
			 M752.7,122.4c0-0.1-0.1-0.2-0.1-0.3c-0.1-0.1-0.3-0.1-0.4-0.1c-0.1,0-0.3,0-0.4,0.1c-0.1,0.1-0.2,0.3-0.1,0.5
			c0,0,0.1,0.1,0.1,0.1c0.1,0.1,0.3,0.1,0.4,0.1c0.1,0,0.3,0,0.4-0.1C752.6,122.6,752.7,122.5,752.7,122.4z M752.6,119.9
			c0-0.1,0-0.2,0-0.2c0-0.1-0.1-0.1-0.1-0.2c0-0.1-0.1-0.1-0.1-0.1c-0.1,0-0.1,0-0.2,0c-0.1,0-0.1,0-0.2,0c-0.1,0-0.1,0.1-0.1,0.1
			c0,0.1-0.1,0.1-0.1,0.2c0,0.1,0,0.1,0,0.2c0,0.1,0,0.2,0,0.2c0,0.1,0.1,0.1,0.1,0.2c0,0.1,0.1,0.1,0.1,0.1c0.1,0,0.1,0,0.2,0
			c0.1,0,0.1,0,0.2,0c0.1,0,0.1-0.1,0.1-0.1c0-0.1,0.1-0.1,0.1-0.2C752.6,120,752.6,119.9,752.6,119.9L752.6,119.9z"/>
	</g>
	<g>
		<path class="st12" d="M842.1,34.3c0,1.7-0.3,3.4-0.8,5c-0.5,1.5-1.2,2.9-2.2,4.1c-0.9,1.1-2,2.1-3.3,2.7c-2.5,1.3-5.4,1.3-7.9,0
			c-1.3-0.7-2.4-1.6-3.3-2.7c-1-1.2-1.7-2.6-2.2-4.1c-0.5-1.6-0.8-3.3-0.8-5c0-1.7,0.3-3.4,0.8-5c0.5-1.5,1.2-2.9,2.2-4.1
			c0.9-1.1,2-2,3.3-2.7c2.5-1.3,5.4-1.3,7.9,0c1.3,0.7,2.4,1.6,3.3,2.7c1,1.2,1.7,2.6,2.2,4.1C841.8,30.9,842.1,32.6,842.1,34.3z
			 M838.3,34.3c0-1.1-0.2-2.2-0.5-3.2c-0.3-0.9-0.8-1.8-1.4-2.6c-0.6-0.7-1.3-1.3-2.1-1.8c-1.6-0.9-3.5-0.9-5.1,0
			c-0.8,0.5-1.5,1.1-2.1,1.8c-0.6,0.8-1.1,1.7-1.4,2.6c-0.7,2.1-0.7,4.3,0,6.4c0.3,1,0.8,1.9,1.4,2.6c0.6,0.7,1.3,1.3,2.1,1.8
			c1.6,0.9,3.5,0.9,5.1,0c0.8-0.5,1.5-1.1,2.1-1.8c0.6-0.8,1.1-1.7,1.4-2.6C838.2,36.5,838.3,35.4,838.3,34.3z"/>
		<path class="st12" d="M857.3,46.8h-3.6V36.1c0-0.6-0.1-1.1-0.2-1.7c-0.1-0.4-0.3-0.8-0.6-1.2c-0.2-0.3-0.5-0.5-0.9-0.7
			c-0.3-0.2-0.7-0.2-1-0.2c-0.5,0-1.1,0.1-1.5,0.4c-0.5,0.3-1,0.7-1.4,1.1v13h-3.6V28.7h3.5l0,1.3c0.2-0.3,0.5-0.5,0.8-0.8
			c0.3-0.2,0.6-0.4,1-0.6c0.3-0.2,0.6-0.3,1-0.4c0.3-0.1,0.7-0.1,1-0.1c0.7,0,1.4,0.1,2.1,0.4c0.7,0.3,1.3,0.8,1.8,1.3
			c0.6,0.7,1,1.5,1.2,2.4c0.3,1.1,0.5,2.3,0.5,3.4L857.3,46.8z"/>
		<path class="st12" d="M865.8,46.7c-0.3,0.2-0.6,0.3-0.9,0.4c-0.4,0.1-0.7,0.2-1.1,0.2c-0.5,0-1-0.1-1.5-0.3
			c-0.5-0.2-0.9-0.5-1.3-0.9c-0.4-0.4-0.7-1-0.9-1.5c-0.2-0.7-0.3-1.5-0.3-2.3V21.1h3.6v20.5c0,0.7,0.1,1.3,0.4,1.5
			c0.2,0.3,0.5,0.4,0.9,0.4c0.4,0,0.9-0.2,1.2-0.5V46.7z"/>
		<path class="st12" d="M871,25.9h-3.6v-4.8h3.6V25.9z M871,46.8h-3.6V28.7h3.6V46.8z"/>
		<path class="st12" d="M887.1,46.8h-3.6V36.1c0-0.6-0.1-1.1-0.2-1.7c-0.1-0.4-0.3-0.8-0.6-1.2c-0.2-0.3-0.5-0.5-0.9-0.7
			c-0.3-0.2-0.7-0.2-1-0.2c-0.5,0-1.1,0.1-1.5,0.4c-0.5,0.3-1,0.7-1.4,1.1v13h-3.6V28.7h3.5l0,1.3c0.2-0.3,0.5-0.5,0.8-0.8
			c0.3-0.2,0.6-0.4,1-0.6c0.3-0.2,0.7-0.3,1-0.4c0.3-0.1,0.7-0.1,1-0.1c0.7,0,1.4,0.1,2.1,0.4c0.7,0.3,1.3,0.8,1.8,1.3
			c0.6,0.7,1,1.5,1.2,2.3c0.3,1.1,0.5,2.3,0.5,3.4L887.1,46.8z"/>
		<path class="st12" d="M903.9,37.7c0,0.3,0,0.6,0,0.9c0,0.3-0.1,0.6-0.1,1h-11.2c0.1,0.5,0.3,1,0.5,1.5c0.2,0.4,0.5,0.9,0.9,1.2
			c0.3,0.3,0.7,0.6,1.1,0.8c0.4,0.2,0.9,0.3,1.4,0.3c0.6,0,1.3-0.1,1.9-0.4c0.6-0.3,1.1-0.6,1.6-1.1l2.2,2.8c-0.8,0.8-1.8,1.5-2.8,2
			c-0.9,0.4-1.9,0.6-2.9,0.6c-1,0-2-0.3-2.9-0.7c-0.9-0.5-1.7-1.2-2.4-2c-0.7-0.9-1.2-1.9-1.6-3c-0.8-2.4-0.8-4.9,0-7.3
			c0.4-1.1,0.9-2.1,1.6-3c0.5-0.7,1.2-1.2,1.9-1.7c0.9-0.6,2-1,3.2-1c1,0,2.1,0.2,3,0.7c0.9,0.5,1.7,1.1,2.4,1.9
			c0.7,0.9,1.3,1.9,1.6,3C903.8,35.1,904,36.4,903.9,37.7z M900.3,35.9c-0.2-1-0.7-2-1.5-2.7c-0.6-0.7-1.5-1-2.4-1
			c-0.9,0-1.7,0.4-2.3,1c-0.7,0.8-1.2,1.7-1.4,2.7H900.3z"/>
		<path class="st12" d="M932,42.2c-0.5,0.8-1.1,1.6-1.8,2.2c-0.6,0.6-1.3,1.1-2,1.6c-0.7,0.4-1.4,0.7-2.2,0.9
			c-0.7,0.2-1.5,0.3-2.2,0.3c-1.4,0-2.8-0.3-4.1-1c-1.3-0.7-2.4-1.6-3.3-2.7c-1-1.2-1.7-2.6-2.2-4.1c-0.6-1.6-0.8-3.3-0.8-5.1
			c0-1.7,0.3-3.4,0.8-5c0.5-1.5,1.3-2.9,2.2-4.1c0.9-1.1,2-2.1,3.3-2.7c1.2-0.7,2.6-1,4-1c1.6,0,3.2,0.4,4.5,1.3
			c1.4,0.9,2.6,2.1,3.5,3.5l-2.5,3.3c-0.6-1.1-1.4-2-2.4-2.7c-1.1-0.7-2.4-0.9-3.6-0.8c-0.5,0-0.9,0.2-1.4,0.3
			c-1.1,0.4-2,1.2-2.7,2.1c-0.6,0.8-1.1,1.7-1.4,2.6c-0.4,1-0.5,2.1-0.5,3.2c0,1.1,0.2,2.2,0.5,3.2c0.3,1,0.8,1.8,1.4,2.6
			c0.6,0.8,1.4,1.5,2.3,1.9c1.5,0.7,3.3,0.7,4.8-0.1c0.8-0.4,1.5-1,2.1-1.6v-2.5h-4v-4h7.6V42.2z"/>
		<path class="st12" d="M938.1,25.9h-3.6v-4.8h3.6V25.9z M938.1,46.8h-3.6V28.7h3.6V46.8z"/>
		<path class="st12" d="M948.9,25.1c-0.3-0.1-0.6-0.3-0.9-0.3c-0.3-0.1-0.6-0.1-0.9-0.1c-0.5-0.1-1.1,0.2-1.4,0.6
			c-0.3,0.4-0.4,1.1-0.4,2.1v1.3h2v4h-2v14.1h-3.6V32.7h-1.6v-4h1.6v-1.4c0-2.2,0.3-4,1-5.1s1.8-1.8,3.5-1.8c0.9,0,1.8,0.1,2.7,0.4
			V25.1z"/>
		<path class="st12" d="M957.7,46.2c-0.4,0.3-0.8,0.5-1.2,0.7c-0.4,0.1-0.9,0.2-1.4,0.2c-0.7,0-1.4-0.1-2-0.4
			c-0.5-0.3-1-0.7-1.3-1.2c-0.4-0.6-0.6-1.3-0.7-2c-0.2-1-0.2-1.9-0.2-2.9v-7.8h-2v-2c1.1-0.6,2.1-1.5,2.7-2.7
			c0.8-1.4,1.2-3,1.4-4.6h1.1v5.2h3.6v4h-3.6v8.1c0,0.4,0,0.8,0.1,1.1c0.1,0.2,0.2,0.5,0.4,0.7c0.1,0.2,0.3,0.3,0.5,0.3
			c0.2,0.1,0.4,0.1,0.6,0.1c0.3,0,0.7-0.1,1-0.2c0.4-0.1,0.7-0.3,1-0.6L957.7,46.2z"/>
		<path class="st12" d="M963.4,25.9h-3.6v-4.8h3.6V25.9z M963.4,46.8h-3.6V28.7h3.6V46.8z"/>
		<path class="st12" d="M979.4,46.8h-3.6V36.1c0-0.6-0.1-1.1-0.2-1.7c-0.1-0.4-0.3-0.8-0.6-1.2c-0.2-0.3-0.5-0.5-0.9-0.7
			c-0.3-0.2-0.7-0.2-1-0.2c-0.5,0-1.1,0.1-1.5,0.4c-0.5,0.3-1,0.7-1.4,1.1v13h-3.6V28.7h3.5l0,1.3c0.2-0.3,0.5-0.5,0.8-0.8
			c0.3-0.2,0.6-0.4,1-0.6c0.3-0.2,0.7-0.3,1-0.4c0.3-0.1,0.7-0.1,1-0.1c0.7,0,1.4,0.1,2.1,0.4c0.7,0.3,1.3,0.8,1.8,1.3
			c0.6,0.7,1,1.5,1.2,2.3c0.3,1.1,0.5,2.3,0.5,3.4L979.4,46.8z"/>
		<path class="st12" d="M994.7,32.3h-1.5c0.4,1,0.6,2,0.6,3c0,0.8-0.1,1.6-0.4,2.4c-0.2,0.8-0.6,1.5-1,2.1c-0.4,0.6-1,1.2-1.6,1.6
			c-0.6,0.4-1.4,0.7-2.1,0.9c-0.4,0.1-0.8,0.2-1.2,0.5c-0.2,0.2-0.4,0.4-0.4,0.7c0,0.3,0.2,0.5,0.4,0.6c0.4,0.2,0.8,0.4,1.2,0.4
			c1.8,0.2,3.3,0.8,4.3,1.8c1,1,1.6,2.4,1.5,3.9c0,0.8-0.2,1.6-0.5,2.3c-0.3,0.7-0.8,1.3-1.3,1.8c-0.6,0.5-1.3,0.9-2.1,1.2
			c-0.9,0.3-1.8,0.4-2.8,0.4c-1,0-1.9-0.1-2.8-0.4c-0.8-0.2-1.5-0.6-2.1-1.2c-0.6-0.5-1-1.1-1.4-1.8c-0.7-1.8-0.6-3.8,0.4-5.5
			c0.7-0.9,1.7-1.6,2.8-1.9c-0.4-0.2-0.7-0.4-0.9-0.8c-0.2-0.3-0.2-0.7-0.2-1c0-0.3,0.1-0.7,0.3-1c0.2-0.3,0.5-0.6,0.9-0.7
			c-0.5-0.3-0.9-0.6-1.2-1c-0.4-0.4-0.8-0.9-1.1-1.4c-0.3-0.6-0.6-1.2-0.7-1.8c-0.2-0.7-0.3-1.4-0.3-2.1c0-1,0.2-1.9,0.5-2.8
			c0.3-0.8,0.8-1.6,1.3-2.3c0.5-0.6,1.2-1.1,2-1.5c0.7-0.4,1.5-0.6,2.3-0.6c0.8,0,1.5,0.2,2.2,0.5h4.9L994.7,32.3z M991,49.8
			c0-0.6-0.3-1.3-0.9-1.6c-0.7-0.4-1.4-0.5-2.2-0.5c-0.8,0-1.6,0.1-2.3,0.5c-0.9,0.6-1.1,1.7-0.5,2.6c0.1,0.2,0.3,0.4,0.5,0.5
			c0.7,0.4,1.5,0.6,2.2,0.5c0.8,0,1.5-0.1,2.2-0.5C990.7,51,991,50.4,991,49.8z M990.3,35.3c0-0.4-0.1-0.9-0.2-1.3
			c-0.1-0.4-0.3-0.7-0.6-1c-0.2-0.3-0.5-0.5-0.8-0.7c-0.3-0.2-0.6-0.3-1-0.3c-0.3,0-0.7,0.1-1,0.3c-0.3,0.2-0.6,0.4-0.8,0.7
			c-0.2,0.3-0.4,0.7-0.6,1c-0.1,0.4-0.2,0.8-0.2,1.3c0,0.4,0.1,0.9,0.2,1.3c0.1,0.4,0.3,0.7,0.6,1.1c0.2,0.3,0.5,0.5,0.8,0.7
			c0.3,0.2,0.6,0.3,1,0.3c0.3,0,0.7-0.1,1-0.3c0.3-0.2,0.6-0.4,0.8-0.7c0.2-0.3,0.4-0.7,0.6-1.1C990.3,36.2,990.3,35.8,990.3,35.3
			L990.3,35.3z"/>
	</g>
</g>
</svg>
