<svg id="_Layer_" data-name="&lt;Layer&gt;" xmlns="http://www.w3.org/2000/svg" viewBox="0 0 2378.63 1127.58"><defs><style>.cls-1{fill:#dde8fd;}.cls-2{fill:#fda6a4;}.cls-3{fill:#0b0754;}.cls-4{fill:#fc9391;}.cls-5{fill:#fff;}.cls-6{fill:#fc9290;}.cls-7{fill:#b25656;}.cls-8{fill:#ac4949;}.cls-9{fill:#ec9393;}.cls-10{fill:#ea8888;}.cls-11{fill:#93b3f4;}.cls-12{fill:#819ad6;}.cls-13{fill:#bed2fa;}.cls-14{fill:#6d89cf;}.cls-15{fill:#e75755;}.cls-16{fill:#fa7269;}.cls-17{fill:#ed9b9b;}.cls-18{fill:#f1afaf;}.cls-19{fill:#a94141;}.cls-20{fill:#ac504b;}.cls-21{fill:#9e332e;}.cls-22{fill:#b76060;}.cls-23{fill:#5076c9;}.cls-24{fill:#060632;}.cls-25{fill:#e96463;}.cls-26{fill:#7c95d4;}.cls-27{fill:#0e0e23;}.cls-28{fill:#f0acac;}.cls-29{fill:#3662c1;}.cls-30{fill:#a83f3f;}.cls-31{fill:#ea8a8a;}.cls-32{fill:#3a49cd;}</style></defs><path class="cls-1" d="M1424.85,1802.2s-223.2-375.08,62.15-650,530.77-122.63,655.29-130.27,164.45-248.47,532.82-321.11,962.77,7.4,638.28,523c-192.77,306.28,399.36,166.47,316.35,579.21Z" transform="translate(-1320.26 -677.77)"/><path class="cls-2" d="M1900.78,1047.4s1.07-6.7,1.39-11.25-1.31-8.89-2.5-12.65,4.95-8.11,4.95-10.68-3.17-3.36-7.52-2-17.2,14.23-13.64,20.95,4.62,17.44,4.62,17.44h0c-1.34,8.8-12.36,80.87-16.4,102.21-6.15,32.58-60.83,41.38-60.83,41.38l26.57,37.44s55.29-53.38,62.74-72.07c5.54-13.9,1.11-101.42.62-110.8Z" transform="translate(-1320.26 -677.77)"/><path class="cls-3" d="M1570.65,1256s30.23,11.76,57.45-18.64c-.63,1-19.08,29.3-34.87,34.43,2,1.43,4,2.92,5.9,4.46,8.1,6.53,15.17,13.7,23.1,18h0c19.68,10.6,36.58,15.49,50.82,16,13.48-6,21.24-19.08,25.62-30.4,2.1-1.63,4.19-3.28,6.23-4.88a52.38,52.38,0,0,1-14.26,33.54c19.55-5,32-20,38-38.79.37-1.13.7-2.29,1-3.45.17-.62.34-1.25.49-1.88a90.86,90.86,0,0,0,2.25-13.31,107.39,107.39,0,0,0-6.35-47.48c-.26-.68-.52-1.35-.79-2a.26.26,0,0,1,0-.08,91,91,0,0,0-8.21-15.77c-5.84-8.87-6.87-20.52-5.52-32.34,2.92-25.83,17.13-52.42,17.13-52.42a40.24,40.24,0,0,0-6.86-7.78c-9-8.17-27.44-19.13-58.07-13.48-46.61,8.6-62.74,41.78-57.36,82.67s4.14,64.55-26.94,75.29l-.33.11A14,14,0,0,0,1570.65,1256Z" transform="translate(-1320.26 -677.77)"/><path class="cls-2" d="M1671.93,1361.72s38,43,53.91,48.65c16.36,5.83,75.08-2.66,75.08-2.66s-6.79-51.69-5.35-67.67,36.89-74.38,39.76-98.5-24.48-48.7-24.48-48.7-18.51,0-19.7-2.17c-.54-1-1-2-1.45-3-4.77-11.45-2.94-23.79-2.94-23.79l-35.39-1.46c.31,4.29.56,7.95.76,11.13a23.88,23.88,0,0,1-16.49,24.2c-9.68,3.11-18,6.8-18.62,9.07-3.06,11.58,26,91.23,16,99C1691.22,1338.25,1671.93,1361.72,1671.93,1361.72Z" transform="translate(-1320.26 -677.77)"/><path class="cls-4" d="M1751.37,1162.38s2.36,17.51,38.33,25.25c-4.77-11.45-2.94-23.79-2.94-23.79Z" transform="translate(-1320.26 -677.77)"/><path class="cls-2" d="M1798.26,1159.59s-34.8,25.18-50.15,3.27-30.17-33.43-8.6-50.43,31.79-11.69,38.69-5.63S1806.91,1152.48,1798.26,1159.59Z" transform="translate(-1320.26 -677.77)"/><path class="cls-5" d="M1781,1153.26s2.32,2.38,8.94-2.21c0,0,5.56-3.84,3.55-6.77C1793.44,1144.28,1786.53,1145.5,1781,1153.26Z" transform="translate(-1320.26 -677.77)"/><path class="cls-3" d="M1771.47,1102.37s13.41-21-8.54-32c-36.87-18.47-38.29,31.12-49.31,34.58s-24,25.65-10.65,41.08,30.57,11.77,34.14,19.6,15.41,4.06,14.58,1.24c-.32-1.08-3.2-2.67-4.82-6.75-.9-2.25,1.54-4.78.64-4.82-8.85-.34-14.14-13.82-4.64-12.84s13.44-8.11,13-11.86-9.47-12.41-1.05-17.24S1766.69,1108.82,1771.47,1102.37Z" transform="translate(-1320.26 -677.77)"/><path class="cls-2" d="M1784.82,1789.93c-9-1.79-26.43-13.51-26.43-13.51s-7.58-136.2,2.79-170.25c6.06-19.89,18.61-84.29,28-134.4,6.68-35.64,11.75-64.06,11.75-64.06H1663.75s10.51,113,30.57,168c4.93,13.54,8.17,24.16,7.4,27.58-12.89,57.1,38.88,173.11,38.88,173.11a49.41,49.41,0,0,0-2.34,22.21H1812C1810.61,1793,1793.78,1791.72,1784.82,1789.93Z" transform="translate(-1320.26 -677.77)"/><path class="cls-2" d="M1717,1206.78s-42.74,53.15-54.84,59.24c-13.76,6.94-68.52,10.72-79.91,11.45h0a65.67,65.67,0,0,1-11.42-5.86c-5.08-3.43-16.49,5.76-18,9.13s-1.12,6,.94,6.19,6.07-4.32,9-3,6.25,3,9.93,3.09a80.57,80.57,0,0,0,8.15-.23c9.4,2.14,63.59,14,91.06,8.51,7.84-1.55,67.08-49.43,67.08-49.43l5.46-48.66Z" transform="translate(-1320.26 -677.77)"/><path class="cls-6" d="M1680.28,1407.71s-8.35,113.57,15.14,171.06l93.75-107c6.68-35.64,11.75-64.06,11.75-64.06Z" transform="translate(-1320.26 -677.77)"/><path class="cls-2" d="M1685.12,1354.86c-20-2.88-30.83,13.52-36.37,37-4.2,17.82-5.34,39.73-5.1,60.39a588.35,588.35,0,0,0,5.1,68.43s-18.74-21.5-47.28-26.27c-71.31-11.91-96.45-26.29-99.72-28.32-.85-2.38-2-6-3.54-11-3.15-10.8-5.11-15.46-19.29-16.51s-28.65-17.19-31.52-12.18,13.62,27.23,19.35,33,22.94,19.32,23,19.34h0c62.56,58.75,176.56,106.81,176.56,106.81,25.79-12.32,121.51-186.62,121.51-186.62S1746.76,1363.76,1685.12,1354.86Z" transform="translate(-1320.26 -677.77)"/><path class="cls-7" d="M1638.75,1296h0s30.34,2.82,35.38.83,14.84-9.4,24.56-17c2.1-1.63,4.19-3.28,6.23-4.88,9.74-7.63,18.21-14.19,19.94-13.85h0a.76.76,0,0,1,.35.19c1,.82,2.25,4.06,3.47,8.41,3.19,11.46,6.34,30.64,5.78,33.65v0a.71.71,0,0,1-.09.26,0,0,0,0,1,0,0l0,0c-1.27,1.79-20.44,17.46-28.79,24.24-2.33,1.93-3.83,3.13-3.83,3.13l.56.29,1.46.73c1.44.73,3.6,1.8,6.35,3.1h0c6.32,3,15.72,7.25,26.42,11.37,19.06,7.35,42.23,14.29,59.43,13.1,1.24-.09,2.45-.21,3.63-.38,0,0-2.82-16.29,1.24-23.45s31.34-73,32.55-77.83c1.07-4.3,1.45-10.28,1.84-15.62.1-1.41.2-2.77.32-4.05.36-4,.86-7.08,1.89-8.09l.16-.15s.06-.06.09-.09l.23-.23.48-.47a.49.49,0,0,1,.13-.12c6.73-6.68,40.6-40.54,55.23-60.3l.28-.38c3.13-4.27,5.34-7.85,6.13-10.32h0c.33-1,.62-2.09.9-3.2,3.66-15.08,2.31-37.76,2.31-37.76h0c-.31-.11-2.63-.87-11.36-2a74.51,74.51,0,0,0-14.16-.12h0s-5.45,32.25-7,34c-4.15,4.63-50.79,41.1-59.17,43.62h0a2.82,2.82,0,0,1-.72.12h-.12l-3.12,0h-.17c-4.09,0-7.2,0-7.2,0s12,16.44,10.6,29.83-40.13,12.9-50.63,4.78c-5.55-4.28-12.09-12.32-17-19-2.67-3.57-4.86-6.74-6.18-8.7-.89-1.3-1.39-2.07-1.39-2.07l0,0a3.11,3.11,0,0,0-.44.14l-.3.1-.36.12c-1.8.61-5.48,1.91-9.18,3.49a61,61,0,0,0-5.67,2.72l0,0a21.37,21.37,0,0,0-3.14,2.06c-8.48,7-48.86,56-54,59.47l0,0a1.15,1.15,0,0,1-.29.15c-3.32,1-23.43,5.75-23.43,5.75h0a56.78,56.78,0,0,0-1.69,11.69A36.25,36.25,0,0,0,1638.75,1296Z" transform="translate(-1320.26 -677.77)"/><path class="cls-6" d="M1643.65,1452.26c3.67-3.9,23.58-19.67,98.58-9.45,0,0-47.12-54-93.48-50.94C1644.55,1409.69,1643.41,1431.6,1643.65,1452.26Z" transform="translate(-1320.26 -677.77)"/><path class="cls-8" d="M1701.72,1331.09a373.87,373.87,0,0,0,34.8,15.5c10.81-13.45,16.33-36.12,14.84-49.9-2.36-22-23.08-33.76-26.12-35.38,3.85,3.07,10.45,40.35,9.13,42.38l0,0c-1.27,1.79-20.44,17.46-28.78,24.25Z" transform="translate(-1320.26 -677.77)"/><path class="cls-8" d="M1837.42,1230.27c2.62-2.56,58-57.25,62.74-72.07C1900.16,1158.2,1829,1203,1837.42,1230.27Z" transform="translate(-1320.26 -677.77)"/><path class="cls-7" d="M1799.58,1363.58s86.81,76.52,108.09,112.34c.56.94,0,3.26,0,4.27,0,0-22.87,3.46-40.78-6.72s-27.93-8-40.11-5.87-27.73.71-41.09-12.9-32.7-7.4-42.73-6.92-22-5.26-27.7-11.94-24.36-12.9-32-8.36-22,2.63-31-4.54-13.85-19.58-32-15.76-27.22,3.82-35.34-1.91-22.45-15.5-34.87-12-31.12-17.11-31.12-17.11-.91-3.84,0-4.28c12.39-6,107-45.92,186.67-39.58C1705.56,1332.25,1745.85,1361,1799.58,1363.58Z" transform="translate(-1320.26 -677.77)"/><path class="cls-9" d="M1518.88,1371.83s.91,1,2.47,2.53c5.23,5.13,17.75,16.19,27.29,14.87a10.41,10.41,0,0,0,1.37-.29h0c12.42-3.44,26.73,6.32,34.84,12s17.2,5.74,35.35,1.91a26.92,26.92,0,0,1,10.26-.38c9.18,1.62,13.71,8.87,19.67,14.36h0c.67.62,1.35,1.21,2.07,1.77a34.36,34.36,0,0,0,17.27,6.81c5.23.55,10.22-.17,13.77-2.27,2.43-1.45,6-1.8,9.89-1.4,7.79.81,16.95,4.66,21.29,8.9a10.93,10.93,0,0,1,.82.86c5.73,6.68,17.67,12.42,27.7,11.94,7.15-.34,19-3.6,30.12-.5h0a27.79,27.79,0,0,1,12.61,7.43,44.21,44.21,0,0,0,21.72,12.53h0a48.27,48.27,0,0,0,19.36.36c8-1.41,15-2.81,23.93-.78h0a59.5,59.5,0,0,1,16.18,6.65c17.92,10.17,40.78,6.72,40.78,6.72-18.27-34.39-108.09-116.61-108.09-116.61-53.73-2.55-94-31.34-94-31.34C1620.05,1321.16,1518.88,1371.83,1518.88,1371.83Z" transform="translate(-1320.26 -677.77)"/><path class="cls-10" d="M1807.41,1463h0a48.27,48.27,0,0,0,19.36.36c8-1.41,15-2.81,23.93-.78-.51-.64-33.86-43.24-38.1-40.54S1798.25,1457.52,1807.41,1463Z" transform="translate(-1320.26 -677.77)"/><path class="cls-10" d="M1714.44,1430.7a10.93,10.93,0,0,1,.82.86c5.73,6.68,17.67,12.42,27.7,11.94,7.15-.34,19-3.6,30.12-.5-.27-.58-17.47-37.49-26.17-38.79C1739.35,1403.07,1716.47,1419.2,1714.44,1430.7Z" transform="translate(-1320.26 -677.77)"/><path class="cls-10" d="M1521.35,1374.36c5.23,5.13,17.75,16.19,27.29,14.87.46-.09.91-.18,1.37-.29h0c.92-.39,60-25.59,63-31.24C1615.91,1352.45,1536.74,1366.89,1521.35,1374.36Z" transform="translate(-1320.26 -677.77)"/><path class="cls-10" d="M1584.87,1401c8.13,5.74,17.2,5.74,35.35,1.91a26.92,26.92,0,0,1,10.26-.38s34.8-20,33.27-26.27S1584.87,1396.72,1584.87,1401Z" transform="translate(-1320.26 -677.77)"/><path class="cls-10" d="M1650.15,1416.88h0c.67.62,1.35,1.21,2.07,1.77a34.36,34.36,0,0,0,17.27,6.81c5.23.55,10.22-.17,13.77-2.27,2.43-1.45,6-1.8,9.89-1.4,2.21-2,20.63-18.52,17.12-22.64C1706.54,1394.77,1648.12,1410.81,1650.15,1416.88Z" transform="translate(-1320.26 -677.77)"/><path class="cls-11" d="M1527,1790.34c3.36,1.21,8,1.64,13.27,1.56-24-14.09-102.36-38.64-65.11-43.65,34.17-4.62,59.84,30.15,68.37,43.54,3.88-.17,8.07-.57,12.42-1.09-34-38.65-136.11-159.51-80.86-156.43,54.51,3,81.4,116.6,89,155.34,3.93-.57,7.92-1.18,11.85-1.8-1.82-12.37-1.87-33.25,16.6-39.68,25.29-8.8,19,25.42,9.89,36.11,6.5-.49,11.57-.28,14.07,1.23a24.28,24.28,0,0,1,10.79,13.58H1475.64C1485.34,1794.88,1511.5,1784.83,1527,1790.34Z" transform="translate(-1320.26 -677.77)"/><path class="cls-11" d="M3536,1788.36s5.67-102.24,38.28-98.61,0,35.43-9.22,54.26-19.14,48.72-19.14,48.72Z" transform="translate(-1320.26 -677.77)"/><path class="cls-11" d="M3554.75,1792.73s18-62,42-59,14.36,20.94-2.66,31.57S3554.75,1792.73,3554.75,1792.73Z" transform="translate(-1320.26 -677.77)"/><path class="cls-11" d="M3607.06,1799.05h-97.65c-7.33-4,2-15.23,11.84-16,4-.3,9.12.53,14.95,1.76,3.57.76,7.43,1.68,11.51,2.55,2.64.59,5.37,1.15,8.18,1.66,1,.2,2,.37,3.06.55h0a104.22,104.22,0,0,0,19.18,1.51C3596.59,1790.68,3604.65,1796.72,3607.06,1799.05Z" transform="translate(-1320.26 -677.77)"/><path class="cls-12" d="M2373.58,1110.75s63.2-14.29,77.3-2.44,41.65,219.79,41.65,219.79S2454,1244.59,2442.34,1203C2430.1,1159.3,2373.58,1110.75,2373.58,1110.75Z" transform="translate(-1320.26 -677.77)"/><path class="cls-13" d="M2492.51,1328.08c-1.54-1.66-159.88-172.59-160.92-189s37.73-34.72,89.58-35.25c0,0-38.18,27.94-36.59,37.64,2.86,17.36,28.47,32,48.55,77.26C2456.75,1271.88,2492,1327.3,2492.51,1328.08Z" transform="translate(-1320.26 -677.77)"/><path class="cls-14" d="M2492.47,1328.05c-.89-.69-11.56-8.93-27.87-20.82l0,0c-49-35.68-148.75-104-187.87-99.12-16.81,2.12-34.35,8.7-50,17.16h0c-33.35,18.07-57.86,44.73-47.65,54.8,15,14.77,210.59-6.19,313.44,48Zm-254.41-67.82s32.81-15,44.27-14,93.52,19.42,103.21,27.56S2238.06,1260.23,2238.06,1260.23Z" transform="translate(-1320.26 -677.77)"/><path class="cls-12" d="M2492.52,1328.09c-102.85-54.23-298.45-33.27-313.44-48-10.21-10.07,14.3-36.73,47.65-54.8-.42.41-20.5,20.24-2.72,24.43,16.4,3.88,139.77-8.23,240.55,57.52l0,0a272.29,272.29,0,0,1,27.87,20.82Z" transform="translate(-1320.26 -677.77)"/><path class="cls-12" d="M2491.57,1328s49.42-97.66,42.53-151.07c0,0-12.06,13.12-16.16,15.38,0,0-10.18-15.26-10.93-17.25s.75,2,.75,2S2487.34,1296.76,2491.57,1328Z" transform="translate(-1320.26 -677.77)"/><path class="cls-13" d="M2492.53,1328.1s41.66-94.85,141.53-94.37c0,0-16.65,14.73-16.77,20.63,0,0,17.79,5,23.12,5.54,0,0-88.73,16.76-136.69,69.45Z" transform="translate(-1320.26 -677.77)"/><rect class="cls-15" x="2117.06" y="1356.57" width="462.41" height="443.95" transform="translate(3376.26 2479.32) rotate(180)"/><rect class="cls-9" x="2348.26" y="1356.57" width="462.41" height="443.95" transform="translate(3838.68 2479.32) rotate(180)"/><polygon class="cls-16" points="1028 678.8 1491.61 678.8 1491.61 819.95 1028 1122.75 1028 678.8"/><rect class="cls-17" x="787.04" y="633.17" width="240.96" height="76.97"/><rect class="cls-18" x="1028" y="633.17" width="471.83" height="76.97"/><rect class="cls-11" x="1252.9" y="633.17" width="35.74" height="490.2"/><rect class="cls-12" x="894.52" y="633.17" width="35.74" height="489.16"/><path class="cls-15" d="M3132.47,1459.18s-31.14-7-38.09-1.21-20.52,108.31-20.52,108.31,19-41.15,24.73-61.65C3104.62,1483.1,3132.47,1459.18,3132.47,1459.18Z" transform="translate(-1320.26 -677.77)"/><path class="cls-9" d="M3073.87,1566.28c.76-.83,78.78-85.06,79.3-93.15s-18.6-17.1-44.15-17.37c0,0,18.82,13.77,18,18.55-1.41,8.56-14,15.79-23.92,38.07C3091.49,1538.58,3074.11,1565.89,3073.87,1566.28Z" transform="translate(-1320.26 -677.77)"/><path class="cls-9" d="M3073.86,1566.28c50.68-26.72,147.07-16.4,154.46-23.68,5-5-7.05-18.09-23.48-27h0c-7.68-4.17-16.33-7.42-24.61-8.46-19.28-2.43-68.44,31.26-92.58,48.84l0,0c-8,5.86-13.29,9.92-13.73,10.26Zm52.72-26.76c4.77-4,45.22-13.11,50.86-13.59s21.82,6.91,21.82,6.91S3121.8,1543.53,3126.58,1539.52Z" transform="translate(-1320.26 -677.77)"/><path class="cls-15" d="M3073.86,1566.28c50.68-26.72,147.07-16.4,154.46-23.68,5-5-7.05-18.09-23.48-27,.2.21,10.1,10,1.34,12-8.08,1.91-68.88-4.05-118.54,28.34l0,0a133.46,133.46,0,0,0-13.73,10.26Z" transform="translate(-1320.26 -677.77)"/><path class="cls-15" d="M3074.33,1566.23s-22.67-33-18.42-51.65c0,0,5.71,4.35,7.69,5.07,0,0,5.25-5.45,5.64-6.15l-.39.7S3076.92,1555.34,3074.33,1566.23Z" transform="translate(-1320.26 -677.77)"/><path class="cls-9" d="M3073.86,1566.28s-32.88-69.57-113.48-68.43c0,0,13.32,10.72,13.37,15.08,0,0-14.4,3.78-18.71,4.26,0,0,71.49,11.65,109.78,50.1Z" transform="translate(-1320.26 -677.77)"/><rect class="cls-19" x="1710.75" y="902.54" width="227.87" height="218.77"/><rect class="cls-20" x="1596.82" y="902.54" width="227.87" height="218.77"/><polygon class="cls-21" points="1824.7 902.75 1596.24 902.75 1596.24 972.31 1824.7 1121.52 1824.7 902.75"/><rect class="cls-22" x="3144.95" y="1557.83" width="118.74" height="37.93" transform="translate(5088.37 2475.81) rotate(180)"/><rect class="cls-20" x="2912.45" y="1557.83" width="232.5" height="37.93" transform="translate(4737.13 2475.81) rotate(180)"/><rect class="cls-18" x="3016.51" y="1557.83" width="17.61" height="241.56" transform="translate(4730.36 2679.44) rotate(180)"/><rect class="cls-16" x="1872.84" y="880.06" width="17.61" height="241.05"/><path class="cls-15" d="M1998.23,1527.38s24.9-5.63,30.45-1,16.41,86.6,16.41,86.6-15.18-32.9-19.77-49.29C2020.49,1546.51,1998.23,1527.38,1998.23,1527.38Z" transform="translate(-1320.26 -677.77)"/><path class="cls-9" d="M2045.09,1613c-.61-.65-63-68-63.41-74.47s14.87-13.68,35.3-13.89c0,0-15,11-14.42,14.83,1.13,6.84,11.22,12.63,19.13,30.44C2031,1590.87,2044.89,1612.71,2045.09,1613Z" transform="translate(-1320.26 -677.77)"/><path class="cls-9" d="M2045.07,1613c-.35-.27-4.55-3.52-11-8.2h0c-19.3-14.06-58.61-41-74-39.06a57.94,57.94,0,0,0-19.68,6.76h0c-13.15,7.12-22.8,17.62-18.78,21.59,5.91,5.82,83-2.44,123.5,18.93Zm-100.24-26.72s12.93-5.9,17.44-5.52,36.85,7.65,40.67,10.86S1944.83,1586.28,1944.83,1586.28Z" transform="translate(-1320.26 -677.77)"/><path class="cls-15" d="M2045.09,1613c-40.52-21.37-117.59-13.11-123.5-18.93-4-4,5.63-14.47,18.78-21.59-.17.16-8.08,8-1.08,9.62,6.47,1.53,55.07-3.24,94.78,22.67h0a107.22,107.22,0,0,1,11,8.2Z" transform="translate(-1320.26 -677.77)"/><path class="cls-15" d="M2044.71,1613s18.13-26.41,14.73-41.3c0,0-4.56,3.48-6.14,4,0,0-4.2-4.36-4.52-4.92s.32.56.32.56S2042.65,1604.27,2044.71,1613Z" transform="translate(-1320.26 -677.77)"/><path class="cls-9" d="M2045.09,1613s26.29-55.63,90.74-54.72c0,0-10.65,8.58-10.69,12.06,0,0,11.51,3,15,3.41,0,0-57.16,9.31-87.78,40.06Z" transform="translate(-1320.26 -677.77)"/><rect class="cls-14" x="576.89" y="946.47" width="182.2" height="174.92"/><rect class="cls-14" x="667.99" y="946.47" width="182.2" height="174.92"/><polygon class="cls-11" points="667.99 946.47 850.65 946.47 850.65 1002.08 667.99 1121.38 667.99 946.47"/><rect class="cls-23" x="573.05" y="928.49" width="94.94" height="30.33"/><rect class="cls-13" x="667.99" y="928.49" width="185.9" height="30.33"/><rect class="cls-18" x="756.6" y="928.49" width="14.08" height="193.14"/><rect class="cls-16" x="615.4" y="928.49" width="14.08" height="192.74"/><rect class="cls-24" y="1121.27" width="2378.63" height="6.31" rx="3.08"/><path class="cls-13" d="M2307.8,729.81s8.52,11.67,7.61,25c-.68,9.87-9.49,19.87-10.08,20.26l13.9,7.41s10.31-18.29,6.83-33.58c-1.06-4.69-6-12.18-9.61-15.52A13.34,13.34,0,0,0,2307.8,729.81Z" transform="translate(-1320.26 -677.77)"/><path class="cls-1" d="M2279.39,731l-8.8-19.45s41.07,1.39,54.68,34.85C2325.27,746.44,2296.53,726,2279.39,731Z" transform="translate(-1320.26 -677.77)"/><path class="cls-1" d="M2725.65,1669.51s-3.51,7.54-10.47,10.78c-5.17,2.4-12.65.75-13,.56l.13,9.06s12.08.11,18.82-5.9c2.06-1.83,4.47-6.4,5.14-9.15A7.67,7.67,0,0,0,2725.65,1669.51Z" transform="translate(-1320.26 -677.77)"/><path class="cls-5" d="M2717.13,1655.54l7.35-9.84s10.72,21.08-2.36,37.24C2722.12,1682.94,2724.46,1662.76,2717.13,1655.54Z" transform="translate(-1320.26 -677.77)"/><path class="cls-13" d="M1981.65,1204s-9.79-7.4-12.31-18.44c-1.88-8.2,2.83-18.48,3.21-19l-13.12-2.61s-3.88,17.4,2.7,29c2,3.55,7.86,8.43,11.62,10.25A11.3,11.3,0,0,0,1981.65,1204Z" transform="translate(-1320.26 -677.77)"/><path class="cls-5" d="M2004.45,1196l11.93,13.65s-33.73,9-53-14.91C1963.37,1194.73,1991.77,1204.34,2004.45,1196Z" transform="translate(-1320.26 -677.77)"/><path class="cls-13" d="M2764.06,839.34s-1.47-11.53,4.34-20.54c4.31-6.7,14.39-10.32,15-10.37l-6.92-10.61s-14.36,8.89-17.84,21c-1.07,3.71-.51,10.9.74,14.66A10.74,10.74,0,0,0,2764.06,839.34Z" transform="translate(-1320.26 -677.77)"/><path class="cls-5" d="M2784.55,849.5l-1.35,17.11s-28.39-16.92-25-45.77C2758.22,820.84,2770.5,846.43,2784.55,849.5Z" transform="translate(-1320.26 -677.77)"/><path class="cls-9" d="M3030.15,1122.28s7.2-15.5,39.24-7.35c14.36,3.65,39.22,24.78,6.35,42.61-34.19,18.55-45-.83-45-.83s55.07-9,47.21-31.29c-8.68-24.55-31.75,2-31.75,2A42.37,42.37,0,0,0,3030.15,1122.28Z" transform="translate(-1320.26 -677.77)"/><path class="cls-25" d="M3024.8,1155.69s-7.39-11.44,3.69-21.78l13.66,10.89s-13.29,10.48,0,19.92C3042.15,1164.72,3026.71,1160.47,3024.8,1155.69Z" transform="translate(-1320.26 -677.77)"/><path class="cls-26" d="M2374.17,1004.41s19.38-13.46,33.92,6.6l16-6.87s-7.89-12.45-38.85-6.93C2365,1000.82,2374.17,1004.41,2374.17,1004.41Z" transform="translate(-1320.26 -677.77)"/><path class="cls-27" d="M2355.09,1017.57s5.28-21.77,45-21.77c0,0-14.89,1.41-26.53,20.74Z" transform="translate(-1320.26 -677.77)"/><path class="cls-26" d="M2878.11,1287.77s-19.94-7.86-12.11-29l-13.24-8.61s-5.43,12.24,14.35,32.85C2880.05,1296.53,2878.11,1287.77,2878.11,1287.77Z" transform="translate(-1320.26 -677.77)"/><path class="cls-27" d="M2897.68,1295.55s-19.11,7-39.15-23c0,0,8.58,10.54,29,9.59Z" transform="translate(-1320.26 -677.77)"/><path class="cls-9" d="M2995,1376.9s9.16-5.79,10.13-12.78c0,0,8.92.48,10.85,3.37,0,0-4.1,11.58-8.92,13.75C3007.08,1381.24,2996.22,1382,2995,1376.9Z" transform="translate(-1320.26 -677.77)"/><path class="cls-9" d="M2154.32,910.64s11-6.95,12.16-15.35c0,0,10.72.58,13,4.05,0,0-4.92,13.9-10.71,16.51C2168.8,915.85,2155.77,916.72,2154.32,910.64Z" transform="translate(-1320.26 -677.77)"/><path class="cls-9" d="M2033.73,1365.21s-11.74-7.42-13-16.37c0,0-11.43.61-13.9,4.32,0,0,5.25,14.83,11.43,17.61C2018.29,1370.77,2032.19,1371.7,2033.73,1365.21Z" transform="translate(-1320.26 -677.77)"/><path class="cls-5" d="M2518.52,911.35s-12.56-7.93-13.88-17.51c0,0-12.22.66-14.87,4.62,0,0,5.62,15.86,12.23,18.83C2502,917.29,2516.86,918.29,2518.52,911.35Z" transform="translate(-1320.26 -677.77)"/><path class="cls-5" d="M2981.29,899.24s11.79-7.44,13-16.44c0,0,11.48.62,14,4.34,0,0-5.27,14.9-11.48,17.69C2996.8,904.83,2982.84,905.76,2981.29,899.24Z" transform="translate(-1320.26 -677.77)"/><path class="cls-28" d="M3365,1791c-.64,7.85-11.72,7.85-24.28,6.3s-9.24,1.65-26.85,1.77-23.63-5.75-24.46-8.27c-.75-2.24,7.74-4.06,16.83-6.2,1.14-.26,2.29-.54,3.44-.83a46.17,46.17,0,0,0,25.87-16.74c7.64-9.79,14.62-54.34,14.62-54.34l27.51,5.13s-16,38.19-17.65,50.71c-.74,5.62,3.26,9.37,4.19,14.29A31.17,31.17,0,0,1,3365,1791Z" transform="translate(-1320.26 -677.77)"/><path class="cls-23" d="M3340.62,1798.54c-12.57-1.55-9.18.39-26.79.51s-23.63-5.75-24.46-8.27c-.75-2.24,7.74-4.06,16.83-6.2l.11.17a49.33,49.33,0,0,0,25.8,4.82c11.82-1.1,23.91-5.94,32.07-6.77a31.17,31.17,0,0,1,.78,8.18C3364.32,1798.83,3353.18,1800.09,3340.62,1798.54Z" transform="translate(-1320.26 -677.77)"/><path class="cls-14" d="M3458.19,1397.8s-15,48.36-27.31,97.43c-1.24,5-2.46,10-3.63,14.94-2.67,11.25-5.1,22.28-7.05,32.5q-1.27,6.58-2.27,12.67c-.67,4.2-1.25,8.17-1.69,11.9a127.59,127.59,0,0,0-1,15.93c0,1.11,0,2.18.12,3.17,2.79,41.48-46.09,164.21-46.09,164.21s-4.72,2-14.88.2c-6.78-1.23-14-6-14-6a754.82,754.82,0,0,0,15.64-97.22c4.4-46.08,5.89-85.79,3.57-136.69-.54-12-.75-23.26-.72-33.63.12-44.2,4.59-72.92,6.14-81.29C3370,1369,3458.19,1397.8,3458.19,1397.8Z" transform="translate(-1320.26 -677.77)"/><path class="cls-29" d="M3458.19,1397.8s-15,48.36-27.31,97.43c-1.24,5-2.46,10-3.63,14.94-2.67,11.25-5.1,22.28-7.05,32.5q-1.27,6.58-2.27,12.67c-.67,4.2-1.25,8.17-1.69,11.9l-57.39-90c.12-44.2,4.59-72.92,6.14-81.29C3370,1369,3458.19,1397.8,3458.19,1397.8Z" transform="translate(-1320.26 -677.77)"/><path class="cls-28" d="M3476.23,1791c-.63,7.85-11.71,7.85-24.27,6.3s-9.25,1.65-26.85,1.77-23.63-5.75-24.47-8.27c-.74-2.24,7.75-4.06,16.84-6.2,1.14-.26,2.29-.54,3.44-.83,10.24-2.52,17.07-10.12,25.87-16.74,8.34-6.27,2.51-36.69,2.51-36.69l25.87-9.24s-3.9,30.6-3.9,47.43c0,5.67,3.25,9.37,4.19,14.29A30.74,30.74,0,0,1,3476.23,1791Z" transform="translate(-1320.26 -677.77)"/><path class="cls-23" d="M3452.22,1798.43c-12.56-1.55-9.51.5-27.11.62s-23.63-5.75-24.47-8.27c-.74-2.24,7.75-4.06,16.84-6.2l.11.17a49.31,49.31,0,0,0,25.79,4.82c11.83-1.1,23.92-5.94,32.08-6.77a30.74,30.74,0,0,1,.77,8.18C3475.6,1798.83,3464.78,1800,3452.22,1798.43Z" transform="translate(-1320.26 -677.77)"/><path class="cls-14" d="M3405.06,1388.2s28.69,143,33.54,220.88,10.9,142.29,10.9,142.29a37.93,37.93,0,0,0,13.45,1.85,49.74,49.74,0,0,0,13.6-2.77s28.45-117.13,19-164-1.57-90.12,2.95-129c6.49-55.76-18.46-81.67-35.88-99.34C3445,1340.21,3405.06,1388.2,3405.06,1388.2Z" transform="translate(-1320.26 -677.77)"/><path class="cls-30" d="M3384.72,1126.24c-2.85-23.29,4.42-60.55,50.9-54.6s61.12,51.63,51.75,71.94,13.49,25.21,20.67,47.05c6.17,18.76,8.31,42,18.29,52.51,32.18,33.71-30.89,85.54-68.9,74.61-69.25-19.91-78.17-22.88-75.71-77.29,1.26-27.88,23-38.68,9.18-46.74C3357.63,1174.23,3391.17,1178.93,3384.72,1126.24Z" transform="translate(-1320.26 -677.77)"/><path class="cls-28" d="M3398.79,1201l13.74,20.63,27.7-1.37,12.8-33.07s-4-.75-5.79-42l-34.57,10.55a67.31,67.31,0,0,1-.61,22.46C3410.36,1186.38,3406.61,1195.09,3398.79,1201Z" transform="translate(-1320.26 -677.77)"/><path class="cls-28" d="M3394.93,1186.47c1.78,0,34.35-10.9,80.85,8,0,0-22.07,126.31-12.59,150.41a255.28,255.28,0,0,1,13.09,45.5l-102.88,1.28s1.44-82.74-3.3-112S3394.93,1186.47,3394.93,1186.47Z" transform="translate(-1320.26 -677.77)"/><path class="cls-9" d="M3475.71,1335.07a43.14,43.14,0,0,1-1.18-6.39c-1.35-15.24.95-27.67,4.78-39.87,0,0,0,0,0,0l.18-.57c.11-.33.24-.82.39-1.45a.09.09,0,0,0,0,0c.15-.58.31-1.28.5-2.07,0-.26.11-.54.17-.84,2.65-11.86,8.46-41.64,10-45.7a40.06,40.06,0,0,0,1.57-6.51c1.55-9,2.24-23.23-3-29.19-7.28-8.3-32.08-14.56-32.08-14.56-5.08,8-22.48,27.75-44.08,24.19-12.48-2.07-14.41-26.36-14.41-26.36-13.41,1.85-16.84,3.89-16.84,3.89s-32.16,20.06-77.6,84c-1.44,2-4.87,1.8-13.26.18-10.68-2.08-32.48-1.81-65.37-6.64,0,0-1.13.82-1.44,4.41-.68,7.94-1.48,10.29-1.48,10.29a409.51,409.51,0,0,0,44.7,17.5c8.15,2.59,16.66,5,24.79,6.82a127.15,127.15,0,0,0,21.09,3.17s26.25-10.09,51.69-38.11c1.48,23.52,4.77,53.91,2.75,76.09-1.15,12.64-9.79,55.14-7.62,62.21,4.52,14.74,39.22,15.5,70.21,14l2-.11c4.8-.28,9.52-.7,13.93-1.19a193.66,193.66,0,0,0,20.18-3.21c6-1.39,13.64-3.38,19.82-6.36,4.74-2.29,8.63-5.15,10.35-8.77C3493.53,1387.71,3479.17,1352.78,3475.71,1335.07Z" transform="translate(-1320.26 -677.77)"/><path class="cls-16" d="M3408.2,1375.89c5.87,19.91,9.28,36.3,24,47.38,4.8-.28,9.52-.7,13.93-1.19a193.66,193.66,0,0,0,20.18-3.21c6-1.39,13.64-3.38,19.82-6.36,4.74-2.29,8.63-5.15,10.35-8.77-3-16-17.34-51-20.8-68.67a44.32,44.32,0,0,1-.68-4.65c-1.28-15.86.78-28.9,4.28-41.61,0,0,0,0,0,0l.57-2a.09.09,0,0,0,0,0c.13-.44.29-1.15.5-2.07,0-.26.11-.54.17-.84,2.37-11.23,8.56-46.49,10.14-51.09a45.76,45.76,0,0,0,1.54-7l-12.38-11.92s-71.07,30.35-86.73,72.2S3399.77,1347.32,3408.2,1375.89Z" transform="translate(-1320.26 -677.77)"/><path class="cls-16" d="M3267.29,1299.24c15.73,5,32.85,9.37,45.88,10,0,0,26.61-10.21,52.2-38.67,1.08-4.83,2.12-13-3.74-10.61-8.22,3.29-38.6,42.3-50.1,43.12C3303.3,1303.65,3279.91,1300.88,3267.29,1299.24Z" transform="translate(-1320.26 -677.77)"/><path class="cls-9" d="M3323.41,1288.13s35,17.6,65.41,24.88a136.78,136.78,0,0,0,24.34,3.92s32.66-10,57.59-45c48.15-67.44,11-74.71,11-74.71s-32.17,20.06-77.6,84c-1.59,2.24-5.58,1.74-15.92-.35-11-2.23-33-2-63.33-6.42a17,17,0,0,0-.82,4.72C3323.38,1287.09,3323.41,1288.13,3323.41,1288.13Z" transform="translate(-1320.26 -677.77)"/><path class="cls-31" d="M3222.59,1281.74a409.51,409.51,0,0,0,44.7,17.5c8.15,2.59,16.66,5,24.79,6.82,3.27-14.51,1-25.83-1.2-32.38-10.68-2.08-33.51-2.22-66.4-7Z" transform="translate(-1320.26 -677.77)"/><path class="cls-31" d="M3232.69,1268.67a69,69,0,0,1-15.25-5.08c-6.93-3.47-25.42-5.78-29.35-2.08s4.16,18.72,21,19.18,21.72,3.23,21.72,3.23Z" transform="translate(-1320.26 -677.77)"/><path class="cls-31" d="M3412.06,1178.22c14.29-1.16,35.18-33,35.18-33l-34.57,10.55A67.31,67.31,0,0,1,3412.06,1178.22Z" transform="translate(-1320.26 -677.77)"/><path class="cls-28" d="M3403.62,1158.1s41.39,8.31,46.17-17.55,13.35-42.2-12.88-48.6-33.21,2.51-36.9,10.75S3393,1155.27,3403.62,1158.1Z" transform="translate(-1320.26 -677.77)"/><path class="cls-30" d="M3423.85,1085.49s-.73,8.77,12.89,23.65,13.51,42.79,13.51,42.79,19.8-44.5,7.56-58.27S3423.85,1085.49,3423.85,1085.49Z" transform="translate(-1320.26 -677.77)"/><path class="cls-30" d="M3440.49,1074.08s-20.58-6.89-41,13.23c-8.8,8.67-7.47,25.72-2.76,35.61,0,0,7.24-21.2,20.41-25.82S3440.49,1074.08,3440.49,1074.08Z" transform="translate(-1320.26 -677.77)"/><path class="cls-5" d="M3416.51,1145.37s-1.1,3.07-8.9,1.68c0,0-6.54-1.17-5.94-4.61C3401.67,1142.44,3408.35,1140.71,3416.51,1145.37Z" transform="translate(-1320.26 -677.77)"/><path class="cls-7" d="M3274.23,1193.83s-11.27-2.55-13.79-.44-7.42,39.19-7.42,39.19,6.87-14.89,8.95-22.31C3264.15,1202.48,3274.23,1193.83,3274.23,1193.83Z" transform="translate(-1320.26 -677.77)"/><path class="cls-20" d="M3253,1232.58c.28-.3,28.51-30.77,28.69-33.7s-6.72-6.19-16-6.29c0,0,6.81,5,6.53,6.71-.51,3.1-5.08,5.72-8.66,13.78A173.13,173.13,0,0,1,3253,1232.58Z" transform="translate(-1320.26 -677.77)"/><path class="cls-20" d="M3253,1232.58c18.34-9.67,53.21-5.93,55.89-8.56,1.82-1.8-2.55-6.55-8.5-9.78h0a26.16,26.16,0,0,0-8.91-3.06c-7-.87-24.76,11.31-33.49,17.68h0c-2.91,2.12-4.81,3.59-5,3.72Zm19.07-9.68c1.73-1.45,16.37-4.75,18.41-4.92s7.89,2.5,7.89,2.5S3270.37,1224.35,3272.09,1222.9Z" transform="translate(-1320.26 -677.77)"/><path class="cls-7" d="M3253,1232.58c18.34-9.67,53.21-5.93,55.89-8.56,1.82-1.8-2.55-6.55-8.5-9.78.08.08,3.66,3.61.49,4.36-2.93.69-24.93-1.47-42.89,10.26h0a47.61,47.61,0,0,0-5,3.72Z" transform="translate(-1320.26 -677.77)"/><path class="cls-7" d="M3253.19,1232.56s-8.2-12-6.67-18.68a20.36,20.36,0,0,0,2.79,1.83s1.89-2,2-2.23l-.15.26S3254.12,1228.62,3253.19,1232.56Z" transform="translate(-1320.26 -677.77)"/><path class="cls-20" d="M3253,1232.58s-11.9-25.17-41.06-24.76c0,0,4.82,3.88,4.83,5.46,0,0-5.21,1.37-6.76,1.54,0,0,25.86,4.21,39.72,18.13Z" transform="translate(-1320.26 -677.77)"/><rect class="cls-15" x="1917.25" y="559.89" width="82.45" height="79.16"/><rect class="cls-9" x="1876.03" y="559.89" width="82.45" height="79.16"/><polygon class="cls-16" points="1958.48 559.89 1875.81 559.89 1875.81 585.05 1958.48 639.04 1958.48 559.89"/><rect class="cls-17" x="3278.74" y="1229.52" width="42.96" height="13.72" transform="translate(5280.18 1795) rotate(180)"/><rect class="cls-18" x="3194.61" y="1229.52" width="84.13" height="13.72" transform="translate(5153.09 1795) rotate(180)"/><rect class="cls-20" x="3232.27" y="1229.52" width="6.37" height="87.4" transform="translate(5150.64 1868.68) rotate(180)"/><rect class="cls-7" x="1975.9" y="551.75" width="6.37" height="87.22"/><path class="cls-28" d="M3388.82,1313a35.74,35.74,0,0,1-.61-32.16c-10.63-2.15-31.54-3.13-60.16-7.18-1.28-1.2-4.47-4.43-4.64-6.54-.2-2.63-8.84-8.07-12-11,0,0-3,.91-.72,4.8.61,1,1.81,2.76,3,4.34l-1.24-.82c-3-2-27.22-1.94-31.41,2s6.78,21,19.26,21c5.4,0,20.38,2.07,25,2.73C3334,1294.18,3363.33,1306.9,3388.82,1313Z" transform="translate(-1320.26 -677.77)"/><path class="cls-3" d="M2795.07,1540.07s42.43,14.73,56.41,12.87c0,0,.93-7.15-11.37-13.82s-22.89-28.92-29.57-27.24-15.51,7.71-15.51,7.71Z" transform="translate(-1320.26 -677.77)"/><path class="cls-3" d="M2855.53,1474.21s44.32-7.28,55.72-15.57c0,0-2.59-6.74-16.58-6.74s-33.91-14.51-39-9.84-10,14.17-10,14.17Z" transform="translate(-1320.26 -677.77)"/><path class="cls-29" d="M2795.1,1540.1q-18.12-.57-34.09-1.53C2599.23,1529,2594.5,1493,2594.5,1493c-26.9-82.44,81.21-164.31,81.21-164.31s65.6-9.21,63,29.35-93.35,114.29-93.35,114.29c30.21,2.83,79.34,19.82,113,32.62,21.49,8.17,36.69,14.64,36.69,14.64a20.1,20.1,0,0,1,2.44,10.4A31.18,31.18,0,0,1,2795.1,1540.1Z" transform="translate(-1320.26 -677.77)"/><path class="cls-29" d="M2761,1538.57C2599.23,1529,2594.5,1493,2594.5,1493c-26.9-82.44,81.21-164.31,81.21-164.31s65.6-9.21,63,29.35-93.35,114.29-93.35,114.29c30.21,2.83,79.34,19.82,113,32.62C2762.43,1515.48,2765.09,1528,2761,1538.57Z" transform="translate(-1320.26 -677.77)"/><path class="cls-14" d="M2855.69,1474.17l-.16,0c-139.26,37.61-188.4,37.06-202.55,34.23-6.28-1.25-10.7-10.41-10.7-10.41-26.89-82.45,87.78-175.38,87.78-175.38s49.4-2.24,63.19,20.3a25,25,0,0,1,3.46,15.12c-1.67,24.84-39.25,60.62-65.8,83-14,11.8-25,19.84-25.9,20.53l-.05,0c46.32-28.58,140.77-5.35,140.77-5.35s5.48,3.86,7.22,7.08A25.68,25.68,0,0,1,2855.69,1474.17Z" transform="translate(-1320.26 -677.77)"/><path class="cls-28" d="M2904.08,1042.14c-1.73,6-12.74,43.44-22.23,72.3-5.81,17.64-11.11,32.12-13.36,34.06-1.73,1.53-8.46,5.2-17.74,9.89a466.41,466.41,0,0,1-47.92,20.49c-10.92,4-21.42,7-29.68,8.16a35.11,35.11,0,0,1-8.36.61c-15-.91-15.81-17.43-14-31,.61-3.87,1.33-7.54,2-10.4,1-4.18,1.94-6.93,1.94-6.93s2.34-.51,6.32-1.33c7.54-1.63,21-4.38,36.1-6.83,14.58-2.34,30.69-4.48,44.25-5.1,0,0,7.34-13.36,16.62-30,11.22-20.19,25.19-45.17,31.82-56.18a7.89,7.89,0,0,0,1.22-3.57A28.88,28.88,0,0,0,2904.08,1042.14Z" transform="translate(-1320.26 -677.77)"/><path class="cls-28" d="M2679.44,1046.63c-1.22,2.75-2.55,5.4-3.77,8,0,0,3,6.83,6.93,16.83a4.54,4.54,0,0,0,.41,1c.71,1.63,1.32,3.36,2,5.2,4.08,10.6,8.77,23.56,12.24,35.69.1.41.3.81.4,1.22,2.25,8.06,4.08,15.81,4.69,22a35.71,35.71,0,0,1,.11,8.66L2666,1171.54l-.61-2.14c-3.06-10.2-16.42-55.27-20.6-86.57a100,100,0,0,1-1.33-19.48s-3-14.38,12.75-46.8c8.06-16.62,21-37.83,41.71-64.35,0,0,2.23-3.77,4.27-7.54,3.16,3.16,8.4,6.52,11.76,9a8.78,8.78,0,0,0-4.71,4.69c-3.88,14.89-13.36,48.74-25.8,78.83a.3.3,0,0,1-.11.2,6,6,0,0,1-.5,1.22,8.63,8.63,0,0,0-.41,1c-.72,1.84-1.53,3.67-2.35,5.51Z" transform="translate(-1320.26 -677.77)"/><path class="cls-30" d="M2727.63,1243.86s-49.36-51.21-91.59-82.37a110.13,110.13,0,0,1-4.46-18.19c-2.37,4.33-2,9.91-1.22,14.1-11.48-8.09-22.2-14.38-31-17.38-3-17.18,13.57-35.24,13.57-35.24-14.2,5.76-20,24.7-21.84,33.38a16.93,16.93,0,0,0-4.25.14s-1.43-58,87.19-58c34.47,0,29.53-59.9,78.61-55.6,0,0,53.59,10.47,43.59,57.21s6.44,57.21,12.15,67.69S2789.81,1233.39,2727.63,1243.86Z" transform="translate(-1320.26 -677.77)"/><path class="cls-28" d="M2771.24,1148.58l-51.68,20.47-5.49-22.9a93.4,93.4,0,0,1,1.32-21.67,173,173,0,0,1,5.64-23.58l.11-.35,1.33,0,4.29-.11,29-.75a56.34,56.34,0,0,0-1.91,12.08A42.79,42.79,0,0,0,2771.24,1148.58Z" transform="translate(-1320.26 -677.77)"/><path class="cls-32" d="M2691.87,1134.73s-69.45,38.42-16.16,194l111,6s-47.43-66-36.09-88.69,34-93.84,34-93.84Z" transform="translate(-1320.26 -677.77)"/><path class="cls-14" d="M2881.91,1114.73s-9.67,32.51-14.32,35.11-65.54,33.84-84,36.35c0,0-6.46.66-8.74,1.76h0a1.42,1.42,0,0,0-.74.56,1.24,1.24,0,0,0-.05.15c-1.31,3.43-17.66,59.13-18,73.9-.27,10.3,45.13,76.56,44.59,84.08a5.19,5.19,0,0,1-.46,1.84c-2.56,5.64-15.05,5.15-25.32-.23a163.31,163.31,0,0,0-26.14-10.65c-11.91-3.67-25.28-6.09-36.19-3.86-20.95,4.3-42.44-1.07-50-24.17s-6.44-70.38-8.59-80-4-40,8.85-60.15h0s0,0,0,0,1.61-3.23-1.08-9.94-22.29-77.37-19.34-98.59c0,0,.83-20.65,13.8-44.29a37.14,37.14,0,0,1,14.87,7.91c6.84,6.12,11.31,12.46,12.39,12.73,0,0-7.21,16.13-6.81,17.47s24.85,70.65,26.19,74.68c0,0,9.62-.83,11.7,1.26,0,0-.82,19.88,44.31,3.4,0,0,2.78-.45,2.91,1.88,0,0,58.2-9.3,78.44-10.74,0,0,1.08-.13,7.34-11.83,7.44-13.91,10.5-17.21,10.5-17.21S2876.4,1096.09,2881.91,1114.73Z" transform="translate(-1320.26 -677.77)"/><path class="cls-29" d="M2800.61,1346.65a5.19,5.19,0,0,1-.46,1.84c-2.56,5.64-15.05,5.15-25.32-.23a163.31,163.31,0,0,0-26.14-10.65c-7.19-17.88-17.11-45-20.89-67.09-5.77-33.63,39.63-75.89,46.26-81.85-1.31,3.43-17.66,59.13-18,73.9C2755.75,1272.87,2801.15,1339.13,2800.61,1346.65Z" transform="translate(-1320.26 -677.77)"/><path class="cls-31" d="M2753.89,1111.74s-24.19,12.3-38.5,12.74a173,173,0,0,1,5.64-23.58c.48-.15,1-.28,1.44-.38a11.32,11.32,0,0,1,3-.23c.42,0,.85.07,1.29.12C2738.77,1101.8,2753.89,1111.74,2753.89,1111.74Z" transform="translate(-1320.26 -677.77)"/><path class="cls-28" d="M2709.43,1106.77s41.27,20.91,53.89-5,26.46-40.64.64-55.08-35.78-7.08-42.1.54S2699,1100.67,2709.43,1106.77Z" transform="translate(-1320.26 -677.77)"/><path class="cls-30" d="M2741.78,1046.47s12.51,12.45,8.84,24.27,2.26,35.33,18.39,38,35.28-51.81,14.07-62.29-55.88-15.65-66.34-2.49-6.45,29.8-6.45,29.8S2724.81,1045.67,2741.78,1046.47Z" transform="translate(-1320.26 -677.77)"/><path class="cls-5" d="M2725.33,1098.21s-1.69,2.78-9-.13c0,0-6.19-2.45-4.91-5.7C2711.37,1092.38,2718.26,1092,2725.33,1098.21Z" transform="translate(-1320.26 -677.77)"/><path class="cls-11" d="M2832.23,1799.05H2895a67.61,67.61,0,0,0-24-9.13c11.31-21.46,32.67-65.29,22.33-72-10.61-6.92-21.93,46.61-26.57,71.52a52,52,0,0,0-5.24-.18c-3-32-13.81-128.75-32.86-112.71-18.47,15.56,15.29,86.72,28.65,113A51,51,0,0,0,2832.23,1799.05Z" transform="translate(-1320.26 -677.77)"/><path class="cls-28" d="M2725.7,940.35c-.8.15-4.9,3.89-4.74,3.62,5.26-8.94,7.82-16.9,6.94-20.7-.36-1.56-17.89,3-20.77,11-1.48,4.08-7.94,16.1-7.94,16.1l9.89,5s3.94-2.14,5.66-1.66,7.84-2.23,9.75-5.12C2724.49,948.57,2728.69,939.83,2725.7,940.35Z" transform="translate(-1320.26 -677.77)"/><path class="cls-28" d="M2905.85,1002.62c-4.88,1.24-16.32,19-16.26,22.2,0,.42,0,.87,0,1.3-.62-1.59-1.31-3.28-1.8-4.22-1.81-3.48-3.87-1.73-3.87-1.73.62,3.71.56,12.64,2.41,14s2.75,7.11,2.75,7.11l12.92,6.2s7.24-16.08,10.26-20.81C2918.15,1017.5,2910.74,1001.39,2905.85,1002.62Z" transform="translate(-1320.26 -677.77)"/></svg>