<svg xmlns="http://www.w3.org/2000/svg" viewBox="0 0 3570 2000"><defs><style>.cls-1,.cls-74{isolation:isolate;}.cls-2,.cls-8{fill:#fff;}.cls-3,.cls-4{fill:#f6f3ee;}.cls-13,.cls-16,.cls-18,.cls-20,.cls-30,.cls-32,.cls-33,.cls-38,.cls-39,.cls-4,.cls-42,.cls-45,.cls-51,.cls-52,.cls-72{mix-blend-mode:multiply;}.cls-13,.cls-5{fill:#e7b6c6;}.cls-10,.cls-11,.cls-49,.cls-6{fill:#b9004e;}.cls-6,.cls-7,.cls-8{opacity:0.37;}.cls-7{fill:#f2579e;}.cls-9{fill:#eba9c3;}.cls-10,.cls-42{opacity:0.51;}.cls-11{opacity:0.2;}.cls-12{fill:#dc9db0;}.cls-13{opacity:0.39;}.cls-14{fill:#46acc3;}.cls-15{fill:#c39;}.cls-16{fill:#c36;opacity:0.33;}.cls-17,.cls-18{fill:#d6ac99;}.cls-19{fill:#ffa752;}.cls-20,.cls-21,.cls-22{fill:#ffba78;}.cls-22{opacity:0.54;}.cls-22,.cls-62,.cls-65{mix-blend-mode:screen;}.cls-23{fill:#407ffe;}.cls-24{fill:#203f7f;}.cls-25{fill:#ff7446;}.cls-26{fill:#ace2f9;}.cls-27{fill:#b3ccff;}.cls-28{fill:#20110c;}.cls-29,.cls-30{fill:#f26e5a;}.cls-30{opacity:0.65;}.cls-31,.cls-32,.cls-33,.cls-65{fill:#930056;}.cls-33{opacity:0.44;}.cls-34{fill:#f28b7b;}.cls-35,.cls-52{fill:#1b4e61;}.cls-36{fill:#021753;}.cls-37{fill:#30b7f1;}.cls-38{fill:#499bad;}.cls-39{fill:#4492a3;}.cls-40{fill:#3bc5e4;}.cls-41{fill:#8ce4f2;}.cls-42{fill:#4899ab;}.cls-43{fill:#f99662;}.cls-44,.cls-45{fill:#e1d6fc;}.cls-46{fill:#f39;}.cls-47{fill:#001e6e;}.cls-48{fill:#001653;}.cls-50{fill:#f0ebfc;}.cls-51{fill:#d1c4a1;opacity:0.72;}.cls-52{opacity:0.36;}.cls-53{fill:#b4b0bd;}.cls-54{fill:#ff916c;}.cls-55{fill:#000444;}.cls-56{fill:#eac2ce;}.cls-57{fill:#f19570;}.cls-58{fill:#f18a60;}.cls-59{fill:#e0aeba;}.cls-60{fill:#f789bb;opacity:0.28;}.cls-61,.cls-62{fill:#bfebf4;}.cls-63{fill:#982068;}.cls-64{fill:#dc7a63;}.cls-65{opacity:0.35;}.cls-66{fill:#f09;}.cls-67{fill:#9f0070;}.cls-68{fill:#020f45;}.cls-69{fill:#02092a;}.cls-70{fill:#dc684d;}.cls-71{fill:#fffef1;}.cls-72{fill:#e8e1d0;}.cls-73{fill:#ff66d2;}.cls-74{font-size:47.33px;fill:#369;stroke:#369;stroke-miterlimit:10;font-family:KeepCalm-Medium, Keep Calm;font-weight:500;}</style></defs><g class="cls-1"><g id="Layer_1" data-name="Layer 1"><rect class="cls-2" width="3570" height="2000"/><rect class="cls-3" x="91.08" y="79.3" width="3387.84" height="1841.4"/><path class="cls-4" d="M1627.85,541.84h377.42A1047.08,1047.08,0,0,1,3052.35,1588.92v138.94a0,0,0,0,1,0,0H580.77a0,0,0,0,1,0,0V1588.92A1047.08,1047.08,0,0,1,1627.85,541.84Z"/><path class="cls-5" d="M714.44,1534c-2.36-4.46-9.1-.9-6.75,3.57,38.82,73.32,135,225.12,265.42,225.12,4.14,0,7.95-.21,11.81-.4-.35-2.59-.76-5.18-1.15-7.77C851.94,1763,753.54,1607.83,714.44,1534Z" transform="translate(0 0)"/><path class="cls-6" d="M538.75,1283.44c-81.33,23.56-94.75,131.9-32.28,213.84,60.63,79.51,153.34,90.55,200.64,43.39C800.35,1447.73,669.81,1245.46,538.75,1283.44Z" transform="translate(0 0)"/><path class="cls-7" d="M538.75,1283.44c-81.33,23.56-94.75,131.9-32.28,213.84,21.95,28.78,48.1,48.59,74.77,59.91A1045.92,1045.92,0,0,1,624,1290.07C597.29,1278.46,568,1275,538.75,1283.44Z" transform="translate(0 0)"/><path class="cls-4" d="M707.11,1540.67c72.41-72.17,9.86-210.27-83.08-250.6a1045.92,1045.92,0,0,0-42.79,267.12C628.27,1577.16,676.93,1570.76,707.11,1540.67Z" transform="translate(0 0)"/><path class="cls-6" d="M707.11,1540.67c72.41-72.17,9.86-210.27-83.08-250.6a1045.92,1045.92,0,0,0-42.79,267.12C628.27,1577.16,676.93,1570.76,707.11,1540.67Z" transform="translate(0 0)"/><path class="cls-5" d="M1155.14,1603c-18.92-25.48-46.81-37.27-73.83-54.23-25.45-16-61.65-16.07-80-42.85-26-38-30.19-100.25-43.61-143-1.5-4.8,5.75-7.13,7.28-2.29,13.46,42.91,17.7,104.61,42.63,141,10.07,14.71,26.85,20.42,44.61,26.47,28.33,9.65,26,10.37,51.5,25.16,20.68,12,42.06,24.37,57.55,45.21,17.7,23.84,30.92,53,38.22,84.25a3.8,3.8,0,0,1-2.84,4.58C1186.38,1689.66,1194.41,1655.87,1155.14,1603Z" transform="translate(0 0)"/><ellipse class="cls-5" cx="621.94" cy="846.68" rx="137.06" ry="178.15" transform="translate(-374.51 513.87) rotate(-35.23)"/><path class="cls-5" d="M898.74,1145.3c-9.5-2.27-17.77-4.24-24.5-6-81.86-21.75-134.46-164.09-135-165.53l-7.17,2.61c2.18,6,54.48,147.52,140.19,170.3,6.78,1.8,15.12,3.79,24.69,6.07,92.85,22.13,310.29,74,329.26,259.63l7.59-.78C1214.29,1220.51,993.17,1167.8,898.74,1145.3Z" transform="translate(0 0)"/><path class="cls-5" d="M739.26,973.74l-7.17,2.61a440.27,440.27,0,0,0,18.07,41.36q2.48-3.81,5-7.59C745,989.23,739.42,974.2,739.26,973.74Z" transform="translate(0 0)"/><path class="cls-8" d="M872.28,1146.65c6.78,1.8,15.12,3.79,24.69,6.07,92.85,22.13,310.29,74,329.26,259.63l7.59-.78c-19.53-191.06-240.65-243.77-335.08-266.27-9.5-2.27-17.77-4.24-24.5-6-55.54-14.76-97.62-85-119.09-129.15q-2.52,3.78-5,7.59C772.6,1063.1,815,1131.42,872.28,1146.65Z" transform="translate(0 0)"/><path class="cls-9" d="M733.9,767.61c-27.45-38.87-64.12-65.9-101.66-78.51,26.44,14.76,51.22,36.73,71.14,64.94C760.14,834.4,756,935,694.19,978.62c-31.92,22.55-73,25.52-113.06,12.06C630,1018,684.59,1020.54,724.71,992.2,786.55,948.53,790.66,848,733.9,767.61Z" transform="translate(0 0)"/><path class="cls-5" d="M1099.42,1101.94c-83.64-9.84-83.79-137-96.33-212.58-11.55-69.65-153.5-174.14-154.93-175.18l4.5-6.17c6,4.36,145.9,107.39,158,180.1,12,72.2,12.49,197.17,89.7,206.25Z" transform="translate(0 0)"/><ellipse class="cls-5" cx="800.8" cy="625.17" rx="81.34" ry="99.21" transform="translate(-205.3 484.15) rotate(-30)"/><path class="cls-5" d="M1098.65,808.87c-24.19-45.91-89.19-66.72-122.73-136.75a3.81,3.81,0,0,1,6.88-3.29C1028,763.14,1119.5,752,1130.25,894.42a3.82,3.82,0,0,1-3.52,4.09C1117.05,899.25,1128.16,864.87,1098.65,808.87Z" transform="translate(0 0)"/><ellipse class="cls-10" cx="960" cy="579.82" rx="72.2" ry="93.84" transform="translate(-111.99 250.24) rotate(-14.04)"/><ellipse class="cls-11" cx="1220.95" cy="986.05" rx="121.2" ry="157.53" transform="translate(-153.26 228.06) rotate(-10.04)"/><ellipse class="cls-12" cx="2793.45" cy="1185.92" rx="256.02" ry="196.98" transform="translate(505.28 3179.42) rotate(-64.07)"/><path class="cls-6" d="M2905.42,955.68c-24.58-11.95-51.15-16.83-78.14-15.42a1045.48,1045.48,0,0,1,161.09,287.45C3024.8,1113.52,2992,997.77,2905.42,955.68Z" transform="translate(0 0)"/><path class="cls-12" d="M2616.31,1099.78c-61.84,127.15-32.66,268.81,65.18,316.38s227.27-16.94,289.11-144.09a332.63,332.63,0,0,0,17.77-44.36,1045.48,1045.48,0,0,0-161.09-287.45C2746.82,944.47,2662.61,1004.56,2616.31,1099.78Z" transform="translate(0 0)"/><path class="cls-12" d="M2410.22,1435l-6.29-4.31c72.59-106,70.42-345.72,73-444.76l7.63.18C2481.62,1099.24,2484,1327.27,2410.22,1435Z" transform="translate(0 0)"/><ellipse class="cls-12" cx="2508.81" cy="938.83" rx="178.15" ry="137.06" transform="translate(1146.82 3245.46) rotate(-79.96)"/><path class="cls-5" d="M1587.64,1019.82a3.84,3.84,0,0,1-2.37-.83c-48.74-38.75-73-77.22-74.12-117.61-3-105,156.35-185.31,175-237.14,16.7-46.48,8-91.39-10.14-115.5-13.38-38.17-20.81-44.86-14.37-47.37a3.82,3.82,0,0,1,4.94,2.17l16.35,41.94c3.95,5.38,35.51,51.46,10.41,121.34-19.7,54.82-177.37,133.58-174.54,234.34,1.08,38,24.38,74.59,71.25,111.85a3.82,3.82,0,0,1-2.38,6.81Z" transform="translate(0 0)"/><ellipse class="cls-5" cx="1642.59" cy="421.59" rx="100.85" ry="131.08" transform="translate(-52.23 480.07) rotate(-16.37)"/><path class="cls-13" d="M1739.35,393.17c-10.26-34.94-30.52-63.33-54.91-80.92a163.74,163.74,0,0,1,25.14,51.15c20.41,69.46-6.37,138.49-59.81,154.19-26.56,7.8-54.7,1-78.8-16.41,28,37.93,70,57.52,108.57,46.18C1733,531.66,1759.75,462.63,1739.35,393.17Z" transform="translate(0 0)"/><path class="cls-5" d="M1825,468c21-60.4,18.83-69.72,25.68-67.58s-.55,9.16-19.34,71.87c-1.09,1.33-109,133.47-78.19,228.21a3.83,3.83,0,0,1-2.45,4.81C1735.7,710.16,1718.16,598.93,1825,468Z" transform="translate(0 0)"/><ellipse class="cls-5" cx="1878.5" cy="383.02" rx="100.29" ry="77.16" transform="translate(607.53 1818.33) rotate(-60)"/><path class="cls-14" d="M1254.77,862.59h988.5a39,39,0,0,1,39,39v120.3a0,0,0,0,1,0,0H1254.77a0,0,0,0,1,0,0V862.59A0,0,0,0,1,1254.77,862.59Z"/><path class="cls-15" d="M1649.83,799.9s228.79-181.13,280.22-193.45,102.24,178.38,87.75,229.15-375.21-12.52-375.21-12.52Z" transform="translate(0 0)"/><path class="cls-16" d="M1647.79,806.45l-3.6,11.51c83-1.55,287.68-6.76,375.46-21.43-2.12-27.57-9.28-62.47-19.6-94.84Z" transform="translate(0 0)"/><path class="cls-15" d="M1333.94,708.14c-44.17,18.85-36.53,128.52-36.53,154.45,0,22.09,261.91-11.31,345.18-18.16,14.47-1.18-6.46-25.89-6.46-25.89S1387.35,685.33,1333.94,708.14Z" transform="translate(0 0)"/><path class="cls-16" d="M1369.44,707.39c50.87,38.41,173.13,124.47,263.78,137.86,3.33-.3,6.46-.58,9.37-.82,14.47-1.18-6.46-25.89-6.46-25.89S1456.08,722.13,1369.44,707.39Z" transform="translate(0 0)"/><path class="cls-17" d="M342.26,1729.32c-122.85,0-129.95,184.91-7.26,191.13,3.26.17,6.55.25,9.85.25H3288.26q5,0,9.85-.25c122.69-6.22,115.6-191.13-7.25-191.13Z" transform="translate(0 0)"/><path class="cls-18" d="M916.58,1727.86h954.13a0,0,0,0,1,0,0v0a34.79,34.79,0,0,1-34.79,34.79H951.38a34.79,34.79,0,0,1-34.79-34.79v0a0,0,0,0,1,0,0Z"/><path class="cls-18" d="M1952.64,1727.86h954.14a0,0,0,0,1,0,0v0a34.79,34.79,0,0,1-34.79,34.79H1987.43a34.79,34.79,0,0,1-34.79-34.79v0A0,0,0,0,1,1952.64,1727.86Z"/><rect class="cls-19" x="2111.65" y="1171.03" width="636.11" height="560.08"/><path class="cls-20" d="M2111.65,1731.11h189.17c15.9-105.08,48.16-279.46,89.59-300.24,47.45-23.79,265.61-44.42,357.35-51.92V1171H2111.65Z" transform="translate(0 0)"/><path class="cls-21" d="M2111.65,1171h659.06a25.37,25.37,0,0,1,25.37,25.37v127.43a0,0,0,0,1,0,0H2111.65a0,0,0,0,1,0,0V1171A0,0,0,0,1,2111.65,1171Z"/><path class="cls-22" d="M2770.71,1171H2111.65v37.08h659.06a25.37,25.37,0,0,1,25.38,25.37V1196.4A25.37,25.37,0,0,0,2770.71,1171Z" transform="translate(0 0)"/><path class="cls-23" d="M1243.85,991.08l-6.75-261.89s-.61-36.59-3-67.07a206.35,206.35,0,0,0-3.8-25l-48.8,23.25,1.45,48,15.42,287.1C1210.18,1001.06,1232,994.68,1243.85,991.08Z" transform="translate(0 0)"/><path class="cls-24" d="M1234.4,670.35c-.11-2-.34-6.41-.66-11.72-.73-7-2-25.32-3.48-32.53l-48.8,34.23,1.45,48,.33,6.11C1198.61,706,1224.17,690,1234.4,670.35Z" transform="translate(0 0)"/><path class="cls-25" d="M1178.26,1037.46c7.87,8.19,7.92,18.38-.4,20.12s-24.9-2.26-24.9-2.26l-12.32-72.13,27.15-1.5C1172.49,1026.16,1171.39,1030.32,1178.26,1037.46Z" transform="translate(0 0)"/><path class="cls-25" d="M1236.93,983.19c-2.93,9.22,0,39.67,7.49,45.76a39.24,39.24,0,0,0,9,5.57c13.16,5.75,30.22,4.46,32.59,16.28s-83.48-3.32-83.48-3.32,6-28.75,6.35-33.57-.53-22.5-.53-22.5Z" transform="translate(0 0)"/><path class="cls-26" d="M1201.6,1043.76c28.67,5.72,60.45,4.51,84.52-.66-43.78,6.61-79.07,1.49-76.63,1.73Z" transform="translate(0 0)"/><path class="cls-23" d="M1227.2,614.89h-85.42a8.31,8.31,0,0,1-1.36,2.23C1098.86,665,1102,717.46,1107.3,770.94,1115,848,1133,940.73,1136.59,999.44c7.73,4,26.35,6.38,40.58.38l2.7-283.51c.13-6.3,16.42-22.37,31.09-35.59,16.94-15.25,24.77-38.87,18.1-60.67A53.65,53.65,0,0,0,1227.2,614.89Z" transform="translate(0 0)"/><path class="cls-27" d="M1154.44,615.81a1.91,1.91,0,0,0,.24-.92h-4.15c-3.73,7.05-26.2,50.27-29.36,77.56-2.92,25.25,12.24,243.91,16.76,307.57a25.84,25.84,0,0,0,4,1c-4.34-61.38-19.73-283.38-16.86-308.12C1128.32,664.49,1154.18,616.3,1154.44,615.81Z" transform="translate(0 0)"/><path class="cls-28" d="M1247.35,378.91c-1.42-12.65-5-21.35-10-23-7.6-2.49-14.15-2.42-20.52-7.26-10-7.61-28.27-4.7-42.78,4-17.6,10.5-26,32.28-23.89,60.24a18.37,18.37,0,0,0,4.52,10.79c26.72,30.12,60.43,20.07,61.92,19.13C1239.22,428.57,1251.73,418,1247.35,378.91Z" transform="translate(0 0)"/><path class="cls-29" d="M1256.55,471.34s21.5,16.73,66.14,16.73,82.87-88.55,82.87-88.55l22.76.37S1397,530.34,1323.51,527.24s-92.08-24.44-92.08-24.44Z" transform="translate(0 0)"/><path class="cls-30" d="M1323.51,511.39c-48.4-2-73-12-84.12-18.55l-8,10s18.55,21.34,92.08,24.44,104.81-127.35,104.81-127.35l-4.19-1.2C1413.42,432.67,1381.7,513.84,1323.51,511.39Z" transform="translate(0 0)"/><path class="cls-31" d="M1186.87,480.82a69.41,69.41,0,0,1,26.77-18.11c16.82-6.22,55.24,6.69,55.24,6.69s9,2.41-2.62,36.47S1186.87,480.82,1186.87,480.82Z" transform="translate(0 0)"/><path class="cls-32" d="M1186.94,480.88c.28.24,1.38,1.18,3.12,2.63,13.56,11.17,66.07,52,76.2,22.36a136.81,136.81,0,0,0,4.77-17c-27.63-7.06-48.42-27-48.42-27-2.61-.83-5.94-.29-9.53,1.05l-.19.08-.17.06-.47.19c-10.71,4.31-23.26,15.18-25.35,17.53l0,0v0l0,0Z" transform="translate(0 0)"/><path class="cls-31" d="M1251.16,523c0,14.83-15.06,97.51-20.19,102.55-10.71,10.72-103.17,5.82-113.65-4.66s-13-90.59,26.63-143.93c10.71-14.28,30.12-18.86,30.12-18.86l47.35,2.95h.16l.15.15a60.26,60.26,0,0,1,6.45,5.59c5,4.66,11.33,11.88,14.44,19.88C1246,495.33,1251.16,508.06,1251.16,523Z" transform="translate(0 0)"/><path class="cls-33" d="M1234.28,617.09c2.31-8,5.12-20.78,7.78-34.4-13.31,2-29.89,2.54-42.79-3.55-25.69-12.13-51.4-105.78-51.4-105.78L1137.74,486s-11.22,45.55-6.86,74.66,12.62,57,50.58,64.84C1196.71,628.68,1216.3,623.91,1234.28,617.09Z" transform="translate(0 0)"/><path class="cls-29" d="M1225.18,504.28c-24.69,8.47-51.11-46.21-51.11-46.21s6.75.31,8.23-.08c6.21-1.86,8.38-50.62,8.38-50.62l26.63,15.69s-1.63,26.55,0,32.6a7.74,7.74,0,0,0,3.11,4.5,32.55,32.55,0,0,1,10.11,13.6C1234.45,483.83,1240.27,499.09,1225.18,504.28Z" transform="translate(0 0)"/><path class="cls-30" d="M1190.67,407.36s-.16,3.55-.51,8.78c5.61,22,17.63,34.56,26.77,37.1-.93-8.77.42-30.18.42-30.18Z" transform="translate(0 0)"/><path class="cls-34" d="M1187.05,388.23s4.76-19.07,19.26-24.43,27.55-.8,32.12,18.08-3.31,48.46-12.25,57.4S1188,430.14,1187.05,388.23Z" transform="translate(0 0)"/><path class="cls-29" d="M1191.22,394.39s-7-11.32-11.52-5-1,21.85,7.35,22.85S1191.22,394.39,1191.22,394.39Z" transform="translate(0 0)"/><path class="cls-35" d="M1292.73,855.7,1042.61,1728a4.53,4.53,0,1,0,8.71,2.5L1302.15,855.7Z" transform="translate(0 0)"/><path class="cls-35" d="M920.37,1735.57a4.3,4.3,0,0,1-1.27-.19,4.51,4.51,0,0,1-3.07-5.62l264.62-899.52a4.53,4.53,0,0,1,8.7,2.56L924.72,1732.31A4.54,4.54,0,0,1,920.37,1735.57Z" transform="translate(0 0)"/><path class="cls-35" d="M1295.08,868.48H1175.46a4.54,4.54,0,0,1,0-9.07h119.62a4.54,4.54,0,0,1,0,9.07Z" transform="translate(0 0)"/><path class="cls-35" d="M1241.55,1055.16h-121a4.53,4.53,0,0,1,0-9.06h121a4.53,4.53,0,0,1,0,9.06Z" transform="translate(0 0)"/><path class="cls-35" d="M1194.92,1217.77H1078.25a4.54,4.54,0,0,1,0-9.07h116.67a4.54,4.54,0,0,1,0,9.07Z" transform="translate(0 0)"/><path class="cls-35" d="M1148.73,1378.82H1025.32a4.53,4.53,0,1,1,0-9.06h123.41a4.53,4.53,0,1,1,0,9.06Z" transform="translate(0 0)"/><path class="cls-35" d="M1102.92,1538.61H978.31a4.54,4.54,0,0,1,0-9.07h124.61a4.54,4.54,0,0,1,0,9.07Z" transform="translate(0 0)"/><path class="cls-28" d="M1152.72,416.17s-27.84-39.32-54-21.45-30.87,32.61-43.49,29.7-68.9-16.64-75.69,32.2,76.66,83.72,97.53,35.22,29.1-28.6,53.12-28.6S1152.72,416.17,1152.72,416.17Z" transform="translate(0 0)"/><path class="cls-36" d="M1176.13,1026.05s8.39,11.38,10.35,16.12,1.54,16.56,0,17.77c-13.56,10.71-39.26,1.07-39.26,1.07a152.61,152.61,0,0,1-2.66-17.48c-.89-9.63-.39-18.61,2.66-18.61s3.58,5.06,10.54,3.63S1169,1024.62,1176.13,1026.05Z" transform="translate(0 0)"/><path class="cls-37" d="M1145.09,1048.33a89.89,89.89,0,0,0,18.91,5.37c7,1,16.52-2.13,23.68-5.28.37,5-.16,10.7-1.2,11.52-13.56,10.71-39.26,1.07-39.26,1.07S1146,1055.64,1145.09,1048.33Z" transform="translate(0 0)"/><path class="cls-36" d="M1206,1027.14s-1,4.56-3.45,12.3a33.5,33.5,0,0,0-.91,15s80.42,3.81,83.67,1.27,1.59-11.82.77-12.64-11-3.58-16.27-6.81-23.11-15.45-29.15-14.95-8.83,4.95-20.29,5.46S1208.89,1024.91,1206,1027.14Z" transform="translate(0 0)"/><path class="cls-37" d="M1285.35,1055.74c-3.25,2.54-83.67-1.27-83.67-1.27a33.78,33.78,0,0,1-.08-10.71c42,7.78,84.52-.66,84.52-.66C1286.94,1043.92,1288.61,1053.19,1285.35,1055.74Z" transform="translate(0 0)"/><path class="cls-14" d="M1282.75,1022.57H2228.9a0,0,0,0,1,0,0v668.19a40.35,40.35,0,0,1-40.35,40.35H1323.1a40.35,40.35,0,0,1-40.35-40.35V1022.57A0,0,0,0,1,1282.75,1022.57Z"/><path class="cls-38" d="M1254.77,862.59h988.42a39.12,39.12,0,0,1,39.12,39.12v120.86a0,0,0,0,1,0,0H1254.77a0,0,0,0,1,0,0v-160A0,0,0,0,1,1254.77,862.59Z"/><path class="cls-39" d="M1282.75,1022.57H2228.9a0,0,0,0,1,0,0v668.19a40.35,40.35,0,0,1-40.35,40.35H1323.1a40.35,40.35,0,0,1-40.35-40.35V1022.57A0,0,0,0,1,1282.75,1022.57Z"/><path class="cls-40" d="M1214.08,1022.57h770.66a0,0,0,0,1,0,0v672.13a36.41,36.41,0,0,1-36.41,36.41H1250.49a36.41,36.41,0,0,1-36.41-36.41V1022.57A0,0,0,0,1,1214.08,1022.57Z"/><path class="cls-41" d="M1244.51,1520.48c0-75.6,76.3-76.35,76.3-159.94,0-83.84-76.3-84.07-76.3-159.93,0-75.6,76.3-76.34,76.3-159.92a120.18,120.18,0,0,0-1.31-18.12h-15.57a97,97,0,0,1,1.62,18.12c0,75.6-76.3,76.34-76.3,159.92,0,83.84,76.3,84.07,76.3,159.93,0,75.61-76.3,76.35-76.3,159.94,0,83.85,76.3,84.07,76.3,159.94,0,21.9-6.4,37.52-15.49,50.69h18.21c7.5-13.28,12.54-29.32,12.54-50.69C1320.81,1596.57,1244.51,1596.35,1244.51,1520.48Z" transform="translate(0 0)"/><path class="cls-41" d="M1390.54,1595.18c-18.54-19.42-36-37.77-36-74.7,0-75.6,76.31-76.35,76.31-159.94,0-83.84-76.31-84.07-76.31-159.93,0-75.6,76.31-76.34,76.31-159.92a120.12,120.12,0,0,0-1.32-18.12h-15.56a97.82,97.82,0,0,1,1.62,18.12c0,75.6-76.31,76.34-76.31,159.92,0,83.84,76.31,84.07,76.31,159.93,0,75.61-76.31,76.35-76.31,159.94,0,83.85,76.31,84.07,76.31,159.94,0,22.18-6.32,37.66-15.38,50.69h18.09c7.5-13.28,12.55-29.32,12.55-50.69C1430.8,1637.38,1410.33,1615.93,1390.54,1595.18Z" transform="translate(0 0)"/><path class="cls-41" d="M1464.47,1520.48c0-75.6,76.31-76.35,76.31-159.94,0-83.84-76.31-84.07-76.31-159.93,0-75.6,76.31-76.34,76.31-159.92a120.12,120.12,0,0,0-1.32-18.12H1523.9a97.82,97.82,0,0,1,1.62,18.12c0,75.6-76.31,76.34-76.31,159.92,0,43,20.47,64.49,40.26,85.23,18.54,19.43,36,37.77,36,74.7,0,75.61-76.31,76.35-76.31,159.94,0,83.85,76.31,84.07,76.31,159.94,0,22.18-6.32,37.66-15.38,50.69h18.09c7.5-13.28,12.55-29.32,12.55-50.69C1540.78,1596.57,1464.47,1596.35,1464.47,1520.48Z" transform="translate(0 0)"/><path class="cls-41" d="M1574.45,1520.48c0-36.93,17.51-55.27,36-74.7,19.79-20.74,40.26-42.2,40.26-85.24,0-83.84-76.31-84.07-76.31-159.93,0-75.6,76.31-76.34,76.31-159.92a118.83,118.83,0,0,0-1.32-18.12h-15.56a97.82,97.82,0,0,1,1.62,18.12c0,75.6-76.31,76.34-76.31,159.92,0,43,20.47,64.49,40.26,85.23,18.54,19.43,36,37.77,36,74.7,0,75.61-76.31,76.35-76.31,159.94,0,83.85,76.31,84.07,76.31,159.94,0,22.18-6.32,37.66-15.38,50.69h18.09c7.5-13.28,12.55-29.32,12.55-50.69C1650.76,1596.57,1574.45,1596.35,1574.45,1520.48Z" transform="translate(0 0)"/><path class="cls-41" d="M1720.48,1595.18c-18.54-19.42-36-37.77-36-74.7,0-75.6,76.3-76.35,76.3-159.94,0-83.84-76.3-84.07-76.3-159.93,0-75.6,76.3-76.34,76.3-159.92a118.83,118.83,0,0,0-1.32-18.12h-15.56a97.82,97.82,0,0,1,1.62,18.12c0,75.6-76.31,76.34-76.31,159.92,0,83.84,76.31,84.07,76.31,159.93,0,36.93-17.51,55.28-36,74.7-19.8,20.75-40.27,42.2-40.27,85.24,0,83.85,76.31,84.07,76.31,159.94,0,22.18-6.32,37.66-15.38,50.69h18.09c7.5-13.28,12.55-29.32,12.55-50.69C1760.74,1637.38,1740.27,1615.93,1720.48,1595.18Z" transform="translate(0 0)"/><path class="cls-41" d="M1794.42,1520.48c0-36.93,17.5-55.27,36-74.7,19.79-20.74,40.26-42.2,40.26-85.24,0-83.84-76.3-84.07-76.3-159.93,0-75.6,76.3-76.34,76.3-159.92a120.18,120.18,0,0,0-1.31-18.12h-15.57a97.82,97.82,0,0,1,1.62,18.12c0,75.6-76.3,76.34-76.3,159.92,0,83.84,76.3,84.07,76.3,159.93,0,36.93-17.51,55.28-36,74.7-19.8,20.75-40.26,42.2-40.26,85.24,0,83.85,76.3,84.07,76.3,159.94,0,21.9-6.4,37.52-15.5,50.69h18.21c7.5-13.28,12.55-29.32,12.55-50.69C1870.72,1596.57,1794.42,1596.35,1794.42,1520.48Z" transform="translate(0 0)"/><path class="cls-41" d="M1904.4,1520.48c0-75.6,76.3-76.35,76.3-159.94,0-43-20.47-64.49-40.26-85.23-18.54-19.43-36-37.77-36-74.7,0-75.6,76.3-76.34,76.3-159.92a120.18,120.18,0,0,0-1.31-18.12h-15.57a97,97,0,0,1,1.62,18.12c0,75.6-76.3,76.34-76.3,159.92,0,83.84,76.3,84.07,76.3,159.93,0,36.93-17.51,55.28-36,74.7-19.79,20.75-40.26,42.2-40.26,85.24s20.47,64.49,40.26,85.24c18.53,19.42,36,37.77,36,74.7,0,21.88-6.39,37.49-15.47,50.65a36.29,36.29,0,0,0,22.94-9.51c4.8-11.28,7.79-24.59,7.79-41.14C1980.7,1596.57,1904.4,1596.35,1904.4,1520.48Z" transform="translate(0 0)"/><rect class="cls-42" x="1214.08" y="1021.94" width="770.66" height="43.04"/><rect class="cls-42" x="1984.74" y="1021.94" width="244.17" height="43.04" transform="translate(4213.64 2086.92) rotate(180)"/><path class="cls-43" d="M2000,483.54l-2.71,29.57s15.36,4,37.36,16.06c1.4-12.57,5.59-17.66,9.06-29.89C2043.25,499.21,2000,483.54,2000,483.54Z" transform="translate(0 0)"/><path class="cls-44" d="M2299.27,541.84l-36.7-33.66s-30.31,18-104.16,7.16c-68.49-10-111.9-17-117.85-18a233.14,233.14,0,0,0-7.49,37.41c41.51,22.66,121.5,62.88,184.67,53.32C2314.39,573.48,2299.27,541.84,2299.27,541.84Z" transform="translate(0 0)"/><path class="cls-45" d="M2296.82,539.59c-6.72,10.23-26.12,23.35-79.08,31.36-62,9.38-140.15-29.16-182.28-52-1,5.27-1.8,10.56-2.39,15.84,41.51,22.66,121.5,62.88,184.67,53.32,96.65-14.62,81.53-46.26,81.53-46.26Z" transform="translate(0 0)"/><path class="cls-46" d="M1964.39,452.66c51.4-10.11,191.48,248.62,147.26,300.8-16.38,19.33-468.58,69.62-468.58,69.62l8.81-23.18S1901.83,465,1964.39,452.66Z" transform="translate(0 0)"/><rect class="cls-46" x="1592.04" y="1022.57" width="130.99" height="708.54"/><path class="cls-43" d="M2264,1166s3.79-4.63,19-7.58,31.6-11.38,31.6-11.38,13.9-11.79,8-45.92l25.7,3s11.14,66.42,7.16,70.4S2272,1174,2264,1166Z" transform="translate(0 0)"/><path class="cls-35" d="M2355.45,1174.46c-4,4-83.41-.46-91.42-8.47,0,0,3.79-4.63,19-7.58,13.34-2.6,27.65-9.42,30.91-11a36.19,36.19,0,0,1,1.11,8.92c0,9.64,27.41-6.5,39.72-7.63C2356.25,1161.69,2357,1172.9,2355.45,1174.46Z" transform="translate(0 0)"/><path class="cls-47" d="M2367.89,802.87s27.81,246-13.48,326.09l-35.39-5.9s-10.95-345.51-33.7-376.64-16.85-80.89-16.85-80.89L2346,702.18Z" transform="translate(0 0)"/><path class="cls-48" d="M2372.59,855.46c-2.33-31.64-4.7-52.59-4.7-52.59L2346,702.18l-8.43-4-55.86,19.87c1.68,4.27,6.37,16.76,18.31,49.31C2311.27,797.92,2339.4,829.58,2372.59,855.46Z" transform="translate(0 0)"/><path class="cls-49" d="M2262.57,508.18c-.5.65-1,1.28-1.49,2-5.75,8.36-10.41,23.41-14.37,33.4-16.45,39.41-17.36,151.57-3.8,165.12,7.41,7.42,18,6.6,17.07.23-17.07-121.42-10.77-164.57,7.85-196.32A25.29,25.29,0,0,0,2262.57,508.18Z" transform="translate(0 0)"/><path class="cls-43" d="M2555,644s-3.79,4.64-19,7.59-31.6,11.37-31.6,11.37-13.9,11.8-8,45.92l-25.7-2.94s-11.14-66.42-7.16-70.4S2547,636,2555,644Z" transform="translate(0 0)"/><path class="cls-35" d="M2463.53,635.58c4-4,83.42.46,91.42,8.46,0,0-3.79,4.64-19,7.59-13.33,2.59-27.65,9.42-30.91,11a36.28,36.28,0,0,1-1.11-8.93c0-9.64-27.4,6.5-39.72,7.64C2462.73,648.34,2462,637.14,2463.53,635.58Z" transform="translate(0 0)"/><path class="cls-47" d="M2502.29,697.13l-40.87-3.79s22.16,99.12,3.37,119.65c-20.36,22.24-91-127.66-91-127.66l-92,28.58c1.67,3.72,6.37,14.62,18.31,43,24.44,58.14,129.34,120.92,191.7,126S2502.29,697.13,2502.29,697.13Z" transform="translate(0 0)"/><path class="cls-43" d="M2302.27,456.16l5.8,63.6-51.4,13.48s9.27-41.71,5.9-49.71S2302.27,456.16,2302.27,456.16Z" transform="translate(0 0)"/><path class="cls-50" d="M2308.07,495.33s6.65,2.61,10.41,7.65c.27.35-4.54,1.5-4.25,1.88a93.07,93.07,0,0,0,21.65,20c20.64,13.9,24.85,112.9,32.43,135.23s21.49,42.55,21.49,42.55-6.74,42.56-102.8,63.62c0,0-55.19-97.32-47.6-158.83s21.68-97.22,21.68-97.22Z" transform="translate(0 0)"/><path class="cls-48" d="M2368.59,743.61c17,0,26.55-2.92,31.85-6.07-3.14-5.75-6.12-11.37-8.88-16.65l-7.66-4.46S2331.69,743.61,2368.59,743.61Z" transform="translate(0 0)"/><path class="cls-48" d="M2291.05,761.5c2.37,9.33,4.59,22,6.65,37.08,28.17-14,46-55,46-55S2297.47,752.57,2291.05,761.5Z" transform="translate(0 0)"/><path class="cls-50" d="M2383.9,702.18l23.17,13.49s-12.56,23.9-49.46,23.9S2383.9,702.18,2383.9,702.18Z" transform="translate(0 0)"/><path class="cls-50" d="M2342.62,743.05S2317.76,789,2279,789c0,0,13.48-29.49,11.37-39.18S2342.62,743.05,2342.62,743.05Z" transform="translate(0 0)"/><path class="cls-51" d="M2286.37,770.5A315.27,315.27,0,0,0,2335.46,754a105.27,105.27,0,0,0,7.16-10.93s-15-.81-28.87-.18c-10.42,8.41-19.48,16-25.28,21C2287.85,766.06,2287.13,768.3,2286.37,770.5Z" transform="translate(0 0)"/><path class="cls-51" d="M2383.9,702.18s-63.19,37.39-26.29,37.39q2.58,0,5-.15c13.51-9,24.47-20,28.52-33Z" transform="translate(0 0)"/><path class="cls-35" d="M2239.4,607.39c1.14-9.25,3.15-22.08,4.51-30.12,12.21-42.9,48.56-62,70.38-72.34a93.36,93.36,0,0,0,21.59,19.89c20.64,13.9,24.85,112.9,32.43,135.23s21.49,42.55,21.49,42.55-6.74,42.56-102.8,63.62C2287,766.22,2231.81,668.9,2239.4,607.39Z" transform="translate(0 0)"/><path class="cls-52" d="M2266.09,723.57c26.67-17.6,66.09-59.14,87.43-154.2L2250.17,681.73A445.6,445.6,0,0,0,2266.09,723.57Z" transform="translate(0 0)"/><path class="cls-2" d="M2342.12,528c-15.76-11.06-37.89,1.39-45.64,19-15.05,34.23-46.94,101.73-67.53,109.28-14.76,5.41-42.2,4.61-64.7,2.13-5.84,10.2-5.3,23.37-5.84,32.22,26.24,9.27,71.22,15,87.34,11.58,37.28-8,102.1-114.31,109.8-138C2359.4,552.29,2352.74,535.4,2342.12,528Z" transform="translate(0 0)"/><path class="cls-53" d="M2292.81,513.55a1,1,0,0,0-1.31-.29l-26,16.88-3.3-16.27a1,1,0,0,0-1.13-.74,1,1,0,0,0-.74,1.12l3.85,19,28.36-18.4A1,1,0,0,0,2292.81,513.55Z" transform="translate(0 0)"/><path class="cls-54" d="M2312.59,422.88s-8.74,30.16-17.17,41.71-44.8,35.85-55,21.23,14.63-59.57,28.59-78.69S2313.1,403.88,2312.59,422.88Z" transform="translate(0 0)"/><path class="cls-55" d="M2247.18,376c20.58-12.09,38.2-1.14,54.51,8a245.19,245.19,0,0,0,28.2,13.74s6.42,13.16.1,21.82,8.09,10.88,2.54,22.87-29.23,25.08-29.23,25.08a9.25,9.25,0,0,1-5.29-7.82c-4,7.86-16,23.24-27.22,30.7-13.49,9-36.46,2.1-40.93-7.25s11.06-22.21,11.06-22.21,10.81,9,21.48,7.19c7.52-1.31,21.93-12.85,29.76-19.53a10.82,10.82,0,0,0,3.76-8.34c-.06-9.25,2.4-15.88-.5-18-3.48-2.55-13.82-8.16-34-4.65S2226.6,388.06,2247.18,376Z" transform="translate(0 0)"/><path class="cls-54" d="M2300.77,447.12a15.76,15.76,0,0,1,1.05-1.87c2.06-3.12,7-8.25,13.66.76,8.87,12-17.58,23.47-19.5,18.28C2295.49,463,2300.77,447.12,2300.77,447.12Z" transform="translate(0 0)"/><path class="cls-43" d="M2131.89,649.1c0-3.69-2.34-21.35-11.73-23.83-4.92-1.3,6.21,12.19,1.9,13.42-2.19.63-8.24-3.33-14.3-7.58-12.47-9.44-17.91-27.48-22-25.23s8.48,24.37,8.45,24.47c-2.29-3.47-6.87-11.89-8.45-11-3.28,1.79,2,11.5,4.5,15.8,0,.12,3.62,6.09,3.62,6.21-2.14-3.2-7.44-10.93-8.95-10.1-4.23,2.31,9.66,20.17,10.46,21,2.62,2.62,33.76,21.12,68.17,33.27.54-8.85.69-17.94.72-27.1C2144.49,656.21,2131.89,650.83,2131.89,649.1Z" transform="translate(0 0)"/><path class="cls-11" d="M2948.4,1512.27c-52.57,69-138.19,92.06-191.23,51.61s-53.44-129.13-.87-198.07,138.19-92.06,191.24-51.61S3001,1443.33,2948.4,1512.27Z" transform="translate(0 0)"/><path class="cls-11" d="M2947.54,1314.2a95,95,0,0,0-31.41-15.76c-41,69.8-105.18,114.72-168.37,122.67v134.56a93.78,93.78,0,0,0,9.41,8.21c53,40.45,138.66,17.34,191.23-51.61S3000.59,1354.64,2947.54,1314.2Z" transform="translate(0 0)"/><path class="cls-12" d="M2756.3,1365.81q-4.53,5.94-8.54,12.07v43.23c63.19-7.95,127.4-52.87,168.37-122.67C2864.76,1283.55,2799.42,1309.26,2756.3,1365.81Z" transform="translate(0 0)"/><path class="cls-11" d="M2756.3,1365.81q-4.53,5.94-8.54,12.07v43.23c63.19-7.95,127.4-52.87,168.37-122.67C2864.76,1283.55,2799.42,1309.26,2756.3,1365.81Z" transform="translate(0 0)"/><path class="cls-21" d="M2726.05,1422.36c-17,50.52-9.71,102,21.71,133.31V1421.11A160.23,160.23,0,0,1,2726.05,1422.36Z" transform="translate(0 0)"/><path class="cls-21" d="M2726.05,1422.36a160.23,160.23,0,0,0,21.71-1.25v-43.23A194.62,194.62,0,0,0,2726.05,1422.36Z" transform="translate(0 0)"/><path class="cls-56" d="M2481.76,1777.65c-188.47,0-85.32-197.92-18.07-143.3,2.51,2.13,4.09,4.48,1.7,6.9-5.57,5.65-16.33-18.55-43.82-4.65-23.08,11.65-40.8,44.13-39.49,72.41.74,15.91,7.61,37.25,36.19,48.49,158.21,62.26,278-125.1,322.16-208.55,2.37-4.45,9.11-.89,6.75,3.57C2708.37,1625.85,2612.2,1777.65,2481.76,1777.65Z" transform="translate(0 0)"/><path class="cls-57" d="M2726.05,1422.36c-17,50.52-9.71,102,21.71,133.31V1377.88A194.62,194.62,0,0,0,2726.05,1422.36Z" transform="translate(0 0)"/><path class="cls-11" d="M2947.54,1314.2a95,95,0,0,0-31.41-15.76c-41,69.8-105.18,114.72-168.37,122.67v134.56a93.78,93.78,0,0,0,9.41,8.21c53,40.45,138.66,17.34,191.23-51.61S3000.59,1354.64,2947.54,1314.2Z" transform="translate(0 0)"/><path class="cls-11" d="M2756.3,1365.81q-4.53,5.94-8.54,12.07v43.23c63.19-7.95,127.4-52.87,168.37-122.67C2864.76,1283.55,2799.42,1309.26,2756.3,1365.81Z" transform="translate(0 0)"/><path class="cls-56" d="M2481.76,1777.65c-188.47,0-85.32-197.92-18.07-143.3,2.51,2.13,4.09,4.48,1.7,6.9-5.57,5.65-16.33-18.55-43.82-4.65-23.08,11.65-40.8,44.13-39.49,72.41.74,15.91,7.61,37.25,36.19,48.49,158.21,62.26,278-125.1,322.16-208.55,2.37-4.45,9.11-.89,6.75,3.57C2708.37,1625.85,2612.2,1777.65,2481.76,1777.65Z" transform="translate(0 0)"/><path class="cls-58" d="M2726.05,1422.36c-17,50.52-9.71,102,21.71,133.31V1377.88A194.62,194.62,0,0,0,2726.05,1422.36Z" transform="translate(0 0)"/><path class="cls-56" d="M2753,987.14l-7.32-2.18L2713,1094.83c-14.54,20.49-247.74,352.48-195.38,503.94a3.82,3.82,0,0,0,5,2.29h0a3.81,3.81,0,0,0,2.23-4.82c-51.53-149.32,192.28-494,194.77-497.5Z" transform="translate(0 0)"/><ellipse class="cls-56" cx="2766.65" cy="925.6" rx="178.15" ry="137.06" transform="translate(1098.78 3319.2) rotate(-73.63)"/><path class="cls-11" d="M2878.59,1011.07a228.24,228.24,0,0,0,19.57-46.84c27.73-94.39-8.67-188.22-81.3-209.55-44.31-13-91.88,4-128.53,40.62A1052.93,1052.93,0,0,1,2878.59,1011.07Z" transform="translate(0 0)"/><path class="cls-6" d="M2716.44,1096.53c59.69,17.53,125.28-19.36,162.15-85.46A1052.93,1052.93,0,0,0,2688.33,795.3c-23.41,23.42-42.37,54.87-53.18,91.67C2607.42,981.37,2643.81,1075.19,2716.44,1096.53Z" transform="translate(0 0)"/><ellipse class="cls-59" cx="880.16" cy="1230.92" rx="121.23" ry="157.57" transform="translate(-449.69 508.88) rotate(-25.93)"/><path class="cls-13" d="M989.19,1177.9c-33.78-69.45-100.32-108.53-157-96,44.08,9.06,87.7,44,113,96,38.06,78.26,20.1,165.44-40.11,194.72a95,95,0,0,1-21,7.3c22.3,4.59,44.72,2.54,65-7.3C1009.28,1343.34,1027.24,1256.16,989.19,1177.9Z" transform="translate(0 0)"/><path class="cls-60" d="M989.19,1177.9c-27.38-56.29-76.29-92.64-124-97.71,28.65,16.8,54.43,44.35,71.68,79.8,38,78.26,20.09,165.44-40.12,194.72-16.89,8.22-35.32,11-53.93,9,34.58,20.27,73.32,24.89,106.25,8.88C1009.28,1343.34,1027.24,1256.16,989.19,1177.9Z" transform="translate(0 0)"/><path class="cls-59" d="M883.46,1023.52c33.57,64.46,101,95.77,150.58,70s62.58-99,29-163.48-101-95.78-150.58-70S849.89,959.07,883.46,1023.52Z" transform="translate(0 0)"/><path class="cls-61" d="M1221.52,862.59H1977.3a40.5,40.5,0,0,1,40.5,40.5v119.48a0,0,0,0,1,0,0H1181a0,0,0,0,1,0,0V903.09A40.5,40.5,0,0,1,1221.52,862.59Z"/><path class="cls-62" d="M1977.3,862.59H1221.52a40.51,40.51,0,0,0-40.51,40.5v45.7a40.51,40.51,0,0,1,40.51-40.5H1977.3a40.5,40.5,0,0,1,40.5,40.5v-45.7A40.5,40.5,0,0,0,1977.3,862.59Z" transform="translate(0 0)"/><rect class="cls-63" x="1669.99" y="862.59" width="130.99" height="159.98"/><path class="cls-46" d="M1629.75,847.53s-79.69-10.14-126.06,59.4S1392.12,1033,1313.88,1011.26c0,0,10.14,129,46.37,144.89,0,0,130.4-13.56,192.7-154.57s102.88-143.91,102.88-143.91Z" transform="translate(0 0)"/><path class="cls-46" d="M1647.24,822.42s50.85-21.17,107.32,35.29,162.18,142,223,133.31c0,0,1.45,121.7-49.27,140.54,0,0-128.95-7.24-189.81-118.81S1673.32,821.91,1647.24,822.42Z" transform="translate(0 0)"/><path class="cls-46" d="M1653.68,782.84s-48.33-208.26-120.47-306-110.62-81.23-137.89-69.46-128.84,138.29-97.14,204.21,344.22,195.6,344.22,195.6Z" transform="translate(0 0)"/><path class="cls-16" d="M1357.74,574.52c-10.18-14-31.53-33.1-52.22-48.21-13,30.83-18.6,61.87-7.34,85.27,31.69,65.92,344.22,195.6,344.22,195.6s-47.91-30.91-142.26-91.68C1433.76,672.74,1392.85,622.71,1357.74,574.52Z" transform="translate(0 0)"/><path class="cls-64" d="M1418.93,408.76c-3.28,2.09-1.93,3.45-5.71,5.86s-8-4.13-8.61,5.28c-.46,7.21-17.11-7.62-17.11-7.62-1.67-8.84,22.54-18.77,31.53-16.39,8.4,2.23,9.11,4.52,8.1,9.06S1422.2,406.68,1418.93,408.76Z" transform="translate(0 0)"/><path class="cls-64" d="M1332.34,565.66c-7.61,4.6-22.87,6.79-22.87,6.79,11.06-3.66,17.5-8.1,19.82-12.2a1.83,1.83,0,0,0-2.46-2.51c-6.1,3.22-16.94,8.63-20.79,8.63a25.47,25.47,0,0,1-6.37-1,6.4,6.4,0,0,1-4.55-7.61c.3-1.34.63-2.69,1-4-3,2-6.14,6.79-9.17,8.38-26.94,14.12-83,9.28-87.79-3.68-6.47-17.46-16.09-42-16.09-42l-33,16.82s10.49,58,36.62,64.25,101.82-10.37,101.82-10.37,1.47,0,3.73-.09c14,1.17,26.19-.28,33.44-4.35,4.54-2.54,4.09-3.91,3.12-4.58a2.51,2.51,0,0,0-2.12-.3c-5.39,1.52-16.38,1.7-16.38,1.7C1333.63,577,1339.94,561.06,1332.34,565.66Z" transform="translate(0 0)"/><path class="cls-30" d="M1183.05,516.38l-33,16.82a186.31,186.31,0,0,0,6.88,25.34c11.61.3,28.45-.64,39.52-7.29C1190.31,534.93,1183.05,516.38,1183.05,516.38Z" transform="translate(0 0)"/><path class="cls-31" d="M1152.22,461.91c7.65-5.9,20.65-9.27,25.47-.89,9.19,15.92,17.13,52.47,20.93,63.33,7.86,22.44-57.52,36.85-61.95,22.44S1131.94,477.55,1152.22,461.91Z" transform="translate(0 0)"/><path class="cls-65" d="M1198.62,524.35c-3.8-10.86-11.74-47.41-20.93-63.33a9.82,9.82,0,0,0-7.32-4.85c7.28,27.51,13.06,64.3,16.27,77.52a17.62,17.62,0,0,1-.11,9.93C1195.5,538.67,1201.29,532,1198.62,524.35Z" transform="translate(0 0)"/><rect class="cls-63" x="1592.04" y="1022.57" width="130.99" height="35.34"/><rect class="cls-63" x="2097.97" y="862.59" width="109.32" height="159.35"/><path class="cls-35" d="M1644.73,1133.33a4.12,4.12,0,0,1-1.24-.2c-16-5.5-28.11-16.78-35.94-33.53-36.28-77.61,28.7-249.26,31.48-256.53a3.81,3.81,0,1,1,7.12,2.73c-.67,1.75-66.6,175.89-31.69,250.57,6.92,14.8,17.52,24.74,31.51,29.54a3.81,3.81,0,0,1-1.24,7.42Z" transform="translate(0 0)"/><rect class="cls-66" x="1620.86" y="768.02" width="68.86" height="97.99" rx="26.92" transform="translate(3310.57 1634.03) rotate(180)"/><path class="cls-67" d="M1677.43,772.35a26.75,26.75,0,0,1,4.33,14.64v44.14a26.93,26.93,0,0,1-26.93,26.93h-15a26.89,26.89,0,0,1-14.65-4.33,26.91,26.91,0,0,0,22.6,12.28h15a26.92,26.92,0,0,0,26.92-26.92V795A26.91,26.91,0,0,0,1677.43,772.35Z" transform="translate(0 0)"/><path class="cls-18" d="M2314.49,1803.46H2096.43a6.14,6.14,0,0,1-6.14-6.14h0a6.14,6.14,0,0,1,6.14-6.14h218.06a6.14,6.14,0,0,1,6.14,6.14h0A6.14,6.14,0,0,1,2314.49,1803.46Z" transform="translate(0 0)"/><path class="cls-64" d="M2055.19,1183.3s4,7.81,4,14.43-10.1-4.7-10.1-4.7Z" transform="translate(0 0)"/><path class="cls-68" d="M2127.1,1050.26s26.26-1.94,36.77,16.58,27.08,20.46,36.76,30.13-4.42,26.26,6.63,37.31,15.32,7.45,26.81,30.13c17.66,34.87-15.66,83-63.57,35.11-26.23-26.23-92.5-36.25-84-103.19C2090.1,1067.65,2086.47,1053.85,2127.1,1050.26Z" transform="translate(0 0)"/><path class="cls-69" d="M2133.21,1172.17c2-3.45,48,24.17,48,24.17,13.4-13.88,7.85-80.28-23.18-92.09-22.9-8.72-.35-36.64-6.4-40.84C2136.13,1052.67,2121.86,1165.5,2133.21,1172.17Z" transform="translate(0 0)"/><path class="cls-64" d="M2195.65,1594.22s6.16,191.86,13.64,205.94h-62s33.44-15,31-26c0,0-36.3-163.7-31-185.26S2195.65,1594.22,2195.65,1594.22Z" transform="translate(0 0)"/><path class="cls-64" d="M2104.13,1598.62s.14.71.41,2c3.84,19.1,33.47,166.6,33.47,180.59v15l-61.61.88s38.73-15.4,38.73-22.44-62.05-155.78-58.53-178.66S2104.13,1598.62,2104.13,1598.62Z" transform="translate(0 0)"/><path class="cls-30" d="M2104.13,1598.62s-44-25.52-47.53-2.64c-.77,5,1.61,16.06,5.79,30.34,14,1.56,30.3.64,47.11-.89-2.39-12-4.19-21-5-24.78C2104.27,1599.33,2104.13,1598.62,2104.13,1598.62Z" transform="translate(0 0)"/><path class="cls-30" d="M2195.65,1594.22s-43.12-26.84-48.4-5.28c-1.19,4.85-.27,16.91,1.87,32.67,8.47-.69,16.72-1.16,24.53-1.16a174.33,174.33,0,0,0,22.88-1.36C2196,1603.91,2195.65,1594.22,2195.65,1594.22Z" transform="translate(0 0)"/><path class="cls-70" d="M2080.36,1291.47s-20.92,23.74-26.61,23.11c-32-3.54-64.91-66.67-72-66.67s-25.3-5.5-31.24-11.44,1.56-15.68,3.52-17.64,18.92,4.8,18.92,0-2.86-13.83,1.32-9.64,65.9,65.59,74.81,62.18c7.68-2.94,19.35-22.08,19.35-22.08Z" transform="translate(0 0)"/><path class="cls-71" d="M2134.71,1168.26s40.26,5.28,44.88,33.66-9.29,111.44,11.22,146.54c48.06,82.19,40.07,240.76,38.09,242.75s-11,14-55.25,14-102.71,14.52-133.73,0,29.88-205.5,40.44-255.66-19.58-83.61-19.58-98.13S2077.94,1163.64,2134.71,1168.26Z" transform="translate(0 0)"/><path class="cls-64" d="M2141.53,1121.84l-2.36,47.25s7.42,1.59,8.74,6.65-31.24,53.25-43.34,41.15,7.08-45.86,7.08-45.86l1.94-33.57,20.66-19.58Z" transform="translate(0 0)"/><path class="cls-30" d="M2112.68,1153.21c8.58,5.41,18.85,5.87,27.3-.39l1.55-31-7.28-4-20.66,19.58Z" transform="translate(0 0)"/><path class="cls-47" d="M2100.3,1784.74s-29.56,8.7-29.56,12.34,62.44,3.08,69.34-.88c3.46-2-.3-15.62-1.43-16.68-4.41-4.12-14.74,7.85-22.85,7.85S2104.28,1783.53,2100.3,1784.74Z" transform="translate(0 0)"/><path class="cls-47" d="M2168.66,1786.89s-26.64,10.36-26.64,14,60.5,3.17,68.29.14c3-1.14-1-12.59-1-12.59-1.18-3.1-2.08-3.39-3.94-2.57-4.76,2.12-12.82,5.31-18.23,5.31C2179,1791.18,2172.63,1785.68,2168.66,1786.89Z" transform="translate(0 0)"/><path class="cls-64" d="M2113.1,1060.81s-15.48,2.94-17.69,21.37,3.32,51.34,15.48,59.24c13.37,8.67,31.7,6.36,40.54-13.54s12.16-53.81-2.58-64.49S2113.1,1060.81,2113.1,1060.81Z" transform="translate(0 0)"/><path class="cls-68" d="M2128.77,1052.79s4.14,5-3.32,22.11-34.83,38.15-34.83,38.15h0a71.83,71.83,0,0,1,4.07-47.31,18.1,18.1,0,0,1,14.2-10.3Z" transform="translate(0 0)"/><path class="cls-68" d="M2148.85,1063.39c-6.54-4.75-14.32-5.79-20.94-5.48-.74,2.58-1,6.36-.43,11.86,1.7,15.92,21.51,29.2,30.56,34.48C2160.45,1087.65,2158.59,1070.45,2148.85,1063.39Z" transform="translate(0 0)"/><path class="cls-64" d="M2097.26,1109.18s-1.19-5.45-5-4.93-4.28,14.32-.69,15.71S2099.74,1117.88,2097.26,1109.18Z" transform="translate(0 0)"/><path class="cls-64" d="M2157.12,1104.71s2-1.38,5.66-.25.74,14.84-3,15.61S2153.24,1112.89,2157.12,1104.71Z" transform="translate(0 0)"/><path class="cls-2" d="M2036.22,1156.43l-269.08-80.59a26.62,26.62,0,0,0-18.07,1l-92.34,39.38a21.36,21.36,0,0,0-9.42,31.45l55.49,83.66a26.66,26.66,0,0,0,14.53,10.78l269.09,80.59a26.61,26.61,0,0,0,33.11-17.85l34.54-115.32A26.61,26.61,0,0,0,2036.22,1156.43ZM1667,1146.21a10.12,10.12,0,1,1,10.12-10.11A10.12,10.12,0,0,1,1667,1146.21Z" transform="translate(0 0)"/><path class="cls-72" d="M2180.45,1230.48l-1.14-23.33s-35,71.85-45.15,82-63.58-47.69-63.58-47.69,26.15,112.4,58.54,116.22c24.84,2.92,49.82-74.33,50.29-94C2179.69,1252,2180.19,1240.58,2180.45,1230.48Z" transform="translate(0 0)"/><path class="cls-64" d="M2165.26,1180.13s24.16,1.77,23.9,30.38c-.15,16.41-45.66,129.16-64.9,126.19s-47.68-55.67-75.18-117c-3-6.6-10.74-12-12.5-16.19s2-29.38,10.27-23.42c3.58,2.56,66.56,110.84,74.69,106.93C2130.91,1282.46,2150.94,1176.59,2165.26,1180.13Z" transform="translate(0 0)"/><path class="cls-35" d="M1658.86,1135.38a3.81,3.81,0,0,1-3.81-3.82c0-2-3.72-7.32-7-10.79a3.82,3.82,0,0,1,5.51-5.29c2.15,2.24,9.17,10,9.17,16.08A3.82,3.82,0,0,1,1658.86,1135.38Z" transform="translate(0 0)"/><path class="cls-35" d="M1640.43,1145.16h-.59a3.82,3.82,0,0,1,.47-7.62c.12,0,4.76.08,16.21-3.06a3.82,3.82,0,0,1,2,7.37C1647.51,1144.85,1642.14,1145.16,1640.43,1145.16Z" transform="translate(0 0)"/><path class="cls-73" d="M1985.53,1309.69a12.53,12.53,0,0,1-3.78-.6,15.88,15.88,0,0,1-4.16-2.26c-2.41-1.65-4.92-3.36-9.94-3-4,.25-6.45-1.37-8.86-2.93s-4.57-3-8.4-3c-.4,0-.82,0-1.24,0a12,12,0,0,1-4.48-.52,16.11,16.11,0,0,1-4.15-2.26c-2.24-1.53-4.56-3.11-8.62-3.11q-.63,0-1.29.06a12.14,12.14,0,0,1-4.47-.52,16.17,16.17,0,0,1-4.16-2.26c-2.21-1.52-4.5-3.08-8.75-3.08-.42,0-.85,0-1.29,0a12,12,0,0,1-8.34-2.69c-3.71-3-6.57-3-9.59-3.13s-5.85-.15-9-2.79c-2.46-2-5.79-3-9.92-3h-.83a12.33,12.33,0,0,1-9.21-4.18,6.56,6.56,0,0,0-5.11-2.09,10.31,10.31,0,0,0-2,.2,12,12,0,0,1-9.88-2.45c-3.81-3.12-6.64-3.14-9.62-3.17-2.81,0-5.72,0-8.92-2.66-3.76-3.08-6.82-3.12-9.77-3.16a16.43,16.43,0,0,1-4.8-.54,15.87,15.87,0,0,1-4.16-2.26c-2.24-1.52-4.56-3.1-8.62-3.1-.41,0-.85,0-1.29,0-4,.3-6.45-1.33-8.83-2.9s-4.53-3-8.42-3c-.41,0-.85,0-1.28,0-4,.3-6.46-1.33-8.84-2.9s-4.52-3-8.42-3c-.41,0-.84,0-1.28.05-4.1.31-6.47-1.31-8.77-2.87-2.48-1.68-4.84-3.26-9.78-3a12,12,0,0,1-8.29-2.55c-4-3.19-7-3.23-10-3.28a15.8,15.8,0,0,1-4.69-.53,11.7,11.7,0,0,1-7.26-6.4,12.14,12.14,0,0,1,0-9.91c1.3-2.89,1-5.36.77-8-.33-3.2-.68-6.5,1.88-10.21,3.66-5.3,3.7-8.23,3.73-11.07a11.52,11.52,0,0,1,2.74-8.32,12.74,12.74,0,0,0,3.11-9.38c-.47-4.47,1.23-7,2.88-9.42s3.24-4.8,2.91-9.64a12.24,12.24,0,0,1,2.67-8.52c2.94-3.66,3-6.54,3.14-9.6.09-2.66.18-5.42,2.24-8.34,2.6-3.67,3.8-7.23,3.58-10.59a12.22,12.22,0,0,1,9.41-12.69,16,16,0,0,0,7-3.83,11.73,11.73,0,0,1,7.57-2.69,12.44,12.44,0,0,1,7.7,2.64,15.76,15.76,0,0,0,9.82,3.18c.35,0,.7,0,1,0a11.24,11.24,0,0,1,7.64,2.71c3.59,2.93,6.49,3,9.56,3.13,2.87.09,5.83.19,8.94,2.66a14.61,14.61,0,0,0,10.38,3.18,11.32,11.32,0,0,1,8.19,2.69c3.76,3.07,6.81,3.11,9.76,3.14a16.11,16.11,0,0,1,4.8.55,11.74,11.74,0,0,1,4,2.13c3.76,3.08,6.82,3.12,9.77,3.15a16.18,16.18,0,0,1,4.8.55,15.59,15.59,0,0,1,4.16,2.26c2.41,1.65,4.92,3.36,9.94,3,4-.25,6.45,1.37,8.86,2.93s4.57,3,8.39,3c.41,0,.83,0,1.25,0a12,12,0,0,1,8.44,2.65,14.55,14.55,0,0,0,10.13,3.17,12.29,12.29,0,0,1,8.38,2.63,14.51,14.51,0,0,0,10.13,3.21,12,12,0,0,1,9.51,3.65c2,2.12,4.63,3.09,6.91,2.51a11.75,11.75,0,0,1,2.9-.36,12.28,12.28,0,0,1,7.7,2.72,14.47,14.47,0,0,0,10,3.14c4.14-.28,6.55,1.35,8.87,2.92s4.38,3,8.4,3c.41,0,.83,0,1.26,0,4.15-.29,6.55,1.35,8.88,2.92s4.82,3.24,9.66,2.91c.27,0,.54,0,.82,0a12,12,0,0,1,11.05,7.13,6.62,6.62,0,0,0,4,3.53,11.22,11.22,0,0,1,7.06,7.79,12.65,12.65,0,0,1-2.22,11.3c-2.73,3.3-2.87,6.2-3,9.28s-.3,6.2-3.05,9.29a10.73,10.73,0,0,0-3,8.75,11.89,11.89,0,0,1-2.54,9.41,14.38,14.38,0,0,0-3.17,10.1,11.93,11.93,0,0,1-2.66,8.44,14,14,0,0,0-3.17,10.1,11.89,11.89,0,0,1-.52,4.47,16.17,16.17,0,0,1-2.26,4.16c-1.65,2.41-3.36,4.91-3,9.94a12.32,12.32,0,0,1-2,7.52c-2.7,4.09-3.93,7.73-3.78,11.14a12.43,12.43,0,0,1-3.45,9.12A11.35,11.35,0,0,1,1985.53,1309.69Zm-16.69-9.19a16.93,16.93,0,0,1,10.58,3.65,13.28,13.28,0,0,0,3.3,1.84,8.29,8.29,0,0,0,8.72-2.12,9.32,9.32,0,0,0,2.56-6.74c-.19-4.11,1.22-8.39,4.32-13.07a9.11,9.11,0,0,0,1.48-5.53c-.39-6.14,1.82-9.38,3.6-12a13.11,13.11,0,0,0,1.84-3.3,8.56,8.56,0,0,0,.38-3.25,17.44,17.44,0,0,1,3.9-12.41,8.72,8.72,0,0,0,1.93-6.13,17.61,17.61,0,0,1,3.9-12.4,8.42,8.42,0,0,0,1.55-2.89,8.54,8.54,0,0,0,.3-4,13.87,13.87,0,0,1,3.74-11.42c2-2.24,2.1-4.47,2.23-7.29.16-3.32.35-7.07,3.77-11.21a9.35,9.35,0,0,0,1.59-8.35,8,8,0,0,0-5-5.6,9.81,9.81,0,0,1-5.87-5.3,8.88,8.88,0,0,0-8.67-5.15c-.5,0-1,0-1.48,0-5,0-7.78-1.87-10.22-3.51-2.15-1.46-3.83-2.58-6.84-2.37-.5,0-1,.05-1.48.05-5,0-7.78-1.87-10.21-3.51-2.16-1.46-3.84-2.58-6.84-2.37a17.59,17.59,0,0,1-12.28-3.86,9,9,0,0,0-5.66-2,8.63,8.63,0,0,0-2.1.26c-3.4.87-7.25-.45-10.06-3.41a8.71,8.71,0,0,0-3.67-2.27,8.56,8.56,0,0,0-3.25-.38c-.41,0-.84.05-1.26.05a18,18,0,0,1-11.13-4,9,9,0,0,0-6.16-1.93,17.86,17.86,0,0,1-12.39-3.89,8.46,8.46,0,0,0-2.88-1.55,8.37,8.37,0,0,0-3.25-.38q-.77.06-1.5.06c-4.78,0-7.63-1.85-10.15-3.48-2.17-1.41-4-2.6-6.9-2.42-6.17.38-9.4-1.84-12-3.6a13.12,13.12,0,0,0-3.29-1.85,13.64,13.64,0,0,0-3.87-.39c-3.18,0-7.14-.09-11.79-3.88a8.66,8.66,0,0,0-2.88-1.56,13.64,13.64,0,0,0-3.87-.39c-3.18,0-7.13-.09-11.77-3.87a8.06,8.06,0,0,0-5.82-2c-.53.05-1.06.07-1.59.07a18,18,0,0,1-11.14-4c-2.26-1.8-4.35-1.87-7-2-3.32-.11-7.07-.23-11.51-3.86a8.11,8.11,0,0,0-5.41-2c-.4,0-.81,0-1.22,0a19,19,0,0,1-11.84-3.88,9.09,9.09,0,0,0-5.68-2,8.53,8.53,0,0,0-5.48,1.93,19.49,19.49,0,0,1-8.44,4.53,8.92,8.92,0,0,0-6.82,9.3c.27,4.11-1.13,8.38-4.17,12.68-1.5,2.12-1.57,4.08-1.65,6.57-.11,3.29-.23,7-3.85,11.52a9,9,0,0,0-2,6.27c.4,5.95-1.65,9-3.46,11.67-1.5,2.22-2.69,4-2.34,7.26a16,16,0,0,1-3.83,11.79c-1.95,2.38-2,4-2,6.3,0,3-.09,6.76-4.31,12.87-1.88,2.73-1.63,5.07-1.32,8,.29,2.79.62,6-1,9.65a9,9,0,0,0,0,7.25,8.44,8.44,0,0,0,5.27,4.63,13.17,13.17,0,0,0,3.76.39c3.2,0,7.19.1,12,4a8.88,8.88,0,0,0,6,1.83c6.1-.39,9.14,1.69,11.81,3.5,2.12,1.44,3.76,2.54,6.7,2.32.52,0,1-.06,1.53-.06,4.87,0,7.7,1.87,10.21,3.52,2.22,1.46,3.94,2.58,6.8,2.37q.78-.06,1.53-.06c4.87,0,7.7,1.87,10.2,3.52,2.22,1.46,4,2.59,6.81,2.37q.78-.06,1.53-.06c5.06,0,8,2,10.45,3.67a9.52,9.52,0,0,0,7.17,2.24c3.18,0,7.14.09,11.79,3.88,2.31,1.9,4.33,1.92,6.88,1.94,3.1,0,7,.06,11.65,3.89a8.64,8.64,0,0,0,7.19,1.79,13,13,0,0,1,2.62-.27,9.72,9.72,0,0,1,7.57,3.22,9,9,0,0,0,6.75,3.05h.83c4.9,0,8.93,1.27,12,3.79,2.34,1.92,4.43,2,7.07,2,3.27.09,7,.19,11.54,3.85a8.81,8.81,0,0,0,6.09,2c.51,0,1,0,1.51,0a16.93,16.93,0,0,1,10.58,3.65,13.28,13.28,0,0,0,3.3,1.84,8.79,8.79,0,0,0,3.25.38c.52,0,1-.06,1.54-.06,5.06,0,8,2,10.45,3.66a13.23,13.23,0,0,0,3.3,1.85,8.74,8.74,0,0,0,3.25.38c.51,0,1-.06,1.49-.06,4.79,0,7.64,1.85,10.16,3.48,2.17,1.41,4,2.6,6.9,2.42C1967.93,1300.52,1968.39,1300.5,1968.84,1300.5Z" transform="translate(0 0)"/><path class="cls-64" d="M2043.59,1167.14s4,13.36,7.33,18.34-3.66,9.61-3.66,9.61l-6.58-13.46s-2.5-14.9-1.69-16.73S2042,1162.24,2043.59,1167.14Z" transform="translate(0 0)"/><path class="cls-64" d="M2033.69,1169.62c-1.17,1-1.37,3.24-1,4.76,6.41,26.26,15.55,23.81,15.85,24.25l1.66-5.07-9.52-11.93s-4.49-10.93-5.58-12A1.06,1.06,0,0,0,2033.69,1169.62Z" transform="translate(0 0)"/><path class="cls-64" d="M2045.89,1199.8l-8.18-11s-1.43-5.91-2.9-5.49-1.53,5.36-.77,6.84-.09,2.94-.48,4.54,1.55,8.13,3.85,10S2045.89,1199.8,2045.89,1199.8Z" transform="translate(0 0)"/><text class="cls-74" transform="translate(1740.42 1176.4) rotate(16.39) scale(0.77 1)">Online Gifting</text></g></g></svg>