<?xml version="1.0" encoding="utf-8"?>
<!-- Generator: Adobe Illustrator 24.2.0, SVG Export Plug-In . SVG Version: 6.00 Build 0)  -->
<svg version="1.1" id="Layer_1" xmlns="http://www.w3.org/2000/svg" xmlns:xlink="http://www.w3.org/1999/xlink" x="0px" y="0px"
	 viewBox="0 0 500 500" style="enable-background:new 0 0 500 500;" xml:space="preserve">
<style type="text/css">
	.st0{fill:#336699;}
</style>
<path class="st0" d="M250.3,87.4c45,0,81.4,36.3,81.4,81.3c0,44.9-36.4,81.3-81.3,81.4c-44.9,0.1-81.4-36.5-81.4-81.4
	C169,123.8,205.4,87.4,250.3,87.4z M250.3,230c33.6,0.1,61.2-27.4,61.3-61.1c0.2-33.6-27.2-61.3-60.9-61.4
	c-33.9-0.2-61.5,27.2-61.6,61.1C189,202.3,216.5,229.8,250.3,230z"/>
<path class="st0" d="M399.8,412.2L399.8,412.2c-4.8,0-50.9,0.5-51.8-4.2c-0.2-1,41.6-5.8,41.4-6.8c-11.2-51-51.4-92.8-102.1-106.2
	c-14.1-3.7-28.3-5.4-42.8-4.8c-57.9,2.6-107.5,39.3-127.5,92.2c-3.5,9.2,282,29.7-16.1,29.9c-6.4,0-11.2-5.9-9.9-12.2
	c8.9-41.6,30.5-75.3,65.9-100.5c50.3-35.8,117-39.7,171.1-9.7c44.3,24.6,71,61.8,81.6,110.1C411.1,406.2,406.3,412.2,399.8,412.2z"
	/>
</svg>
