<?xml version="1.0" encoding="utf-8"?>
<!-- Generator: Adobe Illustrator 24.2.0, SVG Export Plug-In . SVG Version: 6.00 Build 0)  -->
<svg version="1.1" id="Layer_1" xmlns="http://www.w3.org/2000/svg" xmlns:xlink="http://www.w3.org/1999/xlink" x="0px" y="0px"
	 viewBox="0 0 1280 720" style="enable-background:new 0 0 1280 720;" xml:space="preserve">
<style type="text/css">
	.st0{opacity:0.5;}
	.st1{fill:url(#SVGID_1_);}
	.st2{fill:#336699;}
	.st3{fill:url(#SVGID_2_);}
	.st4{fill:#F5F5F5;}
	.st5{opacity:0.1;enable-background:new    ;}
	.st6{fill:#FF3399;}
	.st7{font-family:'MyriadPro-Regular';}
	.st8{font-size:51.9194px;}
	.st9{font-size:289.1761px;}
</style>
<g>
	<g class="st0">
		
			<linearGradient id="SVGID_1_" gradientUnits="userSpaceOnUse" x1="812.8596" y1="477.5272" x2="812.8596" y2="626.2931" gradientTransform="matrix(1 0 0 -1 -169.23 682.32)">
			<stop  offset="0" style="stop-color:#808080;stop-opacity:0.25"/>
			<stop  offset="0.54" style="stop-color:#808080;stop-opacity:0.12"/>
			<stop  offset="1" style="stop-color:#808080;stop-opacity:0.1"/>
		</linearGradient>
		<path class="st1" d="M764.5,73.4c-12.9-12.9-31.7-18.1-53-14.5c-19.9,3.4-39.8,14.1-56,30.3c-4.7,4.7-8.7,10.2-11.7,16.1
			c-3-6.1-6.9-11.7-11.6-16.7l0,0c-16-16.5-35.7-27.6-55.5-31.3c-21.2-4-40.1,0.9-53.2,13.6c-13.1,12.7-18.5,31.4-15.2,52.7
			c3.1,20,13.5,40,29.5,56.5c33.6,34.6,100.6,21.1,103.4,20.5l0.8-0.2l2.6,0.6c2.8,0.6,69.6,15.3,103.8-18.7
			c16.3-16.2,27.1-36.1,30.5-55.9C782.5,105.2,777.4,86.4,764.5,73.4z M629.8,180.7c-16.2,2.2-56.5,5.1-76.6-15.5
			c-12.9-13.3-21.3-29.2-23.7-44.8c-2.2-14.2,1-26.3,8.9-34c3.1-3,6.8-5.3,10.9-6.7c6.7-2.4,14.6-2.8,23.3-1.2
			c15.5,2.9,31.1,11.8,44,25.1C636.7,124.4,632.5,164.6,629.8,180.7z M757.6,122.8c-2.7,15.5-11.4,31.3-24.5,44.3
			c-20.4,20.3-60.7,16.7-76.8,14.2c-2.4-16.2-5.9-56.5,14.5-76.8c13.1-13.1,28.9-21.7,44.4-24.3c8.7-1.5,16.7-0.9,23.3,1.6
			c4.1,1.5,7.7,3.8,10.8,6.9C757.1,96.5,760,108.6,757.6,122.8L757.6,122.8z"/>
	</g>
	<path class="st2" d="M647.6,196.3l-6.4,1.4c-2.7,0.6-66.8,13.5-99-19.6c-15.3-15.8-25.3-35-28.3-54c-3.1-20.4,2-38.3,14.6-50.5
		c12.6-12.2,30.6-16.8,50.9-13c19,3.6,37.8,14.2,53.1,29.9l0,0c32.1,33.1,17.2,96.8,16.5,99.5L647.6,196.3z M553.4,81.9
		c-3.9,1.4-7.5,3.5-10.5,6.4c-7.6,7.4-10.7,18.9-8.6,32.5c2.3,14.9,10.4,30.1,22.7,42.8c19.2,19.8,57.8,17,73.3,14.9
		c2.6-15.4,6.6-53.9-12.6-73.7l0,0c-12.3-12.7-27.3-21.3-42.1-24C567.4,79.3,559.8,79.7,553.4,81.9z"/>
	<path class="st2" d="M638.2,196.6l-1.5-6.4c-0.6-2.7-14.5-66.6,18.2-99.2l0,0c15.5-15.5,34.6-25.8,53.6-29
		c20.3-3.4,38.3,1.5,50.7,13.9c12.3,12.4,17.2,30.4,13.7,50.7c-3.3,19-13.7,38-29.2,53.5c-32.7,32.5-96.5,18.5-99.3,17.9
		L638.2,196.6z M734.3,83.9c-6.4-2.4-14-2.9-22.3-1.5c-14.9,2.5-30,10.8-42.5,23.3l0,0c-19.5,19.5-16.1,58-13.8,73.5
		c15.5,2.4,54,5.9,73.5-13.6c12.5-12.5,20.9-27.6,23.4-42.4c2.3-13.5-0.5-25.1-8-32.7C741.8,87.5,738.2,85.3,734.3,83.9L734.3,83.9z
		"/>
	<g class="st0">
		
			<linearGradient id="SVGID_2_" gradientUnits="userSpaceOnUse" x1="640" y1="58.0269" x2="640" y2="542.4269" gradientTransform="matrix(1 0 0 -1 0 722)">
			<stop  offset="0" style="stop-color:#808080;stop-opacity:0.25"/>
			<stop  offset="0.54" style="stop-color:#808080;stop-opacity:0.12"/>
			<stop  offset="1" style="stop-color:#808080;stop-opacity:0.1"/>
		</linearGradient>
		<polygon class="st3" points="950.8,179.6 329.2,179.6 329.2,304 361.5,304 361.5,664 918.5,664 918.5,304 950.8,304 		"/>
	</g>
	<rect x="368.5" y="217.2" class="st4" width="543" height="440.7"/>
	<rect x="588.9" y="295.9" class="st2" width="102.3" height="362"/>
	<rect x="368.5" y="193.6" class="st5" width="543" height="110.2"/>
	<rect x="337" y="185.7" class="st4" width="605.9" height="110.2"/>
	<rect x="588.9" y="185.7" class="st2" width="102.3" height="110.2"/>
	<text transform="matrix(1 0 0 1 409.4092 265.0969)" class="st6 st7 st8">Custom</text>
	<text transform="matrix(1 0 0 1 443.8 566.0032)" class="st6 st7 st9">OG</text>
	<text transform="matrix(1 0 0 1 706.4109 264.2198)" class="st6 st7 st8">Box</text>
</g>
</svg>
