<svg id="Layer_1" data-name="Layer 1" xmlns="http://www.w3.org/2000/svg" viewBox="0 0 431 88.15"><defs><style>.cls-1{fill:#369;}</style></defs><path class="cls-1" d="M54.09,36.9a38.14,38.14,0,0,1-2,12.48,33.28,33.28,0,0,1-5.49,10.17,26.81,26.81,0,0,1-8.1,6.82,20.69,20.69,0,0,1-19.72,0,26.68,26.68,0,0,1-8.13-6.82A33.3,33.3,0,0,1,5.15,49.42a38.08,38.08,0,0,1-2-12.52,38.41,38.41,0,0,1,2-12.56,33.28,33.28,0,0,1,5.49-10.17,26.27,26.27,0,0,1,8.13-6.78,21,21,0,0,1,19.72,0,26.12,26.12,0,0,1,8.1,6.82,33.76,33.76,0,0,1,5.49,10.17A38.08,38.08,0,0,1,54.09,36.9Zm-9.31,0a24.85,24.85,0,0,0-1.26-8,21.94,21.94,0,0,0-3.47-6.54,17,17,0,0,0-5.14-4.47,12.77,12.77,0,0,0-12.59,0,17,17,0,0,0-5.14,4.47,21.69,21.69,0,0,0-3.46,6.54,25.55,25.55,0,0,0,0,15.91,21.62,21.62,0,0,0,3.46,6.59,17.18,17.18,0,0,0,5.14,4.47,12.83,12.83,0,0,0,12.59,0,17.18,17.18,0,0,0,5.14-4.47,21.86,21.86,0,0,0,3.47-6.59A24.85,24.85,0,0,0,44.78,36.9Z" transform="translate(-3.14 -2.32)"/><path class="cls-1" d="M92.13,67.89h-9V41.32a14.29,14.29,0,0,0-.56-4.2,8.94,8.94,0,0,0-1.51-3,6.07,6.07,0,0,0-2.15-1.77,5.73,5.73,0,0,0-2.51-.58,9,9,0,0,0-3.84.89,9.75,9.75,0,0,0-3.43,2.81V67.89h-9v-45h8.76L69,26.24a10.25,10.25,0,0,1,2-1.87,14.13,14.13,0,0,1,2.4-1.44A13.4,13.4,0,0,1,75.86,22a10.72,10.72,0,0,1,2.52-.31,12.49,12.49,0,0,1,5.14,1.09,12,12,0,0,1,4.38,3.34A17.06,17.06,0,0,1,91,32a27.81,27.81,0,0,1,1.15,8.49Z" transform="translate(-3.14 -2.32)"/><path class="cls-1" d="M113.13,67.61a10.35,10.35,0,0,1-2.36,1A10.07,10.07,0,0,1,108,69a11.21,11.21,0,0,1-3.78-.65,7.92,7.92,0,0,1-3.17-2.12,10.59,10.59,0,0,1-2.15-3.81,17.82,17.82,0,0,1-.8-5.67V3.89h9V54.82q0,2.77.9,3.81a2.75,2.75,0,0,0,2.13,1,4.66,4.66,0,0,0,3-1.15Z" transform="translate(-3.14 -2.32)"/><path class="cls-1" d="M126.13,15.89h-9v-12h9Zm0,52h-9v-45h9Z" transform="translate(-3.14 -2.32)"/><path class="cls-1" d="M166.13,67.89h-9V41.32a14.29,14.29,0,0,0-.56-4.2,8.94,8.94,0,0,0-1.51-3,6.07,6.07,0,0,0-2.15-1.77,5.73,5.73,0,0,0-2.51-.58,9,9,0,0,0-3.84.89,9.75,9.75,0,0,0-3.43,2.81V67.89h-9v-45h8.76l.06,3.35a10.25,10.25,0,0,1,2-1.87,14.13,14.13,0,0,1,2.4-1.44,13.4,13.4,0,0,1,2.56-.89,10.72,10.72,0,0,1,2.52-.31,12.49,12.49,0,0,1,5.14,1.09,12,12,0,0,1,4.38,3.34A17.06,17.06,0,0,1,165,32a27.81,27.81,0,0,1,1.15,8.49Z" transform="translate(-3.14 -2.32)"/><path class="cls-1" d="M208.17,45.27c0,.72,0,1.46-.09,2.24s-.13,1.56-.21,2.38H180.1a16.89,16.89,0,0,0,1.36,3.66,11.65,11.65,0,0,0,2.13,3,9.86,9.86,0,0,0,2.85,2,8.31,8.31,0,0,0,3.52.73,11.41,11.41,0,0,0,4.69-1,11.11,11.11,0,0,0,3.9-2.81l5.47,7A23.24,23.24,0,0,1,197,67.34a19,19,0,0,1-7.3,1.43,15,15,0,0,1-7.3-1.85,18.9,18.9,0,0,1-5.89-5,24.47,24.47,0,0,1-3.94-7.43,29.66,29.66,0,0,1,0-18.26,24.27,24.27,0,0,1,4-7.44,19.93,19.93,0,0,1,4.68-4.28,15.41,15.41,0,0,1,7.93-2.56,15.1,15.1,0,0,1,7.52,1.72,19.34,19.34,0,0,1,6,4.82,23.31,23.31,0,0,1,4.08,7.35A28.11,28.11,0,0,1,208.17,45.27Zm-9.08-4.38a13.91,13.91,0,0,0-3.63-6.81,8.25,8.25,0,0,0-5.92-2.59,8.05,8.05,0,0,0-5.83,2.59,14,14,0,0,0-3.61,6.81Z" transform="translate(-3.14 -2.32)"/><path class="cls-1" d="M278.13,56.46a30.79,30.79,0,0,1-4.47,5.59,26.42,26.42,0,0,1-5,3.89,21.44,21.44,0,0,1-5.38,2.27,21,21,0,0,1-5.46.73,21.47,21.47,0,0,1-10.09-2.46,26.09,26.09,0,0,1-8.22-6.78,33.61,33.61,0,0,1-5.55-10.17,37.85,37.85,0,0,1-2.06-12.63,37.62,37.62,0,0,1,2-12.45,32.9,32.9,0,0,1,5.55-10.13,27.12,27.12,0,0,1,8.25-6.82A21.27,21.27,0,0,1,257.78,5,20.69,20.69,0,0,1,269.1,8.24a29,29,0,0,1,8.67,8.62l-6.33,8.25a18.34,18.34,0,0,0-6.09-6.74,14.63,14.63,0,0,0-9.06-2,11.57,11.57,0,0,0-3.42.83,17,17,0,0,0-6.79,5.15,21.85,21.85,0,0,0-3.56,6.55,24.28,24.28,0,0,0-1.3,8,24.53,24.53,0,0,0,1.3,8.05,22,22,0,0,0,3.56,6.58,16.9,16.9,0,0,0,5.81,4.75,13.42,13.42,0,0,0,12.06-.2A18.91,18.91,0,0,0,269.13,52V45.89h-10v-10h19Z" transform="translate(-3.14 -2.32)"/><path class="cls-1" d="M293.13,15.89h-9v-12h9Zm0,52h-9v-45h9Z" transform="translate(-3.14 -2.32)"/><path class="cls-1" d="M320.13,13.93a9.22,9.22,0,0,0-2.23-.82,11.6,11.6,0,0,0-2.12-.19,4.11,4.11,0,0,0-3.59,1.47q-1.06,1.47-1.06,5.35v3.15h5v10h-5v35h-9v-35h-4v-10h4V19.5c0-5.59.84-9.86,2.51-12.78s4.6-4.4,8.8-4.4a20.4,20.4,0,0,1,6.69,1.08Z" transform="translate(-3.14 -2.32)"/><path class="cls-1" d="M342.13,66.48a8.6,8.6,0,0,1-3,1.62,11.1,11.1,0,0,1-3.38.54,11.78,11.78,0,0,1-5-1,7.55,7.55,0,0,1-3.27-3,14.62,14.62,0,0,1-1.78-5.08,41.41,41.41,0,0,1-.56-7.25V32.89h-5v-5a17.1,17.1,0,0,0,6.71-6.61,30.67,30.67,0,0,0,3.52-11.39h2.77v13h9v10h-9V53.15a9.65,9.65,0,0,0,.34,2.78,4.41,4.41,0,0,0,.89,1.69,2.72,2.72,0,0,0,1.25.85,4.62,4.62,0,0,0,1.5.23,8.5,8.5,0,0,0,2.51-.46,5.86,5.86,0,0,0,2.51-1.54Z" transform="translate(-3.14 -2.32)"/><path class="cls-1" d="M356.13,15.89h-9v-12h9Zm0,52h-9v-45h9Z" transform="translate(-3.14 -2.32)"/><path class="cls-1" d="M396.13,67.89h-9V41.32a14,14,0,0,0-.56-4.2,8.94,8.94,0,0,0-1.51-3,6.07,6.07,0,0,0-2.15-1.77,5.73,5.73,0,0,0-2.51-.58,9,9,0,0,0-3.84.89,9.75,9.75,0,0,0-3.43,2.81V67.89h-9v-45h8.76l.06,3.35a10.25,10.25,0,0,1,1.95-1.87,14.13,14.13,0,0,1,2.4-1.44,13.4,13.4,0,0,1,2.56-.89,10.72,10.72,0,0,1,2.52-.31,12.49,12.49,0,0,1,5.14,1.09,12,12,0,0,1,4.38,3.34A17.06,17.06,0,0,1,395,32a27.81,27.81,0,0,1,1.15,8.49Z" transform="translate(-3.14 -2.32)"/><path class="cls-1" d="M434.13,31.89h-3.75a20.38,20.38,0,0,1,1.41,7.58,20.15,20.15,0,0,1-.89,6,18.56,18.56,0,0,1-2.56,5.25,16.24,16.24,0,0,1-4,4A13.56,13.56,0,0,1,419,56.92a6.85,6.85,0,0,0-3,1.22,2.27,2.27,0,0,0-1,1.66,2,2,0,0,0,1,1.54,6.76,6.76,0,0,0,3,.95q6.9.78,10.69,4.42a12.74,12.74,0,0,1,3.79,9.63A13.68,13.68,0,0,1,432.29,82a12.86,12.86,0,0,1-3.34,4.5,15.13,15.13,0,0,1-5.25,2.92,21.41,21.41,0,0,1-6.87,1,21.85,21.85,0,0,1-7-1,15.76,15.76,0,0,1-5.31-2.88,12.33,12.33,0,0,1-3.38-4.46,15.49,15.49,0,0,1,.95-13.69A12.51,12.51,0,0,1,409,63.63a4.51,4.51,0,0,1-2.12-1.93,4.81,4.81,0,0,1-.59-2.49,4.69,4.69,0,0,1,.83-2.41A5.19,5.19,0,0,1,409.31,55a14.62,14.62,0,0,1-3.07-2.44,18.46,18.46,0,0,1-2.63-3.48,17.44,17.44,0,0,1-1.86-4.42,19.07,19.07,0,0,1-.68-5.21,19.34,19.34,0,0,1,1.23-6.94,18.73,18.73,0,0,1,3.32-5.65,15.76,15.76,0,0,1,4.87-3.79,12.91,12.91,0,0,1,5.85-1.38,13.26,13.26,0,0,1,5.6,1.18h12.19Zm-9.22,43.45a4.21,4.21,0,0,0-2.12-3.93,10.87,10.87,0,0,0-5.48-1.23,10.56,10.56,0,0,0-5.66,1.31,4.65,4.65,0,0,0,.09,7.78,10.65,10.65,0,0,0,5.57,1.31,10.5,10.5,0,0,0,5.54-1.27A4.34,4.34,0,0,0,424.91,75.34Zm-1.62-36a9.56,9.56,0,0,0-.51-3.16,8.84,8.84,0,0,0-1.37-2.58,6.79,6.79,0,0,0-2-1.77,5,5,0,0,0-2.47-.65,4.84,4.84,0,0,0-2.44.65,6.81,6.81,0,0,0-2,1.77,8.84,8.84,0,0,0-1.37,2.58,9.56,9.56,0,0,0-.51,3.16,9.89,9.89,0,0,0,.51,3.2,8.58,8.58,0,0,0,1.37,2.62,6.67,6.67,0,0,0,2,1.77,4.76,4.76,0,0,0,2.44.66,4.92,4.92,0,0,0,2.47-.66,6.66,6.66,0,0,0,2-1.77,8.58,8.58,0,0,0,1.37-2.62A9.89,9.89,0,0,0,423.29,39.36Z" transform="translate(-3.14 -2.32)"/></svg>