<?xml version="1.0" encoding="utf-8"?>
<!-- Generator: Adobe Illustrator 24.2.0, SVG Export Plug-In . SVG Version: 6.00 Build 0)  -->
<svg version="1.1" xmlns="http://www.w3.org/2000/svg" xmlns:xlink="http://www.w3.org/1999/xlink" x="0px" y="0px"
	 viewBox="0 0 1000 1000" style="enable-background:new 0 0 1000 1000;" xml:space="preserve">
<style type="text/css">
	.st0{fill:#487BA6;}
	.st1{fill:#2AFFE4;}
	.st2{opacity:0.2;}
	.st3{fill:#1607A4;}
	.st4{fill:#EF0381;}
	.st5{fill:#F7941D;}
</style>
<g id="OG">
	<g>
		<g>
			<path class="st0" d="M461.45,356H336.55c-43.38,0-78.55,35.55-78.55,79.39v223.22c0,43.84,35.18,79.39,78.55,79.39h124.89
				c43.38,0,78.55-35.55,78.55-79.39V435.39C540,391.55,504.82,356,461.45,356z M513.28,641.38c0,36.59-29.35,66.25-65.55,66.25
				h-97.46c-36.2,0-65.55-29.66-65.55-66.25V451.62c0-36.59,29.35-66.25,65.55-66.25h97.46c36.2,0,65.55,29.66,65.55,66.25V641.38z"
				/>
		</g>
	</g>
	<path class="st1" d="M498.13,737.51c4.3-0.48,8.49-1.33,12.54-2.53c-4.08,1.72-8.63,2.84-13.67,3.02
		C497,738,497.4,737.83,498.13,737.51z"/>
	<path class="st1" d="M538,707c0,0-0.01,0.02-0.03,0.06h-0.1C537.96,707.02,538,707,538,707z"/>
	<g>
		<g>
			<g>
				<g>
					<path class="st0" d="M725.12,576v162h22.34c5.27,0,9.54-4.27,9.54-9.54V581.48c0-3.02-2.45-5.48-5.48-5.48H725.12z"/>
					<path class="st0" d="M623.31,592L623.31,592c0,8.84,7.16,16,16,16h87.87v-32h-87.87C630.48,576,623.31,583.16,623.31,592z"/>
				</g>
				<path class="st0" d="M757,361.48V385H560.79c0,0-2.34,0-10.06,0c-11.6-14.91-28.23-25.27-47.15-28.17
					c-3.55-0.55-7.18-0.83-10.87-0.83h259.11C754.69,356,757,358.45,757,361.48z"/>
				<path class="st0" d="M560.79,385c0,0-2.34,0-10.06,0h-17.29c-0.08-0.14-0.17-0.28-0.27-0.42
					C520.16,363.89,492.71,356,492.71,356h43.86L560.79,385z"/>
				<path class="st0" d="M741,448h-1.57c-8.84,0-16-7.16-16-16v-48H757v48C757,440.84,749.84,448,741,448z"/>
				<path class="st0" d="M739.52,707v31H493c2.84,0,5.64-0.16,8.39-0.49c4.24-0.48,8.38-1.33,12.37-2.53
					c15.37-4.56,28.7-14.08,38.23-26.75c0.32-0.41,0.62-0.82,0.92-1.23c1.01,0,1.52,0,1.52,0H739.52z"/>
				<path class="st0" d="M551.89,707l-2.47,1.23c0.32-0.41,0.63-0.82,0.93-1.23C551.37,707,551.89,707,551.89,707z"/>
				<path class="st0" d="M493,738c0,0,26-4,41-31c19,0,27.93,0,27.93,0l-5.81,31H493z"/>
			</g>
			<path class="st0" d="M540,385l-0.65-0.42C526.69,363.89,500,356,500,356h8.78c0.61,0.27,1.21,0.55,1.79,0.83
				C535.76,368.76,540,385,540,385z"/>
		</g>
	</g>
	<path class="st0" d="M490,738"/>
</g>
<g id="Blue_Star">
	<g class="st2">
		<g>
			<path class="st3" d="M158.61,607.37c6.52-0.75,40.82-4.28,75.48-0.04c0.22,0.03,0.23,0.34,0.01,0.37
				c-7.92,1.07-47.71,5.96-75.51,0.04C158.39,607.7,158.4,607.39,158.61,607.37z"/>
			<path class="st3" d="M195.91,648.14c-0.78-7.45-4.21-44.22-0.05-81.45c0.03-0.25,0.39-0.25,0.42,0
				c1.12,9.07,5.87,51.59,0.05,81.47C196.28,648.39,195.93,648.38,195.91,648.14z"/>
		</g>
	</g>
	<g>
		<g>
			<path class="st3" d="M157.11,605.87c6.52-0.75,40.82-4.28,75.48-0.04c0.22,0.03,0.23,0.34,0.01,0.37
				c-7.92,1.07-47.71,5.96-75.51,0.04C156.89,606.2,156.9,605.89,157.11,605.87z"/>
			<path class="st3" d="M194.41,646.64c-0.78-7.45-4.21-44.22-0.05-81.45c0.03-0.25,0.39-0.25,0.42,0
				c1.12,9.07,5.87,51.59,0.05,81.47C194.78,646.89,194.43,646.88,194.41,646.64z"/>
		</g>
	</g>
	<g class="st2">
		<g>
			<path d="M757.05,553.38c4.21-0.48,26.35-2.76,48.73-0.03c0.14,0.02,0.15,0.22,0.01,0.24c-5.11,0.69-30.8,3.85-48.75,0.03
				C756.91,553.59,756.92,553.4,757.05,553.38z"/>
			<path d="M781.13,579.7c-0.51-4.81-2.72-28.55-0.03-52.58c0.02-0.16,0.25-0.16,0.27,0c0.73,5.85,3.79,33.31,0.03,52.6
				C781.37,579.87,781.15,579.86,781.13,579.7z"/>
		</g>
	</g>
	<g>
		<g>
			<path class="st3" d="M756.05,552.38c4.21-0.48,26.35-2.76,48.73-0.03c0.14,0.02,0.15,0.22,0.01,0.24
				c-5.11,0.69-30.8,3.85-48.75,0.03C755.91,552.59,755.92,552.4,756.05,552.38z"/>
			<path class="st3" d="M780.13,578.7c-0.51-4.81-2.72-28.55-0.03-52.58c0.02-0.16,0.25-0.16,0.27,0c0.73,5.85,3.79,33.31,0.03,52.6
				C780.37,578.87,780.15,578.86,780.13,578.7z"/>
		</g>
	</g>
</g>
<g id="Blue_Dots">
	<circle class="st2" cx="504" cy="298" r="6"/>
	<circle class="st3" cx="503" cy="297" r="6"/>
	<circle class="st2" cx="782" cy="718" r="6"/>
	<circle class="st3" cx="781" cy="717" r="6"/>
</g>
<g id="Purple_Star">
	<g class="st2">
		<g>
			<path d="M775.43,668.73c6.52-0.74,40.77-4.21,75.4-0.04c0.22,0.03,0.23,0.34,0.01,0.37c-7.91,1.05-47.66,5.86-75.43,0.04
				C775.21,669.05,775.22,668.75,775.43,668.73z"/>
			<path d="M812.69,708.81c-0.78-7.32-4.21-43.48-0.05-80.09c0.03-0.24,0.39-0.25,0.42,0c1.12,8.92,5.86,50.73,0.05,80.11
				C813.06,709.07,812.72,709.05,812.69,708.81z"/>
		</g>
	</g>
	<g>
		<g>
			<path class="st4" d="M774.43,667.73c6.52-0.74,40.77-4.21,75.4-0.04c0.22,0.03,0.23,0.34,0.01,0.37
				c-7.91,1.05-47.66,5.86-75.43,0.04C774.21,668.05,774.22,667.75,774.43,667.73z"/>
			<path class="st4" d="M811.69,707.81c-0.78-7.32-4.21-43.48-0.05-80.09c0.03-0.24,0.39-0.25,0.42,0
				c1.12,8.92,5.86,50.73,0.05,80.11C812.06,708.07,811.72,708.05,811.69,707.81z"/>
		</g>
	</g>
	<g class="st2">
		<g>
			<path d="M743.43,332.73c6.52-0.74,40.77-4.21,75.4-0.04c0.22,0.03,0.23,0.34,0.01,0.37c-7.91,1.05-47.66,5.86-75.43,0.04
				C743.21,333.05,743.22,332.75,743.43,332.73z"/>
			<path d="M780.69,372.81c-0.78-7.32-4.21-43.48-0.05-80.09c0.03-0.24,0.39-0.25,0.42,0c1.12,8.92,5.86,50.73,0.05,80.11
				C781.06,373.07,780.72,373.05,780.69,372.81z"/>
		</g>
	</g>
	<g>
		<g>
			<path class="st4" d="M742.43,331.73c6.52-0.74,40.77-4.21,75.4-0.04c0.22,0.03,0.23,0.34,0.01,0.37
				c-7.91,1.05-47.66,5.86-75.43,0.04C742.21,332.05,742.22,331.75,742.43,331.73z"/>
			<path class="st4" d="M779.69,371.81c-0.78-7.32-4.21-43.48-0.05-80.09c0.03-0.24,0.39-0.25,0.42,0
				c1.12,8.92,5.86,50.73,0.05,80.11C780.06,372.07,779.72,372.05,779.69,371.81z"/>
		</g>
	</g>
</g>
<g id="Purple_Dots">
	<circle class="st2" cx="497.5" cy="331.5" r="5.5"/>
	<circle class="st4" cx="496.5" cy="330.5" r="5.5"/>
	<circle class="st2" cx="236.5" cy="647.5" r="5.5"/>
	<circle class="st4" cx="235.5" cy="646.5" r="5.5"/>
</g>
<g id="Yellow_Star">
	<g class="st2">
		<g>
			<path d="M697.88,306.26c3.8-0.43,23.8-2.46,44.02-0.03c0.13,0.02,0.13,0.2,0.01,0.21c-4.62,0.62-27.83,3.42-44.04,0.02
				C697.75,306.45,697.76,306.27,697.88,306.26z"/>
			<path d="M719.63,329.67c-0.46-4.28-2.46-25.39-0.03-46.76c0.02-0.14,0.23-0.14,0.25,0c0.66,5.21,3.42,29.62,0.03,46.77
				C719.85,329.81,719.65,329.8,719.63,329.67z"/>
		</g>
	</g>
	<g>
		<g>
			<path class="st5" d="M696.88,305.26c3.8-0.43,23.8-2.46,44.02-0.03c0.13,0.02,0.13,0.2,0.01,0.21
				c-4.62,0.62-27.83,3.42-44.04,0.02C696.75,305.45,696.76,305.27,696.88,305.26z"/>
			<path class="st5" d="M718.63,328.67c-0.46-4.28-2.46-25.39-0.03-46.76c0.02-0.14,0.23-0.14,0.25,0
				c0.66,5.21,3.42,29.62,0.03,46.77C718.85,328.81,718.65,328.8,718.63,328.67z"/>
		</g>
	</g>
	<g class="st2">
		<g>
			<path d="M197.88,692.26c3.8-0.43,23.8-2.46,44.02-0.03c0.13,0.02,0.13,0.2,0.01,0.21c-4.62,0.62-27.83,3.42-44.04,0.02
				C197.75,692.45,197.76,692.27,197.88,692.26z"/>
			<path d="M219.63,715.67c-0.46-4.28-2.46-25.39-0.03-46.76c0.02-0.14,0.23-0.14,0.25,0c0.66,5.21,3.42,29.62,0.03,46.77
				C219.85,715.81,219.65,715.8,219.63,715.67z"/>
		</g>
	</g>
	<g>
		<g>
			<path class="st5" d="M196.88,691.26c3.8-0.43,23.8-2.46,44.02-0.03c0.13,0.02,0.13,0.2,0.01,0.21
				c-4.62,0.62-27.83,3.42-44.04,0.02C196.75,691.45,196.76,691.27,196.88,691.26z"/>
			<path class="st5" d="M218.63,714.67c-0.46-4.28-2.46-25.39-0.03-46.76c0.02-0.14,0.23-0.14,0.25,0
				c0.66,5.21,3.42,29.62,0.03,46.77C218.85,714.81,218.65,714.8,218.63,714.67z"/>
		</g>
	</g>
</g>
<g id="Yellow_Dots_1_">
	<circle class="st2" cx="458" cy="297" r="13"/>
	<circle class="st5" cx="457" cy="296" r="13"/>
	<circle class="st2" cx="221.5" cy="560.5" r="7.5"/>
	<circle class="st5" cx="220.5" cy="559.5" r="7.5"/>
	<circle class="st2" cx="822.5" cy="589.5" r="7.5"/>
	<circle class="st5" cx="821.5" cy="588.5" r="7.5"/>
</g>
<g id="Layer_9">
	<g class="st2">
		<g>
			<path d="M261.7,396.85c0,0-6.36,7.87-19.47,16.69c-8.56,6.74-28.09,20.39-35.51,49.76c17.79-6.65,30.31-11.59,30.31-11.59
				l17.67,40.62c0,0,3.4-34.22,8.99-47.36c5.58-13.14,6.54-15.9,10.92-20.38c4.39-4.48,10.71-8.66,13.79-29.58
				c-0.98-3.06-6.17-19.17-6.17-19.17s-23.89-11.33-60.47-8.75c-12.65-0.22-39.59-1.98-43.35-12.73c-0.25-2.68-2.97-7.32,16.06-8.23
				s42.23-4.08,86.51,25.83l-1.88-5.84c0,0-44.42-34.16-88.15-28.06c-43.73,6.1-16.53,36.3-13.55,42.7
				c2.98,6.4,3.51,8.99,1.84,18.11s4.85,21.75,15.49,19.55c10.64-2.2,12.03-2.64,30.57-9.84
				C243.84,401.37,259.01,398.02,261.7,396.85z"/>
			<path d="M351.58,368.27c0,0,9.76,2.69,25.55,2.2c10.89,0.48,34.71,0.18,57.87,19.71c-18.33,4.98-31.38,8.26-31.38,8.26l9.34,43.3
				c0,0-22.72-25.81-34.92-33.23s-14.58-9.11-20.76-10.19c-6.17-1.08-13.75-0.79-28.45-15.99c-0.98-3.06-6.17-19.17-6.17-19.17
				s12.8-23.13,44.02-42.38c10.14-7.56,31-24.7,27.79-35.62c-1.36-2.32-1.86-7.68-17.85,2.68c-15.99,10.36-36.69,21.31-55.21,71.44
				l-1.88-5.84c0,0,16.16-53.66,55.24-74.21s34.6,19.84,35.91,26.78c1.31,6.94,2.4,9.35,9.07,15.79c6.67,6.44,8.74,20.49-1.18,24.91
				c-9.92,4.42-11.31,4.87-30.57,9.84C368.73,361.52,354.45,367.65,351.58,368.27z"/>
			<path d="M304.99,388.48l6.76-2.17c8.57-2.76,13.28-11.94,10.53-20.51l-2.08-6.48c-2.76-8.57-11.94-13.28-20.51-10.53l-6.76,2.17
				c-8.57,2.76-13.28,11.94-10.53,20.51l2.08,6.48C287.23,386.53,296.41,391.24,304.99,388.48z"/>
		</g>
	</g>
	<g>
		<g>
			<path class="st4" d="M259.7,391.85c0,0-6.36,7.87-19.47,16.69c-8.56,6.74-28.09,20.39-35.51,49.76
				c17.79-6.65,30.31-11.59,30.31-11.59l17.67,40.62c0,0,3.4-34.22,8.99-47.36c5.58-13.14,6.54-15.9,10.92-20.38
				c4.39-4.48,10.71-8.66,13.79-29.58c-0.98-3.06-6.17-19.17-6.17-19.17s-23.89-11.33-60.47-8.75
				c-12.65-0.22-39.59-1.98-43.35-12.73c-0.25-2.68-2.97-7.32,16.06-8.23s42.23-4.08,86.51,25.83l-1.88-5.84
				c0,0-44.42-34.16-88.15-28.06c-43.73,6.1-16.53,36.3-13.55,42.7c2.98,6.4,3.51,8.99,1.84,18.11s4.85,21.75,15.49,19.55
				c10.64-2.2,12.03-2.64,30.57-9.84C241.84,396.37,257.01,393.02,259.7,391.85z"/>
			<path class="st4" d="M349.58,363.27c0,0,9.76,2.69,25.55,2.2c10.89,0.48,34.71,0.18,57.87,19.71
				c-18.33,4.98-31.38,8.26-31.38,8.26l9.34,43.3c0,0-22.72-25.81-34.92-33.23s-14.58-9.11-20.76-10.19
				c-6.17-1.08-13.75-0.79-28.45-15.99c-0.98-3.06-6.17-19.17-6.17-19.17s12.8-23.13,44.02-42.38c10.14-7.56,31-24.7,27.79-35.62
				c-1.36-2.32-1.86-7.68-17.85,2.68c-15.99,10.36-36.69,21.31-55.21,71.44l-1.88-5.84c0,0,16.16-53.66,55.24-74.21
				s34.6,19.84,35.91,26.78c1.31,6.94,2.4,9.35,9.07,15.79c6.67,6.44,8.74,20.49-1.18,24.91c-9.92,4.42-11.31,4.87-30.57,9.84
				C366.73,356.52,352.45,362.65,349.58,363.27z"/>
			<path class="st4" d="M302.99,383.48l6.76-2.17c8.57-2.76,13.28-11.94,10.53-20.51l-2.08-6.48c-2.76-8.57-11.94-13.28-20.51-10.53
				l-6.76,2.17c-8.57,2.76-13.28,11.94-10.53,20.51l2.08,6.48C285.23,381.53,294.41,386.24,302.99,383.48z"/>
		</g>
	</g>
</g>
</svg>
