<svg id="Layer_9" data-name="Layer 9" xmlns="http://www.w3.org/2000/svg" viewBox="0 0 694.06 469.54"><defs><style>.cls-1{fill:#369;}.cls-2{fill:#2affe4;}.cls-3{fill:#487ba6;}.cls-4,.cls-7{opacity:0.2;}.cls-5{fill:#1607a4;}.cls-6{fill:#339;}.cls-8{fill:#f39;}.cls-9{fill:#f93;}</style></defs><path class="cls-1" d="M311,97.5H186.08c-43.38,0-78.55,35.55-78.55,79.39V400.11c0,43.84,35.17,79.39,78.55,79.39H311c43.38,0,78.56-35.55,78.56-79.39V176.89C389.53,133.05,354.35,97.5,311,97.5Zm51.84,285.38c0,36.59-29.35,66.25-65.55,66.25H199.8c-36.21,0-65.56-29.66-65.56-66.25V193.12c0-36.59,29.35-66.25,65.56-66.25h97.46c36.2,0,65.55,29.66,65.55,66.25Z" transform="translate(-6.47 -9.96)"/><path class="cls-2" d="M347.66,479a72.37,72.37,0,0,0,12.54-2.53,38.47,38.47,0,0,1-13.67,3Z" transform="translate(-6.47 -9.96)"/><path class="cls-2" d="M387.53,448.5l0,.06h-.1Z" transform="translate(-6.47 -9.96)"/><path class="cls-1" d="M574.65,317.5v162H597a9.54,9.54,0,0,0,9.54-9.54V323a5.48,5.48,0,0,0-5.48-5.48Z" transform="translate(-6.47 -9.96)"/><path class="cls-1" d="M472.84,333.5h0a16,16,0,0,0,16,16h87.87v-32H488.84A16,16,0,0,0,472.84,333.5Z" transform="translate(-6.47 -9.96)"/><path class="cls-1" d="M606.53,103V126.5H400.26a74.13,74.13,0,0,0-47.15-28.17,71,71,0,0,0-10.87-.83h259.1A5.34,5.34,0,0,1,606.53,103Z" transform="translate(-6.47 -9.96)"/><path class="cls-1" d="M410.32,126.5H383a4.94,4.94,0,0,0-.27-.42c-13-20.69-40.46-28.58-40.46-28.58H386.1Z" transform="translate(-6.47 -9.96)"/><path class="cls-1" d="M590.53,189.5H589a16,16,0,0,1-16-16v-48h33.57v48A16,16,0,0,1,590.53,189.5Z" transform="translate(-6.47 -9.96)"/><path class="cls-1" d="M589.05,448.5v31H342.53a73.39,73.39,0,0,0,20.76-3,74.49,74.49,0,0,0,38.23-26.75l.92-1.23H589.05Z" transform="translate(-6.47 -9.96)"/><path class="cls-1" d="M401.42,448.5,399,449.73q.48-.62.93-1.23Z" transform="translate(-6.47 -9.96)"/><path class="cls-1" d="M342.53,479.5s26-4,41-31h27.93l-5.81,31Z" transform="translate(-6.47 -9.96)"/><path class="cls-1" d="M389.53,126.5l-.65-.42c-12.66-20.69-39.35-28.58-39.35-28.58h8.78c.61.27,1.21.55,1.79.83C385.29,110.26,389.53,126.5,389.53,126.5Z" transform="translate(-6.47 -9.96)"/><path class="cls-3" d="M339.53,479.5" transform="translate(-6.47 -9.96)"/><g class="cls-4"><path class="cls-5" d="M8.14,348.87c6.52-.75,40.81-4.28,75.48-.05a.19.19,0,0,1,0,.38c-7.93,1.07-47.71,6-75.51,0A.19.19,0,0,1,8.14,348.87Z" transform="translate(-6.47 -9.96)"/><path class="cls-5" d="M45.43,389.64c-.78-7.45-4.21-44.23,0-81.45a.22.22,0,0,1,.43,0c1.12,9.07,5.86,51.59,0,81.46A.21.21,0,0,1,45.43,389.64Z" transform="translate(-6.47 -9.96)"/></g><path class="cls-6" d="M6.64,347.37c6.52-.75,40.81-4.28,75.48-.05a.19.19,0,0,1,0,.38c-7.93,1.07-47.71,6-75.51,0A.19.19,0,0,1,6.64,347.37Z" transform="translate(-6.47 -9.96)"/><path class="cls-6" d="M43.93,388.14c-.78-7.45-4.21-44.23,0-81.45a.22.22,0,0,1,.43,0c1.12,9.07,5.86,51.59,0,81.46A.21.21,0,0,1,43.93,388.14Z" transform="translate(-6.47 -9.96)"/><g class="cls-4"><path d="M606.58,294.88c4.21-.48,26.35-2.76,48.73,0a.13.13,0,0,1,0,.25c-5.11.69-30.8,3.84-48.74,0A.12.12,0,0,1,606.58,294.88Z" transform="translate(-6.47 -9.96)"/><path d="M630.66,321.2c-.51-4.81-2.72-28.55,0-52.58a.14.14,0,0,1,.28,0c.72,5.85,3.79,33.31,0,52.59A.14.14,0,0,1,630.66,321.2Z" transform="translate(-6.47 -9.96)"/></g><path class="cls-6" d="M605.58,293.88c4.21-.48,26.35-2.76,48.73,0a.13.13,0,0,1,0,.25c-5.11.69-30.8,3.84-48.74,0A.12.12,0,0,1,605.58,293.88Z" transform="translate(-6.47 -9.96)"/><path class="cls-6" d="M629.66,320.2c-.51-4.81-2.72-28.55,0-52.58a.14.14,0,0,1,.28,0c.72,5.85,3.79,33.31,0,52.59A.14.14,0,0,1,629.66,320.2Z" transform="translate(-6.47 -9.96)"/><circle class="cls-7" cx="347.06" cy="29.54" r="6"/><circle class="cls-5" cx="346.06" cy="28.54" r="6"/><circle class="cls-7" cx="625.06" cy="449.54" r="6"/><circle class="cls-6" cx="624.06" cy="448.54" r="6"/><g class="cls-4"><path d="M625,410.23c6.51-.74,40.77-4.21,75.4-.05a.19.19,0,0,1,0,.37c-7.91,1.05-47.66,5.86-75.43,0A.18.18,0,0,1,625,410.23Z" transform="translate(-6.47 -9.96)"/><path d="M662.22,450.31c-.78-7.32-4.21-43.48-.05-80.08a.21.21,0,0,1,.42,0c1.12,8.92,5.86,50.74,0,80.11A.21.21,0,0,1,662.22,450.31Z" transform="translate(-6.47 -9.96)"/></g><path class="cls-8" d="M624,409.23c6.51-.74,40.77-4.21,75.4-.05a.19.19,0,0,1,0,.37c-7.91,1.05-47.66,5.86-75.43,0A.18.18,0,0,1,624,409.23Z" transform="translate(-6.47 -9.96)"/><path class="cls-8" d="M661.22,449.31c-.78-7.32-4.21-43.48-.05-80.08a.21.21,0,0,1,.42,0c1.12,8.92,5.86,50.74,0,80.11A.21.21,0,0,1,661.22,449.31Z" transform="translate(-6.47 -9.96)"/><g class="cls-4"><path d="M593,74.23c6.51-.74,40.77-4.21,75.4,0a.19.19,0,0,1,0,.37c-7.91,1-47.66,5.86-75.43,0A.18.18,0,0,1,593,74.23Z" transform="translate(-6.47 -9.96)"/><path d="M630.22,114.31c-.78-7.32-4.21-43.48-.05-80.08a.21.21,0,0,1,.42,0c1.12,8.92,5.86,50.74,0,80.11A.21.21,0,0,1,630.22,114.31Z" transform="translate(-6.47 -9.96)"/></g><path class="cls-8" d="M592,73.23c6.51-.74,40.77-4.21,75.4,0a.19.19,0,0,1,0,.37c-7.91,1-47.66,5.86-75.43,0A.18.18,0,0,1,592,73.23Z" transform="translate(-6.47 -9.96)"/><path class="cls-8" d="M629.22,113.31c-.78-7.32-4.21-43.48-.05-80.08a.21.21,0,0,1,.42,0c1.12,8.92,5.86,50.74,0,80.11A.21.21,0,0,1,629.22,113.31Z" transform="translate(-6.47 -9.96)"/><circle class="cls-7" cx="340.56" cy="63.04" r="5.5"/><circle class="cls-8" cx="339.56" cy="62.04" r="5.5"/><circle class="cls-7" cx="79.56" cy="379.04" r="5.5"/><circle class="cls-8" cx="78.56" cy="378.04" r="5.5"/><g class="cls-4"><path d="M547.41,47.76c3.8-.43,23.8-2.45,44,0a.11.11,0,0,1,0,.21c-4.62.62-27.83,3.42-44,0A.11.11,0,0,1,547.41,47.76Z" transform="translate(-6.47 -9.96)"/><path d="M569.16,71.17c-.46-4.28-2.46-25.39,0-46.76a.13.13,0,0,1,.25,0c.65,5.2,3.42,29.62,0,46.77A.13.13,0,0,1,569.16,71.17Z" transform="translate(-6.47 -9.96)"/></g><path class="cls-9" d="M546.41,46.76c3.8-.43,23.8-2.45,44,0a.11.11,0,0,1,0,.21c-4.62.62-27.83,3.42-44,0A.11.11,0,0,1,546.41,46.76Z" transform="translate(-6.47 -9.96)"/><path class="cls-9" d="M568.16,70.17c-.46-4.28-2.46-25.39,0-46.76a.13.13,0,0,1,.25,0c.65,5.2,3.42,29.62,0,46.77A.13.13,0,0,1,568.16,70.17Z" transform="translate(-6.47 -9.96)"/><g class="cls-4"><path d="M47.41,433.76c3.8-.43,23.8-2.45,44,0a.11.11,0,0,1,0,.21c-4.62.62-27.83,3.42-44,0A.11.11,0,0,1,47.41,433.76Z" transform="translate(-6.47 -9.96)"/><path d="M69.16,457.17c-.46-4.28-2.46-25.39,0-46.76a.13.13,0,0,1,.25,0c.65,5.2,3.42,29.62,0,46.77A.13.13,0,0,1,69.16,457.17Z" transform="translate(-6.47 -9.96)"/></g><path class="cls-9" d="M46.41,432.76c3.8-.43,23.8-2.45,44,0a.11.11,0,0,1,0,.21c-4.62.62-27.83,3.42-44,0A.11.11,0,0,1,46.41,432.76Z" transform="translate(-6.47 -9.96)"/><path class="cls-9" d="M68.16,456.17c-.46-4.28-2.46-25.39,0-46.76a.13.13,0,0,1,.25,0c.65,5.2,3.42,29.62,0,46.77A.13.13,0,0,1,68.16,456.17Z" transform="translate(-6.47 -9.96)"/><circle class="cls-7" cx="301.06" cy="28.54" r="13"/><circle class="cls-9" cx="300.06" cy="27.54" r="13"/><circle class="cls-7" cx="64.56" cy="292.04" r="7.5"/><circle class="cls-9" cx="63.56" cy="291.04" r="7.5"/><circle class="cls-7" cx="665.56" cy="321.04" r="7.5"/><circle class="cls-9" cx="664.56" cy="320.04" r="7.5"/><g class="cls-4"><path d="M111.23,138.35s-6.36,7.87-19.47,16.69c-8.56,6.74-28.09,20.39-35.51,49.76,17.8-6.65,30.31-11.6,30.31-11.6l17.68,40.63s3.4-34.22,9-47.36,6.54-15.91,10.92-20.39,10.71-8.66,13.79-29.58l-6.17-19.18S107.87,106,71.29,108.57c-12.65-.22-39.59-2-43.35-12.73-.25-2.68-3-7.32,16.05-8.23s42.24-4.09,86.52,25.82l-1.88-5.83S84.21,73.44,40.48,79.54s-16.54,36.29-13.56,42.69,3.51,9,1.85,18.12,4.85,21.75,15.49,19.55,12-2.65,30.57-9.84S108.54,139.52,111.23,138.35Z" transform="translate(-6.47 -9.96)"/><path d="M201.11,109.77s9.76,2.69,25.55,2.2c10.89.49,34.71.18,57.87,19.72-18.33,5-31.39,8.26-31.39,8.26l9.34,43.3S239.76,157.44,227.56,150,213,140.91,206.8,139.83s-13.75-.79-28.45-16l-6.17-19.17s12.79-23.13,44-42.38c10.14-7.56,31-24.7,27.79-35.63-1.36-2.32-1.86-7.68-17.84,2.68s-36.69,21.32-55.22,71.44l-1.87-5.84s16.16-53.65,55.24-74.2,34.6,19.84,35.91,26.77,2.4,9.35,9.07,15.79,8.74,20.5-1.18,24.92-11.32,4.87-30.57,9.83S204,109.15,201.11,109.77Z" transform="translate(-6.47 -9.96)"/><rect x="132" y="90.43" width="39.7" height="39.41" rx="16.3" transform="translate(-32.91 41.85) rotate(-17.84)"/></g><path class="cls-8" d="M109.23,133.35s-6.36,7.87-19.47,16.69c-8.56,6.74-28.09,20.39-35.51,49.76,17.8-6.65,30.31-11.6,30.31-11.6l17.68,40.63s3.4-34.22,9-47.36,6.54-15.91,10.92-20.39,10.71-8.66,13.79-29.58l-6.17-19.18S105.87,101,69.29,103.57c-12.65-.22-39.59-2-43.35-12.73-.25-2.68-3-7.32,16.05-8.23s42.24-4.09,86.52,25.82l-1.88-5.83S82.21,68.44,38.48,74.54s-16.54,36.29-13.56,42.69,3.51,9,1.85,18.12,4.85,21.75,15.49,19.55,12-2.65,30.57-9.84S106.54,134.52,109.23,133.35Z" transform="translate(-6.47 -9.96)"/><path class="cls-8" d="M199.11,104.77s9.76,2.69,25.55,2.2c10.89.49,34.71.18,57.87,19.72-18.33,5-31.39,8.26-31.39,8.26l9.34,43.3S237.76,152.44,225.56,145,211,135.91,204.8,134.83s-13.75-.79-28.45-16l-6.17-19.17s12.79-23.13,44-42.38c10.14-7.56,31-24.7,27.79-35.63-1.36-2.32-1.86-7.68-17.84,2.68s-36.69,21.32-55.22,71.44l-1.87-5.84s16.16-53.65,55.24-74.2,34.6,19.84,35.91,26.77,2.4,9.35,9.07,15.79,8.74,20.5-1.18,24.92-11.32,4.87-30.57,9.83S202,104.15,199.11,104.77Z" transform="translate(-6.47 -9.96)"/><rect class="cls-8" x="130" y="85.43" width="39.7" height="39.41" rx="16.3" transform="translate(-31.47 41) rotate(-17.84)"/></svg>