<svg id="Layer_9" data-name="Layer 9" xmlns="http://www.w3.org/2000/svg" viewBox="0 0 694.06 469.54"><defs><style>.cls-1{fill:#487ba6;}.cls-2{fill:#2affe4;}.cls-3,.cls-5{opacity:0.2;}.cls-4{fill:#1607a4;}.cls-6{fill:#ef0381;}.cls-7{fill:#f7941d;}</style></defs><path class="cls-1" d="M311,103H186.08c-43.38,0-78.55,35.55-78.55,79.39V405.61c0,43.84,35.17,79.39,78.55,79.39H311c43.38,0,78.56-35.55,78.56-79.39V182.39C389.53,138.55,354.35,103,311,103Zm51.84,285.38c0,36.59-29.35,66.25-65.55,66.25H199.8c-36.21,0-65.56-29.66-65.56-66.25V198.62c0-36.59,29.35-66.25,65.56-66.25h97.46c36.2,0,65.55,29.66,65.55,66.25Z" transform="translate(-6.47 -15.46)"/><path class="cls-2" d="M347.66,484.51A72.37,72.37,0,0,0,360.2,482a38.47,38.47,0,0,1-13.67,3Z" transform="translate(-6.47 -15.46)"/><path class="cls-2" d="M387.53,454l0,.06h-.1Z" transform="translate(-6.47 -15.46)"/><path class="cls-1" d="M574.65,323V485H597a9.54,9.54,0,0,0,9.54-9.54v-147a5.48,5.48,0,0,0-5.48-5.48Z" transform="translate(-6.47 -15.46)"/><path class="cls-1" d="M472.84,339h0a16,16,0,0,0,16,16h87.87V323H488.84A16,16,0,0,0,472.84,339Z" transform="translate(-6.47 -15.46)"/><path class="cls-1" d="M606.53,108.48V132H400.26a74.13,74.13,0,0,0-47.15-28.17,71,71,0,0,0-10.87-.83h259.1A5.34,5.34,0,0,1,606.53,108.48Z" transform="translate(-6.47 -15.46)"/><path class="cls-1" d="M410.32,132H383a4.94,4.94,0,0,0-.27-.42c-13-20.69-40.46-28.58-40.46-28.58H386.1Z" transform="translate(-6.47 -15.46)"/><path class="cls-1" d="M590.53,195H589a16,16,0,0,1-16-16V131h33.57v48A16,16,0,0,1,590.53,195Z" transform="translate(-6.47 -15.46)"/><path class="cls-1" d="M589.05,454v31H342.53a73.39,73.39,0,0,0,20.76-3,74.49,74.49,0,0,0,38.23-26.75l.92-1.23H589.05Z" transform="translate(-6.47 -15.46)"/><path class="cls-1" d="M401.42,454,399,455.23q.48-.62.93-1.23Z" transform="translate(-6.47 -15.46)"/><path class="cls-1" d="M342.53,485s26-4,41-31h27.93l-5.81,31Z" transform="translate(-6.47 -15.46)"/><path class="cls-1" d="M389.53,132l-.65-.42C376.22,110.89,349.53,103,349.53,103h8.78c.61.27,1.21.55,1.79.83C385.29,115.76,389.53,132,389.53,132Z" transform="translate(-6.47 -15.46)"/><path class="cls-1" d="M339.53,485" transform="translate(-6.47 -15.46)"/><g class="cls-3"><path class="cls-4" d="M8.14,354.37c6.52-.75,40.81-4.28,75.48-.05a.19.19,0,0,1,0,.38c-7.93,1.07-47.71,6-75.51,0A.19.19,0,0,1,8.14,354.37Z" transform="translate(-6.47 -15.46)"/><path class="cls-4" d="M45.43,395.14c-.78-7.45-4.21-44.23,0-81.45a.22.22,0,0,1,.43,0c1.12,9.07,5.86,51.59,0,81.46A.21.21,0,0,1,45.43,395.14Z" transform="translate(-6.47 -15.46)"/></g><path class="cls-4" d="M6.64,352.87c6.52-.75,40.81-4.28,75.48-.05a.19.19,0,0,1,0,.38c-7.93,1.07-47.71,6-75.51,0A.19.19,0,0,1,6.64,352.87Z" transform="translate(-6.47 -15.46)"/><path class="cls-4" d="M43.93,393.64c-.78-7.45-4.21-44.23,0-81.45a.22.22,0,0,1,.43,0c1.12,9.07,5.86,51.59,0,81.46A.21.21,0,0,1,43.93,393.64Z" transform="translate(-6.47 -15.46)"/><g class="cls-3"><path d="M606.58,300.38c4.21-.48,26.35-2.76,48.73,0a.13.13,0,0,1,0,.25c-5.11.69-30.8,3.84-48.74,0A.12.12,0,0,1,606.58,300.38Z" transform="translate(-6.47 -15.46)"/><path d="M630.66,326.7c-.51-4.81-2.72-28.55,0-52.58a.14.14,0,0,1,.28,0c.72,5.85,3.79,33.31,0,52.59A.14.14,0,0,1,630.66,326.7Z" transform="translate(-6.47 -15.46)"/></g><path class="cls-4" d="M605.58,299.38c4.21-.48,26.35-2.76,48.73,0a.13.13,0,0,1,0,.25c-5.11.69-30.8,3.84-48.74,0A.12.12,0,0,1,605.58,299.38Z" transform="translate(-6.47 -15.46)"/><path class="cls-4" d="M629.66,325.7c-.51-4.81-2.72-28.55,0-52.58a.14.14,0,0,1,.28,0c.72,5.85,3.79,33.31,0,52.59A.14.14,0,0,1,629.66,325.7Z" transform="translate(-6.47 -15.46)"/><circle class="cls-5" cx="347.06" cy="29.54" r="6"/><circle class="cls-4" cx="346.06" cy="28.54" r="6"/><circle class="cls-5" cx="625.06" cy="449.54" r="6"/><circle class="cls-4" cx="624.06" cy="448.54" r="6"/><g class="cls-3"><path d="M625,415.73c6.51-.74,40.77-4.21,75.4-.05a.19.19,0,0,1,0,.37c-7.91,1.05-47.66,5.86-75.43,0A.18.18,0,0,1,625,415.73Z" transform="translate(-6.47 -15.46)"/><path d="M662.22,455.81c-.78-7.32-4.21-43.48-.05-80.08a.21.21,0,0,1,.42,0c1.12,8.92,5.86,50.74,0,80.11A.21.21,0,0,1,662.22,455.81Z" transform="translate(-6.47 -15.46)"/></g><path class="cls-6" d="M624,414.73c6.51-.74,40.77-4.21,75.4-.05a.19.19,0,0,1,0,.37c-7.91,1.05-47.66,5.86-75.43,0A.18.18,0,0,1,624,414.73Z" transform="translate(-6.47 -15.46)"/><path class="cls-6" d="M661.22,454.81c-.78-7.32-4.21-43.48-.05-80.08a.21.21,0,0,1,.42,0c1.12,8.92,5.86,50.74,0,80.11A.21.21,0,0,1,661.22,454.81Z" transform="translate(-6.47 -15.46)"/><g class="cls-3"><path d="M593,79.73c6.51-.74,40.77-4.21,75.4,0a.19.19,0,0,1,0,.37c-7.91,1-47.66,5.86-75.43,0A.18.18,0,0,1,593,79.73Z" transform="translate(-6.47 -15.46)"/><path d="M630.22,119.81c-.78-7.32-4.21-43.48-.05-80.08a.21.21,0,0,1,.42,0c1.12,8.92,5.86,50.74,0,80.11A.21.21,0,0,1,630.22,119.81Z" transform="translate(-6.47 -15.46)"/></g><path class="cls-6" d="M592,78.73c6.51-.74,40.77-4.21,75.4,0a.19.19,0,0,1,0,.37c-7.91,1-47.66,5.86-75.43,0A.18.18,0,0,1,592,78.73Z" transform="translate(-6.47 -15.46)"/><path class="cls-6" d="M629.22,118.81c-.78-7.32-4.21-43.48-.05-80.08a.21.21,0,0,1,.42,0c1.12,8.92,5.86,50.74,0,80.11A.21.21,0,0,1,629.22,118.81Z" transform="translate(-6.47 -15.46)"/><circle class="cls-5" cx="340.56" cy="63.04" r="5.5"/><circle class="cls-6" cx="339.56" cy="62.04" r="5.5"/><circle class="cls-5" cx="79.56" cy="379.04" r="5.5"/><circle class="cls-6" cx="78.56" cy="378.04" r="5.5"/><g class="cls-3"><path d="M547.41,53.26c3.8-.43,23.8-2.45,44,0a.11.11,0,0,1,0,.21c-4.62.62-27.83,3.42-44,0A.11.11,0,0,1,547.41,53.26Z" transform="translate(-6.47 -15.46)"/><path d="M569.16,76.67c-.46-4.28-2.46-25.39,0-46.76a.13.13,0,0,1,.25,0c.65,5.2,3.42,29.62,0,46.77A.13.13,0,0,1,569.16,76.67Z" transform="translate(-6.47 -15.46)"/></g><path class="cls-7" d="M546.41,52.26c3.8-.43,23.8-2.45,44,0a.11.11,0,0,1,0,.21c-4.62.62-27.83,3.42-44,0A.11.11,0,0,1,546.41,52.26Z" transform="translate(-6.47 -15.46)"/><path class="cls-7" d="M568.16,75.67c-.46-4.28-2.46-25.39,0-46.76a.13.13,0,0,1,.25,0c.65,5.2,3.42,29.62,0,46.77A.13.13,0,0,1,568.16,75.67Z" transform="translate(-6.47 -15.46)"/><g class="cls-3"><path d="M47.41,439.26c3.8-.43,23.8-2.45,44,0a.11.11,0,0,1,0,.21c-4.62.62-27.83,3.42-44,0A.11.11,0,0,1,47.41,439.26Z" transform="translate(-6.47 -15.46)"/><path d="M69.16,462.67c-.46-4.28-2.46-25.39,0-46.76a.13.13,0,0,1,.25,0c.65,5.2,3.42,29.62,0,46.77A.13.13,0,0,1,69.16,462.67Z" transform="translate(-6.47 -15.46)"/></g><path class="cls-7" d="M46.41,438.26c3.8-.43,23.8-2.45,44,0a.11.11,0,0,1,0,.21c-4.62.62-27.83,3.42-44,0A.11.11,0,0,1,46.41,438.26Z" transform="translate(-6.47 -15.46)"/><path class="cls-7" d="M68.16,461.67c-.46-4.28-2.46-25.39,0-46.76a.13.13,0,0,1,.25,0c.65,5.2,3.42,29.62,0,46.77A.13.13,0,0,1,68.16,461.67Z" transform="translate(-6.47 -15.46)"/><circle class="cls-5" cx="301.06" cy="28.54" r="13"/><circle class="cls-7" cx="300.06" cy="27.54" r="13"/><circle class="cls-5" cx="64.56" cy="292.04" r="7.5"/><circle class="cls-7" cx="63.56" cy="291.04" r="7.5"/><circle class="cls-5" cx="665.56" cy="321.04" r="7.5"/><circle class="cls-7" cx="664.56" cy="320.04" r="7.5"/><g class="cls-3"><path d="M111.23,143.85s-6.36,7.87-19.47,16.69c-8.56,6.74-28.09,20.39-35.51,49.76,17.8-6.65,30.31-11.6,30.31-11.6l17.68,40.63s3.4-34.22,9-47.36,6.54-15.91,10.92-20.39,10.71-8.66,13.79-29.58l-6.17-19.18s-23.89-11.32-60.47-8.75c-12.65-.22-39.59-2-43.35-12.73C27.69,98.66,25,94,44,93.11S86.23,89,130.51,118.93l-1.88-5.83S84.21,78.94,40.48,85s-16.54,36.29-13.56,42.69,3.51,9,1.85,18.12,4.85,21.75,15.49,19.55,12-2.65,30.57-9.84S108.54,145,111.23,143.85Z" transform="translate(-6.47 -15.46)"/><path d="M201.11,115.27s9.76,2.69,25.55,2.2c10.89.49,34.71.18,57.87,19.72-18.33,5-31.39,8.26-31.39,8.26l9.34,43.3s-22.72-25.81-34.92-33.23S213,146.41,206.8,145.33s-13.75-.79-28.45-16l-6.17-19.17S185,87,216.19,67.79c10.14-7.56,31-24.7,27.79-35.63-1.36-2.32-1.86-7.68-17.84,2.68s-36.69,21.32-55.22,71.44l-1.87-5.84s16.16-53.65,55.24-74.2S258.89,46.08,260.2,53s2.4,9.35,9.07,15.79,8.74,20.5-1.18,24.92-11.32,4.87-30.57,9.83S204,114.65,201.11,115.27Z" transform="translate(-6.47 -15.46)"/><rect x="132" y="95.93" width="39.7" height="39.41" rx="16.3" transform="translate(-34.59 36.62) rotate(-17.84)"/></g><path class="cls-6" d="M109.23,138.85s-6.36,7.87-19.47,16.69c-8.56,6.74-28.09,20.39-35.51,49.76,17.8-6.65,30.31-11.6,30.31-11.6l17.68,40.63s3.4-34.22,9-47.36,6.54-15.91,10.92-20.39,10.71-8.66,13.79-29.58l-6.17-19.18s-23.89-11.32-60.47-8.75c-12.65-.22-39.59-2-43.35-12.73C25.69,93.66,23,89,42,88.11S84.23,84,128.51,113.93l-1.88-5.83S82.21,73.94,38.48,80s-16.54,36.29-13.56,42.69,3.51,9,1.85,18.12,4.85,21.75,15.49,19.55,12-2.65,30.57-9.84S106.54,140,109.23,138.85Z" transform="translate(-6.47 -15.46)"/><path class="cls-6" d="M199.11,110.27s9.76,2.69,25.55,2.2c10.89.49,34.71.18,57.87,19.72-18.33,5-31.39,8.26-31.39,8.26l9.34,43.3s-22.72-25.81-34.92-33.23S211,141.41,204.8,140.33s-13.75-.79-28.45-16l-6.17-19.17S183,82,214.19,62.79c10.14-7.56,31-24.7,27.79-35.63-1.36-2.32-1.86-7.68-17.84,2.68s-36.69,21.32-55.22,71.44l-1.87-5.84s16.16-53.65,55.24-74.2S256.89,41.08,258.2,48s2.4,9.35,9.07,15.79,8.74,20.5-1.18,24.92-11.32,4.87-30.57,9.83S202,109.65,199.11,110.27Z" transform="translate(-6.47 -15.46)"/><rect class="cls-6" x="130" y="90.93" width="39.7" height="39.41" rx="16.3" transform="translate(-33.16 35.76) rotate(-17.84)"/></svg>