<?xml version="1.0" encoding="utf-8"?>
<!-- Generator: Adobe Illustrator 24.2.0, SVG Export Plug-In . SVG Version: 6.00 Build 0)  -->
<svg version="1.1" id="e636ae63-5ff5-4023-9acb-21e485a4b92f"
	 xmlns="http://www.w3.org/2000/svg" xmlns:xlink="http://www.w3.org/1999/xlink" x="0px" y="0px" viewBox="0 0 1280 720"
	 style="enable-background:new 0 0 1280 720;" xml:space="preserve">
<style type="text/css">
	.st0{fill:#373E46;}
	.st1{opacity:0.1;enable-background:new    ;}
	.st2{fill:#EEEFF0;}
	.st3{fill:#336699;}
	.st4{fill:#975656;}
	.st5{fill:#FFFFFF;}
	.st6{opacity:5.000000e-02;enable-background:new    ;}
</style>
<g>
	<polygon class="st0" points="888.7,60.2 883.3,65.4 824.6,122 725.1,217.9 729.7,628.5 351.1,535.3 351.1,263.5 493.9,98.9 	"/>
	<polygon class="st1" points="888.7,60.2 883.3,65.4 824.6,122 725.1,217.9 729.7,628.5 351.1,535.3 351.1,263.5 493.9,98.9 	"/>
	<polygon class="st0" points="929.4,321.1 918.5,599.8 527.7,659.3 351.1,535.3 351.1,267.5 725.1,217.9 	"/>
	<polygon class="st0" points="928.9,321.1 918,599.8 527.2,659.3 350.6,535.3 350.6,267.5 724.6,217.9 	"/>
	<polygon class="st1" points="527.7,371.7 527.7,659.3 351.1,535.3 351.1,267.7 	"/>
	<polygon class="st1" points="883.3,65.4 824.6,122 541.6,153.4 491,103.8 	"/>
	<polygon class="st1" points="725.1,217.9 729,631.5 918.5,599.8 929.4,321.1 	"/>
	<polygon class="st0" points="929.4,321.1 853,314.1 669.5,223.3 725.1,217.9 	"/>
	<polygon class="st0" points="493.9,98.9 544.5,148.5 883.8,110.8 888.7,60.2 	"/>
	<path class="st2" d="M607.5,252.1c0,2.4-0.2,4.7-0.7,7c-0.9,4.2-2.7,8.1-5.2,11.5c-0.8,1.2-1.8,2.3-2.7,3.3
		c-5.1,5.4-12,8.9-19.4,9.7c-1.2,0.1-2.4,0.2-3.6,0.2c-4,0-7.9-0.8-11.6-2.2c-1.1-0.4-2.1-0.9-3.1-1.4c-7.2-3.8-12.6-10.1-15.3-17.8
		c-0.4-1.1-0.7-2.2-1-3.4c-0.2-0.9-0.4-1.8-0.5-2.7c-0.2-1.4-0.3-2.9-0.3-4.3c0-3.1,0.5-6.3,1.4-9.3c0.2-0.6,0.4-1.2,0.6-1.8
		c6.1-16.4,24.4-24.8,40.8-18.7c6.1,2.3,11.4,6.4,15.1,11.8l0,0C605.6,239.5,607.5,245.7,607.5,252.1z"/>
	<ellipse class="st3" cx="605" cy="216.4" rx="42.2" ry="58.5"/>
	<ellipse class="st1" cx="605" cy="216.4" rx="42.2" ry="58.5"/>
	<path class="st3" d="M676.9,75.6c-48.8,0-88.3,39.5-88.3,88.3c0,21.1,7.6,41.5,21.3,57.6c1.7,2,3.5,3.9,5.4,5.7
		c10,9.8,22.2,17,35.6,21.1c2.2,0.7,4.5,1.3,6.8,1.8c11.7,2.6,23.9,2.8,35.7,0.5c2.3-0.4,4.7-1,7-1.6c13.9-3.8,26.6-11,37.1-20.9
		c2-1.9,4-3.9,5.8-6.1c32.1-36.7,28.4-92.5-8.3-124.6C719,83.3,698.3,75.6,676.9,75.6z M676.9,92.4c-3.3,0-6-2.7-6-6
		c0-3.3,2.7-6,6-6s6,2.7,6,6v0C682.9,89.8,680.2,92.4,676.9,92.4z"/>
	<ellipse class="st4" cx="756.3" cy="229.3" rx="29.8" ry="45.6"/>
	<ellipse class="st1" cx="756.3" cy="229.3" rx="15.9" ry="24.3"/>
	<ellipse class="st4" cx="676.9" cy="382.1" rx="103.2" ry="114.1"/>
	<ellipse class="st1" cx="676.9" cy="382.1" rx="103.2" ry="114.1"/>
	<ellipse class="st4" cx="597.6" cy="229.3" rx="29.8" ry="45.6"/>
	<ellipse class="st1" cx="597.6" cy="229.3" rx="15.9" ry="24.3"/>
	<polygon class="st1" points="609.4,221.2 610.5,110.3 604.1,215.5 	"/>
	<path class="st1" d="M653.1,110.3l-1.2,133.8c-2.3-0.5-4.6-1.1-6.8-1.8L653.1,110.3z"/>
	<path class="st1" d="M695.8,110.3L694.6,243c-2.3,0.6-4.6,1.2-7,1.6L695.8,110.3z"/>
	<polygon class="st1" points="737.5,216 738.4,110.3 731.6,222.1 	"/>
	<path class="st1" d="M597.5,161.9h158.8c4.9,0,8.9,4,8.9,8.9v39.8c0,4.9-4,8.9-8.9,8.9H597.5c-4.9,0-8.9-4-8.9-8.9v-39.8
		C588.7,165.8,592.6,161.9,597.5,161.9z"/>
	<path class="st4" d="M758.3,245.2c-0.1,44.9-36.5,81.2-81.3,81.1c-44.9-0.1-81.2-36.5-81.1-81.3c0.1-44.9,36.5-81.2,81.3-81.1
		c36.4,0,68.3,24.3,78.1,59.3C757.3,230.4,758.3,237.8,758.3,245.2z"/>
	<path class="st1" d="M755.3,223.2c-0.6,0.1-1.3,0.2-1.9,0.2H600.6c-0.7,0-1.3-0.1-2-0.2c8.1-28.8,31.3-50.8,60.4-57.4h35.8
		C724,172.4,747.2,194.4,755.3,223.2z"/>
	<path class="st2" d="M600.6,163.9h152.8c6.6,0,11.9,5.3,11.9,11.9v33.7c0,6.6-5.3,11.9-11.9,11.9H600.6c-6.6,0-11.9-5.3-11.9-11.9
		v-33.7C588.7,169.2,594,163.9,600.6,163.9z"/>
	<polygon class="st1" points="608.2,215.4 610.5,177.7 610.1,215.4 	"/>
	<polygon class="st1" points="652.8,215.4 653.1,177.7 650.8,215.4 	"/>
	<polygon class="st1" points="695.8,177.7 695.4,215.4 693.5,215.4 	"/>
	<polygon class="st1" points="736.1,215.4 738.4,177.7 738.1,215.4 	"/>
	<circle class="st1" cx="646.2" cy="235.3" r="10.9"/>
	<circle class="st2" cx="646.2" cy="234.3" r="10.9"/>
	<circle class="st0" cx="646.2" cy="234.3" r="5"/>
	<circle class="st5" cx="647.2" cy="232.3" r="1"/>
	<circle class="st1" cx="711.7" cy="235.3" r="10.9"/>
	<circle class="st2" cx="711.7" cy="234.3" r="10.9"/>
	<circle class="st0" cx="711.7" cy="234.3" r="5"/>
	<circle class="st5" cx="709.7" cy="232.3" r="1"/>
	<circle class="st1" cx="678.9" cy="268" r="32.7"/>
	<circle class="st3" cx="678.9" cy="266" r="32.7"/>
	<polygon class="st0" points="928.9,322.6 924.4,419.5 922.6,458.6 916,599.3 525.2,659.8 525.2,371.2 	"/>
	<polygon class="st0" points="351.1,267.5 426.4,257.5 585.2,342.9 527.7,371.7 	"/>
	<polygon class="st6" points="351.1,267.5 426.4,257.5 585.2,342.9 527.7,371.7 	"/>
	<path class="st1" d="M529.1,292.5l-10-5.4c-0.8-0.4-1.9-0.3-2.6,0.4l-8.2,7.8c-0.9,0.8-2.3,0.8-3.1-0.1c-0.5-0.5-0.7-1.2-0.6-1.8
		l2-11.2c0.2-0.9-0.3-1.9-1.1-2.3l-10-5.4c-1.1-0.6-1.4-2-0.8-3c0.3-0.6,0.9-1,1.6-1.1l11.2-1.5c0.9-0.1,1.7-0.9,1.9-1.8l2-11.2
		c0.2-1.2,1.4-2,2.6-1.7c0.7,0.1,1.2,0.6,1.5,1.1l4.9,10.2c0.4,0.8,1.3,1.3,2.3,1.2l11.2-1.5c1.2-0.1,2.3,0.7,2.4,2
		c0.1,0.7-0.2,1.3-0.6,1.8l-8.2,7.8c-0.7,0.7-0.9,1.7-0.5,2.5l4.9,10.2c0.5,1.1,0,2.4-1.1,2.9C530.4,292.8,529.7,292.8,529.1,292.5z
		"/>
	<path class="st2" d="M527.6,290.4l-8.9-4.7c-0.7-0.4-1.7-0.3-2.3,0.3l-7.3,7c-0.8,0.7-2,0.7-2.7-0.1c-0.4-0.4-0.6-1.1-0.5-1.7
		l1.8-9.9c0.2-0.8-0.3-1.7-1-2.1l-8.9-4.7c-0.9-0.5-1.3-1.7-0.8-2.6c0.3-0.6,0.8-0.9,1.5-1l10-1.4c0.8-0.1,1.5-0.8,1.6-1.6l1.8-9.9
		c0.2-1.1,1.2-1.8,2.2-1.6c0.7,0.1,1.2,0.5,1.5,1.1l4.4,9c0.4,0.8,1.2,1.2,2,1.1l10-1.4c1.1-0.1,2,0.6,2.2,1.7
		c0.1,0.6-0.1,1.2-0.6,1.7l-7.3,6.9c-0.6,0.6-0.8,1.5-0.4,2.2l4.4,9.1c0.5,1,0.1,2.1-0.8,2.6C528.9,290.7,528.2,290.7,527.6,290.4z"
		/>
	<path class="st1" d="M897.1,577.2l-6.2-3.3c-0.5-0.3-1.2-0.2-1.6,0.2l-5.1,4.9c-0.5,0.5-1.4,0.5-1.9,0c-0.3-0.3-0.4-0.8-0.4-1.2
		l1.2-6.9c0.1-0.6-0.2-1.2-0.7-1.4l-6.2-3.3c-0.7-0.4-0.9-1.2-0.5-1.8c0.2-0.4,0.6-0.6,1-0.7l6.9-1c0.6-0.1,1-0.5,1.2-1.1l1.2-6.9
		c0.1-0.7,0.8-1.2,1.6-1.1c0.4,0.1,0.8,0.4,1,0.7l3,6.3c0.3,0.5,0.8,0.8,1.4,0.7l6.9-1c0.7-0.1,1.4,0.4,1.5,1.1
		c0.1,0.4-0.1,0.9-0.4,1.2l-5.1,4.9c-0.4,0.4-0.5,1-0.3,1.6l3.1,6.3c0.3,0.7,0,1.5-0.7,1.8C897.9,577.4,897.4,577.4,897.1,577.2z"/>
	<path class="st3" d="M896.2,575.9l-5.5-3c-0.5-0.2-1-0.2-1.4,0.2l-4.5,4.3c-0.5,0.5-1.2,0.4-1.7,0c-0.3-0.3-0.4-0.7-0.3-1l1.1-6.1
		c0.1-0.5-0.2-1-0.6-1.3l-5.5-2.9c-0.6-0.3-0.8-1.1-0.4-1.7c0.2-0.3,0.5-0.5,0.8-0.6l6.2-0.8c0.5-0.1,0.9-0.5,1-1l1.1-6.1
		c0.1-0.7,0.7-1.1,1.4-1c0.4,0.1,0.7,0.3,0.9,0.7l2.7,5.6c0.2,0.5,0.7,0.7,1.2,0.7l6.2-0.8c0.7-0.1,1.3,0.4,1.4,1
		c0.1,0.4-0.1,0.8-0.4,1l-4.5,4.3c-0.4,0.4-0.5,0.9-0.3,1.4l2.7,5.6c0.3,0.6,0,1.3-0.6,1.6C896.9,576.1,896.5,576.1,896.2,575.9z"/>
	<path class="st1" d="M574.7,429.4l-6.2-3.3c-0.5-0.3-1.2-0.2-1.6,0.2l-5.1,4.9c-0.5,0.5-1.4,0.5-1.9,0c-0.3-0.3-0.4-0.8-0.4-1.2
		l1.2-6.9c0.1-0.6-0.2-1.2-0.7-1.4l-6.2-3.3c-0.7-0.4-0.9-1.2-0.6-1.8c0.2-0.4,0.6-0.6,1-0.7l6.9-1c0.6-0.1,1-0.5,1.2-1.1l1.2-6.9
		c0.1-0.7,0.8-1.2,1.6-1.1c0.4,0.1,0.8,0.4,1,0.7l3.1,6.3c0.3,0.5,0.8,0.8,1.4,0.7l6.9-1c0.7-0.1,1.4,0.4,1.5,1.2
		c0.1,0.4-0.1,0.9-0.4,1.2l-5.1,4.9c-0.4,0.4-0.5,1.1-0.2,1.6l3,6.3c0.3,0.7,0,1.5-0.6,1.8C575.6,429.6,575.1,429.6,574.7,429.4z"/>
	<path class="st3" d="M573.8,428.1l-5.5-3c-0.5-0.2-1-0.2-1.4,0.2l-4.5,4.3c-0.5,0.5-1.2,0.4-1.7,0c-0.3-0.3-0.4-0.7-0.3-1l1.1-6.1
		c0.1-0.5-0.2-1-0.6-1.3l-5.5-3c-0.6-0.3-0.8-1.1-0.4-1.6c0.2-0.3,0.5-0.5,0.8-0.6l6.2-0.8c0.5-0.1,0.9-0.5,1-1l1.1-6.1
		c0.1-0.7,0.7-1.1,1.4-1c0.4,0.1,0.7,0.3,0.9,0.7l2.7,5.6c0.2,0.5,0.7,0.7,1.2,0.7l6.2-0.8c0.7-0.1,1.3,0.4,1.4,1
		c0.1,0.4-0.1,0.8-0.4,1l-4.5,4.3c-0.4,0.4-0.5,0.9-0.3,1.4l2.7,5.6c0.3,0.6,0.1,1.3-0.5,1.6C574.6,428.3,574.1,428.3,573.8,428.1z"
		/>
	<path class="st1" d="M897.1,518.6l-6.2-3.3c-0.5-0.3-1.2-0.2-1.6,0.2l-5.1,4.9c-0.5,0.5-1.4,0.5-1.9,0c-0.3-0.3-0.4-0.7-0.4-1.2
		l1.2-6.9c0.1-0.6-0.2-1.2-0.7-1.5l-6.2-3.3c-0.7-0.4-0.9-1.2-0.5-1.8c0.2-0.4,0.6-0.6,1-0.7l6.9-1c0.6-0.1,1-0.5,1.2-1.1l1.2-6.9
		c0.1-0.7,0.8-1.2,1.6-1.1c0.4,0.1,0.8,0.4,1,0.7l3,6.3c0.3,0.5,0.8,0.8,1.4,0.7l6.9-1c0.7-0.1,1.4,0.4,1.5,1.1
		c0.1,0.4-0.1,0.9-0.4,1.2l-5.1,4.9c-0.4,0.4-0.5,1-0.3,1.6l3.1,6.3c0.4,0.7,0.1,1.5-0.5,1.8C898,518.9,897.5,518.9,897.1,518.6z"/>
	<path class="st3" d="M896.2,517.4l-5.5-3c-0.5-0.2-1-0.2-1.4,0.2l-4.5,4.3c-0.5,0.5-1.2,0.4-1.7,0c-0.3-0.3-0.4-0.7-0.3-1l1.1-6.1
		c0.1-0.5-0.2-1-0.6-1.3l-5.5-3c-0.6-0.3-0.8-1.1-0.4-1.7c0.2-0.3,0.5-0.5,0.8-0.6l6.2-0.8c0.5-0.1,0.9-0.5,1-1l1.1-6.1
		c0.1-0.7,0.7-1.1,1.4-1c0.4,0.1,0.7,0.3,0.9,0.7l2.7,5.6c0.2,0.5,0.7,0.7,1.2,0.7l6.2-0.8c0.7-0.1,1.3,0.4,1.4,1
		c0.1,0.4-0.1,0.8-0.4,1l-4.5,4.3c-0.4,0.4-0.5,0.9-0.3,1.4l2.7,5.6c0.3,0.6,0.1,1.3-0.5,1.6C896.9,517.5,896.5,517.5,896.2,517.4z"
		/>
	<ellipse class="st4" cx="624.9" cy="371.7" rx="20.3" ry="33.2"/>
	<ellipse class="st4" cx="737" cy="359.7" rx="20.3" ry="33.2"/>
	<polygon class="st3" points="924.4,419.5 922.6,458.6 525.2,499.5 351.1,420.2 351.1,382.1 525.2,458.1 	"/>
	<polygon class="st1" points="525.2,458.1 525.2,499.5 351.1,420.2 351.1,382.1 	"/>
</g>
</svg>
