<svg height="100%" width="100%" id="bg-svg" viewBox="0 0 1440 700" xmlns="http://www.w3.org/2000/svg" class="transition duration-300 ease-in-out delay-150"><path d="M 0,700 C 0,700 0,233 0,233 C 91.5023923444976,205.5263157894737 183.0047846889952,178.05263157894737 278,165 C 372.9952153110048,151.94736842105263 471.48325358851685,153.31578947368422 582,178 C 692.5167464114832,202.68421052631578 815.0622009569377,250.68421052631578 902,273 C 988.9377990430623,295.3157894736842 1040.267942583732,291.94736842105266 1124,281 C 1207.732057416268,270.05263157894734 1323.8660287081339,251.52631578947367 1440,233 C 1440,233 1440,700 1440,700 Z" stroke="none" stroke-width="0" fill="#33669988" class="transition-all duration-300 ease-in-out delay-150"></path><path d="M 0,700 C 0,700 0,466 0,466 C 78.47846889952152,465.7799043062201 156.95693779904303,465.5598086124402 254,486 C 351.04306220095697,506.4401913875598 466.6507177033493,547.5406698564593 561,540 C 655.3492822966507,532.4593301435407 728.4401913875599,476.27751196172255 834,474 C 939.5598086124401,471.72248803827745 1077.5885167464114,523.3492822966507 1184,531 C 1290.4114832535886,538.6507177033493 1365.2057416267944,502.32535885167465 1440,466 C 1440,466 1440,700 1440,700 Z" stroke="none" stroke-width="0" fill="#336699ff" class="transition-all duration-300 ease-in-out delay-150"></path></svg>