<svg height="100%" width="100%" id="bg-svg" viewBox="0 0 1440 600" xmlns="http://www.w3.org/2000/svg" class="transition duration-300 ease-in-out delay-150"><defs><linearGradient id="gradient"><stop offset="5%" stop-color="#33669966"></stop><stop offset="95%" stop-color="#8ed1fc66"></stop></linearGradient></defs><path d="M 0,600 C 0,600 0,150 0,150 C 103.53846153846158,156.71794871794873 207.07692307692315,163.43589743589743 276,177 C 344.92307692307685,190.56410256410257 379.23076923076917,210.97435897435898 455,194 C 530.7692307692308,177.02564102564102 648,122.66666666666666 740,125 C 832,127.33333333333334 898.7692307692307,186.35897435897436 963,205 C 1027.2307692307693,223.64102564102564 1088.923076923077,201.8974358974359 1168,186 C 1247.076923076923,170.1025641025641 1343.5384615384614,160.05128205128204 1440,150 C 1440,150 1440,600 1440,600 Z" stroke="none" stroke-width="0" fill="url(#gradient)" class="transition-all duration-300 ease-in-out delay-150"></path><defs><linearGradient id="gradient"><stop offset="5%" stop-color="#33669988"></stop><stop offset="95%" stop-color="#8ed1fc88"></stop></linearGradient></defs><path d="M 0,600 C 0,600 0,300 0,300 C 97.37948717948717,330.71282051282054 194.75897435897434,361.4256410256411 281,351 C 367.24102564102566,340.5743589743589 442.34358974358963,289.0102564102564 522,274 C 601.6564102564104,258.9897435897436 685.8666666666667,280.5333333333333 762,300 C 838.1333333333333,319.4666666666667 906.1897435897436,336.85641025641024 987,327 C 1067.8102564102564,317.14358974358976 1161.374358974359,280.04102564102567 1239,271 C 1316.625641025641,261.95897435897433 1378.3128205128205,280.97948717948714 1440,300 C 1440,300 1440,600 1440,600 Z" stroke="none" stroke-width="0" fill="url(#gradient)" class="transition-all duration-300 ease-in-out delay-150"></path><defs><linearGradient id="gradient"><stop offset="5%" stop-color="#336699ff"></stop><stop offset="95%" stop-color="#8ed1fcff"></stop></linearGradient></defs><path d="M 0,600 C 0,600 0,450 0,450 C 79.06923076923076,428.2282051282051 158.1384615384615,406.45641025641027 244,398 C 329.8615384615385,389.54358974358973 422.5153846153846,394.4025641025641 501,412 C 579.4846153846154,429.5974358974359 643.8000000000001,459.93333333333334 707,469 C 770.1999999999999,478.06666666666666 832.2846153846152,465.8641025641026 915,473 C 997.7153846153848,480.1358974358974 1101.0615384615385,506.6102564102564 1192,506 C 1282.9384615384615,505.3897435897436 1361.4692307692308,477.6948717948718 1440,450 C 1440,450 1440,600 1440,600 Z" stroke="none" stroke-width="0" fill="url(#gradient)" class="transition-all duration-300 ease-in-out delay-150"></path></svg>